<?xml version="1.0" encoding="utf-8"?>
<!-- Generator: Adobe Illustrator 25.4.1, SVG Export Plug-In . SVG Version: 6.00 Build 0)  -->
<svg version="1.1" id="Capa_1" xmlns="http://www.w3.org/2000/svg" xmlns:xlink="http://www.w3.org/1999/xlink" x="0px" y="0px"
	 viewBox="0 0 512 512" style="enable-background:new 0 0 512 512;" xml:space="preserve">
<style type="text/css">
	.st0{clip-path:url(#SVGID_00000147195460570415137350000015962659812315384484_);}
	.st1{fill:#0197DA;}
	.st2{fill:#0895D8;}
	.st3{fill:#1C98D5;}
	.st4{fill:#149BD7;}
	.st5{fill:#319EDC;}
	.st6{fill:#C4E8F8;}
	.st7{fill:#2C93D5;}
	.st8{fill:#3899DD;}
	.st9{fill:#1E98DD;}
	.st10{fill:#D4EEFC;}
	.st11{fill:#7ECAEA;}
	.st12{fill:#069BDB;}
	.st13{fill:#1092C9;}
	.st14{fill:#0098DF;}
	.st15{fill:#0D96D0;}
	.st16{fill:#199AD1;}
	.st17{fill:#28A8E0;}
	.st18{fill:#22A6DE;}
	.st19{fill:#30ABE0;}
	.st20{fill:#37ADE1;}
	.st21{fill:#0D9EDB;}
	.st22{fill:#1BA3DE;}
	.st23{fill:#44B3E4;}
	.st24{fill:#52B6E2;}
	.st25{fill:#60BFE7;}
	.st26{fill:#67C2E9;}
	.st27{fill:#5BBCE6;}
	.st28{fill:#C3E8FA;}
	.st29{fill:#C9EAFA;}
	.st30{fill:#CFECFB;}
	.st31{fill:#A4DCF7;}
	.st32{fill:#D6EEF9;}
	.st33{fill:#56B3DC;}
	.st34{fill:#AADAEE;}
	.st35{fill:#B8EFFD;}
	.st36{fill:#79C1E3;}
	.st37{fill:#ABEFFE;}
	.st38{fill:#D8EFF1;}
	.st39{fill:#97C5D5;}
	.st40{fill:#7DB8D2;}
	.st41{fill:#2A61AE;}
	.st42{fill:#2E56A4;}
	.st43{fill:#2E5B9C;}
	.st44{fill:#7CC4EF;}
	.st45{fill:#2A6BA7;}
	.st46{fill:#8FCAE0;}
	.st47{fill:#286DAC;}
	.st48{fill:#18A1E0;}
	.st49{fill:#43A1C6;}
	.st50{fill:#43B3E3;}
	.st51{fill:#51B7E3;}
	.st52{fill:#3BB0E3;}
	.st53{fill:#35ADE1;}
	.st54{fill:#15A0DC;}
	.st55{fill:#5BC2ED;}
	.st56{fill:#66C9EF;}
	.st57{fill:#5EC7F1;}
	.st58{fill:#71C6EB;}
	.st59{fill:#6BC4E9;}
	.st60{fill:#6EC3E4;}
	.st61{fill:#9AD6F0;}
	.st62{fill:#3FBBEA;}
	.st63{fill:#4DBEED;}
	.st64{fill:#4BB5E4;}
	.st65{fill:#BCE5F8;}
	.st66{fill:#92D3EE;}
	.st67{fill:#B7E2F7;}
	.st68{fill:#8ABFD7;}
	.st69{fill:#7BCBED;}
	.st70{fill:#87CAE3;}
	.st71{fill:#75CBEF;}
	.st72{fill:#4FC3F0;}
	.st73{fill:#79CAEC;}
	.st74{fill:#5CC5EE;}
	.st75{fill:#7EC9EB;}
	.st76{fill:#6EC9EE;}
	.st77{fill:#65C7EE;}
	.st78{fill:#47C2F1;}
	.st79{fill:#70C8EF;}
	.st80{fill:#66CBF4;}
	.st81{fill:#2071BB;}
	.st82{fill:#4FC6F4;}
	.st83{fill:#2EBAEF;}
	.st84{fill:#AAE3F9;}
	.st85{fill:#45C1F1;}
	.st86{fill:#7CD3F7;}
	.st87{fill:#7AC4F0;}
	.st88{fill:#09AEEC;}
	.st89{fill:#60BCF3;}
	.st90{fill:#93DBFA;}
	.st91{fill:#89D7F6;}
	.st92{fill:#A2DFF9;}
	.st93{fill:#70D0F3;}
	.st94{fill:#38BDF0;}
	.st95{fill:#23B5EE;}
	.st96{fill:#49BBF2;}
	.st97{fill:#73BFF1;}
	.st98{fill:#79BBED;}
	.st99{fill:#1581C9;}
	.st100{fill:#2596C7;}
	.st101{fill:#74DEFA;}
	.st102{fill:#B0EEF8;}
	.st103{fill:#D0EFFC;}
	.st104{fill:#5FCBF4;}
	.st105{fill:#34BDF0;}
	.st106{fill:#8FDAF7;}
	.st107{fill:#1C76BF;}
	.st108{fill:#99DEF8;}
	.st109{fill:#AFE4FB;}
	.st110{fill:#A4E2F7;}
	.st111{fill:#7DCAEC;}
	.st112{fill:#178ACC;}
	.st113{fill:#B5E9FA;}
	.st114{fill:#6ECBEF;}
	.st115{fill:#1FB3E6;}
	.st116{fill:#5ECAF5;}
	.st117{fill:#226DB5;}
	.st118{fill:#1F5EA9;}
	.st119{fill:#2C61A7;}
	.st120{fill:#2F62A1;}
	.st121{fill:#94CBE1;}
	.st122{fill:#7DC8F5;}
	.st123{fill:#2667B3;}
	.st124{fill:#4AB6E6;}
	.st125{fill:#53B8E3;}
	.st126{fill:#50B9E3;}
	.st127{fill:#2A8FB7;}
	.st128{fill:#CDF3F5;}
	.st129{fill:#ACEAF8;}
	.st130{fill:#87EEFE;}
	.st131{fill:#C1EBF8;}
	.st132{fill:#86CBE6;}
	.st133{fill:#98DDFB;}
	.st134{fill:#ADE3F7;}
	.st135{fill:#AEE7FA;}
	.st136{fill:#9DCBDF;}
	.st137{fill:#57C7F2;}
	.st138{fill:#51C7F3;}
	.st139{fill:#6BCAEF;}
	.st140{fill:#78D3F6;}
	.st141{fill:#82D5F5;}
	.st142{fill:#6AC8EF;}
	.st143{fill:#6DD0F5;}
	.st144{fill:#6FCAEF;}
	.st145{fill:#7ED4F7;}
	.st146{fill:#48C4F3;}
	.st147{fill:#33B4E7;}
	.st148{fill:#5DBAE2;}
	.st149{fill:#D1EEFC;}
	.st150{fill:#AEDFF6;}
	.st151{fill:#8DCFED;}
	.st152{fill:#3EC1F3;}
	.st153{fill:#34BFF5;}
	.st154{fill:#65CDF3;}
	.st155{fill:#66C8EE;}
	.st156{fill:#61C5EF;}
	.st157{fill:#73D1F5;}
	.st158{fill:#5CC1F7;}
	.st159{fill:#5BCAF4;}
	.st160{fill:#0C6DB4;}
	.st161{fill:#1B7BC3;}
	.st162{fill:#07A2E2;}
	.st163{fill:#17B3F3;}
	.st164{fill:#0F90D4;}
	.st165{fill:#0B99DF;}
	.st166{fill:#CDEEFB;}
	.st167{fill:#099CDB;}
	.st168{fill:#6BC0E4;}
	.st169{fill:#0F98D5;}
	.st170{fill:#94E2F4;}
	.st171{fill:#0695D3;}
	.st172{fill:#1A94C6;}
	.st173{fill:#397F9D;}
	.st174{fill:#D5F2F8;}
	.st175{fill:#90E6FA;}
	.st176{fill:#27BAEF;}
	.st177{fill:#1DB7ED;}
	.st178{fill:#2FAFEB;}
	.st179{fill:#1881C8;}
	.st180{fill:#07A2E4;}
	.st181{fill:#148CD1;}
	.st182{fill:#0EB2EE;}
	.st183{fill:#52B8E5;}
	.st184{fill:#5CBCE7;}
	.st185{fill:#66BBE5;}
	.st186{fill:#5FBAE2;}
	.st187{fill:#5CCAF3;}
	.st188{fill:#54C8F3;}
	.st189{fill:#4DC5F3;}
	.st190{fill:#7ED5FA;}
	.st191{fill:#8BD9F7;}
	.st192{fill:#6FC9EB;}
	.st193{fill:#42C2F2;}
	.st194{fill:#83CDEC;}
	.st195{fill:#29AEE5;}
	.st196{fill:#79C9EA;}
	.st197{fill:#69C2E7;}
	.st198{fill:#60C0E8;}
	.st199{fill:#CCF0FB;}
	.st200{fill:#C3EFFB;}
	.st201{fill:#96D5F2;}
	.st202{fill:#9BD6F2;}
	.st203{fill:#B0E5F5;}
	.st204{fill:#5ABBE6;}
	.st205{fill:#D8ECFD;}
	.st206{fill:#A7DCF5;}
	.st207{fill:#B1D9EC;}
	.st208{fill:#A1DAF4;}
	.st209{fill:#21ABE3;}
	.st210{fill:#19A6DF;}
	.st211{fill:#10A1DD;}
	.st212{fill:#8FE0FD;}
	.st213{fill:#1EA9E8;}
	.st214{fill:#06AFEA;}
	.st215{fill:#109DDA;}
	.st216{fill:#2DA8DC;}
	.st217{fill:#2BA1D1;}
	.st218{fill:#A4F3FA;}
	.st219{fill:#C2F1F8;}
	.st220{fill:#90F1FD;}
	.st221{fill:#13A0DD;}
	.st222{fill:#58BCE6;}
	.st223{fill:#65BDE3;}
	.st224{fill:#5ABBE8;}
	.st225{fill:#27A8E0;}
	.st226{fill:#C5EDFA;}
	.st227{fill:#84C7E5;}
	.st228{fill:#D0EFFB;}
	.st229{fill:#97DCF6;}
	.st230{fill:#5BBCE7;}
	.st231{fill:#48BBED;}
	.st232{fill:#6BC4EC;}
	.st233{fill:#C4EFFD;}
	.st234{fill:#8FD2EF;}
	.st235{fill:#86CFEF;}
	.st236{fill:#80CCEE;}
	.st237{fill:#3BB1E6;}
	.st238{fill:#4EB0DD;}
	.st239{fill:#44B3E5;}
	.st240{fill:#49B5E5;}
	.st241{fill:#41B3E5;}
	.st242{fill:#36AEE2;}
	.st243{fill:#1BA2DD;}
	.st244{fill:#20A5DF;}
	.st245{fill:#BDEFFA;}
	.st246{fill:#3EA7D5;}
	.st247{fill:#9BE7FC;}
	.st248{fill:#2FABE1;}
	.st249{fill:#44ADD8;}
	.st250{fill:#5EBEE8;}
	.st251{fill:#79C9EC;}
	.st252{fill:#72C6EB;}
	.st253{fill:#B3E8F8;}
	.st254{fill:#6EBFE1;}
	.st255{fill:#82BFDA;}
	.st256{fill:#55BBE6;}
	.st257{fill:#64C1EB;}
	.st258{fill:#78CCF2;}
	.st259{fill:#3DB0E4;}
	.st260{fill:#4EB7E7;}
	.st261{fill:#32AEE7;}
	.st262{fill:#8CE2FD;}
	.st263{fill:#B7F4FC;}
	.st264{opacity:0.21;fill-rule:evenodd;clip-rule:evenodd;fill:#0965AE;}
	.st265{opacity:0.45;fill-rule:evenodd;clip-rule:evenodd;fill:#0965AE;}
	.st266{opacity:0.23;fill-rule:evenodd;clip-rule:evenodd;fill:#0965AE;}
	.st267{opacity:0.5;fill-rule:evenodd;clip-rule:evenodd;fill:#0965AE;}
	.st268{fill-rule:evenodd;clip-rule:evenodd;fill:#0965AE;}
	.st269{fill:#1C5DA4;}
</style>
<g>
	<g>
		<defs>
			<circle id="SVGID_1_" cx="249.5" cy="259.2" r="243.7"/>
		</defs>
		<clipPath id="SVGID_00000065760976055873148960000008627416565242427792_">
			<use xlink:href="#SVGID_1_"  style="overflow:visible;"/>
		</clipPath>
		<g style="clip-path:url(#SVGID_00000065760976055873148960000008627416565242427792_);">
			<path class="st1" d="M197.2,17.7c2-0.7,3.9-1.4,5.9-2.1c3.8-1.5,8-1,11.9-1.9c5.7-0.6,11.5-1.5,17.2,0.4
				c13.3,4.7,26.5,4.1,39.8-0.2c6.6-1.9,13.2-0.1,19.7-0.1c1,0,2.1,0.2,3.1,0.4c4.4,3.7,10.1,2.5,15.2,3.7c0.9,0.3,1.8,0.7,2.6,1.2
				c10.1,3.5,20.1,7.3,30.5,10c1.5,0.3,3,0.7,4.3,1.4c3.8,2.5,8,4.2,11.9,6.4c3.6,1.9,5.4,4.5,4.3,8.6c-3.4,5.6-9,4.5-14.1,4.6
				c-28.4,0.2-56.9,0.6-85.3-0.1c-19.7-0.5-38.8,5.3-58.5,3.9c-20.2-1.4-40.4-0.7-60.6-0.1c-3.6,0.1-7.2-0.2-10.2-2.7
				c-2.7-3.3-2.8-6.4,0.9-9.1c10.3-7.2,22.1-11.6,33.6-16.1c5.3-2.1,10.6-4.3,16-6.2l0-0.1C189.2,17.7,193.4,19.2,197.2,17.7z"/>
			<path class="st2" d="M185.5,19.7c-0.2,3.5-3,3.5-5.5,4.3c-10.1,3.3-20.2,7.5-29.3,12.3c-5.3,2.7-14.4,4.3-16.3,12.8
				c-3,5.1-7.1,4.9-11.7,2.6c-1.2-1.5-1.3-3.1-0.1-4.6c4.1-6.9,12.2-7.6,18.2-11.5c4.1-2.6,8.8-4.1,13.3-6.1c3,0.9,5.3-1.2,7.8-2.1
				C169.1,22.9,177,20.2,185.5,19.7z"/>
			<path class="st3" d="M59.8,102.1C66.3,89.9,77.6,82,87.3,72.6c1.7,1.4,1.9,3.2,1.8,5.2c-0.4,2.9-2.2,5-4,7.2
				c-2.8,4-6.9,6.6-10.2,10C74,96,73,97,72.1,97.9c-3.9,2.8-4.9,9.3-11.3,8.9C58.8,105.6,58.2,104.1,59.8,102.1z"/>
			<path class="st4" d="M87.3,78.5c0-2,0-3.9,0-5.9c11.3-9.2,21.3-20.2,35.3-25.6c0,1.3,0,2.7,0,4c-1.5,3.3-4.4,5.4-6.8,7.8
				c-4.5,2.5-9.6,4.5-11.6,10c-2.9,5.1-8.9,5.8-13.1,9C89.9,78.6,88.7,79.2,87.3,78.5z"/>
			<path class="st5" d="M59.8,102.1c0,1.6,0.4,3,1.9,3.9c1.1,1.9,0,3.4-0.8,5c-2.7,4.1-5.5,8.2-9,11.6c-1.3,0.7-2.6,1-4.1,1
				c-1.5-0.1-2.7-0.8-3.7-1.9C49.1,114.9,52.8,107.2,59.8,102.1z"/>
			<path class="st6" d="M44.1,121.7c1.2,0.1,2.4,0.2,3.6,0.3c1.7,0.9,3.2,1.8,1.9,4.1c-2.9,2-5.6,4.7-9.6,3.5
				c0.3-1.2,0.6-2.4,0.9-3.6C42,124.5,43.1,123.1,44.1,121.7z"/>
			<path class="st7" d="M197.2,17.7c-3.5,3.3-7.8,1.3-11.7,1.8C189.1,16.8,193,16.1,197.2,17.7z"/>
			<path class="st8" d="M214.8,15.6c-3.9,0-7.8,0-11.7,0c2.7-3,7-1.7,10.1-3.7c0.8,0.7,1.9,1,2.5,2
				C215.9,14.7,215.6,15.3,214.8,15.6z"/>
			<path class="st9" d="M161.9,27.4c-2.3,2-4.2,5.3-7.8,2.1C156.5,28,159.1,27.2,161.9,27.4z"/>
			<path class="st10" d="M40.1,129.6c3.2-1.8,5.9-4.7,10-4c0.3,0.4,0.5,0.8,0.8,1.1c0.3,0.9,0.4,1.8,0.4,2.7
				c1.9,7.4-1.6,14.9,0.2,23.9c3.2-5.9,0.6-11.6,3.7-15.9c1.1-0.9,2.4-1.2,3.8-0.8c1.6-1.9,1.7,6.9,3.9,0.5
				c1.8-7.6,7.8-10.1,14.3-12c3.6-4.9,7-10.3,14.5-8.7c0.9,0.3,1.7,0.9,2.3,1.5c1.5,2.3,2.4,4.9,2.9,7.6c0.3,1.3-0.1,2.9,1.1,4.4
				c-1-2-0.8-3.9-1-5.8c2.3-12.7,4.9-14,14.4-7.2c1.4,2.1,1.6,4.5,1.9,6.9c1.2,4.2,5.6,8.6-0.8,12.3c-3.1,2.4-3.3,6.3-5.1,9.4
				c-5.1,9.8-7.2,19.8-6,31c1,9,1.2,18.2-0.5,27.3c-4.8,7.6-13.8,6.2-20.5,9.7c-4.2,1-8.5,1.8-12.3,4c-6.3,3-13.3,4.4-19.5,7.7
				c-9.5,4.3-18.7,9-27.2,15.2c-4.6,2.6-8.8,5.6-11.8,10.1c-2,1.9-3,5.1-6.5,5.2c-1-0.5-1.7-1.2-2.1-2.2
				c-3.2-10.3,1.7-19.8,2.7-29.7c0.2-3.9,1.3-7.8,0.9-11.8c0.1-0.9,0.4-1.9,0.6-2.8c1.5-3.7,0.4-8.7,4.9-11.1c5.1-16,9.3-32.4,18-47
				c2.9-1.9,2.5-5.3,4-7.9c1-2,2-4,3.1-6C38.8,135.8,38.6,132.1,40.1,129.6L40.1,129.6z"/>
			<path class="st6" d="M32.2,143.2c-0.3,3.2,1.4,7.3-4,7.9C28.7,148.1,30,145.4,32.2,143.2z"/>
			<path class="st6" d="M40.1,129.5c0.1,3.6-0.2,7-4.8,7.6C36.5,134.4,37.5,131.5,40.1,129.5z"/>
			<path class="st11" d="M328.7,486.5c-4.5,0.2-6.4,3.2-10.7,4.3c-5.7,1.4-2,2-9,8c-3.2,3.2-7.5,3.6-11.6,4.5
				c-19.2,3.8-38.6,5-58.1,4.3c-3.6-0.1-7.1-0.5-10.3-2.5c-7.6-6.8-17.2-1.9-25.5-4.2c-1-0.2-1.9-0.6-2.8-1c-4.5-3.6-9.9-2.1-15-2.4
				c-2.3,0-4.6-0.2-6.9-0.7c-3.8-1.2-7.6-2.5-11.4-3.7c-0.8-0.3-1.6-0.6-2.4-1c-2.2-1.2-4.5-2.2-7-2.9c-0.8-0.2-1.6-0.5-2.4-0.9
				c-2.6-1.3-5.2-2.5-8.1-3.3c-0.8-0.3-1.6-0.6-2.4-1.1c-3.6-2.5-7.4-4.5-11.3-6.4c-0.8-0.3-1.5-0.8-2.2-1.2
				c-2.1-1.3-4.4-2.3-6.6-3.4c-0.7-0.4-1.4-0.8-2.1-1.2c-1.7-1.2-3.7-1.9-5.8-2.4c-2.8-0.8-4.9-2.5-6.2-5.1
				c-0.7-1.8-1.2-3.6,0.3-5.2c2.8-1.8,5.5-1.1,8.2,0.2c6.7,3.3,12.4,1.9,17.3-3.6c0.7-0.6,1.5-1.1,2.3-1.4c2.2-0.9,5.2-0.5,6-3.9
				c1.8-7.5,7.7-8.8,14.2-8.9c8.8,0,17.4,2.1,26,3.6c1.6,0.1,3.2,0.1,4.8,0.3c4.4,0.3,8.5,2.2,13,1.8c19.9,2.7,40,1.8,59.9,2
				c16.6,1.8,32.7-1.6,48.7-5.1c6-1.3,21.2-1.2,24.1,3.5c0.8,1.4,1.3,2.9,1.5,4.5c1.3,5.5,3.6,14.1,8.7,18.9
				C354.1,480.6,336.5,481.5,328.7,486.5z"/>
			<path class="st12" d="M370.8,42.9c1.4,0,2.7,0.2,3.4,1.7c1.3,2.3,1.7,4.7-0.1,7c-11.8,6-24.6,6.2-37.3,6.3
				c-24.2,0.1-48.5,0.8-72.7,0c-42.9-1.4-85.7,3.3-128.5,1.6c-7.1-0.3-14.8,5.4-21-2.5c2.5-2.1,4.1-5.5,7.9-5.9c4,0,8.1,0.4,11.8-2
				c9.3,4.4,19.3,1.7,28.6,1.4c10.4-0.4,20.7,0.9,30.8,0.3c53.9-3.3,107.9-4.2,161.9-3.6c3,0,6.1,0.2,6.6-3.9
				C365.1,41,368,42.5,370.8,42.9z"/>
			<path class="st13" d="M215.1,13.8c3.3-0.5,6.9,0.9,9.8-1.8c2.6-0.2,5.2-0.4,7.7-0.6c11.1-1,22.3-1,33.4,0
				c9.5,0.7,19,0.6,28.1,4.1c-7.4,0.1-14.8,0.1-22.2,0.2c-13.1,2.8-26.2,3.2-39.2,0c-5.9,0-11.9-0.1-17.8-0.1
				C214.9,15,215,14.4,215.1,13.8z"/>
			<path class="st14" d="M232.6,15.7c13.1,0,26.2,0,39.2,0C263.1,21.3,238,21.3,232.6,15.7z"/>
			<path class="st15" d="M311.4,19.3c11.2,2.3,22.8,3.4,31.7,11.9C332.1,28.4,320.5,27.1,311.4,19.3z"/>
			<path class="st16" d="M370.8,42.9c-2.8,2.1-5.7,0.7-8.6,0.3c-2.3-5.3-8-5.5-12.2-7.7c-1.9-1-3.3-1.8-3.5-4
				c1.8,0.1,3.5,0.2,5.3,0.3C357.6,36.3,365.5,37.4,370.8,42.9z"/>
			<path class="st15" d="M295.4,15.7c5.6-0.1,11,0.8,15.9,3.7C306,18.2,299.2,23.5,295.4,15.7z"/>
			<path class="st15" d="M295.8,23.7c1.2,0.3,3,0.3,2.4,2.1c-0.3,0.8-2,1.3-3.1,1.4c-1.2,0.1-2.9-0.2-2.4-2
				C293,23.7,294.4,23.6,295.8,23.7z"/>
			<path class="st17" d="M73.5,94.2c2.1-4.4,7-6.1,9.8-9.8c6.2-4.1,13.1-5,20.5-5c36.3,0,72.6,0.7,108.9-0.3
				c47.3-1.3,94.6-4.4,142-3.5c19.6,0.4,39.1-1.7,58.7,0c4.5,7.1,3.8,9.8-3.3,12.1c-4.7,1.5-9.7,1.5-14.6,1.5
				c-31.7-0.2-63.4,0.2-95.1,0.4c-19.9,0.1-40.1-0.4-59.6,1.4c-29.4,2.7-58.7,2-88,1.8c-20.8-0.2-41.7,2.1-62.4,0.3
				C84.5,92.4,79.4,98,73.5,94.2z"/>
			<path class="st18" d="M413.3,76.5c-7.3,0.7-14.7,1.7-22,1.9c-10.8,0.3-21.6,0.4-32.4,0c-39.6-1.2-79.1,0.3-118.6,2.4
				c-47.1,2.6-94.1,0.7-141.2,1.3c-5.6,0.1-10.3,3.8-15.8,2.3c1.3-2,2.6-3.9,3.9-5.9c0.7-0.7,1.3-1.3,2-2
				c14.8-4.7,30.3-3.8,45.5-4.4c31.6-1.3,63.3-0.4,95-0.6c30-0.2,60-0.2,90-1.8c13.5-0.7,27.2,3,40.7-1.6c7.7-2.6,15.9,3.8,23.9,0.2
				c1.6-0.3,3.1-0.5,4.7-0.5c7.2,0,7.2,0,8.9-5.8c6.8,0,9.5,7,15.2,8.9c0,0.6,0.1,1.2,0.2,1.8C414.4,74.1,414.6,75.3,413.3,76.5z"/>
			<path class="st19" d="M413.3,76.5c0-1.2,0-2.5,0-3.7c5.3,2.4,7.5,8,11.9,11.3c0.9,1.8,1.2,3.5-0.8,4.9c-10.4,2.9-21,4.3-31.8,4.4
				c-55.8,0.6-111.5,5.4-167.3,3.9c-30-0.8-60.2-1-90.1,0.3c-19.4,0.8-39-0.5-58.3,2c-2.4-0.1-5.2,0.4-5.3-3.3
				c0.7-0.6,1.3-1.3,2-1.9c10.9-5.4,22.7-3.9,34.2-3.9c35.1-0.1,70.3,0.1,105.4-0.1c7.6,0,15.1,1,22.7-3.2
				c5.7-3.2,12.7,0.9,19.2,1.4c12.4,1,24.7-1.9,37-1.9c35-0.2,70,0,105-0.1c3.9,0,7.8-0.7,11.7-0.9C415.4,85.2,416.5,82,413.3,76.5z
				"/>
			<path class="st20" d="M71.5,96.2c0.8,1.6,2.3,2,3.9,2c8.9-3.1,18-1.1,27-0.8c8.8,0.3,17.4,1.3,26.1-0.9c3.7-0.9,8-0.8,10,3.8
				c-0.3,4.7-4.2,3.7-7,4.3c-3.3,0.6-7-0.4-9.9,2.2c-4.1,6.9-11.2,2.9-16.8,4.6c-1.3,0.3-2.7,0.4-4,0.2c-9.7,0.7-19.2-4-29.1,0.1
				c-3.5,1.4-8.3,1-12-1.7c0.7-1.3,1.3-2.6,2-3.9C66.2,103.9,66.6,97.8,71.5,96.2z"/>
			<path class="st21" d="M114.8,56.9c9.8,5.1,19.6-0.2,29.3-0.5c70.2-2.1,140.4-0.9,210.5-1.7c6.7-0.1,12.4-5.6,19.5-3.6
				c6.8-5.1,10.3,3.3,15.8,3.8l0.1-0.1c1.2,2.2,4.1,3,4.9,5.6c-1.3,8.8-6.5,4.3-10.7,3.2c-13.2-3.9-26.5-1.3-39.8-0.7
				c-3.9,0.2-7.8,0.9-11.7,1c-63.7,2.2-127.4,2-191.1,2.1c-12.3,0-24.6,1.3-36.8,3.3c-0.6-0.2-1.2-0.3-1.7-0.5
				C102.6,60.4,110,60,114.8,56.9z"/>
			<path class="st22" d="M385.9,70.7c-4.8,2.6-8.7,4.4-14.8,0.8c-4.3-2.6-11.6-2.4-17,0.9c-3.4,2.1-6.8,2.8-10.3,2.2
				c-20.5-3.6-40.9-0.4-61.4-0.1c-37.3,0.6-74.6,0.7-111.9,0c-27.2-0.5-54.1,2.8-81.3,2.2c3.6-4.4,10-3.8,13.7-7.9c0,0,0,0,0,0
				c11,1.4,22.1,0.7,33.1,0c17.9-1.2,35.9-1.9,53.8-1.1c12.2,0.6,24-2.8,36-2.7c50.6,0.4,101.2-2.2,151.8-1
				C381.5,64.9,387.2,63.5,385.9,70.7z"/>
			<path class="st23" d="M59.7,109.9c6.7-1,13.6-2.2,20-2.9c6.2-0.7,14.4,0,21.2,2.9c-1,4.5-2.7,8.1-8.1,8.2l0.1-0.1
				c-3.1-2.9-6.2-3-9.3,0.1c-3.8,3.9-7.9,6.7-13.6,3.8c-0.6-0.3-1.6-0.8-1.8-0.4c-5.5,8.2-11.1,0.4-16.6,0.1
				C52.6,116.5,57.1,113.8,59.7,109.9z"/>
			<path class="st24" d="M51.8,121.6c3.2,1,8.6-5.3,9.2,6.3c2.9-8.4,5.3-12.7,12.2-7.3c2.9,2.2,6.6-1,9.1-3.6
				c4.1-4.3,7.7-4.5,10.7,1.1c-7.9-2-11.2,3.1-13.8,9.1c-0.7,1.3-2.2,1.8-3.2,1.3c-5.2-2.7-8.8-2-10.8,4c-0.5,1.5-2.2,2.2-3.8,2.5
				c-6.1-0.3-7-7-11.4-9.4c0,0,0,0,0,0c-0.8-1.2-1.5-2.4-2.3-3.6C49.1,121.8,50.5,121.7,51.8,121.6z"/>
			<path class="st25" d="M20.2,239.1c8.1-7.2,17.6-11.8,27.7-15.3c7.5,0.2,14.8,3.1,22.6-1.3c7.3-4.1,34.7,7,37.8,14
				c-4.3,7.9-11.5,9.8-19.8,9.2c-7.1-2.9-14.1-1.9-21.6-1.7c-10.6,0.3-21.9,4.9-32.5-0.7c-2.8-1.4-4,1.4-6,1.8
				C23.8,246.2,18.9,246.6,20.2,239.1z"/>
			<path class="st26" d="M20.2,239.1c2.2,4.9,4.4,7.8,9.6,2.2c1.3-1.4,7.1-4,8.4,2.3c0.6,3,2.5,1.2,3.2,0.5c1.7-1.8,3.6-2.6,6-2.6
				c9.4-0.2,18.9,3,28.3-1.7c4-2,8.1,1.2,11.5,3.7c1.1,1.3,1.2,2.8,0.6,4.4c-5.4,6.2-12.3,9.3-20.4,10c-2.6,0.1-5.2,0.1-7.7-0.2
				c-11.2-2-22.2-1.5-32.8,3c-1.4,2.1-3,3.9-5.8,3.2c-3.2-5.3-6.4-3.6-9.5,0.1c-1.7,0.2-3.1-0.3-4.1-1.8c-2-4.6-0.8-8.9,1.1-13.2
				C11,244.1,15,240.9,20.2,239.1z"/>
			<path class="st27" d="M106.9,235.6c-2.8-5.9-8.4-7-13.9-7.7c-5.7-0.8-11.7,0.8-16.7-3.7c-0.3-0.3-5.7-3.5-5.2,2.8
				c0.2,2-20.6-0.5-23.2-3.3c5.8-4.6,12.9-5.8,19.6-8c18.4-5.4,36-0.7,53.7,3.8c10.4,4.8,21.7,6.1,32.7,8.4c-2.2,8-8.9,5.5-14.3,6.3
				c-6.2,0.8-13.4-3.8-18.7,3C116.1,238.6,111.3,239.1,106.9,235.6z"/>
			<path class="st28" d="M110.8,133.5c10.5-2.6-2.2-5.2,0-7.8c4.7-3.1,7.1-0.2,9.2,3.5c1,2.5,1.2,5.2,1.3,7.9c0.1,3-0.1,6,0.3,9
				c2.9,4.9,3.9,10.2,3.7,15.9c-0.5,10.8,0.5,21.5,0.5,32.3c-1.9,1.9,0,4.3-1,6.3c-0.7,0.7-1.5,1.3-2.3,1.7
				c-5.1,1.8-10.2,3.3-15.7,3.7c-1.6-0.1-3-0.7-4.1-1.8c-0.3-3.3,2.3-4.3,4.4-5.7c4.1-1.5,4.9-4.9,4.9-8.7c0-14.4,1-28.8-2.2-43
				C108.7,142.2,108.8,137.8,110.8,133.5z"/>
			<path class="st29" d="M110.8,133.5c3.5,19.6,4.4,39.3,4.1,59.2c-0.1,6.1-2.3,8.3-8,7.6c-1-0.9-2-1.9-2.1-3.2
				c-1.3-18-3.2-36,2.1-53.8C106.8,139.5,107.7,136.1,110.8,133.5z"/>
			<path class="st30" d="M106.9,143.3c0,19,0,38,0,57c-1.3,1.3-2.6,2.6-3.9,3.9c-1.3,1.1-2.6,1.3-3.9,0.1
				c-0.8-12.6,0.4-25.1-1.2-37.8C96.9,158.4,100.6,149.8,106.9,143.3z"/>
			<path class="st31" d="M122.5,222c-18.1-3.4-36.2-7.4-54.9-6.2c3.2-3.5,7.4-4,11.8-3.8c8.5-2.8,17.6-1.8,26-4.9
				c10.5-2.9,15.5,7.6,23.9,9.8c1.1,0.3,1.9,2.1,0.8,3.2C128.1,222.4,125.6,223.6,122.5,222z"/>
			<path class="st32" d="M55.8,137.4c0,4.9,0,9.8-0.1,14.7c0,2.5-0.7,4.6-3.7,4.7c-3,0.1-4-1.8-4-4.4c0.1-8.3,0-16.6,1.9-24.7
				C57.5,127.6,58,131.7,55.8,137.4z"/>
			<path class="st33" d="M92.9,118.1c2.7-2.7,5.4-5.5,8.1-8.2c1.3,0,2.6,0,3.9,0c5.9,1.6,12.4,2.3,14.8,9.4c0,1-0.2,1.9-0.7,2.8
				c-5.8,4.7-6.9,0.1-8.4-4.1c-9.5-5.3-9.5-5.3-11.6,7.6c-1.3,1.1-2.6,1.1-3.9-0.1C94.5,123.1,93.7,120.6,92.9,118.1z"/>
			<path class="st34" d="M106.9,208.2c-8.3,7.3-18.4,2.5-27.5,3.9c5.8-4.6,13.6-4,19.7-7.8c1.3,0,2.6-0.1,3.9-0.1c1.3,0,2.6,0,4,0.1
				C108.1,205.5,108.1,206.8,106.9,208.2z"/>
			<path class="st35" d="M61.7,133.9c0.9-0.8,2.5-1.5,2.7-2.5c1.7-6.8,4.8-9.2,11.1-4.3c0.8,0.6,2.4,0.1,3.7,0.1
				c-0.1,0.3-0.2,0.8-0.4,0.8c-9.9,3.4-9.9,3.4-15,9.5c-1.2-0.1-2-0.8-2.6-1.7C60.9,135,61.1,134.4,61.7,133.9z"/>
			<path class="st6" d="M61.7,133.9c0,0.5,0,1,0,1.5c0.7,2.1-0.2,2.5-2.1,2c-1.3,0-2.5,0-3.8,0c0.7-4.9-1-8.3-5.9-9.8
				c0-0.7,0.1-1.4,0.1-2.1C57.2,123.8,56.6,132.9,61.7,133.9z"/>
			<path class="st36" d="M4.8,263.1c-0.1-2.7-0.2-5.3-0.3-8c0.3-2.7,1.7-4.7,4-6c0,4.7,0.1,9.3,0.1,14
				C7.4,264.2,6.1,264.3,4.8,263.1z"/>
			<path class="st37" d="M110.7,118.1c1.9,2.9,3.8,5.7,8,3.7c2.3,2.7,2.4,5.3-0.3,7.8c-1.9-2.4-4-4.6-7.6-3.9
				C110.8,123.1,110.7,120.6,110.7,118.1z"/>
			<path class="st38" d="M18.5,185.7c1.7,0.2,1.8,1.6,1.8,2.8c0,1.3-0.1,2.8-1.8,2.8c-1.7,0-1.8-1.5-1.8-2.8
				C16.7,187.2,16.8,185.9,18.5,185.7z"/>
			<path class="st32" d="M58.1,167.8c-1.8,0.2-2.1-1.3-2-2.5c0.1-1.1,0.7-2.8,1.4-3c1.8-0.6,1.9,1.2,2.1,2.4
				C59.8,165.9,59.5,167.2,58.1,167.8z"/>
			<path class="st39" d="M59.6,137.4c0.7-0.7,1.4-1.3,2.1-2c0.7,0.7,1.4,1.3,2.1,2c-0.5,2.4-0.8,4.8-3.7,6.5
				C59.9,141.6,59.8,139.5,59.6,137.4z"/>
			<path class="st40" d="M95.2,125.6c1.3,0,2.6,0.1,3.9,0.1c0,2.5,0,5.1,0,9.5C96.5,131.2,95.2,128.7,95.2,125.6z"/>
			<path class="st11" d="M12.4,320.2c0.1-0.7,0.1-1.3,0.2-2c-1.1-1.6-1.2-3.2,0.2-4.7c4.3-1.9,7.6-1.3,9.7,4.4c0-3.5-1-6.1-0.3-8.8
				c1.1-4.9,3.5-6,7.5-2.8c9.2,7.6,19.1,5.8,28.6,1.3c6.1-2.9,12.3-5,18.9-4c17,2.6,33.9-0.1,50.8-0.1c23.5-0.1,47.1,0.3,70.6-0.1
				c24.4-0.4,49-1,73.3-2.6c12.9-0.9,26.6-1.3,39.3-6.3c6.5-2.6,13.1,4.8,13.8,14.6c1.1,7.5-1.5,13.7-6.4,19.2
				c-1.3,1.6-2.9,2.8-4.9,3.5c-7.4,1.1-14.7,1.6-21.3-0.6c2.9,2.5,2.9,2.5,10.5,4.6c3.6,1,7.3,2.1,4.1,7.1
				c-8.5,2.9-17.6,2.9-26.2,5.4c-9.4,1.2-18.4,4.1-27.6,6c-4.1,0.1-8,1.6-12,2.1c-7.8,1.8-15.5,4.5-23.3,6.1
				c-6,2.1-12.3,3.6-18.4,5.7c24.8-3.4,49.8,0.4,74.5-2.6c4.7-0.6,9.8-0.3,7.9,7.1c-0.4,1-1.1,1.9-1.9,2.7c-1.2,0.6-2.4,1.1-3.7,1
				c-32.9-1.6-65.5,2.3-98.2,3.8c-7.3,0.3-14,2.9-21,3.7c-4.3,0.5-8.9-1.1-12.9,1.7c-0.8,0.5-1.6,0.9-2.4,1.3
				c-8,4.6-18.2,4.3-25.1,11.4c-3.6,3.9-8.5,5.6-13,8c-3.8,1.7-7.4,3.9-11.6,4.6c-4.8-0.1-8.3,2.3-11,6.1c-4.9,4.3-1.8,5.6,2.4,6.5
				c13.5,4.2,27.3,7.1,41.1,10.2c2.4,0.4,4.7,1.3,7,1.8c3.9,0.4,7.5,1.6,11.4,2.2c3,0.3,5.8,1.2,8.7,1.8c2.7,0.9,6.5,0.1,6.6,4.7
				c-5.8,0-11,0.4-9.4,8.8c0.6,2.8-0.2,3-11.2,2.5c-5.5-3.4-10.7-12.6-20.5-2.9c8.4-3.2,14.6,1.5,20.5,2.9
				c-4,8.6-10.5,11.2-17.9,6.9c-3-1.8-5.7-2.5-8.9-2.2c-0.4-0.2-0.8-0.4-1.2-0.6c-1.1-0.8-2-1.6-2.9-2.6c-7.3-7.9-7.2-10,2.1-18.2
				c-7.4,0.6-13.8-2.4-20.8-0.9c-6.1,1.2-8.1-7.6-14.5-6.4c-3.6-0.6-5.8-3.1-7.8-5.8c-9.4-13.3-21.5-24.5-29.3-39
				c-4.3-8-8.3-16.1-11-24.8c-3-6.4-7.8-12.1-6.8-19.9C16.9,334.4,12.2,328,12.4,320.2z"/>
			<path class="st41" d="M189.5,447.5c-1.4-0.1-2.7-0.2-4.1-0.3c-2.6-1.9-5.6-2.5-8.7-2.5c-3.2,0-4.5-1.6-3.1-4.8
				c5.4-5,12-1.9,17.9-2.1c25.4-0.7,50.9-1.7,76.3,0.5c2.6,1.4,3.7,3.3,2.2,6.1c-2.1,1.8-4.7,2.2-7.3,2.2
				c-23.5-0.9-46.9,1.9-70.4,0.3C191.3,446.7,190.4,447.2,189.5,447.5z"/>
			<path class="st42" d="M189.5,447.5c11-3,22.3-2.7,33.5-3.4c15.6-1,31.3-0.3,46.9-0.3c2.1-1.9,4.7-2.6,7.5-2.7
				c5.5,0.4,11.4-4.5,16.4,1.4c-0.5,3.7-4.1,4.4-6.4,6.4c-3.2,0.8-6.3,1.7-9.7,0.9c-25.5-0.4-51,0.1-76.4-0.5
				C197.1,450.6,193.5,447.7,189.5,447.5z"/>
			<path class="st43" d="M201.3,449.3c3.4-2.8,7.5-1.6,11.3-1.5c22.4,0.6,44.8-1.6,67.1,1c-4.8,4.4-11-0.3-16,2.7
				C242.9,451.7,222.1,452.3,201.3,449.3z"/>
			<path class="st44" d="M263.7,451.6c5-3.1,10.9-0.8,16-2.7c2.6-0.5,5.2-1,7.8-1.4c4.1-2.8,8.9-3.8,13.5-5.3
				c3.3-0.9,6.6-2.1,9.9-2.8c5-1.1,20.3-3.9,21.8,3.8c0,1.9-0.1,3.7-0.1,5.6c-7-9.7-27-1.8-32.9,0.1
				C287.5,452.6,275.7,450.7,263.7,451.6z"/>
			<path class="st45" d="M173.7,441.9c2.7,4.6,10.1-1.3,11.8,5.4c-9.2-0.5-18.1-3.9-27.4-3.4c-2-2.7-5.1-1.6-7.7-2.3
				c2.7-6.6,8.4-3.4,13-4.2C167.4,437.5,171.1,438.3,173.7,441.9z"/>
			<path class="st46" d="M228.7,502.9c-9.4,0.1-18.8,0.2-27.6-4c6.8,0,13.5-0.1,20.3,0C224.5,498.9,228.2,498.2,228.7,502.9z"/>
			<path class="st46" d="M201.2,498.9c-5.7,0.1-11.2-0.5-16-3.9C190.4,496.5,197.5,490.8,201.2,498.9z"/>
			<path class="st47" d="M331.8,442.1c-2.6-6.8-16.5-0.7-20.7-0.5c-0.7-0.8-1.2-1.7-1.3-2.8c0-1.7,0.6-3.1,2.1-4
				c3.3-1.5,15.3-3.2,18.1-0.8c0.7,2,1.4,3.9,2.2,5.9C332.1,440.6,332,441.4,331.8,442.1z"/>
			<path class="st48" d="M385.9,70.7c-0.6-5.3-4.8-3.6-7.9-3.9c-0.7-7.9,3.7-5.8,7.9-3.9c2.6-1.3,8.4,4.2,7.9-3.7
				c0.6-1.2,1.4-1.3,2.3-0.4c1.8,0.5,2.1,1.8,1.9,3.4C400.1,73.9,391.5,70.1,385.9,70.7z"/>
			<path class="st16" d="M389.9,54.8c-6,1.8-9.8-5.4-15.8-3.8c0.1-2.1,0.1-4.3,0.2-6.4C380.1,47.1,385.6,50,389.9,54.8z"/>
			<path class="st49" d="M396,58.7c-0.8,0.1-1.5,0.2-2.3,0.4c-2.5-0.4-4-1.7-3.7-4.4C392.7,54.9,394.6,56.6,396,58.7z"/>
			<path class="st50" d="M118.8,119.7c-2.7-5.9-10.7-4.4-13.8-9.7c1.7-1.9,3.4-3.9,6.3-1.6c3.7,3,5.7,0.6,7.5-2.4
				c2.9-2.1,6.4-2.8,9.4-1.6c10.6,4.4,21.3,2.1,32,1.1c19.4-1.8,38.9,0.5,58.1-0.2c32.5-1.2,65-1,97.4-2.4
				c25.2-1.1,50.2,1.2,75.3,0.7c9.6-0.2,19-3.7,28.9-1c2.5,0.7,10.9,1.5,9-7c-0.5-0.9-0.8-1.9-0.9-3c0.1-1.1,0.5-2,1.3-2.8
				c6,1.8,9,6.7,11.8,11.8c1.5,2.5,0.8,4.8-1.8,5.5c-4.3,1.1-7.1,3.4-10,6.8c-3.3,3.9-9.2,1.4-13,0.7c-7-1.3-12,1-17.2,4.4
				c-4.5,1.2-7.6-2.4-11.4-3.3c-7.9-4.1-16.5-3.7-24.9-2.9c-33.7,3.2-67.5,3.2-101.3,3.6c-7.7-0.3-15.5,0.6-23.2-1
				c-4.1-0.8-6.7,1.6-9.7,3.4c-2,0.9-4.1,0.9-6.2,0.5c-5.3-3.2-11.3-3.3-17.1-2.7c-17.3,1.8-34.6,2.6-52,0c-7.5-1.1-14.8,0.4-22.1,3
				C127.3,121.2,122.9,121.6,118.8,119.7z"/>
			<path class="st51" d="M399.6,117.8c3.8-5.1,7-9.1,15-5.4c2.4,1.1,13.1,5.9,15.9-5.1c0.9-3.5,9.5,1.4,10.6-5.5
				c1.2,0.8,2.4,1.7,3.6,2.5c0.5,1.2,1.1,2.3,1.6,3.5c-5.6,2.8-10.9,5-12.5,12.7c-1.1,5.3-9.4,5-13.1,9.2c-1.2,0.9-2.5,1.2-4,1.2
				c-1.9-0.2-3.5-1-5.1-2.1c-0.7-0.5-1.2-1.2-1.7-1.9c-1.1-1.7-1.8-3.5-3-5.1c-1-1.1-2.3-1.5-3.8-1.5
				C401.6,119.9,398.9,121.2,399.6,117.8z"/>
			<path class="st52" d="M429.2,89.9c-0.1,0.8-0.1,1.5-0.2,2.3c-3.4,0.7-3.6-1.7-3.9-4c0-1.4,0.1-2.8,0.1-4.2
				C427.6,85.4,429.4,87,429.2,89.9z"/>
			<path class="st11" d="M403.6,451.8c-7.3-13.7-5.3-29.8-11.5-43.9c-1.7-3.9,1-6.8,5.5-7.3c5.1-3.3,4.7-8.7,5.6-13.8
				c1.3-7.3,2.6-14.8,10.8-18.1c2.2,0.4,2.7,2.2,3.3,3.9c1.7,3.8-1.9,8.7,2.3,12c3-2.4,3-5.7,2.9-9c-0.2-6.1,1.8-11.5,5.3-16.4
				c5.7-6.3,14.1-7.2,21.3-10.7c1.6-0.7,3.2-1.4,4.7-2.3c1.6-1.3,4.6-1.5,4.8-3.7c0.3-2.4-2.6-1.9-4.1-2.6c-6-1.9-12-1.4-18.1-1
				c-1-0.2-10.8-4.2-11.5-5c-3.1-7.9-2.7-10.4,2-18c0.9-2.9-0.8-7.4,2-5c-1.5-1.5,12.2,1.3,11.2-0.4c-4.1-6.1-1.8-11.9,1.2-17.5
				c1.8-3.3,4.1-6.9,7.7-1.6c1.9,2.7,3.9,1.3,6.1,0.8c12.5-2.7,14.5-1.2,15.2,10.7c1.1-3-2.8-10.8,7.3-7.8c2.1,0.6,2.7-3.3,3.8-5.1
				c3.1-5.2,6.8-7,11.7-2.2c1.8,4.4,2.2,9.1,0.1,13.1c-3.3,6.4-2.6,13-2.8,19.7c-2.4,20.8-11.5,39.3-21.3,57.3
				c-6.2,11.3-11.8,23.3-22.2,31.8c-2.5,1.2-4.1,3.1-4.7,5.8c-9.6,14.9-22.3,26.7-37.3,36.2C404.6,451.6,404.1,451.7,403.6,451.8z"
				/>
			<path class="st53" d="M425.1,88.3c1.3,1.3,2.6,2.6,3.9,4c0,0.7,0,1.3,0,2c-0.8,5.4-4.9,7.6-9.2,6.5c-15-3.8-29.8,0.4-44.7,0.4
				c-32.7-0.1-65.4,0.1-98.1-0.1c-18.3-0.1-36.5,1.4-54.7,3.3c-6.3,0.7-12.3-1-18.5-1.5c-18-1.6-35.7,3.2-53.6,2.2
				c-4.2-0.2-8.6,0.5-12-2.9c-1.4-3.1-4.1-4.7-7.1-3.8c-17.3,5-34.6-2.4-51.9-0.2c-1.3,0.2-2.6,0-3.9,0c5.5-2.9,10.9-3.9,17.5-2.7
				c7.9,1.5,16.5,1.8,24.4,0.4c16-2.8,31.9-1.5,47.8-1.6c49.7-0.3,99.4,1.4,149-0.6c31.2-1.3,62.4-3.8,93.6-3.4
				C413.7,90.3,418.8,83.6,425.1,88.3z"/>
			<path class="st52" d="M138.3,102.1c14.5-1.2,29,1.8,43.7-2.9c5.8-1.9,14,1.3,21.1,1c60.9-2.5,121.8-1.6,182.7-2.2
				c9.2-0.1,18.6-4.8,27.7-1.1c6.2,2.5,10.9,2.1,15.5-2.6c3.7,0.9,7.1,3.2,6.6,7c-0.4,3.6-4.8,0.7-6.4,1.7
				c-7.6,4.5-16.1-0.4-21.8,1.2c-10.5,2.8-20.5,1.6-30.5,1.8c-13,0.2-26.3-1.7-38.9-1c-26.8,1.3-53.5-0.3-80.2,1.8
				c-6.8,0.5-12.8,1.4-19.6-0.3c-5.5-1.3-11.7-1-17.1,2.4c-2.3,1.4-5.1,2-7.3,0c-4.7-4.3-9.6-2.9-14.5-0.8c-1.5,0.6-3.4,1.8-4.5,1.3
				c-16.4-7.4-32.5,0.1-48.7,1.1c-9.8,0.6-17.9-5.8-27.4-4.3C124,98.5,131.8,103.5,138.3,102.1z"/>
			<path class="st54" d="M385.9,62.8c-3.1,0.4-7.2-1.3-7.9,3.9c-49,0-98,0.1-147-0.1c-12.3-0.1-23.6,5.2-36.2,4.4
				c-20.6-1.4-41.5-1.7-62.1,1.6c-7,1.1-14.2-4.1-21.5,1.4c-2.9,2.2-5.7-3.1-8.3-5.3c8.7-8.8,20.3-5.1,30.1-5.4
				c38.2-1.1,76.4-1,114.6-0.3c29.7,0.6,59.2-2.2,88.9-2.6c13.8-0.2,27.8-1.7,41.7-1.5C381.4,59,385.2,57.9,385.9,62.8z"/>
			<path class="st55" d="M106.9,235.6c5.2,0,10.5,0,15.7,0c1.1,1.3,1.1,2.8,0.4,4.3c-3.6,2.9-8.8,1.9-12.4,5
				c-6.1,2.8-12.1,6.2-19.2,4.8c-1.6-0.3-3-1-4.1-2.3c0-1.3,0-2.6,0-3.9C95,243.8,102.1,242.7,106.9,235.6z"/>
			<path class="st56" d="M59.8,255.3c2.6,0,5.2,0,7.9,0c3.3,5.3,8.7,5,13.9,5c29.3,0,58.5,0,87.8,0c6.8,0,13.7-0.4,20.4,0.7
				c2.7,0.4,5.3,0.8,6.4-2.6c4.2-4,7.7,0,11.5,0.8c2.1,1,3.7,2.4,4.5,4.6c0.6,4.3-0.5,8-3.9,11c-2.2,1.6-4.6,2.4-7.3,2.4
				c-40.5,0.3-81,0.7-121.5,0.4c-7.5-0.1-14.8-1.7-22.3-2.2c-5.9-0.4-10.5-3.5-10.5-10.5C49.3,259.3,57.1,260.8,59.8,255.3z"/>
			<path class="st57" d="M197.3,257.3c-0.6,2.8,1.1,4.9,2.2,7.3c-42.4-2.9-84.8-0.8-127.1-1.2c-7.6-0.1-5.6-3.9-4.7-8
				c7.8,0.5,12.9-5.7,19.6-7.9c1.3,0,2.6,0,3.9,0c7.2,7.7,16.3,5.8,24.6,3.5c8.2-2.3,15.6-1.7,23.8,0c14.3,3,29,2.1,43.6,0.4
				c5.1-2.3,8.6,0.9,12.3,3.5C196.3,255.5,196.9,256.3,197.3,257.3z"/>
			<path class="st58" d="M4.8,263.1c1.3,0,2.6,0,3.8,0c1.3,0,2.6,0,3.9,0c2.6-2.1,5.2-2.1,7.9,0c2.6-0.1,3.9-1.4,3.9-3.9
				c7.5-1.6,12.2,2.7,16.5,7.9c0.7,3-0.8,4.7-3.4,5.7c-6.1,0.3-9.9,3.9-12.7,8.9c-5.5,3.9-10.9,10.3-17.2,1.1
				c-2.3-5,1.1-11-2.8-15.7C4.9,265.8,4.8,264.5,4.8,263.1z"/>
			<path class="st59" d="M40.1,267.1c-5.2-2.6-10.5-5.2-15.7-7.9c0.3-1.7,0.9-3.8,2.7-3.6c10.9,1.1,21.8-4.8,32.7-0.3
				c1.2,10.4-6.4,7.4-11.8,7.9C45.6,264.9,44.9,270,40.1,267.1z"/>
			<path class="st60" d="M20.5,263.1c-2.6,0-5.2,0-7.9,0c0.4-2.9-1.3-7.2,3.5-7.5C21.8,255.2,20.1,260,20.5,263.1z"/>
			<path class="st61" d="M106.9,208.2c0-1.3,0-2.6,0-3.9c5.2-1.3,10.5-2.6,15.7-3.9c3.7,10.4,14.2,11.9,22.2,16.6
				c3.2,1.9,7.5,2,10,5.4c0.7,1.4,0.7,2.8,0.2,4.3c-0.3,0.4-0.6,0.8-1,1.2c-11.5,3.4-21.6-1-31.6-5.8c2.6-0.2,4.8-1.2,8.2-4.4
				C119.5,219.3,116.1,207.7,106.9,208.2z"/>
			<path class="st62" d="M138.3,231.7c5.5-0.2,11.4,1.2,15.7-3.9c0,0-0.1-0.2-0.1-0.2c3.5-3.1,8.1-4.1,12.4-5.5
				c3.2-0.7,6.4-0.9,9.4,0.8c3.9,3.6,2.9,6.9-0.6,10c-11.5,2.7-22.8,6.6-34.9,4.3C138,236,136.5,234.4,138.3,231.7z"/>
			<path class="st63" d="M138.3,231.7c0,1.6,0.4,3.1,1.9,3.9c0.1,4.6-4,4.4-6.7,5.8c-3.9,0.7-7.7,1.3-11-1.8c0-1.3,0-2.6,0-3.9
				c0.2-4-1.1-9.5,6.2-4.6C131.1,232.6,135.1,231.6,138.3,231.7z"/>
			<path class="st64" d="M118.8,119.7c11.3-1.9,21.9-7.8,33.7-5.8c19.7,3.4,39.4-0.2,59-0.1c4.3,0,8.5-0.1,11.3,4
				c0.9,2.2-0.4,3.5-2,4.6c-6.3,1.7-13.2,0.4-19.3,3.5c-3.8,1.1-5.9-5.5-10.1-2.2c-1.3,1.1-2.3,2.4-3.5,3.6
				c-3.1,3.5-6.6,2.4-10.4,1.3c-4.1-1.2-8.1-4.2-12.7-1.4c-7.8,1.3-14.5-4.5-22.7-3.2c-5.7,0.9-10.9,1.5-14.8,6
				c-1.5,1.7-2.4,3.8-3.6,5.7c-1.3,1.4-2.6,2.7-4.8,1.6c-0.2-2.6-0.3-5.1-0.5-7.7c0.1-2.6,0.2-5.2,0.3-7.8
				C118.7,121.1,118.7,120.4,118.8,119.7z"/>
			<path class="st65" d="M124.6,196.4c-3.3-11.8-1.7-23.8-1.9-35.7c-0.1-5.1-0.2-9.8-3.9-13.7c1.7-3.2,0.7-7.5,3.8-10.2
				c1.7-1,3.4-1.2,5.1-0.2c0.8,0.1,0.8,1.5,1.9,1.3c-1.2-0.6-2-1.4-2-2.8c3.2-5.2,6.4-3.2,9.6,0c1.3,2.4,1.3,4.9,0.7,7.4
				c-3.6,6.7-6,13.6-3.7,21.4c2.6,8.6-0.6,17.9,3.7,26.4c1.7,3.4-2,5.7-4.8,7.4C130.1,198.8,127.2,198.9,124.6,196.4z"/>
			<path class="st66" d="M154.1,223.9c-9-4-17.9-8.3-27-11.9c-6.1-2.4-3.9-7.3-4.4-11.6c0.6-0.1,1.3-0.1,1.9-0.2
				c2.6-2.4,6-2.3,9.2-2.9c0.9-0.1,1.8,0.1,2.6,0.6c-0.1,4.8,1.3,8.6,6.7,9.6c4.3,4,8.8,7.2,15,8.3c4.6,0.8,7.7,4,3.3,9
				C158.7,225.5,156.3,226,154.1,223.9z"/>
			<path class="st67" d="M134.4,198.3c-3.3,0.6-6.6,1.3-9.9,1.9c-0.2-1.3-2.1-2.6,0.1-3.8c3.3,0,6.5,0,9.8,0c0.2,0.3,0.5,0.7,0.7,1
				C134.9,197.7,134.7,198,134.4,198.3z"/>
			<path class="st68" d="M122.8,137.5c-1.2,3.3-1.3,6.9-4,9.6c0-3.3,0-6.5,0.1-9.8c1.2-0.6,2.4-1.3,3.6-1.9c0.5,0.4,0.8,0.8,0.7,1.3
				C123.1,137.2,123,137.5,122.8,137.5z"/>
			<path class="st69" d="M7,300.3c3.5-5.5,0.9-11.7,1.7-17.5c6,5.7,10.4-1.9,15.7-1.9c4.3,2.3-0.2,10.4,7.2,10.6
				c14.8-5.5,29.6-0.2,44.3,0c37.5,0.4,75.3,2.4,112.6-0.5c34.2-2.7,68.4-2.8,102.6-3.3c9.4-0.1,18.7,0.7,28.2-1.4
				c5.2-1.2,13.1-1.3,13.4,8.2c-2,4.5-6.6,7.7-6,13.4c-0.6,1.7-1.2,3.5-3.7,2.7c2.3-7.4-4-9.9-8-13.7c-1-1-2.5-1.9-3.1-0.4
				c-3,6.9-9.2,4.5-13.7,3.9c-11.1-1.5-20.8,4.3-31.7,4.5c-50.4,0.9-100.7,1.7-151.1,2c-11,0.1-21.8,1.3-32.9-0.1
				c-8.1-1-16-0.9-24.1,4.5c-10.6,7.1-25.7,3.5-33.5-5.6c-0.6,4.9-1.5,9.3,1.4,13.5c1.5,2.2,3.4,4.9-0.3,6.4
				c-3.6,1.5-5.7-0.7-5.5-4.5c0.5-6.1-3-7.2-7.9-6.8c-2.6-3.5-0.7-8.5-4-11.7C8.1,301.7,7.5,301,7,300.3z"/>
			<path class="st70" d="M8.6,302.5c7.2,1.9,2.6,7.8,4,11.7c0,1.3,0,2.7-0.1,4C9.8,313.3,8.8,308,8.6,302.5z"/>
			<path class="st71" d="M332.7,294.3c-4.8-3.8-9.1-9.6-16.2-4.1c-1.6,1.3-3.1,1.6-5.3,1.5c-32-2.4-64.4-3.9-95.9-0.3
				c-48.3,5.5-96.5,1-144.7,3.1c-4.5,0.2-8.9,0.4-13.1-2.6c-3.6-2.5-8.8-2.6-12.2-0.4c-5.5,3.6-11.2,2.8-17,3
				c-3.6-6.2-0.8-10,5.3-10.1c25.9-0.4,51.6-9.6,77.7-1.4c3.5,1.1,7.2,0.9,10.7-0.2c6-1.8,12-2.4,18.3-1.5
				c22.4,3.1,44.7-3.4,67.1-1.4c3.4,0.3,6.5-0.7,9.3-2.5c5.1-1.9,10.3-1.2,15.5-1.3c20.3,1.6,40.7,0.4,61-0.1
				c13.6-0.4,26.9,5.1,40.7,1.6c1.5-0.4,5.4,0.5,6.1,2.2c-1.5,4.6-1.5,10.7-6,14.6C333.6,294.4,333.1,294.3,332.7,294.3z"/>
			<path class="st72" d="M494,218.1c2.4,1.3,1.5,3.8,2.1,5.8c1.2,3.7,0.7,7.7,1.7,11.5c0,3.3,0.4,6.6-0.6,9.9
				c-3.1,6.7-8.6,8.8-15.8,8.9c-14.6,0.2-29.2-1.4-43.7,1.2c-1.7,0.3-3.3-0.1-4.6-1.1c-5.5-4.6-11.5-3.3-17.5-1.3
				c-4.7,0.3-9.5,0.7-14.2,1c-4.9,0.4-9.7,0.1-14.1-2.4c-5.2,0.2-8-2.2-7.6-7.5c0.2-3.6,0.2-7.1-1.8-10.3c-1.2-1.5-1.5-3.1,0.5-3.9
				c2.6-1,3.9,1.4,5.4,2.9c2,2.2,1.7,7.1,7.9,3.2c2.7-1.7,9.5-1.3,14.3-2.6c1.4-0.2,2.8-0.3,4.3-0.3c17.8,6.1,36.8,1.9,55,6.1
				c6.7,1.5,14.2-0.4,21.3-0.7c4.6-0.2,1.9-6.6,2.7-10.1c0.1-2.6,0.1-5.1,1.1-7.6C491.2,219.3,492.3,218.3,494,218.1z"/>
			<path class="st73" d="M491.9,286.7c-10.8-1.1-8.4,10.2-13.6,14.4c-3.3-0.2-0.9-5.1-5-5.4c-2.8,5.3,0.8,11.9-3,18.6
				c-3.1-4.8-1.6-9.1-2-12.9c-0.6-6.1-1.3-10.9-9.9-7.4c-4.2,1.7-10.6,4.6-12.2-3.9c-5.8,6.3-9.2,12.6-3.4,20.2
				c-2.1,1.7-11.6,3.1-13.8,1.5c-1.8-2.8-0.9-8.4,1-11c1.3-6.4,0.7-11.6,2-18c-2-5.5,10.5-6.1,14.2-5.8c10.6,0.9,21.2-0.5,31.6,0.7
				c7,0.8,11.9-5.5,18.5-3c1.8,2.2,0.4,4.6,0.4,6.9C495.7,283.8,493.9,285.4,491.9,286.7z"/>
			<path class="st74" d="M415.2,251.7c6.6-3.8,13.1-7.4,19.4,0.6c0.5,0.6,1.6,1.2,2.2,1c15.5-4.5,31.4-1.5,47-1.6
				c6.2,0,7.5-5.2,11.8-6.4c3.9,4.9,1.7,10.5,1.8,15.9c-0.4,0.9-1,2.2-1.8,2.1c-13.2-2.2-25.8,4-39.1,2.6
				c-6.5-0.7-16.9,7.1-23.5,3.9c-1-0.9,0-5.1-1-6C427.7,257.1,421.3,255.5,415.2,251.7z"/>
			<path class="st75" d="M356.7,483.3c-0.1-1.4-0.2-2.7-0.4-4.1c-2.5-9-3.2-18.1-2.2-27.4c-0.7-6.5-0.4-13-1.1-19.5
				c1.8-2.7-7-17.5,7-30.5c14,24,23,41,22,55c-1,7-2,7.1-2.3,12.8C371.1,472.6,363,476.5,356.7,483.3z"/>
			<path class="st76" d="M495.7,263c0-5.9,0-11.8,0-17.6c0.1-3.3,0.2-6.6,0.3-10c0.6,0.1,1.7,0.2,1.8,0.5
				c1.4,12.6,2.1,25.3-0.3,37.9c-0.1,0.5-1,0.8-1.5,1.1c-10.7,6.7-22,5.8-34,4.9c-5.4-0.4-11.2,0.6-16.9-0.8
				c-2.7-0.7-12.6,2.2-13,4.7c-2.5-3,1.2-4.6,1-8c0-5.2,9.9-6.7,12.8-6.8c10.3-0.4,20.7-1.3,31-0.6
				C483.8,268.8,490.2,267.6,495.7,263z"/>
			<path class="st77" d="M495.7,263c-2,6.1-5.3,8.7-12.5,8.3c-13.7-0.9-27.5-0.2-41.2-0.1c-1.1,0-7.9,3.9-9,4.6
				c-2.2-2.1-0.5-4.4-1-7c5.5-3.2,16.4-4.3,22.3-5.4c9.6-1.8,19.8,1.9,29.4-3.6C486.4,258.2,492.6,258.5,495.7,263z"/>
			<path class="st78" d="M405.5,235.6c-4.4,1.6-8.5,6.8-13.8,1.5c-0.3-0.3-1.9,0.1-2.5,0.6c-1.8,1.6-4.2,1.2-5.4-1.1
				c-2-3.7-3.2-4.3-5.9-2.9c-1.2-0.7-2.5-1.4-3.7-2.1c-0.8-0.8-1.4-1.7-1.5-2.8c0-1.8,0.5-3.3,2.3-4.1c8.5-1.9,16.9,0.2,25.3,0.9
				C406.4,226,409.2,229.5,405.5,235.6z"/>
			<path class="st79" d="M413.4,369.2c-3.7,6.6-8.8,12.5-8,21c0.6,5.6-2.6,8.9-7.8,10.4c-5.6,4.2-8.5-5.3-8.6-8.8
				c-0.4-9.7,3.1-24.2,8-32c2.1-0.9,10.6-17.8,13-17C416,344.8,414.8,368.3,413.4,369.2z"/>
			<path class="st80" d="M344.2,371.2c-0.7,3.8,3,7.7-0.2,11.5c-1.6,0.4-2.6-0.5-3.7-1.4c-10.8-4.8-22-0.9-33-1.2
				c-1.6-0.4-5-1.8-5.3-3.4c1-4.7,3.5-7.1,8-8c1.1-0.1,5.2,0.4,6.2,0.5C325.4,372.1,335,369,344.2,371.2z"/>
			<path class="st81" d="M330,435c-3.3,0-15.5,1-18.8,1c-10.4,4.5-20.8,3.8-31.3,0.5c-0.8-0.9-1.2-1.9-1.4-3.1
				c0.1-1.7,0.7-3.1,2.3-3.9c11.7-0.2,23.6,1.8,35.2-1.8c0.7-1.2,1.5-2.3,2.5-3.3c0.8-0.6,10.6-1.6,11.5-1.2
				C330,427.1,330,431,330,435z"/>
			<path class="st82" d="M342.6,381c0.5,0.6,0.9,1.2,1.4,1.8c-0.5,0.7-1,1.4-1.5,2.1c-5.3,4.3-11.7,1.4-17.5,2.4
				c-4.4,0.8-9.1-0.5-13.2,2.3c-1.9,0.9-15.9,6.1-15.9,2.1c-1-0.5,2.4-3,2-4c-0.6-3.3-0.3-5.9,4-7C313.8,380.4,331,376,342.6,381z"
				/>
			<path class="st83" d="M334.9,394.8c-2,3.3-4.7,5.9-7.9,7.9c-5.7-5.2-12.1-3.9-18.7-2.4c-1.8,0.7-3.6,1.4-5.5,0.2
				c-1.6-2.2-1.6-4.6-0.7-7.1c0.5-0.9,1.2-1.5,2-2c3.1-0.8,6.4-0.9,9.5-2c0.9,0,1.8,0.2,2.6,0.4c3.4,1.9,6.8-0.6,10.2-0.1
				C329.9,390.3,333.5,390.8,334.9,394.8z"/>
			<path class="st84" d="M316,351.8c2.7-4.3,5-9.1,8-13c2.1-1.4,20.1,1.3,22,3c1.1,3.3,0.3,7.7,2,11
				C342,357.4,319.8,357.5,316,351.8z"/>
			<path class="st85" d="M311.2,388.8c0.5-4,3.5-3.9,6.5-3.9c8.3,0,16.6,0,24.9,0c0,2.8-1.3,4.8-3.8,6c-7.9,0.2-15.7-1-23.6-0.1l0,0
				C314.2,389.5,312.1,390.3,311.2,388.8z"/>
			<path class="st86" d="M315.1,371.1c-0.7,0-1.4,0-2.1,0c-4.1-3.3-4.4-6.4-1.1-8.4c9.6-0.1,21.7-2.5,31.1,2.3
				c1.4,1.1,1.5,2.5,1.2,4.1C334.8,373.3,324.9,370.4,315.1,371.1z"/>
			<path class="st87" d="M427.1,355.6c0.5-0.2,1-0.4,1.6-0.6c1.6,1.3,1.4,2.8,0.4,4.3c-6.3,8.9-0.3,21.7-9.5,29.6
				c-3.5-6.8-7.5-15.7-4.6-22.1c-1.3-3.3-1.7-9.8,1-12C418.5,353.8,425.5,357.2,427.1,355.6z"/>
			<path class="st88" d="M326.7,405.4c-1.2,2,0.5,6.4-0.7,8.4c-0.8,0.7-6.7-0.1-7.7,0.4c-5.2,0.6-10.9,2.8-14.1-4
				c-0.1-2.2,0.7-4,2.1-5.5c5.2-1.7,10.5-3.4,16.1-3C324.5,402.6,326.1,403.8,326.7,405.4z"/>
			<path class="st89" d="M387.3,251.5c4.8,0.4,9.9-1.9,14.2,1.7c0.6,0.5,0.8,0.9,0.6,1.3c-0.2,0.4-0.4,0.6-0.6,0.6
				c-2.6,2.1-1.2,5.4-2.2,7.9c-1.6,3.8-3.8,5.5-5.7,0c-2.3-2-1.4-5.7-3.8-7.7C388.9,254.1,388.1,252.8,387.3,251.5z"/>
			<path class="st90" d="M319.2,353.7c0.6-0.1,1.1-0.3,1.7-0.4c6.1,3.9,23,0.1,28.8,5.2c0.2,0.6,0.3,1.2,0.1,1.8
				c1,1.9,1.3,4.5-1.5,4.2c-7.7-0.9-29.8,1.3-37.3-1.6C309.4,359,312,354.8,319.2,353.7L319.2,353.7z"/>
			<path class="st91" d="M316.8,360.8c8,0.2,25.2,3,33.2,2c0.8,2-4.8,4-4,6c-9.9,0-22.7-3.6-32.5-3.5
				C312.2,362,314.2,361.2,316.8,360.8z"/>
			<path class="st92" d="M348.7,357.4c-3.7-1.5-15.4-0.2-19.1,0c-3.6,0.2-7-0.2-8.6-4.2c1.4-1.2,2.7-2.4,4.1-3.7
				c5.5,2.3,19,5.2,25.2,2C349.7,353.5,349.2,355.5,348.7,357.4z"/>
			<path class="st93" d="M315.1,371.1c9.6-2.8,19.4-1.7,29.2-2c0,0.7-0.1,1.4-0.1,2.1C334.5,374.4,324.8,374.1,315.1,371.1z"/>
			<path class="st94" d="M315.1,390.8c7.9-1.8,15.8-4.1,23.6,0.1c-1.3,1.3-2.6,2.6-3.8,3.9c-4.3-1.1-8.1-5.5-13.3-1.2
				C319.7,395.3,316.8,392.9,315.1,390.8z"/>
			<path class="st95" d="M324.7,406.4c-1.5-0.9-1.7-2.3-1.7-3.8c-4.8-2-10.7,2.2-14.9-2.7c-0.3-0.4-0.5-0.8-0.8-1.2
				c11-4.1,17.5-2.8,19.7,4.1C326.2,404,325.5,405.2,324.7,406.4z"/>
			<path class="st96" d="M374.1,225.8c0,1.3,0,2.7,0,4c-5,1.8-9.1-3-13.9-2.1l-0.9-0.1c0,0-0.9,0.2-0.9,0.2c-1.3,0-2.6,0-3.9-0.1
				c-1.9-4.7,1.7-6,4.8-6.2C364.5,221.3,370.9,218.2,374.1,225.8z"/>
			<path class="st97" d="M417.2,369.2c-0.6,1.4-1.2,2.9-1.7,4.3c-0.2-1.7-0.4-3.4-2.1-4.3c2.2-5.4-2.3-3.5-4.4-4.1
				C414,361.9,417.1,362.5,417.2,369.2z"/>
			<path class="st98" d="M345,342.8c-2-0.1-19-3.9-21-4c0.7-2,19.3-19,20-21C347.8,318.2,345.6,339.5,345,342.8z"/>
			<path class="st99" d="M319.1,412.5c0.6,0,8.3-0.1,8.9-0.1c0,3.9,0,7.9,0,11.8c0,0-8,0-8,0l-1,0c-0.3-0.3-0.6-0.6-1-0.9
				c-0.9-1.6-1.1-3.3-1.1-5c0-0.9,0-1.7,0.2-2.6C317.4,414.4,318.1,413.3,319.1,412.5z"/>
			<path class="st1" d="M494,218.1c-0.7,0.7-1.4,1.5-2.1,2.2c-3.4,2.7-7.4,2.6-11.2,2.1c-26.8-3.5-53.8-3.9-80.6-6
				c-8.5-2.8-17.4-1.3-26.1-1.9c-3.3-0.2-8.2,0.4-8.2-4.6c0-4.2,4.5-4,7.6-4.2c6.9-0.5,10.5-1.1,11.1-11c0.7-11.3-2.2-22.4-0.5-33.5
				c-0.2-3,0.4-5.7,1.8-8.3c2.2-3.4,2.6-8,6.7-10.2c1.7-0.4,3.5-0.1,5.2-0.4c6.9-2.1,4.8-12.3,12.4-13.8c1.8,0.1,3.7-0.3,5.3,0.9
				c1.3,0.1,2.6,0.1,3.9,0.2c4.3-1.7,8-0.7,11,2.8c2,5.7,4.2,11.4,8.1,16.2c2.5,2.9,4.8,6,5,10c0.4,5-0.3,10.3,5.4,13.4
				c2.6-3.7,1.1-7.6,1.5-11.4c0-3.5,0.7-6.8,2.4-9.9c2.2-3.7,2.9-7.9,4.1-12c1-3.5,2.3-7.4,7.4-4.5c2.2,1.2,4.3,2.6,5.5,4.9
				c0.4,0.9,0.7,1.8,0.9,2.8c0.5,2.4,0.5,4.7,0.5,7.1c0.1,1.4,0,2.7-0.1,4.1c-2.6,5.9,2.9,1.8,3.9,3.2c7,11.1,10.9,23.4,13.3,36.1
				c2.1,5,0.5,10.9,3.7,15.7c0.8,2,1.6,3.9,2.4,5.9C494,215.4,494,216.7,494,218.1z"/>
			<path class="st100" d="M491.6,208.2c-7.2-3.9-2.3-10.5-3.7-15.7C490.2,197.5,492.4,202.5,491.6,208.2z"/>
			<path class="st101" d="M474.6,156.3c-3.2,1.1-8.1,5.4-6-3.2c1.9-1.6,3.8-1.5,5.6,0C474.4,154.2,474.5,155.3,474.6,156.3z"/>
			<path class="st102" d="M474.3,153.1c-1.9,0-3.8,0-5.6,0c0-1.3,0.1-2.7,0.1-4c0.7-1.5,1.6-2.6,3.5-2.4c1.1,0.6,1.8,1.4,1.9,2.7
				C474.2,150.6,474.2,151.9,474.3,153.1z"/>
			<path class="st103" d="M429.1,133.3c-3.3-1.2-6.6-2.4-9.9-3.7c-0.2-3.1,1.4-5.2,4.2-5.6c7.2-1.2,9.5-4.7,10.1-12.2
				c0.6-7.5,8.4-2.8,12.8-4c7.3,7.7,12.3,17,18.3,25.6c0.5,0.4,0.6,0.9,0.5,1.3c-0.2,0.4-0.4,0.6-0.5,0.6c-4.6-1.9-5.4,0.9-5.9,4.6
				c-0.6,4-0.3,8.4-4.1,11.3c-1-0.3-1.9-0.8-2.9-0.2c-1.9,4.2,0.2,8.9-1.8,13.1c-7.3,4.8-7.1-1.7-8.6-5.7c0.8-4-4.3-5.3-4.3-9
				C433.4,144.4,432.4,138.3,429.1,133.3z"/>
			<path class="st104" d="M154.1,381c41.7-7.3,83.8-7.9,125.9-8.2c13-5.8,18.4-2,17.1,12.1c-0.9,2.3-2,4.3-4.5,5.2
				c-44.9,0.4-89.7,2.9-134.6,1.7c-5.2-0.1-10.5,0.8-15.3-2.1c-1.5-1.5-1.7-3.1-0.4-4.8l0,0C145.4,381.3,150.9,384.6,154.1,381z"/>
			<path class="st105" d="M142.3,388.8c33.5,0,67.1,1,100.6-0.5c12.8-0.6,26.1,1.2,38.7-3.1c4.9-1.7,7,4.8,11.5,3.6
				c1.6,6.1,1.3,11.1-6.7,11.8c-3.7-1.7-7.7-1.1-11.6-1.2c-36.6-0.4-73.2-0.3-109.7,2.4c-14.7,1.1-29.3,1.8-44,1.6
				c-3,0-5.9,0.3-8.5,2c-2.8,1.2-5.5,1.6-8.4,0.3c-0.4-0.4-0.9-0.8-1.3-1.2c4-2.5,7.9-5.1,11.9-7.6c7-4.7,15.7-5.1,23-9.3
				C139.2,386.8,141,387.7,142.3,388.8z"/>
			<path class="st106" d="M279.9,371.4c1.6-4-0.7-4.7-3.8-4.1c-18.4,3.9-37.1,0.9-55.6,1.9c-9.8,0.5-19.6,1.1-31.7,1.8
				c9.6-7.3,19.7-7.6,28.1-11.6c13.2,0.6,26.4-1.4,39.7-0.9c12,0.5,32.4-3.2,44.4-3.7c4.6,4.4,0.9,19.7-3,22
				C294.8,378.7,284.1,373,279.9,371.4z"/>
			<path class="st107" d="M163.9,439.9c-4.5,0.7-9.3-1.6-13.5,1.6c-2.7-0.7-5.4-1.3-8.1-2c-1.1-1.8-1-3.4,0.8-4.7
				c17-1.6,33.7-5.1,50.9-5.2c25.7-0.1,51.5-1,77.2,0.3c1.2,0.4,2.2,1,3.1,1.9c0.3,3.9-2.1,5.3-5.5,5.9c-28.2,0.3-56.5,0-84.7,0.3
				C177.2,438.1,170.5,438.9,163.9,439.9z"/>
			<path class="st11" d="M110.7,459.7c-4.8-1.3-8.5-4.2-11.7-7.9c-4.2-4.4-8.5-8.8-13.9-11.8c-5.6-1.3-8.4-5.8-11.5-10
				c1.1-0.6,2.9-1.8,3.2-1.6c10.4,10.4,24.4,5.1,36.4,8.5c1.3,2.5-0.9,4.2-2.3,4.6c-11.6,3.9-8,9-1.5,14.7
				C110.2,456.9,110.3,458.5,110.7,459.7z"/>
			<path class="st108" d="M301.3,351.5c0.3,5.5-7,3.5-7.8,7.8c-6.7,3.4-13.8,1.9-20.7,1.9c-15.5,0.1-31.1,0.1-46.6,0
				c-3.1,0-6.6,1.1-9.1-1.9c7.8-2,15.7-3.9,23.5-5.9c9.8,2.7,19.7,0.9,29.6,1c7.3,0.1,15,1.9,22-2.1C295,351.4,298,350,301.3,351.5z
				"/>
			<path class="st109" d="M301.3,351.5c-2.4,1.3-4.9,2.3-7.7,2c-12.7,3.6-25.7,1.7-38.6,1.4c-1.7,0-2.8-1.4-2.6-3.4
				c9.3-1.3,18-5.5,27.5-5.8c6.2,2.6,12.4,2.9,18.7,0.2c2.3-1,4.7-2.6,7.2-0.2c-0.1,0.6-0.2,1.2-0.4,1.8
				C303.9,348.9,302.6,350.2,301.3,351.5z"/>
			<path class="st110" d="M252.3,351.5c3.9,3.6,8.7,1.7,13.1,1.8c9.4,0.3,18.8,0.1,28.2,0.1c-1.6,3.6-4.7,3.9-8.2,3.9
				c-13.6-0.1-27.3,0-40.9,0c-2.6,0-5.8,0.6-4-3.9C244.4,352.9,248.4,352.2,252.3,351.5z"/>
			<path class="st111" d="M312,329.7c-0.2,5.1-1.7,9.8-4.7,14c-0.5-0.4-0.7-0.8-0.5-1.2c0.1-0.4,0.3-0.6,0.4-0.6
				c-0.2-1.7-0.8-4-2.5-3.7c-9.3,1.7-14.6-4.1-21.6-12.6C293.9,329.2,302.9,331,312,329.7z"/>
			<path class="st11" d="M138.2,455.4c-6.5,2.6-12.6-4.3-19.8-0.3c-2.9,1.6-4.6-3.2-7.1-5.6C130,444.4,130,444.4,138.2,455.4z"/>
			<path class="st112" d="M124.6,435.6c-14.7-3-29.7-5.1-43.7-11.3c0.7-0.9,1.5-1.5,2.6-1.9c3.7-1.1,7.4-0.8,11.2-0.1
				c5.9,1.6,11.8,3.6,18.1,3.2c2.1,0,4.2,0.3,6.3,0.8c5.6,2.6,12.9-1.4,17.7,4.6c-0.7,3.2-3.5,3-5.8,3.4
				C128.7,434.3,126.5,433.8,124.6,435.6z"/>
			<path class="st113" d="M307.2,341.9c0,0.6,0,1.2,0.1,1.8c-0.6,0.7-1.1,1.4-1.7,2.1c-7.8,2.8-15.4,7.2-24.1,2.8
				c-1.4-0.7-1.7-1.6-1.8-2.9C288.8,343.7,297.7,340.8,307.2,341.9z"/>
			<path class="st114" d="M142.3,388.8c-9.5,1.4-17.5,8-27.4,8.1c-0.1-5,4.4-4,7-5.2c6.5-3.1,13.1-6.1,20.4-6.7
				C142.3,386.2,142.3,387.5,142.3,388.8z"/>
			<path class="st54" d="M83.4,424.1c-0.8,0.1-1.6,0.2-2.4,0.2c-2.6,0-5.9,0.2-6.4-2.7c-0.5-2.7,2.8-3.9,4.7-5.4
				c1.5-2,3.3-3.4,6-3.1c1.4,0.5,2.4,1.4,2.4,3C85,418.1,82.8,420.3,83.4,424.1z"/>
			<path class="st115" d="M91.4,408.6c3.9-1.4,7.7-2.7,11.6-4.1c0,0,0.1,0.3,0.1,0.3c1.1,1.3,1.1,2.8,0.4,4.4
				c-3.6,4.6-7.9,6.9-13.7,4.2C87.5,410.8,89.5,409.7,91.4,408.6z"/>
			<path class="st114" d="M154.1,381c-2,7.1-7.9,2.6-11.8,3.9C144.3,377.8,150.1,382.3,154.1,381z"/>
			<path class="st116" d="M91.4,408.6c-0.8,1.2-1.5,2.5-2.3,3.7c-0.8,1.7-2.8,1-3.9,2c-1.9,0.6-3.9,1.3-5.8,1.9
				C81.3,410.4,85.3,407.8,91.4,408.6z"/>
			<path class="st117" d="M142.3,436c0,1.2,0,2.4,0,3.6c-3.9-0.7-7.8-1.3-11.7-2c-0.5-1.2-0.2-2.1,0.9-2.7
				C135.2,434,138.9,432.8,142.3,436z"/>
			<path class="st107" d="M130.5,436c0,0.5,0,1,0,1.6c-2-0.6-3.9-1.3-5.9-1.9c0.1-2.5,1.5-3.5,3.9-3.6
				C129.6,433.2,131.7,433.7,130.5,436z"/>
			<path class="st69" d="M315.1,306c-0.7,0.4-1.6,0.9-1.7,0.8c-0.6-0.7-1.4-1.5-1.4-2.2c0-1.1,1.1-1.7,1.9-1
				C314.6,304,314.7,305.1,315.1,306z"/>
			<path class="st117" d="M163.9,439.9c8-4,16.7-3.8,25.3-3.8c26.9-0.2,53.9-0.1,80.8-0.1c1,2.2-0.5,3-2,3.9
				c-26.8,0.8-53.7-1.4-80.5,1.2c-4.5,0.4-9.3-3.1-13.8,0.8C170.4,441.2,167.1,440.6,163.9,439.9z"/>
			<path class="st118" d="M268,439.9c0.7-1.3,1.3-2.6,2-3.9c1.3-1.3,2.6-2.6,3.9-3.9c2-1.7,3.9-1.6,5.9,0c0,0.7,0,1.3,0,2
				c-1.5,2.1,0.7,4.2,0,6.3c-0.2,1.4-0.9,2.5-1.9,3.5c-2.6,0-5.2,0-7.9,0C269.9,442.2,269.6,440.7,268,439.9z"/>
			<path class="st119" d="M277.8,443.8c0-1.3,0-2.6,0-3.9c11.1-3.2,22.3-3.1,33.4,0c0,0.6,0,1.2,0,1.7c-3.2,0.8-6.3,1.6-9.5,2.3
				c-2.7,1.2-5.5,1.4-8.2-0.1C288.3,438.8,283,444.7,277.8,443.8z"/>
			<path class="st120" d="M293.5,443.8c2.7,0,5.5,0.1,8.2,0.1c-4.3,2.7-9.3,2.5-14.1,3.5C288,443.6,290.8,443.9,293.5,443.8z"/>
			<path class="st121" d="M85.1,440c7.6,0.5,10.9,5.9,13.9,11.8C93.3,449.2,88.8,445.1,85.1,440z"/>
			<path class="st122" d="M353,432.3c3.3,5.5-0.8,12.8,4.3,17.8c-1.1,0.6-2.1,1.1-3.2,1.7C351.6,445.4,351.4,438.9,353,432.3z"/>
			<path class="st123" d="M311.2,439.9c-11.1,0-22.3,0-33.4,0c0.1-2.2-0.3-4.5,1.9-5.9c10.3,4.2,21,0.9,31.5,2
				C311.2,437.3,311.2,438.6,311.2,439.9z"/>
			<path class="st124" d="M260.1,113.9c19.8-0.1,39.6-1.2,59.3-2c8.1-0.4,18.1-4.6,26.6,1.7c1.6,1.2,4.3-0.1,6.5-0.9
				c12.5-4.6,25-4.6,37.2,1.2c1,7.8-3.1,9.2-9.8,8.1c-13.1-2.1-26.3-2.7-39.5,0c-5.4,4.6-11.3-2.9-16.7,0.6c-4.5,4-9.3-1.4-13.9,0.6
				c-12.9-3.6-25.8-3.3-38.9-0.5c-4.1,0.9-7.9-2.1-11.4-4.7C259,116.5,259,115.1,260.1,113.9z"/>
			<path class="st125" d="M338.7,121.7c0.3-1.7,0.9-3.6,2.7-3.6c12.7-0.1,25.7-1.5,38,0.7c6.6,1.2,8.5,0.2,10.4-4.9
				c3.7,0.1,5.5,5.2,9.8,3.9c1.3,2.2,2.7,0.1,4,0c1.9,2.5,0.7,4.5-0.8,6.6c-12,4.5-23.7,10.9-36.6,2.2c-6.3-4.2-13.8-2.4-20.8-2.2
				c-0.9,0.2-1.8,0.2-2.7,0.3c-1.4-0.1-2.5-0.7-3.5-1.7C339,122.5,338.9,122.1,338.7,121.7z"/>
			<path class="st64" d="M260.1,113.9c0,1.3,0,2.6,0,3.9c1.9,2,2.2,4.2,1.4,6.7c-0.4,0.9-1,1.5-1.8,2c-5.9,1.7-8-4.4-12.3-5.9
				c-4.2-1.1-6.9,2.9-10.7,3c-1.4,0.1-2.8-0.1-4.1-0.6c-2-1.2-4.7-1.9-3.9-5.2c1.9-5,3.5-7.4,10.3-4.8
				C245.3,115.4,253,113.7,260.1,113.9z"/>
			<path class="st126" d="M228.7,117.8c1.3,1.3,2.6,2.6,3.9,3.9c-3.3,3.1-6.9,2.7-10.7,1.2c-0.4-0.4-0.8-0.8-1.2-1.2
				c0.7-1.3,1.3-2.6,2-3.9C224.8,117.8,226.7,117.8,228.7,117.8z"/>
			<path class="st127" d="M415.3,129.4c-2,0.1-3.9,0.1-5.9,0.2c-4.1,0.4-5.7,4.2-8.7,6.3c-3.1-1.3-3.1-3.8-2.6-6.5
				c0.6-1.7,1.9-2.7,3.4-3.4c3.4-1.1,6.7-1.1,9.6,1.3C412.5,128.1,413.9,128.7,415.3,129.4z"/>
			<path class="st128" d="M407.6,119.6c1.2,2,2.4,4,3.6,5.9c-2.4,1.8-5,1-7.5,0.6C402.9,122.7,403.3,120,407.6,119.6z"/>
			<path class="st129" d="M407.6,119.6c-1.3,1.9-2.6,3.9-3.9,5.8c-0.6,0.8-1.4,1-2.3,0.5c-0.6-0.8-0.6-1.6,0.2-2.3
				c0.7-2,1.4-3.9,2.1-5.9C405.2,117.8,406.6,118.2,407.6,119.6z"/>
			<path class="st130" d="M401.9,125.6c0.6,0,1.1,0,1.7-0.1c2.5,0,5,0.1,7.5,0.1c0.1,0.6,0.1,1.2,0,1.8c-3.1,0-6.3,0-9.4-0.1
				c-0.6-0.4-0.7-0.9-0.5-1.2C401.5,125.7,401.7,125.6,401.9,125.6z"/>
			<path class="st131" d="M424,335.8c10.5-4.2,21.8,0.6,32.2,2c3.8,7.9-6,8.6-14,10.3C423.6,347.9,421.9,345.5,424,335.8z"/>
			<path class="st132" d="M491.9,286.7c0.1-2.4,1.2-3.8,3.7-4c0.7,0.3,1,0.7,0.9,1.2c-0.1,0.5-0.2,0.8-0.4,0.8
				c-1.7,12.7-2.8,25.6-8.1,37.6C485.1,310,493.6,298.9,491.9,286.7z"/>
			<path class="st133" d="M429.1,359.2c-0.1-1.4-12-3-12.1-4.5c0.5-2.4-2-4.6,0-6c6.1-2.7,27.7-2.3,33.7,0.8
				C443.5,352.8,436.3,356,429.1,359.2z"/>
			<path class="st134" d="M446.9,349.6c-9.6-0.1-19.3-0.1-28.9-0.2c1.5-3.8,3-7.7,4.5-11.5c0.8,0,3.7-6,4.5-6.1
				c-1.9,10.3,8.1,13.5,16.8,13.9c2.4,2,7.1-0.1,9.4,2C451.8,349.2,449.5,349.5,446.9,349.6z"/>
			<path class="st135" d="M454.6,347.6c-2.2-0.1-4.5,0.3-5.9-2c4.6-0.6,7.3-3.2,7.8-7.8c3.3,0,6.6,1.7,6.4,4.6
				C462.7,346.9,457.1,345.3,454.6,347.6z"/>
			<path class="st136" d="M445.2,408.7c-0.5,2.6-1.9,4.6-4.3,5.8C440.8,411.4,440.9,408.5,445.2,408.7z"/>
			<path class="st137" d="M185.5,251.4c-0.6,1.1-1.2,3.1-1.8,3.1c-15.5,0.9-31.3,2.9-46.4-1c-5.5-1.4-11.7-3.7-15.7-1.4
				c-7.6,4.4-15.1,2.3-22.7,3.2c-6.1,0.7-8.4-2.1-7.7-7.9c7.3,2.4,12.7-4.5,19.6-3.9c11,0.8,21.8-0.6,32.7-1.2c14-0.8,27-7.2,41-5.4
				c2,0.1,4,0.3,5.8,1.3c2.5,6.5-3,4.6-5.8,5.6c-1.6,0.6-4.3-0.6-4.6,1.9c-0.2,2,2.4,2.6,3.8,3.7C184.4,249.9,185,250.6,185.5,251.4
				z"/>
			<path class="st138" d="M185.5,239.6c-8,0.1-16.2-1.4-23.1,4.6c-0.2,0.2-0.6,0.5-0.9,0.4c-15-3.3-29.2,5.4-44.1,2.7
				c-2.5-0.5-5-1.5-6.6-3.7c2-7.1,7.9-2.6,11.8-3.9c3.9,0,7.9,0,11.8,0c22.1-5.2,44.6-7.4,67.3-6.8c10.2,1.3,20.9-2.3,30.8,2.5
				c-0.4,5.9-5.3,4.9-8.7,4.9c-11.3-0.2-22.6,1.7-33.8-1.5C188.6,238.2,186.9,238.5,185.5,239.6z"/>
			<path class="st139" d="M232.6,278.9c-5.2,0-10.5,0-15.7,0c-2.2,1.8-4.8,2-7.4,1.9c-25.1-1-50.2,0.3-75.3,0.7
				c-26.1,0.4-52.2-3.3-78.2,0.4c-3.8,0.6-7.9,0.3-11.7-0.3c-6-0.9-9.7-3.7-8.1-10.6c2.6-0.1,3.9-1.4,3.9-3.9
				c2.6-1.3,5.2-2.6,7.9-3.9c0.5,6.7,4.2,9.2,10.8,9.9c30.6,3.1,61.2,1.9,91.9,1.6c12.7-0.1,25.5,2.6,38.4-2.8
				c4.9-2,12.9,5,20.1,1.1c8.4-1.2,16.9-3.2,24.4,3.1C233.6,277.1,233.4,278.1,232.6,278.9z"/>
			<path class="st140" d="M197.3,257.3c-0.6,0-1.3,0-1.9,0c-0.8-9.4,6.4-8.3,11.7-8.4c18.9-0.5,37.8-0.1,56.7-0.2
				c15.4,0.9,31-1.8,46.4,1.6c3,2.7,0.4,3.9-1.5,4.8c-2.3,1.2-4.9,1.4-7.4,2.3c-20.1,1.6-40.3,0.7-60.5,0.6
				c-11.4,0-22.6,0.8-33.7,3.3C203.8,259.9,200.5,258.6,197.3,257.3z"/>
			<path class="st141" d="M207.1,261.2c-0.2-0.9-0.4-1.9-0.6-2.8c7.2,1.4,13.1-3.5,20.4-3.3c24.8,0.7,49.7,0.2,74.5,0.2
				c5.4-1.3,10.5-2.1,10.1,6.2c-1,0.7-2.1,1-3.3,1c-7.3-3.1-14.7-0.6-22-0.6c-20.1,0.1-40.3-0.2-60.4,0.2c-4,0.1-7.7,0.6-11.4,1.9
				c-1.2,0.1-2.3-0.1-3.3-0.8C209.7,262.5,208.4,261.8,207.1,261.2z"/>
			<path class="st142" d="M211,263.2c0.7,0,1.3,0,2,0c5.5-2.3,10,0.6,14.7,2.6c6.1,5.1,14.6,0.2,20.7,5.1c1,1.5,1,3,0.1,4.6
				c-5.1,3.1-10.4,3-15.9,1.5c-7.3-4.7-16.1,0-23.6-3.9C209.7,269.7,210.4,266.4,211,263.2z"/>
			<path class="st143" d="M264.1,251.4c-19,0-37.9,0-56.9,0c-4.8,0-10.1-0.6-11.8,5.8c-3.3-2-6.6-3.9-9.8-5.9c-0.6,0-1.3,0-1.9,0
				c-1.8-3.2,0.2-4.7,2.8-5.9c29.4-1.8,58.7-0.4,88.1-0.7c6.7-0.1,13.7-1.5,20.2,1.7c2,5.5-2.5,3.6-4.6,3.8
				C281.4,251,272.7,249.2,264.1,251.4z"/>
			<path class="st144" d="M36.2,271c1.4,6.6,5.5,8.1,12,8c56.2-0.3,112.5-0.2,168.7-0.2c-0.7,4.9-4.5,3.9-7.6,3.9
				c-9.5,0.1-19,0-28.5,0c-5.5,0-10.9-0.6-16,2.9c-3.2,2.2-7.5,0.7-11.4-0.2c-10-2.3-19.9-4.1-30.1,0.3c-3.9,1.7-9.7,2.1-13.4,0.3
				c-13.6-6.3-28.1-4.6-41.4-2.7c-11.8,1.7-23.5,2.9-35.4,3.2c-5.7,0.1-4.6,4.4-4.8,7.8c-7.2-2.9-2.6-9.2-3.9-13.7
				C24.8,273.3,29.3,270.7,36.2,271z"/>
			<path class="st145" d="M154.1,223.9c2.6,0,5.2,0,7.8-0.1c0.9-1,2-1.1,3.2-0.7c0.3,0.3,0.5,0.6,0.8,0.9c-3.6,2.6-7.6,3.8-12,3.7
				C154,226.4,154,225.1,154.1,223.9z"/>
			<path class="st146" d="M201.2,235.6c-22.4-0.9-44.6,0.5-66.8,3.9c2-1.3,3.9-2.6,5.9-3.9c12.1,1,23.4-4,35.4-4
				c6.2-7.2,14.9-5.9,22.9-6.6c4.4,0.2,8.7,0.2,13-1.1c1.1-0.2,2.3-0.3,3.4-0.2c27.3-1.1,54.4,3.9,81.8,3.1c5-0.1,10.6-1.3,14.7,3.2
				c-2.1,5.4-6.9,4.2-10.9,4.3c-13.4,0.2-26.9-1-40.2,0.4C240.7,236.8,220.9,232.4,201.2,235.6z"/>
			<path class="st147" d="M199.2,227.8c-8.1-0.3-15.9,1.3-23.5,3.9c0-2.6,1.9-5.2,0-7.8c2-2.6,5.1-3.4,7.6-5.1
				c0.8-0.4,1.7-0.6,2.6-0.8c1.4-0.3,2.7-0.4,4.1-0.5c3.8,0,7.3-1.3,11-1.8c3.7-0.2,7.3-2,11.1-1.5c0.9,0.2,1.8,0.5,2.6,1
				c3.1,3.2-0.9,5.7-0.7,8.6c0,0.8-0.4,1.5-1,2.1c-0.6,0-1.3,0-1.9,0C207.4,228.3,202.8,225.2,199.2,227.8z"/>
			<path class="st145" d="M183.7,220c-1.6,3.4-4.6,4-8,3.9c-3.2,0-6.5,0-9.7,0.1c0,0-0.2-0.2-0.2-0.2c-1.7-7.3,4.1-5.6,7.8-6.5
				C177.1,217.3,180.9,216.9,183.7,220z"/>
			<path class="st148" d="M124.6,129.5c8.9-9.2,20.9-10.7,33.4-4.6c2.1,1,5.1,0.4,7.7,0.5c0.3,0.4,0.7,0.7,1,1.1c1,3,0,5.8-0.7,8.6
				c-2.5,9.8-4.7,10.4-12.5,3.6c-2.6-3.3-2.5-7.3-3-11.1c-1.8-2.5-4.3-1.3-6.5-1c-0.8,0.3-1.7,0.5-2.5,0.7c-1.3,0.4-2.6,0.7-3.9,0.9
				C133.2,128.9,129.3,133.4,124.6,129.5z"/>
			<path class="st148" d="M165.7,125.5c5.2-6,10.1,0.5,14.4,1.5c3.6,0.8,5-0.5,7.3-1.4c0.3,0.3,0.6,0.7,0.9,1
				c0.8,3.8-0.3,7.2-2,10.6c-0.7,0.6-1.5,1-2.4,1c-3-0.8-5.6-2.5-8.7-3.1c-4.6-1.6-7.1-5.3-9.3-9.4L165.7,125.5z"/>
			<path class="st126" d="M201.2,125.6c5.3-7.3,12.7-4.5,19.6-3.9c0,0,0,0,0,0c0.5,0.8,0.7,1.7,0.5,2.6c-5.6,8.4-6.7,8.5-19.3,2.4
				C201.8,126.3,201.5,126,201.2,125.6z"/>
			<path class="st67" d="M124.6,129.5c5.1,0.7,8.9-3.6,13.7-3.7c1,1.6,0.5,3.3,0.3,5.1c-0.3,1.7-0.7,3.4-2.3,4.5
				c-3-1.1-6.7-4.4-7.8,2c-1.9,0-3.8,0-5.7,0c-0.1-0.7-0.2-1.4-0.3-2.1C122.7,133.3,122.6,131,124.6,129.5z"/>
			<path class="st148" d="M187.4,125.5c0.7-1.3,1.4-2.5,2.1-3.8c6.4-2,7.9,3.4,10.4,7.1c0.5,2.1-0.4,3.7-1.9,5.1
				c-0.8,0.5-1.7,0.7-2.7,0.7c-2-0.3-3.1-1.8-4.1-3.3c-1.3-1.7-2.4-3.6-3.6-5.4L187.4,125.5z"/>
			<path class="st126" d="M199.2,129.6c-3.4-2.4-5-7.1-9.8-7.9c6.1-5.2,8.5,0.7,11.8,3.9c0,0,0,0,0,0
				C202.5,128,202.5,129.6,199.2,129.6z"/>
			<path class="st149" d="M136.3,135.5c0-2,0-3.9,0-5.9c1.8-1.5,4.4-1.9,5.8-4.1l0,0c3.9-1.2,7.7-1.5,11.6,0.2
				c-0.4,3.9-1.1,7.8,0.4,11.6c1.8,5,6.9,8.8,5.9,14.9c-0.1,1-0.5,2-0.9,2.9c-1.1,1.8-2.7,3-4.6,3.9c-3.3,1.2-6.6,2.6-10.2,0.9
				c-3.6-5.1-6.1-10.6-8-16.5C136.4,140.7,136.4,138.1,136.3,135.5z"/>
			<path class="st67" d="M136.4,143.3c5.2,4,7.4,9.3,7.9,15.7c0.2,10.6,0.7,21.2-0.1,31.8c-0.5,6-3.3,9.2-9.7,5.6c0,0,0,0,0,0
				c0.8-3,3.7-5.8-0.4-8.9c-2.5-2-2.1-4.4-1.2-8.1c1.4-5.8-0.6-12.5-1.6-18.8C130.1,153.9,130.7,147.9,136.4,143.3z"/>
			<path class="st67" d="M129.9,143.5c-0.6-2.5-3.3-5.4,0.4-6.7c0.7-0.2,1.6,0.3,2.5,0.5C131.8,139.3,130.8,141.4,129.9,143.5z"/>
			<path class="st150" d="M134.4,196.4c4.5,0.7,7.6-0.6,7.5-5.8c-0.1-6,0.9-11.8-1.3-18.1c-1.3-3.6,2.3-8.9,3.7-13.5
				c3.3-0.6,6.5-1.3,9.8-1.9c1.3,1.2,2.1,2.7,1.6,4.3c-3.5,11,1.6,22.1,0,33.1c-0.3,1-0.7,1.8-1.4,2.6c-2.6,1.9-5.6,2.7-8.7,3.4
				c-3.3,0.3-6.6,0.5-9.2-2.1c-0.7,0-1.3-0.1-2-0.1C134.4,197.7,134.4,197,134.4,196.4z"/>
			<path class="st151" d="M173.7,219.9c-3.1,0.4-7.2-1.3-7.9,3.9c-1.3,0-2.6,0-3.9,0c0.6-4.2-1.8-6.8-5.4-6.3
				c-7.7,0.9-11-3.9-14.3-9.3c0.4-0.4,0.8-0.8,1.2-1.1c3-1.6,6.5-1.9,9.2-0.2c5.7,3.6,11.5,6.7,18.3,7.5
				C173.6,214.7,175.7,216.6,173.7,219.9z"/>
			<path class="st151" d="M136.4,198.4c3.3,0,6.6-0.1,9.8-0.1c3.8,5.3-1.1,7.2-3.9,9.8c0,0,0,0,0,0c-3.4,0-6.8,0.5-8.7-3.7
				C131.9,201,135.4,200.4,136.4,198.4z"/>
			<path class="st144" d="M232.6,276.9c5.3-0.1,10.3-2.9,15.7-2c10.5-5.1,21.2-2.6,31.8-1c16-2.3,32.1-2,48.2-2
				c2.9,0,9.9-1.4,12.6-0.1c5,2.8-2.1,6.5-4.1,9.2c-4-5.8-7.3,1.4-11.9,0.6c-22.3-3.7-44.9-2.6-67.5-2.8c-8.3-0.1-16.6,3.5-24.9,0
				C232.6,278.2,232.6,277.5,232.6,276.9z"/>
			<path class="st152" d="M374.1,225.8c-6.8-2.1-13.8-5.5-19.7,1.9c-0.5,0.3-1.1,0.4-1.6,0.5c-2.9,0.8-5.8,1.9-8.9,1.1
				c-5.5-2.2-11.4-2-17.2-2.7c-18.9-2.3-37.8-3.5-56.8-4.1c-2.3-0.1-4.5-0.7-6.1-2.6c1.2-5.2,5.6-4.3,9.2-4.5
				c5.7-0.4,11.5,0.4,17-1.5c10.4-1.4,20.8-0.1,31.2-0.6c26.4,0,53-1.1,79.2,2.2c20.8,2.6,41.6,1.7,62.3,3.6
				c8.7,0.8,17.3,1.6,25.4,5.2c0,6.6-3.8,8.9-9.9,9.3c-19.9,1.1-39.7,2-59.6,0.3c-3.2-0.3-6.6-0.6-9.3,1.9c-1.3,0-2.6,0-3.9,0
				c0.7-5.8-1.5-8-7.6-8C390,227.6,382,226.5,374.1,225.8z"/>
			<path class="st78" d="M409.4,235.6c0.9-5.4,5.2-3.8,8.5-3.9c15.2-0.1,30.6,1,45.7-0.5c8.1-0.8,17.8,2.9,24.4-5.5
				c1.7-0.2,2.8,0.8,3.9,1.9c0,2.9,0,5.9,0,8.8c0,5.2-1.5,9.4-7.2,5.2c-3.4-2.5-5.3,0.5-8,0.4c-15.6-0.9-31.1-4.2-46.7-2.5
				C422.6,240.4,416.9,233.4,409.4,235.6z"/>
			<path class="st153" d="M491.9,227.8c-1.6,0-3.1-0.4-3.9-1.9c-12.7-3.9-25.5-6.5-38.9-6c-12.4,0.5-25.3,2.4-37.1-0.4
				c-30.3-7-60.7-1.4-91-3.5c-0.5-1.3-0.2-2.3,1-3.1c7-3.2,14.4-0.9,21.6-1.7c18.1-0.6,36,2.6,54.1,2.8c31.5,0.8,62.9,3.7,94.3,6.3
				C491.9,222.8,491.9,225.3,491.9,227.8z"/>
			<path class="st154" d="M295.5,247.4c-36.7,0-73.3,0-110,0c-1.4-2.7-0.6-4.3,2.4-4.8c5.1-0.9,10.2-2,15.5-2
				c27.4,0.1,54.9,0.3,82.3,0c15.3-0.2,30.5-2.2,45.8-2.4c3.4-0.9,6.8-1.5,10.2-0.5c1.6,0.7,3.1,1.5,2.8,3.6
				c-2.4,0.8,2.5,1.6,1.5,4.4c-3.4,3.5-14.9,4.3-19.9,4C315.9,249.4,305.5,251,295.5,247.4z"/>
			<path class="st155" d="M342,273.8c-4.8,3-15.2,1.1-20.3,1.1c-14,0.1-28-0.6-41.9,2c-2.4-3.2-6.5-2.4-10.3-4.2
				c3.3-5.3,8.4-3.6,12.8-4.2c1.8-0.2,5.1,2.9,5.4-1.9c1.9-1.5,4.1-1.8,6.3-2.2c3.1-0.8,5.9-3.1,9.4-2.4c12.9,4.2,25.5,5,37.7-2.3
				c1.1-0.7,2.3-1.1,3.6-0.4c2.2,4.9-2.7,4.8-2.7,10.6C342,272.8,341.8,271.4,342,273.8z"/>
			<path class="st156" d="M346,259.8c-10.8,9.2-31.4,10.5-42.6,3.4c1.4-2.4,4.2-0.6,5.9-2c0.6,0,1.3,0,1.9-0.1
				c4-4.6,9.6-5.9,14.9-7.8c4.9-1.1,12.5-5.9,17.9-5.5C356.2,242.3,347.3,259.4,346,259.8z"/>
			<path class="st157" d="M347,246.8c-4.3,2.9-15.1,7.4-20.1,8.5c-5.1-1.6-11.1,0.1-15.7-3.9c-15.7,0-31.4,0-47.1,0
				c5.5-3.9,11.8-1.1,17.6-2c4.6-0.7,9.6,1.8,13.8-2c14.3-0.1,28.7,0.6,43-2C347,243.8,346.2,245.5,347,246.8z"/>
			<path class="st158" d="M344.5,241.3c-0.6-0.6-1.3-1.2-1.9-1.8c-1.5-1.3-1.1-2.8-0.2-4.2c1-1.2,2-2.4,3.1-3.5
				c0.6-0.6,1.3-0.9,2-1.2c1.2-0.1,4.7,1.1,5.5,2.2C351.8,236.6,349,239.7,344.5,241.3z"/>
			<path class="st96" d="M352,232.8c-1.4,0-4.1-1.1-5.4-1.1c-1-1.3-1.2-2.6,0-3.9c2,0.6,4.3-2.4,6.2,0.4
				C352.1,229.4,352.7,231.6,352,232.8z"/>
			<path class="st159" d="M342.6,381c-11.9,0-29.7,0.8-41.6,0.8c-0.4-0.4-0.6-2.7-0.4-3.1c0.2-0.4,0.3-1.9,0.4-1.9
				c10.8-3.9,28,0.1,39.1,0.6C341.9,377.5,342.4,379.3,342.6,381z"/>
			<path class="st160" d="M279.8,432.1c-2,0-3.9,0-5.9,0c0,0-0.1,0-0.1,0c-1.5-3.3,0.9-5.7,1.9-8.5c0.8-1.5,1.5-3.1,2.3-4.6
				c1.3-2.7,2.6-5.3,3.9-8c0.7-1.4,1.4-2.9,1.9-4.5c0.7-1.9,1.4-3.7,2.8-5.2c0.3-0.2,0.7-0.4,1.1-0.6c3.4-3.3,3.9-7.8,5.3-12
				c0.7-1.5,1.5-2.9,2.2-4.4c0.6,2.9-0.8,6.3,2.4,8.5c2.1,2.7,0.5,5.1-0.5,7.5c-1.4,2.6-2.8,5.2-4.1,7.9c-1.3,2.5-2.6,5.1-3.4,7.8
				c-0.2,0.8-0.5,1.6-0.8,2.3c-0.2,0.4-0.4,0.7-0.5,1.1c-1.2,2.2-2.2,4.5-3.3,6.7c-0.8,1.5-1.7,2.9-3.3,3.7
				C281.1,430.7,280.4,431.4,279.8,432.1z"/>
			<path class="st99" d="M283.7,426.1c0.4-3.1,1.4-5.8,3.9-7.9c3.6,3.2,7.8,3.7,12.6,3.6c6.3-0.1,13-2.1,18.9,2.3
				c0,0,0.1,0.1,0.1,0.1c0,1.3,0,2.6,0,3.9c-10.5,3.7-21.4,1.7-32.1,1.7C285.1,429.8,283.3,428.7,283.7,426.1z"/>
			<path class="st161" d="M283.7,426.1c11.5,5.4,23.6,0.3,35.4,2c-0.6,1.1-1.2,3.1-1.8,3.1c-11.9,0-23.9,3.9-35.6-1.1
				C281.8,428.5,282.1,427,283.7,426.1z"/>
			<path class="st94" d="M305.1,392.7c0.1-1.3,0.3-2.6,0.4-4c1.9,0,3.8,0.1,5.7,0.1c1.6,0.1,3.1,0.4,3.9,2
				C311.8,391.4,308.5,392.1,305.1,392.7z"/>
			<path class="st95" d="M303.5,402.6c0-0.7,0.1-1.4,0.1-2.1c1.2-0.6,2.4-1.3,3.7-1.9c0,0,0,0,0,0c1.6,2,1.7,3.9,0,5.9
				c-0.1,1.6-0.3,3-1.9,3.8C303.4,406.9,305.2,404.2,303.5,402.6z"/>
			<path class="st162" d="M303.5,402.6c2.1,1.4,1.8,3.7,1.9,5.8c2.8,7.4,9.2,2.6,13.7,4.1c0,1.3-0.1,2.6-0.1,3.8
				c-9,4.3-18.1,3.7-27.4,1.2c-1.1-1.3-1.4-2.8-1-4.5c2.7-3.7,6.9-3.9,10.8-4.7C303.8,407.1,303.2,404.7,303.5,402.6z"/>
			<path class="st163" d="M307.3,404.6c0-2,0-3.9,0-5.9c5,2.4,11,0.5,15.7,3.9C317.7,402.7,313.1,408.1,307.3,404.6z"/>
			<path class="st164" d="M319,424.2c-7.8,0.3-15.5,0.6-23.3,0.7c-4.5,0.1-8.6-0.6-8.2-6.6c0,0,0.1,0,0.1,0
				c10.5,0.7,20.9-0.5,31.4,0C319,420.2,319,422.2,319,424.2z"/>
			<path class="st165" d="M319,418.3c-10.5,2.3-20.9,3.9-31.4,0c0-0.6,0-1.3,0.1-1.9c1.3-1.2,2.5-1.2,3.8,0c9.2,0,18.3,0,27.5,0
				C319,417,319,417.6,319,418.3z"/>
			<path class="st166" d="M387.8,153.2c-0.8,2.5-1.7,5-2.5,7.5c-0.5,0.8-1.2,1.3-2.1,1.6c-1.4,0.2-2.7-0.1-3.8-1
				c-1.5-4-6.4-5.5-7.5-9.8c-1.2-4-3.6-2.4-5.8-1.1c-1.3,0.5-2.7,0.6-4.1,0.4c-3.9-1.1-6.3-3.7-7.3-7.6c-0.1-0.6-0.4-1.8-0.5-1.8
				c-2.9,0.8-2.3,3.5-3,5.5c-5.9,6-6.1-0.6-7.9-3.6c-8.8-6.2-3.1-13-0.6-19.6l0,0c15-3.2,27.3,2.4,38.2,12.1
				C383.8,141.4,391.2,145.1,387.8,153.2z"/>
			<path class="st167" d="M383.9,161.1c0.4-0.3,0.9-0.4,1.4-0.5c-0.9,10.3,6.9,20.3,0.8,30.9c-0.7,1.2-0.8,3.6-0.1,4.8
				c8,14-4.7,9.9-10.3,11.8c-2.6,0.9-5.8-0.9-8.9,2.2c10.2,4.7,21.3-1.3,30.8,3.7c-18.3,0-36.7,0-55,0c-2.2-2.2-5.9,0.5-8-2.6
				c0.8-2.2,6-2.5,3.1-6.4c10.7-3.4,21.9,0.1,32.6-2.4c1.8-9.3,2.9-18.6,4-28c0.4-3.1-0.7-6.5,3-8.3
				C380.2,165.4,381.7,162.9,383.9,161.1z"/>
			<path class="st168" d="M387.8,153.2c0.9-7.1-6.3-10-8.2-15.6c3.4-1.8,7.7-1.8,9.3-6.8c1-3.2,4.5-2.8,7.3-1.3
				c1.4,5.1,2.5,10-2.5,13.9C389.8,145.4,391.2,150.7,387.8,153.2z"/>
			<path class="st169" d="M441.1,158.3c2.7,1.5,1.3,9.4,7.8,5c0.5-1,0.8-2.1,1.6-2.9c0.8-0.3,1.4-0.1,2,0.4c0,1.6,0.4,3.3,0.1,4.8
				c-0.8,3.7,2.7,9.6-3.3,10.6c-5.9,0.9-5.7-6-7.8-9.4C440.1,164.7,441.2,161.1,441.1,158.3z"/>
			<path class="st170" d="M393.7,143.4c0.6-4.6,1.1-9.2,1.7-13.8c-0.2-1.1,0.1-2,1.1-2.1c1.5-0.1,2.2,1,2.7,2.3
				c0.7,2.1,1.4,4.1,2.1,6.2c2.4,4.9-1.9,6.6-4.4,9.2C395.6,145.1,394.1,145.3,393.7,143.4z"/>
			<path class="st171" d="M397,145.1c1.3-3.1,4.6-5.3,4.4-9.2c-0.4-6,3.3-6.8,8.1-6.3C404.2,133.9,406.6,144.4,397,145.1z"/>
			<path class="st172" d="M429.1,133.3c5.2,4,6.6,10,7.8,16C431.3,145.4,429.4,139.7,429.1,133.3z"/>
			<path class="st173" d="M452.5,160.8l-1,0l-1-0.1c-1.3-5.1-1.9-10.3,0.4-15.3c2.4,1.1,3,3.3,3.5,5.6
				C452.7,154.1,452.2,157.4,452.5,160.8z"/>
			<path class="st174" d="M468.5,141.4c1.3,1.3,2.5,2.6,3.8,3.9c0,0.7-0.1,1.4-0.1,2.1c-1.2,0.6-2.3,1.2-3.5,1.7
				C468.6,146.5,468.6,144,468.5,141.4z"/>
			<path class="st175" d="M451,145.4c-0.1,5.1-0.3,10.2-0.4,15.3c-0.6,0.8-1.1,1.6-1.7,2.5C449.2,157.3,446.6,150.9,451,145.4z"/>
			<path class="st176" d="M110.8,404.5c2.4-5.1,7.1-3.8,11.2-3.9c53.1-0.9,106-5.5,159.2-4.3c4.1,0.1,6.2,0.1,6.6,4.4c0,0,0,0,0,0
				c-6.1,3.2-12.7,2.7-19.2,2.5c-28.4-0.8-56.8,0.5-85.1,2.5c-20.3,1.5-40.4,1.1-60.6,1.5C118.7,407.3,114.2,408.1,110.8,404.5z"/>
			<path class="st177" d="M110.8,404.5c31.4,0.9,62.7,0.1,93.9-2.3c27.7-2.2,55.3-1.1,83-1.5c-0.8,1.9-1.6,3.8-2.3,5.7
				c-1.5,0.6-3.2,0.9-4.8,0.8c-54.3-1.5-108.4,6-162.7,4.3c-5.1-0.2-10.6,1-14.9-3c0-1.2,0-2.5,0-3.7
				C105.6,404.7,108.2,404.6,110.8,404.5z"/>
			<path class="st178" d="M306,389.8c0,3.9-1,14.1-1,18c-0.6,0.7-6.1,2.4-7,2c-1.2-1.5-3.7-5.9-2.6-9.2c0.7-2.6,1.4-5.1,2.2-7.7
				C298.8,392.9,304.8,389.8,306,389.8z"/>
			<path class="st179" d="M277.8,424.2c-1.3,2.6-2.6,5.2-4,7.8c-19.8,0-39.7,0.6-59.5-0.1c-24.2-0.9-47.9,4.8-72,4.1
				c-3.9,0-7.9,0-11.8,0c-0.7-1.3-1.3-2.6-2-3.9c2.6,0,5.2,0,7.9,0c0.8-0.9,1.8-1.5,2.9-2c16-3.4,32.5-1.6,48.5-4.1
				c10.4-1.1,20.8-0.8,31.1-0.7c17.5,0.2,35-0.9,52.4-2.6C273.8,422.5,275.9,422.5,277.8,424.2z"/>
			<path class="st180" d="M283.7,410.5c-1.3,3.2-2.7,6.5-4,9.7c-12.7,5.7-26.6,3.9-39.5,3.6c-16.7-0.3-33,2.6-49.6,2.7
				c-17.9,0.1-35.8,0.4-53.7,0.5c-6.1,0-12,1.6-18.1,1.1c-1.9,0-3.9-0.1-5.8-0.1c-5.4-3.7-12.1-1.4-17.7-3.8
				c-3.9,0-7.8-0.1-11.7-0.1c-3.1-4.7-2-7.4,3.8-7.8c6.1-2.7,12.8-2.4,19.2-2.4c24.4-0.1,48.8-2.7,73.2-2.4
				c31.6,0.4,63.1-3.1,94.7-2.4C277.5,409.2,280.9,408.1,283.7,410.5z"/>
			<path class="st181" d="M118.7,428.1c5.1-3.1,10.4-4.2,16.4-4c14,0.4,28,0.2,42,0.1c14.2-0.1,28.3-0.9,42.6-3
				c13.4-2,27.6-0.7,41.4-0.9c6.2-0.1,12.4-0.1,18.6-0.1c-0.6,1.3-1.3,2.7-1.9,4c-29.9,5.7-60.2,3.5-90.3,4
				c-6.7,2-13.6,0.9-20.3,0.8c-9.8-0.1-19.2,2.1-28.8,3.1c-0.7,0-1.3,0-2,0C131.3,427.2,123.8,433,118.7,428.1z"/>
			<path class="st54" d="M95.1,424.2c5.2,0,10.4,0,15.6,0c3.3,0,2.7,1.8,2.1,3.8C106.6,428.3,100.6,427.5,95.1,424.2z"/>
			<path class="st182" d="M283.7,410.5c-5.4,1.6-10.8,2-16.4,2c-35.6-0.4-71.1,1.8-106.6,2.4c-24.5,0.4-49,1.9-73.5,1.4
				c-0.7-0.7-1.4-1.4-2.1-2c1.3-0.7,2.6-1.3,3.9-2c5.4,1.5,9.5-1.9,13.9-3.8c13.4,0,26.8-0.1,40.1,0c45.2,0.2,90.3-6.2,135.6-4.2
				c2.8,0.1,4.9,0,6.7,2.1C285.5,408.1,285.2,409.5,283.7,410.5z"/>
			<path class="st183" d="M260.1,125.7c0-2.6,0-5.2,0-7.9c10.4,3.5,20.7,1.3,31-0.7c7.4-1.5,12.9,5.2,20.1,4.6
				c0.3,0.4,0.6,0.8,0.8,1.2c0.3,1.5,0,2.9-1.4,3.8c-2.2,1.2-4.6,1.2-7,1c-10.1,0.5-20.4-2.3-30,3.1c-1.8,0.7-3.6,0.6-5.5-0.1
				C265.7,128.7,262.3,128.2,260.1,125.7z"/>
			<path class="st125" d="M323,121.7c0.9-4.7,4.1-4.9,6.9-2.6c2.8,2.3,5.6,2.6,8.8,2.6c0,0,0,0,0,0c1,1.1,1.2,2.4,0.6,3.7
				c-5.7,0.5-12,8.1-16.9-1.4C322.1,123.2,322.3,122.4,323,121.7z"/>
			<path class="st183" d="M323,121.7c0,0.7,0,1.3,0,2c2,3.5,0,4.6-3,5.2c-4.7-0.1-7.4-2.8-8.8-7.1c0,0,0,0,0,0
				c0.5-2.8,1.7-4.9,4-1.4C317.5,123.9,320.3,121.7,323,121.7z"/>
			<path class="st184" d="M399.2,129.7c-1.3-0.5-2.4-2.3-3.8-0.2c-2.1,0.2-5.3-0.2-5.2,2.7c0.4,10-5.1,7.4-10.5,5.3
				c-10.1-10.5-22.7-14.5-37-13.8c8.5-3.3,16.8-3.5,24.9,1.3c4.2,2.5,9.4,5.8,13.6,3.3c6.6-4,14.5,0.3,20.4-4.6
				c0.1,0.6,0.2,1.3,0.4,1.9c-0.2,0.6-0.2,1.1-0.2,1.7C400.9,128.1,400.1,128.9,399.2,129.7z"/>
			<path class="st185" d="M338.7,125.7c0-1.3,0-2.6,0-3.9c1.3,0.7,2.7,1.4,4,2c-0.7,4.1,0.8,8.3-1.5,12.4c-3.2,5.7,5.7,1.4,4.9,5.4
				c-1,1-2.2,1.5-3.6,1.7c-1.4,0.2-2.7,0.1-4.1-0.1c-0.9-0.1-1.8-0.3-2.7-0.6c-3.9-1.3-8.6-1.5-9.8-6.7c0-0.9,0.2-1.8,0.7-2.7
				C330.5,130.6,336.6,131.3,338.7,125.7z"/>
			<path class="st186" d="M260.1,125.7c3.1,0.4,7.2-1.3,7.9,3.9c-0.4,0.8-1,1.6-1.6,2.2c-6.6,7-14.6,5.2-21.3,1.7
				c-7.6-3.9-15.2-7-23.4-8.8c-0.3-0.3-0.6-0.7-0.9-1c0-0.6,0.1-1.3,0.1-1.9c3.9,0,7.9,0,11.8,0c1.3,0,2.6,0,3.9,0
				c2.7,1.8,6.2,0.7,8.8,2.9C250.1,126.9,254.9,129,260.1,125.7L260.1,125.7z"/>
			<path class="st183" d="M260.1,125.7c-5.2,6.6-10.5,5.3-15.7,0c-3.5-5,0.5-6.3,3.9-7.8C253.4,118.8,253.8,126.7,260.1,125.7z"/>
			<path class="st126" d="M248.3,117.8c-2.1,2.2-4.7,4.2-3.9,7.8c-3.1-0.3-5.9-1.4-7.9-3.9C240.6,120.7,243.5,116.3,248.3,117.8z"/>
			<path class="st187" d="M332.8,239.6c-0.2,1.3-0.5,2.6-2.2,2.7c-44.9,1.7-89.8,1.1-134.6,1.4c-3.7,0-8.9-2.6-10.5,3.8
				c-1.6,0.8-1.9,2.3-1.9,3.9c-2,0-3.8-0.8-5.2-2.3c-1.5-1.6-4.3-3.1-3.7-5.4c0.8-3.4,4.3-1.8,6.7-2.2c3.4-0.5,7.2,1.2,10.1-2
				c1.1-0.7,2.4-1,3.7-1c31.3,0.6,62.5-3.1,93.9-1.9c8.4,0.3,16.9,0,25.3-1.3C320.6,234.4,327.8,233.3,332.8,239.6z"/>
			<path class="st188" d="M332.8,239.6c-10.8-4.1-21.7,0-32.5,0c-36.3,0-72.6,0-108.9,0c-2,0-3.9,0-5.9,0c9.9-4.4,20.3-0.7,30.3-2
				c5.6-0.7,11.6,2,16.8-1.9c19-3,38.1-1.8,57.1-1.9c14.9-0.1,29.8,0,44.5-2.8c1.1-0.4,2.2-0.5,3.4-0.5c3,0.9,7,0.4,7,5.2
				c-1.6,0.8-1.9,2.3-2,3.9C339.3,239.6,336.1,239.6,332.8,239.6z"/>
			<path class="st189" d="M336.7,231.7c-5.6,5.5-12.7,3.7-19.2,3.8c-28.3,0.3-56.6,0.1-84.9,0.1c-10.5,0-21,0-31.4,0
				c2.2-2.7,5.4-2,8.2-1.9c31.2,0.4,62.4-3.4,93.6-2c2.8,0.1,6,0.8,8.2-1.9C320.2,224.7,328.5,227,336.7,231.7z"/>
			<path class="st190" d="M311.2,251.4c5.5,0.2,11.4-1.2,15.7,3.9c-5.2,2-10.5,3.9-15.7,5.9c-1.1-5.5-5.5-5.6-9.8-5.8
				C303.7,251.5,308.9,255.1,311.2,251.4z"/>
			<path class="st191" d="M309.3,261.2c-1.4,2.3-3.8,1.8-5.9,2c-3.4-0.4-5.1,2.8-7.9,3.8c-5.4-4-11.3-0.3-16.9-1.1
				c-16.2,0.8-32.5-1.7-48.6,1.5c-1.1,0.4-2.2,0.3-3.3-0.2c-4.6-1.3-9.2-2.7-13.7-4c3.3-4,7.9-3.9,12.5-3.9
				c20.8,0,41.6,0.1,62.4-0.1C295.1,259.1,302.6,255.5,309.3,261.2z"/>
			<path class="st192" d="M287.6,267.1c1.3,0.9,2.6,1.8,5,3.6c-7.5,0-14,0-21.4,0c2.7,3.7,8.6,0.7,8.6,6.2
				c-10.3-3.4-20.9-1.4-31.4-2c0-1.3,0-2.6,0-3.9c0.4-0.4,0.8-0.8,1.2-1.2C262.2,267.7,274.7,264.1,287.6,267.1z"/>
			<path class="st192" d="M226.7,267.1c0.7,0,1.3-0.1,2-0.1c1.3-1.1,2.8-1.5,4.5-1.3c4.9,2.2,12.1-2.3,15.1,5.3c0,0,0,0,0,0
				C241.2,269.4,232.8,274.7,226.7,267.1z"/>
			<path class="st193" d="M336.7,231.7c-8.6,0.2-16.9-3.2-25.5-2c-25.9,0.3-51.7,0-77.4-3.8c-6.9-1-13.9,3.8-20.9-0.1
				c0-0.6,0-1.3,0-1.9c7.1-4.5,15.3-4,23.2-4.7c4.1-0.3,8.3,0.1,12.4-1.3c5.3-0.6,10.8-2,15.5,2.1c12.9-1,26.9-2,38.5,1.1
				c14.7,3.9,30.5-1.5,44.1,6.8c0,1.3,0,2.6,0,3.9c0,0,0,0,0,0c-2.6,1.5-5.2,1.4-7.9,0C338.1,231.7,337.4,231.7,336.7,231.7z"/>
			<path class="st193" d="M199.2,227.8c3.5-3.5,7.9-1.3,11.8-2C207.6,229.4,203.2,227.2,199.2,227.8z"/>
			<path class="st194" d="M142.3,208.1c0.2-3.7,5.2-5.5,3.9-9.8c2.4-1.4,5-2.2,7.8-2c2-1.8,4.2-2.1,6.7-1.3c0.9,0.4,1.5,1,2,1.8
				c0.9,2.1,2,4.2,4.4,4.6c10.7,1.7,13.7,10.8,18.3,18.5c-0.6,0.1-1.2,0.1-1.8,0.1c-3.3,0-6.6,0-10-0.1c-0.2-0.6-0.4-1.8-0.5-1.8
				C161.7,218.3,154,206.8,142.3,208.1z"/>
			<path class="st58" d="M201.2,217.9c-3.9,0.8-7.6,2.7-11.8,2c-2.2-5.5-5.1-10.2-10.6-13.2c-3.9-2.2-7.6-5.4-5-11
				c1.2-0.9,2.7-1.4,4.2-1.6c3.2-0.3,6.3-0.2,9.3,0.9c5.1,3.4,10.3,6.6,15.3,10.2C208.9,209.7,208.3,213.6,201.2,217.9z"/>
			<path class="st195" d="M248.4,219.9c-11.6,2.9-23.5,3.3-35.4,3.9c-2.5-0.5-5-1.3-1.4-3.6c1.8-1.1,3.2-2,3.4-4.1
				c2.5-3,6.2-3.1,9.6-4.1c4-0.4,7.8-1.6,11.8-2.2c2.5-0.2,4.9-0.1,7.2,0.6c2.4,1.8,7.7,2.5,2.7,7.3
				C245.6,218.4,248,218.8,248.4,219.9z"/>
			<path class="st196" d="M173.7,196.4c0.8,8.5,9.7,10.7,14.4,14.3c6,4.5,1.1,6.4,1.3,9.3c-1.3,0-2.6,0-3.9,0
				c-3.4-3.1-7.7-5-9.1-10.5c-0.9-3.5-4.9-5.4-9.5-5.3c-5.2,0.1-6.9-2.8-5-7.7C165.8,193.1,169.8,193.1,173.7,196.4z"/>
			<path class="st197" d="M201.2,217.9c6.6-5.2,3.9-9.4-2-12.3c-4.7-2.3-9.3-4.3-11.8-9.2c3.7-3.6,8.3-2.4,12.6-2.5
				c1.6,0.1,3.1,0.5,4.5,1.2c4.8,3.6,7.4,9.8,13.9,11.7c3.8,1.1,2.7,3.7,0.2,5.7c-1.7,1.5-4.2,1.7-5.8,3.5
				C209.1,216.6,205.1,217.2,201.2,217.9z"/>
			<path class="st198" d="M213,215.9c-0.1-4.1,4.4-4.1,6.4-7.2c-8.3-0.3-12-5.5-14.2-12.3c2.6-2.8,5.9-2.5,9.1-2.2
				c1.1,0.1,2.1,0.4,3.1,0.9c3.6,1.6,6.2,4.6,9.2,7.1c5.9,4.9,5.4,7.6-1.7,11.9c-3,1.9-6.4,2.1-9.8,2.1
				C214.3,216.1,213.6,216,213,215.9z"/>
			<path class="st199" d="M158,153.2c1.5-6-5.6-9.9-3.9-15.9c2,1.6,4,3.2,6.5,5.2c3.4-5.1,3.3-11.3,5.3-16.7
				c3.2,2.6,6.4,5.3,9.6,7.9c2.7,7.4,2.2,14.2-4.1,19.8c-2.7,1.1-4.4-0.5-6.1-2C162.2,149.3,160.9,154.7,158,153.2z"/>
			<path class="st200" d="M153.7,125.7c-3.9-0.1-7.7-0.1-11.6-0.2C146.1,123.1,149.9,122.7,153.7,125.7z"/>
			<path class="st200" d="M142.1,125.5c0.1,4.2-2.9,4.1-5.8,4.1c0.6-1.2,1.3-2.5,1.9-3.7C139.6,125.8,140.9,125.6,142.1,125.5z"/>
			<path class="st201" d="M173.7,196.4c-3.9,0-7.9,0-11.8,0.1c0,0,0-0.1,0-0.1c1.2-6.4,7.4-3.6,10.9-5.9c7.2-3.5,4.3-10.2,3.4-15
				c-2.2-11.6-0.6-23-0.1-34.4c0.2-4.3,3.1-6.2,7.5-3.6c0.5,0,1-0.1,1.5-0.2c1.4,0.1,2.5,0.6,3.7,1.4c1.4,1.1,3.1,1.9,3,4.1
				c-4,7-6.2,14.2-2.3,21.9c1.3,2.6,0.2,5-0.1,7.5c-0.6,5.1-2,10.2,0.1,15.3c2.4,5.6-1.4,6.7-5.5,7.5c-2,1-4.6-0.4-6.4,1.4
				C176.3,196.3,175,196.4,173.7,196.4z"/>
			<path class="st202" d="M183.7,137.4c-3.1,0.1-5.6,0.4-6.1,4.5c-1,9.7-2.5,21.5,0.5,28.7c2.9,6.9-1.3,12.2,1.4,18
				c2.7,5.8-3.5,3-5.8,3.9c-5.7-6.9-2-15.8-4.4-23.6c-1-3.3-0.8-8-1.3-12c0.1-1.5,0.7-2.7,1.8-3.7c6-5.3,3.8-13,5.8-19.5
				C179.2,132.9,182,133.9,183.7,137.4z"/>
			<path class="st203" d="M187.4,139.5c-0.7-0.8-1.4-1.5-2.2-2.3c0.8-3.8,1.6-7.6,2.4-11.3c2,1.1,4.6,1.2,5.5,3.9
				C190.5,132.6,190.7,137.1,187.4,139.5z"/>
			<path class="st204" d="M199.2,129.6c1.6-0.9,1.9-2.3,2-3.9c2.2,0.3,5-0.2,6.4,0.9c5.9,4.9,9.6,1.7,13.1-2.9c0,0,0.4,0.3,0.4,0.3
				c3.6,5.1,0.8,9.3-2,13.5c-0.9,1.2-1.9,2.1-3.3,2.5c-2.5-0.3-4.8-2.4-7.5-0.6c-3.1,0.8-6.2,2.1-9.5,1.5c-1-0.3-1.8-0.9-2.4-1.6
				c-1-2-0.7-3.9,0.7-5.5C197.9,132.3,198.5,131,199.2,129.6z"/>
			<path class="st205" d="M187.4,139.5c0.5-4.1,0.2-8.6,5.7-9.7c0.7,1.4,1.4,2.7,2.1,4.1c2.2,3,0,5.2-1.2,7.6
				c-0.9,0.5-1.7,0.5-2.6,0C190,140.8,188.7,140.1,187.4,139.5z"/>
			<path class="st203" d="M193.2,141.2c0.7-2.5,1.3-4.9,2-7.4c0.7-0.1,1.3-0.1,2-0.2c0.1,1.9,0.2,3.7,0.3,5.6
				c0.5,0.9,0.5,1.8-0.2,2.6C195.8,142.5,194.4,142.4,193.2,141.2z"/>
			<path class="st206" d="M154.1,194.4c-0.1-12.4-4.5-24.9,0-37.3c1.3-0.7,2.6-1.4,3.9-2c2,0,3.8,0.6,5.1,2.3
				c7.1,10.2,1.8,22.2,5,33c0.4,1.4-0.6,2.9-1.9,2.8C162,192.8,158.3,196.5,154.1,194.4z"/>
			<path class="st207" d="M161.9,157.1c-1.6,0-3.1-0.4-3.9-2c0-0.6,0-1.3,0-1.9c1.3-1.8,2.5-3.8,3.9-5.5c2.7-3.4,3.5-1,4,1.5
				c1.4,2.2,1.5,4.3-0.1,6.4C164.7,156.6,163.4,157.1,161.9,157.1z"/>
			<path class="st208" d="M161.9,157.1c0.7-0.6,1.4-1.3,2.1-1.9c1.7,1.3,4.4-0.3,5.8,2c3.1,8.4,2.5,17.3,3.4,25.9
				c0.3,3.1-0.9,6.3,0.5,9.5c-3.3,3-8.6,0.4-11.8,3.9c-2.6,0-5.3,0-7.9,0c0-0.6,0-1.3,0-1.9c4.1-0.9,8.1-1.9,12.1-2.8
				C162.1,180.3,165.6,168.2,161.9,157.1z"/>
			<path class="st209" d="M248.4,219.9c-2.9-0.6-6.3,1.3-7.8-0.5c-3.6-6.8,10.3,1,3.9-7.3c5.3-4,11.7-4,17.9-4.7c2-0.1,4-0.5,6-1
				c2-0.5,4-0.7,6.1-0.6c2,0.1,3.9,0.6,5.4,2c-0.3,3.5-1.4,7.4,4.8,6c1.8-0.4,3.8,0.5,5.1,2.2c-4.8,3.8-10.5,1.2-15.7,1.9
				c-3.3,0.5-7.1-1.1-9.9,2C258.8,219.9,253.6,219.9,248.4,219.9z"/>
			<path class="st210" d="M289.7,216c-6.8,0-13.7,0-21.6,0c3.5-6.3,11-1,11.8-7.8c0.4-0.4,0.8-0.8,1.2-1.2c3.6-1.8,7.5-1.5,11.3-1.6
				c4.3,0.3,8.7-0.6,12.7,1.8c2.1,0.8-1.8,6.6,4.3,4.7c3.8-1.2,8.4-1.2,11.8,2.2c0,0.6-0.1,1.3-0.1,1.9
				C310.5,216,300.1,216,289.7,216z"/>
			<path class="st211" d="M321.1,214.1c-4.1,0-8.3-0.5-12.4,0.1c-6.8,0.9-4.8-2.6-3.4-6c0.7-5.2,5-4.3,8.3-4.5
				c5.5-0.4,11-0.2,16.6-0.1c2.5,0.2,4.9,0.6,6.6,2.6c-2.5,1.8,9,1.1,0.8,4.5c-0.9,0.4,4.4,0.5,5.1,3.2
				C335.4,214,328.3,214,321.1,214.1z"/>
			<path class="st212" d="M248.4,271c-4.5-4.6-11.3,0.7-15.8-3.9c5.2-3.7,11.2-1.4,16.8-1.9c10.1-1,20.5,2,30.4-2
				c5.1,1.6,12-3.9,15.7,3.8c-2.6,0-5.2,0.1-7.8,0.2C274.6,268.8,261.6,271.1,248.4,271z"/>
			<path class="st189" d="M338.7,231.7c2.6,0,5.2,0,7.9,0c0,1.6-0.4,3.1-2,3.9C342.6,234.3,340.7,233,338.7,231.7z"/>
			<path class="st213" d="M295.4,400.6c0.8,1.9,4.9,0.3,4,3.9c-1.5,2.8-3.2,5.2-6.9,4.8c-0.3-0.3-0.7-0.5-1-0.8
				C292,405.5,293.1,402.7,295.4,400.6z"/>
			<path class="st164" d="M291.5,416.3c-1.3,0-2.5,0-3.8,0c0.2-3.1,1.4-5.8,3.8-7.9c0,0,0.3,0,0.3,0c1,1.4,1,2.7-0.2,3.9
				C291.6,413.7,291.6,415,291.5,416.3z"/>
			<path class="st214" d="M291.6,412.4c0.1-1.3,0.1-2.6,0.2-3.9c2.6-1.3,5.1-2.6,7.7-4c0.6,0,1.2,0,1.8,0c0.1,1.3,0.1,2.6,0.2,3.9
				C299.5,413,295.4,412.4,291.6,412.4z"/>
			<path class="st215" d="M380.2,168.7c-2.4-0.7-4.9-0.9-4.1,2.7c2.8,11.2-4.4,21.7-2.1,32.8c-7.3,2.8-7.4-1.9-7.2-6.9
				c0.5-11.3,1.5-22.7-1.7-33.9c-0.4-1-0.6-2-0.6-3.1c0-1,0.1-2,0.5-3c1.2-2.2,2.4-4.5,3.8-6.6c1.7-2.7,3.5-2.4,5,0.3
				c4.2,2,6.7,5.1,6.1,10C382,163.6,381.1,166.1,380.2,168.7z"/>
			<path class="st216" d="M342.6,141.6c1.2,0,2.3,0,3.5,0c1.2,1.9-1,5.1,2.1,6.2c0.4,0.1,1.5-1.6,2.3-2.5c1.5-1.9,2.2-5,5.8-3.7
				c0.1,4,2.8,6,5.8,7.7c1.3,1,1.4,2.2,0.8,3.6c-4.2,2.9-9.4-2.5-13.6,1.6c-3.4,0.6-6.1-0.6-7.9-3.6
				C340,147.6,340.1,144.5,342.6,141.6z"/>
			<path class="st217" d="M373.8,151.1c-1.8-0.6-3.7-1.3-3.7,1.7c0,2.5-1.1,4.1-3.7,4.3c-2.7-2.5-2.2-5.2-0.3-7.9
				c0.3-2.6,1.6-4.2,4.5-4C374.5,145.6,373.9,148.5,373.8,151.1z"/>
			<path class="st218" d="M366.1,149.2c0.1,2.6,0.2,5.3,0.3,7.9c-0.3,0.5-0.4,1-0.4,1.6c-4.7,1-5.5,0-3.9-5.5c0-1.3-0.1-2.6-0.1-3.8
				C363.4,149.3,364.8,149.2,366.1,149.2z"/>
			<path class="st219" d="M356.3,141.6c-1.9,1.2-3.9,2.4-5.8,3.7c-2.4-4,1.5-4.8,3.5-6C356.3,137.8,356.1,140.2,356.3,141.6z"/>
			<path class="st220" d="M380.2,168.7c-0.1-2.5-0.2-5-0.3-7.6c1.3,0,2.6,0,3.9,0C383.7,164.1,382.6,166.7,380.2,168.7z"/>
			<path class="st221" d="M366.2,161c7.2,12,3.6,25.1,3.2,37.6c-0.2,4.7,0.6,5.7,4.7,5.6c-12.2,4.3-24.9,0.9-37.3,2
				c-2,0-3.9,0-5.9,0c3-7.6,9.6-3.6,14.6-4.7c2.6,0,5.3-0.2,7.9-0.3c8.1-3.4,6.1-10.6,6-16.8c-0.1-4.8-2.1-9.6-1-14.5
				C359.3,165.5,361.5,162.1,366.2,161z"/>
			<path class="st112" d="M138.3,432c16-5.6,32.7-3.5,49.1-3.9c-1.4,0.6-2.9,1.9-4.3,1.8C168.1,428.9,153.3,431.9,138.3,432z"/>
			<path class="st222" d="M273.9,129.6c1.1-1.5,2.5-4.5,3.2-4.3c8.8,1.9,17.6-2,26.3,0.4c0.4,7.1-7.3,9.7-8.7,15.8
				c-3.2,2.3-5.7,0.9-8.5-1.3c-3.6-2.8-6.8-6.2-12.4-6.2C270,134,272,131.1,273.9,129.6z"/>
			<path class="st223" d="M273.9,129.6c-0.2,0.6-0.4,1.2-0.6,1.8c8.4-1.3,11.9,6,17.4,9.8c0.7,0.5,1.9,0.1,2.8,0.1
				c0.3,0.4,0.6,0.7,0.9,1.1c0.7,3.9-0.3,7.4-2.2,10.7c-0.8,0.5-1.6,0.7-2.5,0.5c-2.8-2.1-1.4-6.8-5.1-8.2
				c-3.6-7.3-12.9-5-17.5-10.6c-1-1.6-2-3.2-1.3-5.2c0.8-0.1,1.5-0.1,2.3-0.2C270,129.6,271.9,129.6,273.9,129.6z"/>
			<path class="st223" d="M293.5,141.3c1.2-6.5,4.3-11.8,9.9-15.6c2.6,0,5.2,0,7.9,0c1.2,1,1.2,2.3,0.8,3.7
				c-0.5,0.8-1.1,1.4-1.9,1.9c-6.7,2.4-9.1,7.8-9.8,14.3c-1.2,1.6-2.6,2.6-4.7,2.1c-2.2-1.6-0.1-4.5-1.9-6.2L293.5,141.3z"/>
			<path class="st222" d="M311.3,129.6c0-1.3-0.1-2.6-0.1-3.9c0-1.3,0-2.6,0-3.9c2.6,2,5.2,3.9,7.9,5.9
				C317.6,132.8,314.6,131.6,311.3,129.6z"/>
			<path class="st224" d="M311.3,129.6c2.7-0.2,5.7,0.9,7.7-1.9c2.6-0.1,3.9-1.4,3.9-3.9c3.1,0.8,5.5,6.4,9.5,0.7
				c1.3-1.9,4.1,0.4,6.2,1.2c1.8,11.2-6.7,7-11.8,7.8c-4,0.7-7.8,2.5-12,1.6c-2.4-0.9-4.2-2.2-4-5.2L311.3,129.6z"/>
			<path class="st225" d="M346.6,204.2c-5.2,0.9-10.9-1.9-15.7,2c-8.5,1.1-17.3-2.3-25.5,2c-4.6,0-9.2,0-13.7,0
				c-0.1-3.6,2.7-4,5.1-4.5c7.8-1.7,15.4-3.9,23.4-4.1c7.1,0.8,10.5-2.3,10.1-9.5c-0.6-8.8,1.5-17.6-0.8-26.3
				c-1.1-4.3,0.9-7.6,3.6-10.6c1.7-3.9-0.1-9.7,5.7-11.6c1.3,0,2.6,0,3.9,0.1c0,3.2,0,6.4,0,9.6c4.7,6.8-0.1,14.2,1.7,21.6
				C346.8,182.8,346,193.7,346.6,204.2z"/>
			<path class="st226" d="M310.9,129.9c1.4,1.2,2.8,2.4,4.1,3.6c3.2,4.2,8.3-1.5,11.7,2.2c1.6,4.8,7,2.6,9.7,5.4
				c-2.7,4.9-8.6,4.5-12.4,7.5c-1.6,1-3.2,1.7-5,1.9c-4-0.7-8,0.3-12,0.3c-3.3-0.8-6.4-1.8-7.5-5.6
				C298.4,135.2,301.1,131.4,310.9,129.9z"/>
			<path class="st216" d="M322.8,147c4-3.4,8.9-4.3,13.7-5.9c0.8,0.2,1.5,0.3,2.3,0.5c-4.3,3.2-0.4,7.9-2,11.6
				C332.1,151,324.9,154.8,322.8,147z"/>
			<path class="st227" d="M326.8,135.7c-4.1,0.4-8.8,4.2-11.7-2.2c4,1.4,7.9-4.5,11.9,0C326.9,134.2,326.8,135,326.8,135.7z"/>
			<path class="st228" d="M265.8,129.7c0.8,1.2,1.5,2.5,2.3,3.7c1.2,2.2,1.5,4.7,1.7,7.2c-1.1,4.8-3.8,8-8.6,9.3
				c-4.1,0.2-6.4-6.7-11.5-3.1c-1.9,1.7-3.6,3.9-6.5,3.9c-0.9,0-1.7-0.2-2.6-0.5c-4.1-3.5-5.5,1.2-8,2.7c-2.5,1.8-5.3,2.2-8.2,1.4
				c-10.3-5.3-10.5-5.8-7.4-17c1.8-4.3,5.3-8.1,4.2-13.4c8.3-1.6,15.8,1.4,22.1,5.8C251.3,135.4,258.3,134.8,265.8,129.7z"/>
			<path class="st229" d="M279.8,263.1c-0.9,5.4-5.2,3.8-8.4,3.9c-12.9,0.1-25.8,0.1-38.8,0.1c-1.3,0-2.6,0-3.8-0.1
				c0.9-5.4,5.2-3.8,8.5-3.8C251.4,263.1,265.6,263.1,279.8,263.1z"/>
			<path class="st196" d="M177.6,196.3c1.4-2.3,3.8-1.9,5.9-1.9c4.1-1.1,8.2-2.5,12.6-2.4c1.7,0.1,3.2,0.6,4.6,1.5
				c1,0.8,1.1,1.8,0.5,2.9c-4.6,0-9.2,0-13.7,0C184.2,196.4,180.9,196.4,177.6,196.3z"/>
			<path class="st230" d="M224.8,214c3.1-3.7,8-7.2-1-10.2c-2.8-0.9-4.6-4.8-6.9-7.4c4-3.8,8.9-2.6,13.6-2.1
				c7.8,0.9,4.8,10.5,10.5,13c-0.3,2.7-3.2,3-4.4,4.8C232.6,212.7,228.9,214.7,224.8,214z"/>
			<path class="st231" d="M236.6,212.1c0.1-2.6,1.4-3.9,3.9-4c3.9-3.8,8.9-2.3,13.5-2.7c3.8,0.5,8.7-1.2,10,4.6
				c-6.5,0.7-13,1.4-19.6,2.1C241.8,212.1,239.2,212.1,236.6,212.1z"/>
			<path class="st58" d="M201.2,196.3c0-0.6,0-1.3,0-1.9c1.1-1.3,2.5-1.9,4.1-2.2c3.2-0.4,6.4-0.4,9.3,1.4c0.9,0.8,1,1.7,0.4,2.8
				c-3.3,0-6.5,0-9.8,0C203.8,196.4,202.5,196.4,201.2,196.3z"/>
			<path class="st232" d="M214.9,196.3c0-0.6,0-1.3,0-1.9c0.6-0.8,1.4-1.4,2.4-1.7c1.9-0.6,3.9-0.7,5.8-0.8
				c12.1-0.7,12.2-1.1,11.5-13.1c-0.4-7-3.5-14.8,4.1-20.3c2-0.6,3.9-0.1,5.8,0.2c1,0.2,1.9,0.5,2.8,1c0.9,0.5,1.5,1.3,1.9,2.3
				c-0.7,6.9-0.3,13.6,0.8,20.5c0.9,5.3,1.8,11.1-3.2,15.5c-5,2.1-9.7,0.4-14.3-1.5c-5.2,0-10.5,0-15.7,0
				C216.3,196.4,215.6,196.4,214.9,196.3z"/>
			<path class="st233" d="M169.8,157.1c-2.1-0.1-4.4,0.4-5.8-2c2.3-1.4,1.8-3.8,1.9-5.9c1.3,1.3,2.6,2.6,3.9,3.9
				C169.8,154.5,169.8,155.8,169.8,157.1z"/>
			<path class="st234" d="M197.3,194.4c-4.6,0-9.2,0-13.7,0c3-2,4.5-3.1,3.6-8.3c-2-12.2-1.2-24.9-1.5-37.3
				c-0.1-4.1,3.9-4.8,5.8-7.3c0.6-0.1,1.2-0.1,1.9-0.2c1.3,0,2.7,0,4,0c3.3,3.1,2.6,7.2,2.8,11c0.6,12-1,24.2,1.9,36.1
				C203,192.6,199.7,193.1,197.3,194.4z"/>
			<path class="st235" d="M197.3,194.4c1-1.2,3.1-2.9,2.8-3.6c-5.8-16.2-1.3-33-2.9-49.5c0.1-0.7,0.2-1.3,0.2-2
				c0.6,0.1,1.2,0.2,1.8,0.2c1,0.9,2.3,1.3,3.2,2.3c2.4,3.3,3.7,7,5.1,10.7c0.6,2.2,2.4,3.8,3.1,6c-1.4,8.7,1.1,17.3,1.4,26
				c0.2,5.6-1.8,8.6-6.9,10c-1.3,0-2.6,0-3.9,0C199.9,194.4,198.6,194.4,197.3,194.4z"/>
			<path class="st236" d="M205.1,194.4c8.4-4.9,4.1-13,3.4-19.1c-0.7-6.3,0.4-12.2,0.5-18.2c-1.7-5.6,2.4-10.3,2.3-15.6
				c0.8-1.4,1.7-2.6,3.5-2.1c0.7-0.7,1.3-1.3,2-2c0.9,6.1-0.4,13.3,8,15.7c-4.3,2.4-5.7,5.5-5.7,10.9c0.1,10.1,3.1,20.7-2.3,30.4
				c-0.7,0-1.3,0-2,0C211.7,194.4,208.4,194.4,205.1,194.4z"/>
			<path class="st237" d="M200.9,141.5c-0.6-0.7-1.1-1.4-1.7-2.1c3.3-0.7,6.5-1.3,9.8-2c2,1.9,2,4.2,1.4,6.6c-0.4,0.9-1,1.6-1.8,2.1
				C204.4,147.3,203.6,142.9,200.9,141.5z"/>
			<path class="st238" d="M209.1,145.3c0-2.6,0-5.3,0-7.9c2.7-1.5,4.8-1.2,5.9,2c-0.6,0.7-1.3,1.4-1.9,2
				C211.3,142.3,212.7,146.4,209.1,145.3z"/>
			<path class="st239" d="M299.5,145.2c2.6,1.4,5.1,2.9,7.7,4.3c0.9,2.2,0,4.4-0.3,6.6c-1.4,10.6-0.3,21.2-0.7,31.8
				c-0.1,4.1,0.3,8.4-1.9,12.2c-4,3.8-9,2.7-13.8,2.9c-3.4,0.6-6.9-2.1-10.2,0.7c-0.2,0.8-0.7,1.3-1.3,1.7c-1.7,0.8-3.9,1-5.1,2.7
				c-2,0-3.9,0-5.9,0.1c-6.4-3.9-6.8-7.7,0.1-11.4c2-0.7,4.1-1,6.3-1.1c3.7,0,7.4-0.1,11.1-0.2c7,0.7,6.8-4.2,7.2-8.9
				c0.9-11.7-2.4-23.5,0.9-35.1c0.2-1.7,0.7-3.1,2.1-4.1C297,146.7,298.3,145.9,299.5,145.2z"/>
			<path class="st240" d="M268,198.3c-5.9,3.3-0.1,6.6,0,9.9c-0.9,1.6-2.4,1.9-4,1.8c-2.8-3.2-6.5-1.4-9.8-1.9
				c-2.2-2.4-7.7-2.2-6.5-7.1c1.1-4.5,5.3-5.2,9.3-5.2C260.9,195.7,264.9,195.1,268,198.3z"/>
			<path class="st241" d="M273.9,208.1c0.2-4,3-4,5.9-3.9c1,1.3,1.2,2.6,0,3.9c0,0,0,0.1,0,0.1C277.8,208.2,275.9,208.2,273.9,208.1
				z"/>
			<path class="st242" d="M279.8,208.1c0-1.3,0-2.6,0-3.9l0,0c1.9-2.7,5.7-1.6,7.9-3.9c5.2,0,10.5,0,15.7,0
				c4.3-2.8,5.5-6.8,5.2-11.8c-0.4-6.5-0.4-13.1,0-19.6c0.3-3.8-0.1-8.3,5.6-8.8c3.4,0.9,6.1,2.8,8.4,5.3
				c3.9,12.5,7.2,24.9-1.6,36.9c-10.1,0.4-20,2.4-29.5,5.9C287.6,208.1,283.7,208.1,279.8,208.1z"/>
			<path class="st243" d="M366.2,161c-5.9,5.8-6,12.1-4.7,20.2c1.3,7.9,5.1,18.5-7.1,23c-2.9-16.9-7.5-33.7-3.9-51.1
				c3.9-9.2,7.8,0.4,11.7,0c1,2.1-0.7,6,3.9,5.5C366.1,159.5,366.2,160.2,366.2,161z"/>
			<path class="st244" d="M350.5,153.1c1.7,17,5,33.9,3.9,51.1c-2.6,0-5.2,0-7.9,0c-3.1-5-4.2-10.3-4.1-16.3
				c0.1-7.2,1.5-14.3-2.8-21.5c-2.5-4.3,5.2-9.3,3-15.2C345.1,152.5,347.6,153.5,350.5,153.1z"/>
			<path class="st240" d="M295.3,150.8c0.1,12.6-0.3,25.3,0.4,37.9c0.4,8-2.4,10.8-10,9.7c-0.6-11.5,1.4-23.2-1.6-34.6
				c-0.2-1.4-0.3-2.7-0.2-4.1c0.1-0.9,0.4-1.7,0.8-2.5c1.3-1.8,2.8-3.3,4.9-4.1c0.7,0,1.4-0.1,2.1-0.1
				C292.7,151.8,293.3,150.3,295.3,150.8z"/>
			<path class="st245" d="M268,141.4c0-2.6,0-5.3,0-7.9c1.1,1.1,2.7,3.4,3.3,3.2c8.8-3.5,10.9,3.8,14.5,8.7c0,0.4-0.1,0.8-0.1,1.2
				c-0.5,1.6-1.2,3.1-2.9,3.8c-1.2,0.4-2.5,0.5-3.7,0.3c-2.5-0.6-4.7-1.9-6.4-3.8C271.1,145.1,269.5,143.3,268,141.4z"/>
			<path class="st246" d="M289.7,153.1c-0.1,2.4-1.2,3.9-3.8,4c-3.9-3.8-1.3-7.8-0.3-11.8c0,0,0.3,0.1,0.3,0.1
				C293.2,144.9,287.8,150.8,289.7,153.1z"/>
			<path class="st247" d="M295.3,150.8c-1.2,0.7-2.3,1.4-3.5,2.1c-1.2-4.1,1.2-7.6,1.8-11.4c2.3,1.4,1.8,3.8,2.1,5.9
				C295.6,148.5,295.4,149.7,295.3,150.8z"/>
			<path class="st248" d="M321,202.3c3.5-12.4,2.7-24.9,0-37.3c-2.7-3.6,0.2-8.5-2.9-11.9c-0.3-1.4-0.2-2.6,1-3.6
				c1.2-0.8,2.5-1.6,3.7-2.4c3.7,4.2,10.8,0.8,13.9,6.2c-4.2,3.8-4.8,7-3.7,13.7c1.5,9.4,0.7,20-0.4,30
				C331.8,204.2,325.5,201.8,321,202.3z"/>
			<path class="st249" d="M319.1,149.4c0,1.3,0,2.5,0,3.8c-2.1,2.3-4.9,2.5-7.7,2.5c-2.3-0.1-4.4-0.6-6-2.5c0.6-1.2,1.3-2.4,1.9-3.6
				C311.2,148.3,315.1,146.1,319.1,149.4z"/>
			<path class="st250" d="M268,141.4c2.9-0.2,4.9,1.1,5.6,3.9c-5.6,7.2-6.8,15.4-4.4,24c1.5,5.5,1.5,11,1.1,16.5
				c-0.8,9.8-4.9,12.4-15.1,10.2c-2.5-15.7-1.8-31.4,0.6-47.1c1.6-0.9,3.1-0.7,4.5,0.2C263.5,147.1,266.1,144.6,268,141.4z"/>
			<path class="st251" d="M216.9,194.4c-0.5-13.7,1.3-27.5-1.5-41.3c3.3,0,6.4,0,9.5,0c2.8,0.2,5.3-0.4,7.7-1.8
				c1.2,1.2,2.2,3.1,1.4,4.4c-5.6,9.1-2.6,18.9-2.6,28.4c0,6.2-2.5,9.6-8.6,10.4C220.8,194.4,218.9,194.4,216.9,194.4z"/>
			<path class="st252" d="M222.8,194.4c9.5-4.2,7.1-13.4,5.3-19.3c-2.3-7.6,0.7-12.4,3.5-18.2c0.8-1.7,0.7-3.8,1-5.7
				c2.2-2.3,3.3-8.7,7.9-2.2c2.4,3.4,3,6.7-0.1,10c-7.2,5-4.1,12.6-3.5,18.7C238.4,192.8,237.8,194.1,222.8,194.4z"/>
			<path class="st253" d="M246.7,161.1c-0.8,0-1.6-0.1-2.4-0.1c-4.5-3.2-3.1-7.5-2.1-11.7c3.1,0.3,3.9-2.7,5.9-4.1
				c1.3,0.9,1.9,2.2,2.2,3.7c0.3,1.5,0.3,2.9,0.1,4.4C250.2,156.4,248.9,158.9,246.7,161.1z"/>
			<path class="st254" d="M248.4,149.2c-0.1-1.3-0.1-2.7-0.2-4c6.5-6.4,8.8,0.4,12.2,3.8c-1.4,0.1-2.8,0.1-4.2,0.2
				C253.6,151.3,251,151.3,248.4,149.2z"/>
			<path class="st255" d="M242.3,149.3c0.2,4-0.3,8.1,2.1,11.7c-1.6,0-3.1-0.4-3.9-1.9c0-3.3,0.1-6.7,0.1-10
				C241.1,149.1,241.7,149.2,242.3,149.3z"/>
			<path class="st256" d="M256.2,196.3c11.6-1.3,15.7-11.2,10.9-26.3c-4-12.6-1.9-20.7,6.5-24.7c2,1.3,4,2.6,6.1,4
				c1.7,1.4,3.1,3,3.7,5.1c0.3,1.7,0.7,3.4,2.2,4.5c0,1.3,0,2.7,0.1,4c-2.3,8.2-4.9,16.3-3.5,25.2c1,6.1-2.3,9.4-8.3,10.2
				c-2,0-3.9,0-5.9,0c-2.6,0-5.2-0.2-7.8,0c-3.7,0.3-8.5-1.7-10.7,2.7c-1.9,3.8,5.7,2.9,4.7,7.1c-4.6,0-9.2,0-13.7,0
				c-6.7-2.9-6.6-2.9-6.8-10.3c0-0.5-0.7-1-1.1-1.5c5.2,0,10.5,0,15.7,0C250.9,193.9,253.6,194.4,256.2,196.3z"/>
			<path class="st257" d="M256.2,196.3c-2.6,0-5.2,0-7.9,0c-0.6-8.2-0.9-16.4-2.1-24.5c-0.7-4.2,1.1-7.3,2.2-10.8
				c0.9-2.6,3.1-5.3-0.1-7.9c0-1.3,0.1-2.6,0.1-3.9c2.6,0,5.2,0,7.8,0C257.9,165,256.1,180.7,256.2,196.3z"/>
			<path class="st254" d="M248.3,153.1c2.1,0.3,3.7,1,3.8,3.4c0.2,2.7-1,4.2-3.8,4.5c0,0-0.8,0-0.8,0s-0.8,0-0.8,0
				C247.3,158.4,247.8,155.8,248.3,153.1z"/>
			<path class="st258" d="M209.1,145.3c1.3-1.3,2.6-2.6,3.9-3.9c1,5.8-0.9,10.9-3.9,15.7c-2.6-0.1-3.9-1.5-3.9-4.1
				C207.3,150.9,206.3,147.1,209.1,145.3L209.1,145.3z"/>
			<path class="st238" d="M209.1,145.3c0.1,3.3-0.2,6.3-3.9,7.7c-1.4-3.8-2.8-7.7-4.2-11.5C204.6,140.8,205.6,145.6,209.1,145.3z"/>
			<path class="st259" d="M305.3,153.1c2,0,3.9,0,5.9,0c1.9,2.3,6.7,3.2,3.9,7.8c-4.1,0.5-3.9,3.5-3.9,6.5c0,8.1-1.1,16.4,0.3,24.2
				c1.5,8.3-1.6,9.5-8.2,8.6c0-12.7-0.1-25.3,0-38C303.4,159.1,302.3,155.7,305.3,153.1z"/>
			<path class="st260" d="M273.9,198.3c6.8-2.3,6.6-8,5.8-13.4c-1.3-8.4,0-15.8,6-22c3.6,11.8,4.6,23.6,0,35.4
				C281.7,198.3,277.8,198.3,273.9,198.3z"/>
			<path class="st241" d="M287.6,200.3c-1.5,3.6-4.5,4.1-7.9,3.9c0.2-1.3-5.1-3.1,0.2-3.9C282.5,200,285.1,200.3,287.6,200.3z"/>
			<path class="st261" d="M315.1,161c-1.3-2.6-2.6-5.2-3.9-7.8c2.6,0,5.2,0,7.8,0c8.1,2.7,1.5,7.8,2,11.8
				C318.2,165,315.3,165,315.1,161z"/>
			<path class="st262" d="M285.6,158.9c-2.6,0-3.8-1.3-3.8-3.8c1.2-1.8-0.3-4.3,1.7-5.9c0.7-1.3,1.3-2.6,2-3.9
				c0.1,3.9,0.2,7.8,0.3,11.8C285.7,157.6,285.6,158.3,285.6,158.9z"/>
			<path class="st263" d="M283.6,149.2c0.1,2.1,0.5,4.4-1.7,5.9c-0.7-1.9-1.4-3.9-2.1-5.8C281,149.3,282.3,149.2,283.6,149.2z"/>
		</g>
	</g>
	<g>
		<g>
			<g>
				<path class="st264" d="M329.4,21c7.9,2.5,15.6,5.5,23.2,8.8c28.8,12.6,54.9,30.8,76.9,53.3c21.8,22.4,39.2,48.9,51,77.8
					c12.1,29.9,18.1,62,17.7,94.2c-0.5,32.1-7.3,63.8-20.1,93.2c-12.4,28.2-30.2,53.7-52.2,75.2c-22,21.3-47.9,38.3-76.2,49.9
					c-29.3,11.8-60.6,17.6-92.2,17.3c-31.4-0.5-62.4-7.2-91.1-19.8c-27.5-12.2-52.5-29.6-73.5-51.2c-11.7-12.1-22-25.4-30.8-39.6
					c-6.8-11.1-12.8-22.8-17.7-34.9c-11.5-28.6-17.2-59.2-17-90c0.4-30.7,6.7-61,18.8-89.2c11.7-27.1,28.5-51.8,49.3-72.8
					c5.9-6,12.2-11.7,18.7-17c16.3-13.5,34.2-25.1,53.2-34.3c16.7-8.1,34.2-14.3,52.2-18.6c2.6-2.4,5.2-4.7,7.9-6.9
					c7.6-2.6,15.4-4.8,23.2-6.6c-4.7-1.1-9.5-2-14.3-2.8c-24-2.3-50.2,4.5-72.4,12.4c-1.8,0.6-3.6,1.3-5.4,2
					C128,33.2,100,51.2,76.3,74c-23.8,23-42.8,50.6-55.9,81C6.9,186.5,0.1,220.5,0,254.8v0.2c0.1,34.4,7,68.4,20.4,100.1
					c13,30.5,31.8,58.2,55.2,81.7c23.5,23.3,51.3,42.1,81.8,55C189,505.2,223,512,257.4,512c34.3-0.1,68.3-7,99.9-20.4
					c30.4-13,58.1-31.8,81.3-55.3c2.4-2.4,4.7-4.9,7-7.4c19.8-21.9,35.8-47.1,47.1-74.4c13-31.5,19.4-65.3,19.2-99.4
					c-0.3-33.9-7.4-67.6-20.9-98.7c-13.1-29.9-31.8-57.1-55.1-79.9c-5.5-5.3-11.2-10.4-17.1-15.2C399.6,45.8,378,33.1,355,24
					c-31-12.1-64.4-18-97.6-16.5C281.9,8.4,306.2,12.9,329.4,21z"/>
			</g>
			<g>
				<path class="st265" d="M191.6,27.4c-2.2,5.6-20.3,10.4-25,12.7c-8.9,4.4-17.5,9.3-25.8,14.7C124.1,65.6,109,78.6,95.2,92.9
					c-10.1,10.5-19.5,21.8-27.8,33.8C59,139,51.7,152,45.6,165.6c-12.5,28.2-19.2,58.6-19.9,89.5c-0.5,31.1,5,62,16.3,91
					c11.2,28.1,27.8,53.8,48.6,75.8c21.2,22.1,46.3,39.9,74,52.7c3.1,1.4,6.3,2.8,9.5,4.1c26.5,10.7,54.6,16.6,83.2,17.4
					c32.4,0.8,64.6-4.8,94.9-16.3c9-3.5,17.8-7.5,26.4-11.8c8.8-4.4-20.6,14.1-24.5,16c-30.1,14.7-63.3,22.4-96.7,23.3
					c-23.1,0.5-46.1-2.2-68.4-8.3c-10.3-2.9-20.4-6.3-30.3-10.4c-30.2-12.6-57.7-31-81-53.9c-23.3-23.1-42-50.4-54.9-80.5
					c-13.3-31.4-20.1-65-20-99.1c0-4.8,0.2-9.7,0.5-14.5c2-29,8.9-57.5,20.5-84.2c13.1-29.9,31.8-57,55-79.9
					c4.1-4,8.3-7.9,12.7-11.6c20.3-17.3,43.3-31.5,68-41.4c8.9-3.5,18-6.6,27.4-8.5l20.6,1.5c-0.6,0.2-15.4,6.6-14.5,6.9
					C192.6,24.7,192.1,26.1,191.6,27.4z"/>
			</g>
			<g>
				<path class="st265" d="M174.3,32c-0.8,2.6-6.7,4.7-8.7,5.8c-12.4,6.7-24.5,13.8-35.9,22c-12.9,9.4-24.8,20.2-35.9,31.8
					c-10.5,11.1-20.2,22.8-28.8,35.5c-8.1,12-15.2,24.6-21.1,37.9c-12.6,28.4-19.3,59.1-20.1,90.2c-0.5,31.4,5,62.5,16.4,91.7
					c11.3,28.3,28,54.2,49,76.4c14.1,14.7,29.9,27.6,47.1,38.5c8.8,5.5,18,10.5,27.5,14.8c29.4,13.4,61.2,20.7,93.5,21.6
					c21.1,0.5,42-1.7,62.7-5.9c0.9-0.2-46,12.3-62.7,13c-33.6,1.2-67.2-4.6-98.3-17.3c-4.2-1.7-8.4-3.6-12.4-5.6
					c-25.2-12.3-48.2-28.5-68.2-48.2c-23.2-23-41.8-50.2-54.8-80.2C10.3,322.6,3.4,289,3.4,255.1c0-8.9,0.6-17.8,1.6-26.6
					c2.9-24.8,9.4-49,19.3-71.9c13-29.8,31.7-56.9,54.9-79.7c2.1-2.1,4.3-4.1,6.5-6.1c21.6-19.6,46.7-36.2,74.2-46.5
					c3.1-1.1,6.2-2.2,9.4-3.1l18.4-0.1c-0.4,0.2-13.3,7-12.3,7.2C175,29.6,174.6,30.8,174.3,32z"/>
			</g>
			<g>
				<path class="st265" d="M203.1,23c-3.3,6.9-30.7,13.1-37,16.1c-2,0.9-3.9,1.9-5.8,2.9c-24.5,12.7-47.3,29.6-67,49
					c-0.4,0.4-0.8,0.8-1.1,1.1c-20.8,20.9-37.9,45.1-50,72c-12.8,28.6-19.6,59.6-20.4,90.9c-0.6,31.6,5,63,16.5,92.5
					c8.5,21.3,19.9,41.3,33.9,59.5c4.8,6.2,9.9,12.2,15.3,17.9c21.5,22.6,47,40.9,75.3,53.9c16.3,7.4,33.2,12.9,50.6,17.1
					c0.9,0.2-40.4-6.7-53-11.3c-30.2-11.5-57.8-29.1-80.9-51.7c-1.8-1.8-3.5-3.5-5.3-5.3c-20.6-21.8-37.3-46.9-49.2-74.4
					c-13.3-31-20.2-64.4-20.4-98.1c0-29,4.8-57.9,14.9-85.1c1.6-4.4,3.4-8.8,5.3-13.1c13-29.7,31.7-56.7,54.8-79.5
					c12.2-11.9,25.5-22.5,39.8-31.8c12.8-8.2,26.4-15.4,40.5-21.1c12.8-5.2,26.2-9.6,39.9-11.7c3.7-0.5,31.6-2.2,16.6,2
					c-0.3,0.1-12.9,4.8-12,5.1C204.1,20.9,203.6,21.9,203.1,23z"/>
			</g>
			<g>
				<path class="st265" d="M203.7,22.9c-3.4,6.9-31.2,13-37.6,16.1c-0.4,0.2-0.7,0.4-1.1,0.5c-22.9,11.2-44.4,25.9-63.4,42.8
					c-3,2.7-5.9,5.4-8.8,8.2c-21.6,21-39.1,45.9-51.5,73.3c-12.8,28.7-19.7,59.8-20.5,91.2c-0.6,31.8,5,63.3,16.5,92.9
					c2.4,6.1,5.1,12.1,7.9,18c10.7,21.9,24.7,42,41.4,59.8c18.6,19.6,40.2,35.5,63.7,48.7c0.8,0.5-50.8-26.2-69.1-43.3
					c-14.6-13.8-27.4-29.5-38-46.7c-6.3-10.3-11.8-21-16.6-32c-13.2-30.8-20.1-63.9-20.3-97.4c-0.1-33.5,6.4-66.9,19.6-97.7
					c1.5-3.5,3.1-7,4.8-10.4c12.6-25.5,29.4-48.7,49.7-68.7c14.4-14,30.4-26.3,47.6-36.6c10.4-6.1,21.1-11.5,32.3-16.1
					c12.9-5.3,26.5-9.8,40.4-11.9c3.3-0.5,28.3-2,15,1.8c-0.2,0.1-11.7,4.3-10.8,4.6C204.5,21,204.1,21.9,203.7,22.9z"/>
			</g>
			<g>
				<path class="st266" d="M34.9,191.7c-6.4,20.5-9.7,41.9-10.1,63.4c-0.4,31.2,5.3,62.1,17,91.1c11.5,28,28.3,53.5,49.3,75.2
					c21.3,21.7,46.5,39.2,74.3,51.4c29.1,12.6,60.3,19.3,91.9,19.9c6.5,0.1,12.9,0,19.4-0.4c25.3-1.5,50.3-7.1,73.8-16.5
					c28.7-11.6,54.9-28.7,77.2-50.2c22.3-21.7,40.4-47.6,53-76.1c9.8-22.3,16.2-46.1,18.9-70.3c0.9-8,1.4-16,1.4-24.1
					c0.3-32.6-6-65-18.3-95.2c-12.1-29.2-29.7-55.8-51.8-78.4c-22.2-22.6-48.6-40.9-77.6-53.8c-1-0.4-25.5-10-24.5-10
					c8.4,0.7,17.6,5.1,25.3,8.1c29.9,11.9,57.2,29.8,80.2,52.2c23.2,22.6,41.9,49.5,54.8,79.1c13.5,30.9,20.5,64.3,20.9,98
					c0.3,33.8-6.1,67.5-19,98.8c-1.3,3.2-2.7,6.3-4.1,9.4c-12.4,26.6-29.3,50.8-49.8,71.7c-23.1,23.3-50.5,42.1-80.6,55.1
					c-31.4,13.4-65.1,20.3-99.3,20.5c-16.4,0-32.7-1.5-48.8-4.6c-17.4-3.4-34.4-8.5-50.7-15.4c-30.3-12.9-57.9-31.5-81.3-54.7
					c-23.3-23.4-41.9-50.9-54.8-81.3c-13.2-31.5-20-65.4-20-99.5c0.1-24.9,3.7-49.6,10.8-73.4c2.7-8.8,5.8-17.5,9.5-26
					c13-30.1,32-57.5,55.7-80.2c23.4-22.1,51.7-40.6,82.7-49.7c4.2-1.2,8.6-2.4,13-2.6c10.2-0.2-7.1,10.9-9,12.1
					c-10.9,7.1-22,13.9-32.8,21.1c-14.4,9.6-27.7,20.8-39.7,33.3c-20.7,21.7-37.2,47.2-48.4,75.1C40.3,173.6,37.3,182.6,34.9,191.7z
					"/>
			</g>
			<g>
				<path class="st266" d="M36.1,182.5c-8.2,23.3-12.5,47.8-13,72.5c-0.4,31.4,5.4,62.5,17.2,91.7c11.6,28.2,28.5,53.8,49.7,75.7
					c21.4,21.8,46.8,39.4,74.8,51.8c17.8,7.8,36.4,13.3,55.5,16.8c12.3,2.2,24.7,3.4,37.1,3.6c32.1,0.5,64-5.3,93.9-17.3
					c28.9-11.7,55.3-29,77.7-50.7c18.4-17.9,34-38.7,45.9-61.4c2.6-5,5-10.1,7.3-15.2c13-29.9,19.8-62.3,20.1-95
					c0.2-32.8-6-65.3-18.4-95.7c-2.3-5.7-49.6-77.4-48.8-76.9c23.6,16.3,41.3,50.2,52.5,75.4c13.5,30.6,20.5,63.8,21,97.2
					c0.3,33.6-6,67-18.7,98.2c-12.2,29.5-29.8,56.5-52,79.4c-0.5,0.5-0.9,1-1.4,1.4c-23,23.2-50.2,41.9-80.2,54.8
					c-31.2,13.4-64.8,20.3-98.8,20.5c-33.6,0-66.9-6.4-97.9-19.2c-0.4-0.2-0.8-0.3-1.2-0.5c-30.2-12.8-57.7-31.4-81-54.5
					c-23.2-23.3-41.7-50.7-54.6-81c-13.2-31.4-20-65.1-20-99.2c0.1-28,4.7-55.8,13.8-82.3c2-5.7,4.1-11.2,6.5-16.8
					c13-30,31.8-57.4,55.5-79.9c20.8-19.6,52.6-45.1,82.8-48c0.1,0,0.2,0,0.3,0c3.2-0.1,3.5,1.4,1.5,3.7
					c-10.6,11.2-26,19.2-38.5,28.1c-12,8.6-23.2,18.3-33.4,29c-20.8,21.9-37.4,47.5-48.6,75.5C40.1,170.3,38,176.4,36.1,182.5z"/>
			</g>
			<g>
				<path class="st266" d="M64.5,122.2c-9.4,12.9-17.3,26.8-23.8,41.4c-12.7,28.9-19.4,60-19.9,91.6c-0.3,31.7,5.6,63.1,17.5,92.6
					C50,376.1,67,402,88.4,424c9.5,9.8,19.8,18.7,30.8,26.9c13.8,10.3,28.8,18.9,44.5,26c29.5,13.1,61.4,20,93.7,20.6
					c32.5,0.4,64.7-5.5,94.9-17.7c8.8-3.6,17.4-7.7,25.7-12.3c19.2-10.6,36.8-23.9,52.5-39.2c22.5-22.2,40.6-48.5,53.3-77.5
					c13.1-30.2,19.9-62.7,20.6-95.6c0-0.4,0-16.3,0.2-15.4c1.3,4.8,1,10.5,1.1,15.4c0.8,33.3-5.5,66.5-18,97.3
					c-12.2,29.9-30.2,57.2-52.7,80.3c-22.7,23.2-49.7,41.8-79.5,54.8c-12.3,5.3-25,9.7-38,12.9c-19.7,4.9-39.9,7.5-60.2,7.6
					c-33.9,0.1-67.4-6.4-98.7-19.3c-30.2-12.7-57.6-31.1-80.9-54.1c-2.7-2.7-5.4-5.5-8-8.4c-19.4-21.3-35.2-45.8-46.5-72.3
					c-13.2-31.3-20-64.9-20-98.9c0.1-34,6.8-67.6,20-98.9c7.1-16.8,16.1-32.7,26.6-47.6C58.3,96.9,67.7,85.8,78,75.7
					c23.3-22.7,51-40.8,81.5-52.2c14.4-5.3,32.7-11.8,48.4-10.1c6.5,0.8-32.8,18.8-37.6,20.9c-1.8,0.7-3.5,1.5-5.2,2.3
					c-27.7,12.5-52.9,30.3-74,52.2C81.3,99.1,72.3,110.3,64.5,122.2z"/>
			</g>
			<g>
				<path class="st267" d="M24.3,304.4c-2.5-16.3-3.3-32.8-2.3-49.3c1.9-31.1,10-61.4,23.1-89.7c2.8-6,5.8-11.9,9-17.6
					c11.2-20,25-38.5,41.1-54.9c5-5.1,10.3-10,15.8-14.6c17.3-14.3,36.2-26.5,56.3-36.5c0.2-0.1,0.5-0.2,0.7-0.4
					c11.3-5.6,23.2-9.8,35.1-13.9c1.7-0.6,21.7-6.9,21.3-7.3c-1.7-1.7,1.4-3,2.5-4c3.7-3.3,21.8-2.5,23-6.8
					c0.3-3.1-21.7-2.5-23.9-2.4c-23.1,0.2-45.9,6-67.4,14.2c-22.8,8.8-44.1,21.1-63.4,36.1c-6.6,5.2-12.9,10.7-19,16.5
					c-23.7,23-42.8,50.7-55.1,81.4C11,180.8,6.3,207.5,5.4,234.9c-0.2,6.7-0.2,13.4,0.1,20.1c1.2,25.1,4.4,59.8,19.6,81.1
					C30.2,345.2,24.9,310,24.3,304.4z"/>
			</g>
			<g>
				<path class="st267" d="M17.1,255.5c0-0.1,0-0.3,0-0.4c1.7-31.8,10-62.8,23.9-91.4c7.6-15.5,16.7-30.2,27-44
					c7.7-10.2,16.1-19.9,25.1-28.9c10.4-10.3,21.5-19.9,33.6-28.1c12.7-8.6,25.9-16.2,39.8-22.8c4.8-2.3,9.7-4.4,14.6-6.5
					c10.7-4.4,21.8-7.7,32.9-10.8c1.6-0.4,20.1-5.4,19.8-5.8c-1.5-1.6,1.4-2.6,2.4-3.5c3.6-2.9,19.9-1.5,21.2-5.4
					c-36.7-1-62.7-1.7-99.2,12.3c-15.3,6-30,13.5-43.8,22.3c-13.9,8.9-26.9,19.2-38.7,30.8c-23.6,23.2-42.3,51.2-53.8,82.2
					c-4.2,11.5-7.3,23.3-9.8,35.3c-4.4,21.1-6.2,42.7-5,64.2c0.6,9.5,0.9,20.8,4.7,29.7C14.6,293.9,16.6,260.7,17.1,255.5z"/>
			</g>
			<path class="st268" d="M17.9,224.3c3.9-21.5,10.9-42.2,20.5-61.7c10-20.2,22.7-38.8,37.2-55.9c5.1-6,10.5-11.7,16.1-17.2
				c12.1-11.9,25.3-22.8,39.6-32c11.1-7.1,22.6-13.4,34.5-19c5-2.4,10.1-4.6,15.2-6.7c9.7-4,19.7-7,29.7-10
				c1.4-0.4,18.1-5.2,17.8-5.5c-1.4-1.4,1.2-2.4,2.1-3.2c3-2.6,17.9-1.9,18.9-5.3c0.3-2.5-17.7-2.1-19.5-2.1
				c-24.5-0.1-49,6.2-71.8,15c-13,5.1-25.6,11.3-37.6,18.5C104.5,48.8,89.5,60.4,76,73.7C52.6,97.1,34.6,125,23.5,156.3
				c-1.2,3.5-2.4,7.1-3.6,10.7c-7.7,24.2-16.6,57.4-10.2,82.9C11,258.5,16.9,229,17.9,224.3z"/>
		</g>
	</g>
	<path class="st269" d="M436.6,300.4c-6.6-2.4-6.1-7.5-5-11.9c2-7.9,2-15.7,1.1-23.6c-3.5-12.5-11.4-19.3-24.6-19.8
		c-6.5-0.3-11.1,1-11.1,8.6c0,2.2-0.5,4.8-2.8,5c-3.1,0.3-2.3-2.7-2.5-4.6c-0.3-3-2.3-5.7-4.4-6.3c-9.1-2.7-8.8-9.6-8.6-16.8
		c-7.4-8.7-16.2-10.8-26.5-5.4c-0.2,5.3-1.4,9.8-7.5,11.2c-2.3,0.6-3.3,2.2-2.8,4.6c0.5,0.6,0.9,1.2,1.4,1.7
		c6.1,7,5.5,12.7-2.1,21.7c0.5,11.8-7.2,20.6-11.2,30.7c-4.6,11.8-12.4,21.9-17.1,33.6c-6.1,7.7-12.2,15.4-18.3,23.1
		c9.2,3.6,6.9,10.7,5.3,17.6c-1.5,3.7-4.6,11.2-4.6,11.2l-3.8,7.5c0,0-2.5,6.9-3.7,10.3c-0.5,0.5-1.1,1-1.6,1.6
		c-0.1,0.6-0.1,1.2-0.2,1.8c-1.8,3.6-14.6,32.1-16.4,35.7c2.4,0,4.7,0,7.1,0c0-3,14.6-32.1,14.6-32.1s4.3-15,8.8-21.6
		c3.3-3.4,0-12.3,9.1-10.8c1.3-3.5,2.5-7,3.8-10.5c-3-6.7,1.6-7.9,6.5-8.8c-3.8-6.9,1.3-10.6,5.3-14.6c3.6-8.2,14.5-8.7,18.3-19.4
		c3,8.7,2.7,15,0.4,21.4c1.2,4.1,4.2,7.7,3.1,12.4c-0.6,3.8,4.3,8.2-1.2,11.5c-2.8,9.9-12.2,14.1-18,21.3c-0.6,2.2-1.3,4.5-1.9,6.7
		c0,2.3-0.1,4.7-0.1,7c0,1.7,0,3.5-0.1,5.2c-0.1,3.2-0.2,6.5-0.3,9.7c4.1,11.8,2.7,25.1,10.2,36.2c2.6,3.8-1.8,6.9-6,7.5
		c-2.9,0.4-6-0.4-8.8,0.4c-5.2,1.4-10.7,3.3-5.9,10.6c0.4,4.4,3.9,1,5.6,2.3c0.7,0.4,1.3,0.8,2,1.2l0,0c1.8,0.7,1.4,2.3,1.7,3.7
		c1.8-3.7,4.4-2.8,7-2v2.4l2.2-1.5c1.6,1,3.4,1.6,5.2,2l0.6,2.4l2-2c1.8,0.3,3.7,0.4,5.6,0.7l1.1,2.8l1-2.5c1.5,0.3,3,0.7,4.5,1.3
		l0.5,3l2.6-1.2l-1.4-1c0.5,0.3,0.9,0.6,1.4,1c0.6-0.7,1.1-1.3,1.7-2c0.6-2.2,0.8-4.7,1.9-6.6c2.6-4.4,2.5-8.1-1.4-11.5
		c0-2.3-0.1-4.5-0.1-6.8c-3.1-12.6-2.9-25.7-4.5-38.5c-0.8-6.2,1.7-10.6,6.9-15c3.7,15.3,13.1,27.3,18.5,41.1
		c0.1,0.5,0.2,1.1,0.3,1.6c3.1,8.2,0.7,16.8,1.6,25.2c4.3,8.4,1.4,12.2-10.4,12.3c-5.7,0.1-11,0.3-14.4,5.7
		c-1.3,1.9-1.2,3.3-0.2,4.5l0.1,4.9l3.9-1.9c1.2,0.7,2.5,1.4,3.7,2l1.4,3l2.7-1.4c2.4,0.8,4.9,1.4,7.4,1.8l0.9,2.6l4-2h1.2
		c0.1,0,0.2,0,0.3,0c1.3,0.1,2.6,0.2,3.8,0.5l1.7,2.5l2.3-1.6c2.3,0.7,4.5,1.5,6.7,2.3l0.9,2.3l2.9-1c0.8,0.3,1.7,0.5,2.5,0.7
		l2.6,3.2l2.2-2.3c7.1-11.6,2.7-29.2,0.8-41.8c-0.8-5.3-2.2-10.4-1.5-15.8c-1.4-4.7-2.9-9.4-4.3-14.1c-0.4-0.8-0.7-1.5-1.1-2.3
		c0-1.2,0-2.4,0-3.6c0-1.8-0.1-3.5-0.1-5.3c-4-7-6.1-14.4-6.4-22.5c-0.1-3.5-0.8-7.1-2.2-10.3c-2.2-5-4.3-9.2,2.4-12.5
		c2.6-1.3,2.5-4.6,2.4-7.2c-0.3-8.3,2.9-15.4,7.1-22.3c1.7-2.7,3.6-4.1,6.4-3.4c3.3,0.8,2.1,3.8,1.8,6c-0.8,6-1.9,12,0.1,20.9
		c6.1-12.6,1.1-26.2,11-34.7c2.5-5.1,5.4-10,6-15.7c0.7-5-2.5-9.8-0.7-14.8c0.7-2.1-1-5.1,2-6.2c3.2-1.2,4.7,1.5,6.4,3.6
		c0.9,1.1,1.3,2.8,3.7,2.8C441.4,305.1,438.8,301.3,436.6,300.4z"/>
</g>
</svg>
