<?xml version="1.0" encoding="utf-8"?>
<!-- Generator: Adobe Illustrator 25.4.1, SVG Export Plug-In . SVG Version: 6.00 Build 0)  -->
<svg version="1.1" id="Capa_1" xmlns="http://www.w3.org/2000/svg" xmlns:xlink="http://www.w3.org/1999/xlink" x="0px" y="0px"
	 viewBox="0 0 512 512" style="enable-background:new 0 0 512 512;" xml:space="preserve">
<style type="text/css">
	.st0{clip-path:url(#SVGID_00000071538886894199917650000001111013443120212110_);}
	.st1{clip-path:url(#XMLID_00000094597881205774807830000005661139808063128984_);fill:#99CEE2;}
	.st2{fill-rule:evenodd;clip-rule:evenodd;fill:#FFFFFF;}
	.st3{fill-rule:evenodd;clip-rule:evenodd;fill:#21A5C9;}
	.st4{clip-path:url(#SVGID_00000071538886894199917650000001111013443120212110_);fill:#B7DCE5;}
	.st5{clip-path:url(#SVGID_00000071538886894199917650000001111013443120212110_);fill:#858789;}
	
		.st6{opacity:0.3;clip-path:url(#SVGID_00000071538886894199917650000001111013443120212110_);fill:url(#SVGID_00000041277839521759993310000009090549558816339103_);}
	.st7{opacity:0.21;fill-rule:evenodd;clip-rule:evenodd;fill:#0965AE;}
	.st8{opacity:0.45;fill-rule:evenodd;clip-rule:evenodd;fill:#0965AE;}
	.st9{opacity:0.23;fill-rule:evenodd;clip-rule:evenodd;fill:#0965AE;}
	.st10{opacity:0.5;fill-rule:evenodd;clip-rule:evenodd;fill:#0965AE;}
	.st11{fill-rule:evenodd;clip-rule:evenodd;fill:#0965AE;}
	.st12{fill:#2F4684;}
	.st13{fill:#FFFFFF;}
	.st14{clip-path:url(#SVGID_00000048466997272940592600000001697460028712716453_);}
	.st15{clip-path:url(#SVGID_00000056423278274771489110000006246446294306839735_);fill:#2F4684;}
</style>
<g>
	<g>
		<defs>
			<circle id="SVGID_1_" cx="249.5" cy="256.4" r="243.7"/>
		</defs>
		<clipPath id="SVGID_00000131327850794700888120000010495863476926582704_">
			<use xlink:href="#SVGID_1_"  style="overflow:visible;"/>
		</clipPath>
		<g id="XMLID_33_" style="clip-path:url(#SVGID_00000131327850794700888120000010495863476926582704_);">
			<defs>
				<path id="XMLID_34_" d="M10.7,256.4c0,129.1,108.3,233.7,241.9,233.7c133.6,0,241.9-104.6,241.9-233.7
					c0-129.1-108.3-233.7-241.9-233.7C119,22.7,10.7,127.4,10.7,256.4"/>
			</defs>
			<clipPath id="XMLID_00000108283610383416308200000013457260691175391399_">
				<use xlink:href="#XMLID_34_"  style="overflow:visible;"/>
			</clipPath>
			
				<rect id="XMLID_35_" x="21.3" y="-83.2" style="clip-path:url(#XMLID_00000108283610383416308200000013457260691175391399_);fill:#99CEE2;" width="483.7" height="467.4"/>
		</g>
		<g style="clip-path:url(#SVGID_00000131327850794700888120000010495863476926582704_);">
			<polygon id="XMLID_32_" class="st2" points="575.7,209.7 576.3,201.8 575.5,201.5 576.3,201.3 577.7,181.8 590.2,182.2 
				597.1,185.8 602.4,169.8 615.2,177 643.8,191.5 647.2,176.9 659.3,171.7 671.7,185.2 689.6,175.7 688.1,182.8 687.5,203.2 
				702,184.4 714,187.4 724.1,192.5 731.9,193.6 738.7,207.1 743.9,187.2 754.7,182.8 756.8,194.5 765.7,181.2 762.4,240.5 
				784.5,200.6 800.5,196.8 813.5,203.2 825.5,194.9 822.9,213 834.1,210.4 840.1,230.9 869.6,245.3 832.9,270.6 644.8,261.2 
				600.7,270.7 428.1,261.6 429.1,241 347.3,236.7 347.3,235.1 128.8,237.5 128.3,228.9 22.9,223.3 21.6,176.3 21,156.4 30.1,134.5 
				39.6,138.6 40.6,118.4 49.9,128.7 62.6,123.2 76.2,129 91.3,197.6 98,147.4 103.5,163 110.2,131.6 119,137.6 117.2,178.7 
				128.5,145.9 135.7,145.6 142.8,159.7 144.6,157.2 144.7,152.6 146.5,154.2 156.9,139 160.1,159 166.8,156.7 166.8,156.7 
				169.5,130.6 183.7,143 197.2,129.4 207,136.5 204.6,171.6 213.5,167.5 214.5,164 217.5,165.7 246.9,143 258.2,155.2 265.1,152 
				265.2,168 268.5,166 273.6,163.8 280.2,140.3 294.6,137.4 311.2,148.2 318.9,120 334.9,128.7 342,157.5 353,156.9 340.6,186.9 
				370.8,156.7 371.5,171.4 380,172.6 390.6,177.1 400.4,216.7 405.6,177.8 409.8,189.9 416.9,179.1 423.8,183.7 420.5,202.2 
				431.2,190.2 434.8,176.4 440.4,187.4 441.6,185.4 441.9,181.9 443.2,183.1 451.2,171.3 453.7,186.8 458.9,185.1 459,185.1 
				461,164.8 472,174.4 482.5,164 490.2,169.4 488.3,196.6 495.2,193.4 495.9,190.7 498.3,192 528.5,169.7 529.8,183.8 535.1,181.4 
				535.4,193.8 534.1,204.6 537.9,221.5 540.1,207.4 541.8,190.6 553,198.4 563.3,190 571,194.6 569.6,216.6 577.1,213.9 			"/>
			<path id="XMLID_31_" class="st3" d="M21,209.3l11,25.2l12.8,17.5l-6.7-54.8l11-17l13.4,4.7L76,166.2l11.5,12.6l-3.2,10.3
				l9.7,15.8l0.9-37.3l11.7-6.9l13.7,15.1l15,23.5l3.7,16.7l0.6,18.8l4.2-26.4l13.5,38.1l16.3-65.4l8,0.8l9.1,35.4l2.3-43.7
				l10.5-5.8l4.2,33.6l7.7-16.2l2.3,53.5l23.9-71.9l15.7-5.4l9.1-4.6l15.9,0.7l-1,21.4l9.8,13.7l5.3-16.2l2,0.7l12.3,22.6l6.1-9.9
				l5.4,11.3l2.9-23.5l7.3,4.1l1.6,30.5l3.7-14.2l4.6-0.4l2.3-12.4l8.7,12.8l-0.7-18.4l11.1-5.3l6.4,3.9l11,4.7l14.8,13.5l4-4.5
				l7.3,4.3l0.3-8.9l5.4,14l2.9-29l7.3,5.1l1,22.4l3,4.1l4-19.3l9.2-15.5c3.2-1.4,5.8,10.1,19.5,12.8l9.6-6.1l9.5-13l8.1,6l0.7,32.2
				l6.8-13.6l-2.2-8.9l8-10.8l9.5,16.1l9.4-4.1l1.1,2.2l2.5,11l-0.9-19.3l14.3-0.7l16.3,10.4l19.5-18.4l10.1,20.7l3.4-3.1l7.4-12.7
				l9.4,5.3l16.2,6.9l3-16l9.8,23.5l-0.9-23.8l14.3-0.8l8.2,5.1l14.2,6l10.9,24.5l5.2-5.7l9.4,5.6l0.4-11.4l7,18l1.8-29.6l9.4,6.5
				l3.2,21l3.9,5.3l3.2-17.1l23.4,9.8l8.4,2.1l2.7,9c-6.2,50.9-7.5,22.6-0.1-3.1l2.2,14.3l2.2-5.9l3.3-18.6l8.7,15l12.3-16.8
				l10.5,7.7l2.4,10.3l4,23.6l-2.9-11.4l10.3-14l12.3,20.7l12.1-5.3l9.9,18.9c0,0-2.5,20.3-4.7,26.9c-1.6,5-18,34.5-21.2,41.1
				c-2.8,5.6-10.5,13-8.8,21c1.6,7.4-13.7,1.8-26.1,1.3c-22.9-0.8-43.9,4.9-43.9,4.9c-4.5-18.4,34.6-51.6-26.9-71.5
				C630.2,247,494.4,301.9,531.9,346h-17.5h-66.1H346.8h-55.4h-28.2h-237L21,209.3z"/>
		</g>
		<path style="clip-path:url(#SVGID_00000131327850794700888120000010495863476926582704_);fill:#B7DCE5;" d="M471.2,303.2
			c-2.4-1.2-8.1,13.2-8.1,13.2c-9.4-6.2-15.2,3.5-17.1,4.7c-1.9,1.2-10-7-19.6-14.1c-3.9-2.9-7.3-2.7-9.9-1.6c-0.4-2-1.1-3.9-2-5.2
			c-1.7-2.3-8.8,1.2-11.3,4.1c-2.4,2.9-6.1,2.6-9,2.1c-2.9-0.6-6.1,3.2-7.6,5.6c-1.6,2.3-6.1-2.1-13.7-1.5
			c-2.6-8.5-11.8-12.6-19.6-13.8c-7.8-1.2-10.6,4.4-12.1,7c-1.6,2.6-2.4,2.3-10.2,3.5c-7.8,1.2-14.9,1.8-17.8-2.6
			c-2.9-4.4-7.4-4.4-14.9,3.5c-9.9,7.6-21.8-0.6-31.7-4.4c-9.9-3.8-12.5,4.4-13.5,6.7c-1,2.3-6.8,1.2-11.4,0
			c-4.7-1.2-9.4-7-15.1-10.3c-8.8-4.1-19.6,9.1-22.3,12.6c-2.8,3.5-11.3,2.1-21.1,3.5c-9.9,1.5-17,0.6-28.6-1.2
			c-9-8.5-13.5-5.6-18.7-2.1c-5.2,3.5-6.9,3.2-12.8,1.2c-5.9-2.1-14.4-0.9-18-3.5c-3.6-2.6-10.4-3.5-17.7,0c-4-4.1-8.7-12.6-18-13.2
			c-9.4-0.6-9.9,1.5-22,14.4c-0.3-5.3-6.8-7.6-9.2-8.8c-2.4-1.2-8.1,13.2-8.1,13.2c-3.6-2.4-6.7-2.4-9.2-1.4v60.7
			c6.6,1.8,13.6,2.4,21,1.3c48.3-7.6,45.9,21.9,114.8-3.8c68.9-25.8,59.7-24.9,119.6,2.3c59.9,27.3,39.4-22.7,85.9-13.6
			c25.2,4.9,44.6-7.4,55.2,0.4c13.9,16.6,32.4,18.7,57.8,14.7c1.3-0.2,2.5-0.4,3.7-0.5v-68.7C476.3,305.3,472.8,304,471.2,303.2z"/>
		<path style="clip-path:url(#SVGID_00000131327850794700888120000010495863476926582704_);fill:#858789;" d="M474.2,339.6
			c-2.4-1.3-8.1,14.4-8.1,14.4c-9.4-6.7-15.2,3.8-17.1,5.1c-1.9,1.3-10-7.7-19.6-15.3c-3.9-3.2-7.3-3-9.9-1.7
			c-0.4-2.2-1.1-4.3-2-5.6c-1.7-2.6-8.8,1.3-11.3,4.5c-2.4,3.2-6.1,2.9-9,2.2c-2.9-0.6-6.1,3.5-7.6,6.1c-1.6,2.6-6.1-2.2-13.7-1.6
			c-2.6-9.3-11.8-13.7-19.6-15c-7.8-1.3-10.6,4.8-12.1,7.7c-1.6,2.9-2.4,2.6-10.2,3.8c-7.8,1.3-14.9,1.9-17.8-2.9
			c-2.9-4.8-7.4-4.8-14.9,3.8c-9.9,8.3-21.8-0.6-31.7-4.8c-9.9-4.2-12.5,4.8-13.5,7.4c-1,2.6-6.8,1.3-11.4,0
			c-4.7-1.3-9.4-7.7-15.1-11.2c-8.8-4.5-19.6,9.9-22.3,13.7c-2.8,3.8-11.3,2.2-21.1,3.8c-9.9,1.6-17,0.6-28.6-1.3
			c-9-9.3-13.5-6.1-18.7-2.2c-5.2,3.8-6.9,3.5-12.8,1.3c-5.9-2.2-14.4-1-18-3.8c-3.6-2.9-10.4-3.8-17.7,0c-4-4.5-8.7-13.7-18-14.4
			c-9.4-0.6-9.9,1.6-22,15.7c-0.3-5.8-6.8-8.3-9.2-9.6c-2.4-1.3-8.1,14.4-8.1,14.4c-3.6-2.6-6.7-2.6-9.2-1.6v186.2
			c1.3-0.5,2.4-1.5,3.4-3.1c2.9-4.5,7.8-2.1,12.3,0.8c4.5,2.9,6.3,6.2,10.5,6.2c4.2,0,5.8,2.9,8.7,4.5c2.9,1.6,8.1-2.5,17.2-4.5
			c9.2-2.1,8.7-2.1,12.5,1.2c3.8,3.3,6.7,1.7,11.6,0.4c4.9-1.2,7.4-7.4,10.1-3.7c2.7,3.7,6.9,3.7,17,3.3c10.1-0.4,28.2-7.4,33.3-4.9
			c5.1,2.5,8.7,8.3,10.1,5.8c1.3-2.5,5.1-6.6,12.7-6.6s19,0.8,22.4-1.2c3.4-2.1,11.6-2.5,17.4,0.4c5.8,2.9,4.7,4.9,11.2,3.7
			c6.5-1.2,10.7-0.8,18.6-0.4c7.8,0.4,19.9-7.8,25.9-9.5c6-1.6,7.6-0.8,12.3,2.1c4.7,2.9,8.3,5.4,11.9,3.3c3.6-2.1,4.9-1.2,17,0.8
			c12.1,2.1,23.5,1.2,27.1-0.4c3.6-1.6,5.4-7,12.7-3.7c7.4,3.3,7.4,0.4,10.7-1.2c3.4-1.6,10.3-1.6,14.8,0.4c4.5,2.1,10.7,1.2,17,4.1
			c6.1,2.8,28.4,11.3,34.2,7c2.4-1.8,4.9-9.9,11.2-6.6c6.3,3.3,9.8,3.3,12.7-1.2c2.9-4.5,7.8-2.1,12.3,0.8c3.9,2.5,5.8,5.4,9.1,6
			V344.6C479.3,341.9,475.8,340.4,474.2,339.6z"/>
		
			<linearGradient id="SVGID_00000034050918269646195340000002886842696437547695_" gradientUnits="userSpaceOnUse" x1="252.5882" y1="360" x2="252.5882" y2="491.3097">
			<stop  offset="0.1805" style="stop-color:#9B673F"/>
			<stop  offset="0.6916" style="stop-color:#8A5631"/>
		</linearGradient>
		
			<path style="opacity:0.3;clip-path:url(#SVGID_00000131327850794700888120000010495863476926582704_);fill:url(#SVGID_00000034050918269646195340000002886842696437547695_);" d="
			M474.2,338c-2.4-1.2-8.1,13.2-8.1,13.2c-9.4-6.2-15.2,3.5-17.1,4.7c-1.9,1.2-10-7-19.6-14.1c-3.9-2.9-7.3-2.7-9.9-1.6
			c-0.4-2-1.1-3.9-2-5.2c-1.7-2.3-8.8,1.2-11.3,4.1c-2.4,2.9-6.1,2.6-9,2.1c-2.9-0.6-6.1,3.2-7.6,5.6c-1.6,2.3-6.1-2.1-13.7-1.5
			c-2.6-8.5-11.8-12.6-19.6-13.8c-7.8-1.2-10.6,4.4-12.1,7c-1.6,2.6-2.4,2.3-10.2,3.5c-7.8,1.2-14.9,1.8-17.8-2.6
			c-2.9-4.4-7.4-4.4-14.9,3.5c-9.9,7.6-21.8-0.6-31.7-4.4c-9.9-3.8-12.5,4.4-13.5,6.7c-1,2.3-6.8,1.2-11.4,0
			c-4.7-1.2-9.4-7-15.1-10.3c-8.8-4.1-19.6,9.1-22.3,12.6c-2.8,3.5-11.3,2.1-21.1,3.5c-9.9,1.5-17,0.6-28.6-1.2
			c-9-8.5-13.5-5.6-18.7-2.1c-5.2,3.5-6.9,3.2-12.8,1.2c-5.9-2.1-14.4-0.9-18-3.5c-3.6-2.6-10.4-3.5-17.7,0c-4-4.1-8.7-12.6-18-13.2
			c-9.4-0.6-9.9,1.5-22,14.4c-0.3-5.3-6.8-7.6-9.2-8.8c-2.4-1.2-8.1,13.2-8.1,13.2c-3.6-2.4-6.7-2.4-9.2-1.4v60.7
			c6.6,1.8,13.6,2.4,21,1.3c48.3-7.6,45.9,21.9,114.8-3.8c68.9-25.8,59.7-24.9,119.6,2.3c59.9,27.3,39.4-22.7,85.9-13.6
			c25.2,4.9,44.6-7.4,55.2,0.4c13.9,16.6,32.4,18.7,57.8,14.7c1.3-0.2,2.5-0.4,3.7-0.5v-68.7C479.4,340.2,475.9,338.8,474.2,338z"/>
	</g>
	<g>
		<g>
			<g>
				<path class="st7" d="M329.4,18.2c7.9,2.5,15.6,5.5,23.2,8.8c28.8,12.6,54.9,30.8,76.9,53.3c21.8,22.4,39.2,48.9,51,77.8
					c12.1,29.9,18.1,62,17.7,94.2c-0.5,32.1-7.3,63.8-20.1,93.2c-12.4,28.2-30.2,53.7-52.2,75.2c-22,21.3-47.9,38.3-76.2,49.9
					c-29.3,11.8-60.6,17.6-92.2,17.3c-31.4-0.5-62.4-7.2-91.1-19.8c-27.5-12.2-52.5-29.6-73.5-51.2c-11.7-12.1-22-25.4-30.8-39.6
					c-6.8-11.1-12.8-22.8-17.7-34.9c-11.5-28.6-17.2-59.2-17-90c0.4-30.7,6.7-61,18.8-89.2c11.7-27.1,28.5-51.8,49.3-72.8
					c5.9-6,12.2-11.7,18.7-17c16.3-13.5,34.2-25.1,53.2-34.3c16.7-8.1,34.2-14.3,52.2-18.6c2.6-2.4,5.2-4.7,7.9-6.9
					c7.6-2.6,15.4-4.8,23.2-6.6c-4.7-1.1-9.5-2-14.3-2.8c-24-2.3-50.2,4.5-72.4,12.4c-1.8,0.6-3.6,1.3-5.4,2
					C128,30.5,100,48.4,76.3,71.2c-23.8,23-42.8,50.6-55.9,81C6.9,183.7,0.1,217.7,0,252.1v0.2c0.1,34.4,7,68.4,20.4,100.1
					c13,30.5,31.8,58.2,55.2,81.7c23.5,23.3,51.3,42.1,81.8,55c31.7,13.3,65.7,20.1,100.1,20.1c34.3-0.1,68.3-7,99.9-20.4
					c30.4-13,58.1-31.8,81.3-55.3c2.4-2.4,4.7-4.9,7-7.4c19.8-21.9,35.8-47.1,47.1-74.4c13-31.5,19.4-65.3,19.2-99.4
					c-0.3-33.9-7.4-67.6-20.9-98.7c-13.1-29.9-31.8-57.1-55.1-79.9c-5.5-5.3-11.2-10.4-17.1-15.2C399.6,43,378,30.3,355,21.2
					c-31-12.1-64.4-18-97.6-16.5C281.9,5.6,306.2,10.1,329.4,18.2z"/>
			</g>
			<g>
				<path class="st8" d="M191.6,24.6c-2.2,5.6-20.3,10.4-25,12.7c-8.9,4.4-17.5,9.3-25.8,14.7C124.1,62.8,109,75.9,95.2,90.1
					c-10.1,10.5-19.5,21.8-27.8,33.8c-8.4,12.3-15.8,25.3-21.8,38.9c-12.5,28.2-19.2,58.6-19.9,89.5c-0.5,31.1,5,62,16.3,91
					c11.2,28.1,27.8,53.8,48.6,75.8c21.2,22.1,46.3,39.9,74,52.7c3.1,1.4,6.3,2.8,9.5,4.1c26.5,10.7,54.6,16.6,83.2,17.4
					c32.4,0.8,64.6-4.8,94.9-16.3c9-3.5,17.8-7.5,26.4-11.8c8.8-4.4-20.6,14.1-24.5,16c-30.1,14.7-63.3,22.4-96.7,23.3
					c-23.1,0.5-46.1-2.2-68.4-8.3c-10.3-2.9-20.4-6.3-30.3-10.4c-30.2-12.6-57.7-31-81-53.9c-23.3-23.1-42-50.4-54.9-80.5
					c-13.3-31.4-20.1-65-20-99.1c0-4.8,0.2-9.7,0.5-14.5c2-29,8.9-57.5,20.5-84.2c13.1-29.9,31.8-57,55-79.9
					c4.1-4,8.3-7.9,12.7-11.6c20.3-17.3,43.3-31.5,68-41.4c8.9-3.5,18-6.6,27.4-8.5l20.6,1.5c-0.6,0.2-15.4,6.6-14.5,6.9
					C192.6,22,192.1,23.3,191.6,24.6z"/>
			</g>
			<g>
				<path class="st8" d="M174.3,29.2c-0.8,2.6-6.7,4.7-8.7,5.8c-12.4,6.7-24.5,13.8-35.9,22c-12.9,9.4-24.8,20.2-35.9,31.8
					c-10.5,11.1-20.2,22.8-28.8,35.5c-8.1,12-15.2,24.6-21.1,37.9c-12.6,28.4-19.3,59.1-20.1,90.2c-0.5,31.4,5,62.5,16.4,91.7
					c11.3,28.3,28,54.2,49,76.4c14.1,14.7,29.9,27.6,47.1,38.5c8.8,5.5,18,10.5,27.5,14.8c29.4,13.4,61.2,20.7,93.5,21.6
					c21.1,0.5,42-1.7,62.7-5.9c0.9-0.2-46,12.3-62.7,13c-33.6,1.2-67.2-4.6-98.3-17.3c-4.2-1.7-8.4-3.6-12.4-5.6
					c-25.2-12.3-48.2-28.5-68.2-48.2c-23.2-23-41.8-50.2-54.8-80.2c-13.3-31.3-20.1-64.8-20.1-98.8c0-8.9,0.6-17.8,1.6-26.6
					c2.9-24.8,9.4-49,19.3-71.9C37.4,124,56,97,79.3,74.2c2.1-2.1,4.3-4.1,6.5-6.1c21.6-19.6,46.7-36.2,74.2-46.5
					c3.1-1.1,6.2-2.2,9.4-3.1l18.4-0.1c-0.4,0.2-13.3,7-12.3,7.2C175,26.8,174.6,28,174.3,29.2z"/>
			</g>
			<g>
				<path class="st8" d="M203.1,20.2c-3.3,6.9-30.7,13.1-37,16.1c-2,0.9-3.9,1.9-5.8,2.9c-24.5,12.7-47.3,29.6-67,49
					c-0.4,0.4-0.8,0.8-1.1,1.1c-20.8,20.9-37.9,45.1-50,72c-12.8,28.6-19.6,59.6-20.4,90.9c-0.6,31.6,5,63,16.5,92.5
					c8.5,21.3,19.9,41.3,33.9,59.5c4.8,6.2,9.9,12.2,15.3,17.9c21.5,22.6,47,40.9,75.3,53.9c16.3,7.4,33.2,12.9,50.6,17.1
					c0.9,0.2-40.4-6.7-53-11.3c-30.2-11.5-57.8-29.1-80.9-51.7c-1.8-1.8-3.5-3.5-5.3-5.3C53.7,403,37,377.9,25.1,350.4
					c-13.3-31-20.2-64.4-20.4-98.1c0-29,4.8-57.9,14.9-85.1c1.6-4.4,3.4-8.8,5.3-13.1c13-29.7,31.7-56.7,54.8-79.5
					c12.2-11.9,25.5-22.5,39.8-31.8c12.8-8.2,26.4-15.4,40.5-21.1c12.8-5.2,26.2-9.6,39.9-11.7c3.7-0.5,31.6-2.2,16.6,2
					c-0.3,0.1-12.9,4.8-12,5.1C204.1,18.1,203.6,19.1,203.1,20.2z"/>
			</g>
			<g>
				<path class="st8" d="M203.7,20.1c-3.4,6.9-31.2,13-37.6,16.1c-0.4,0.2-0.7,0.4-1.1,0.5c-22.9,11.2-44.4,25.9-63.4,42.8
					c-3,2.7-5.9,5.4-8.8,8.2c-21.6,21-39.1,45.9-51.5,73.3c-12.8,28.7-19.7,59.8-20.5,91.2c-0.6,31.8,5,63.3,16.5,92.9
					c2.4,6.1,5.1,12.1,7.9,18c10.7,21.9,24.7,42,41.4,59.8c18.6,19.6,40.2,35.5,63.7,48.7c0.8,0.5-50.8-26.2-69.1-43.3
					c-14.6-13.8-27.4-29.5-38-46.7c-6.3-10.3-11.8-21-16.6-32c-13.2-30.8-20.1-63.9-20.3-97.4c-0.1-33.5,6.4-66.9,19.6-97.7
					c1.5-3.5,3.1-7,4.8-10.4c12.6-25.5,29.4-48.7,49.7-68.7c14.4-14,30.4-26.3,47.6-36.6c10.4-6.1,21.1-11.5,32.3-16.1
					C173.4,17.6,187,13,200.8,11c3.3-0.5,28.3-2,15,1.8c-0.2,0.1-11.7,4.3-10.8,4.6C204.5,18.2,204.1,19.2,203.7,20.1z"/>
			</g>
			<g>
				<path class="st9" d="M34.9,188.9c-6.4,20.5-9.7,41.9-10.1,63.4c-0.4,31.2,5.3,62.1,17,91.1c11.5,28,28.3,53.5,49.3,75.2
					c21.3,21.7,46.5,39.2,74.3,51.4c29.1,12.6,60.3,19.3,91.9,19.9c6.5,0.1,12.9,0,19.4-0.4c25.3-1.5,50.3-7.1,73.8-16.5
					c28.7-11.6,54.9-28.7,77.2-50.2c22.3-21.7,40.4-47.6,53-76.1c9.8-22.3,16.2-46.1,18.9-70.3c0.9-8,1.4-16,1.4-24.1
					c0.3-32.6-6-65-18.3-95.2c-12.1-29.2-29.7-55.8-51.8-78.4c-22.2-22.6-48.6-40.9-77.6-53.8c-1-0.4-25.5-10-24.5-10
					c8.4,0.7,17.6,5.1,25.3,8.1c29.9,11.9,57.2,29.8,80.2,52.2c23.2,22.6,41.9,49.5,54.8,79.1c13.5,30.9,20.5,64.3,20.9,98
					c0.3,33.8-6.1,67.5-19,98.8c-1.3,3.2-2.7,6.3-4.1,9.4c-12.4,26.6-29.3,50.8-49.8,71.7c-23.1,23.3-50.5,42.1-80.6,55.1
					c-31.4,13.4-65.1,20.3-99.3,20.5c-16.4,0-32.7-1.5-48.8-4.6c-17.4-3.4-34.4-8.5-50.7-15.4c-30.3-12.9-57.9-31.5-81.3-54.7
					c-23.3-23.4-41.9-50.9-54.8-81.3c-13.2-31.5-20-65.4-20-99.5c0.1-24.9,3.7-49.6,10.8-73.4c2.7-8.8,5.8-17.5,9.5-26
					c13-30.1,32-57.5,55.7-80.2c23.4-22.1,51.7-40.6,82.7-49.7c4.2-1.2,8.6-2.4,13-2.6c10.2-0.2-7.1,10.9-9,12.1
					c-10.9,7.1-22,13.9-32.8,21.1c-14.4,9.6-27.7,20.8-39.7,33.3c-20.7,21.7-37.2,47.2-48.4,75.1C40.3,170.8,37.3,179.8,34.9,188.9z
					"/>
			</g>
			<g>
				<path class="st9" d="M36.1,179.8c-8.2,23.3-12.5,47.8-13,72.5c-0.4,31.4,5.4,62.5,17.2,91.7c11.6,28.2,28.5,53.8,49.7,75.7
					c21.4,21.8,46.8,39.4,74.8,51.8c17.8,7.8,36.4,13.3,55.5,16.8c12.3,2.2,24.7,3.4,37.1,3.6c32.1,0.5,64-5.3,93.9-17.3
					c28.9-11.7,55.3-29,77.7-50.7c18.4-17.9,34-38.7,45.9-61.4c2.6-5,5-10.1,7.3-15.2c13-29.9,19.8-62.3,20.1-95
					c0.2-32.8-6-65.3-18.4-95.7c-2.3-5.7-49.6-77.4-48.8-76.9c23.6,16.3,41.3,50.2,52.5,75.4c13.5,30.6,20.5,63.8,21,97.2
					c0.3,33.6-6,67-18.7,98.2c-12.2,29.5-29.8,56.5-52,79.4c-0.5,0.5-0.9,1-1.4,1.4c-23,23.2-50.2,41.9-80.2,54.8
					c-31.2,13.4-64.8,20.3-98.8,20.5c-33.6,0-66.9-6.4-97.9-19.2c-0.4-0.2-0.8-0.3-1.2-0.5c-30.2-12.8-57.7-31.4-81-54.5
					c-23.2-23.3-41.7-50.7-54.6-81c-13.2-31.4-20-65.1-20-99.2c0.1-28,4.7-55.8,13.8-82.3c2-5.7,4.1-11.2,6.5-16.8
					c13-30,31.8-57.4,55.5-79.9c20.8-19.6,52.6-45.1,82.8-48c0.1,0,0.2,0,0.3,0c3.2-0.1,3.5,1.4,1.5,3.7
					c-10.6,11.2-26,19.2-38.5,28.1c-12,8.6-23.2,18.3-33.4,29c-20.8,21.9-37.4,47.5-48.6,75.5C40.1,167.5,38,173.6,36.1,179.8z"/>
			</g>
			<g>
				<path class="st9" d="M64.5,119.4c-9.4,12.9-17.3,26.8-23.8,41.4c-12.7,28.9-19.4,60-19.9,91.6c-0.3,31.7,5.6,63.1,17.5,92.6
					C50,373.3,67,399.2,88.4,421.3c9.5,9.8,19.8,18.7,30.8,26.9c13.8,10.3,28.8,18.9,44.5,26c29.5,13.1,61.4,20,93.7,20.6
					c32.5,0.4,64.7-5.5,94.9-17.7c8.8-3.6,17.4-7.7,25.7-12.3c19.2-10.6,36.8-23.9,52.5-39.2c22.5-22.2,40.6-48.5,53.3-77.5
					c13.1-30.2,19.9-62.7,20.6-95.6c0-0.4,0-16.3,0.2-15.4c1.3,4.8,1,10.5,1.1,15.4c0.8,33.3-5.5,66.5-18,97.3
					c-12.2,29.9-30.2,57.2-52.7,80.3c-22.7,23.2-49.7,41.8-79.5,54.8c-12.3,5.3-25,9.7-38,12.9c-19.7,4.9-39.9,7.5-60.2,7.6
					c-33.9,0.1-67.4-6.4-98.7-19.3c-30.2-12.7-57.6-31.1-80.9-54.1c-2.7-2.7-5.4-5.5-8-8.4c-19.4-21.3-35.2-45.8-46.5-72.3
					c-13.2-31.3-20-64.9-20-98.9c0.1-34,6.8-67.6,20-98.9c7.1-16.8,16.1-32.7,26.6-47.6C58.3,94.1,67.7,83.1,78,72.9
					c23.3-22.7,51-40.8,81.5-52.2c14.4-5.3,32.7-11.8,48.4-10.1c6.5,0.8-32.8,18.8-37.6,20.9c-1.8,0.7-3.5,1.5-5.2,2.3
					c-27.7,12.5-52.9,30.3-74,52.2C81.3,96.3,72.3,107.5,64.5,119.4z"/>
			</g>
			<g>
				<path class="st10" d="M24.3,301.6c-2.5-16.3-3.3-32.8-2.3-49.3c1.9-31.1,10-61.4,23.1-89.7c2.8-6,5.8-11.9,9-17.6
					c11.2-20,25-38.5,41.1-54.9c5-5.1,10.3-10,15.8-14.6C128.3,61.3,147.2,49,167.3,39c0.2-0.1,0.5-0.2,0.7-0.4
					c11.3-5.6,23.2-9.8,35.1-13.9c1.7-0.6,21.7-6.9,21.3-7.3c-1.7-1.7,1.4-3,2.5-4c3.7-3.3,21.8-2.5,23-6.8
					c0.3-3.1-21.7-2.5-23.9-2.4c-23.1,0.2-45.9,6-67.4,14.2c-22.8,8.8-44.1,21.1-63.4,36.1c-6.6,5.2-12.9,10.7-19,16.5
					c-23.7,23-42.8,50.7-55.1,81.4C11,178.1,6.3,204.8,5.4,232.2c-0.2,6.7-0.2,13.4,0.1,20.1c1.2,25.1,4.4,59.8,19.6,81.1
					C30.2,342.4,24.9,307.2,24.3,301.6z"/>
			</g>
			<g>
				<path class="st10" d="M17.1,252.7c0-0.1,0-0.3,0-0.4c1.7-31.8,10-62.8,23.9-91.4c7.6-15.5,16.7-30.2,27-44
					c7.7-10.2,16.1-19.9,25.1-28.9c10.4-10.3,21.5-19.9,33.6-28.1c12.7-8.6,25.9-16.2,39.8-22.8c4.8-2.3,9.7-4.4,14.6-6.5
					c10.7-4.4,21.8-7.7,32.9-10.8c1.6-0.4,20.1-5.4,19.8-5.8c-1.5-1.6,1.4-2.6,2.4-3.5c3.6-2.9,19.9-1.5,21.2-5.4
					c-36.7-1-62.7-1.7-99.2,12.3c-15.3,6-30,13.5-43.8,22.3c-13.9,8.9-26.9,19.2-38.7,30.8c-23.6,23.2-42.3,51.2-53.8,82.2
					c-4.2,11.5-7.3,23.3-9.8,35.3c-4.4,21.1-6.2,42.7-5,64.2c0.6,9.5,0.9,20.8,4.7,29.7C14.6,291.1,16.6,258,17.1,252.7z"/>
			</g>
			<path class="st11" d="M17.9,221.5c3.9-21.5,10.9-42.2,20.5-61.7c10-20.2,22.7-38.8,37.2-55.9c5.1-6,10.5-11.7,16.1-17.2
				c12.1-11.9,25.3-22.8,39.6-32c11.1-7.1,22.6-13.4,34.5-19c5-2.4,10.1-4.6,15.2-6.7c9.7-4,19.7-7,29.7-10
				c1.4-0.4,18.1-5.2,17.8-5.5c-1.4-1.4,1.2-2.4,2.1-3.2c3-2.6,17.9-1.9,18.9-5.3c0.3-2.5-17.7-2.1-19.5-2.1
				c-24.5-0.1-49,6.2-71.8,15c-13,5.1-25.6,11.3-37.6,18.5C104.5,46,89.5,57.6,76,70.9c-23.5,23.4-41.5,51.3-52.6,82.5
				c-1.2,3.5-2.4,7.1-3.6,10.7C12.3,188.4,3.3,221.5,9.7,247C11,255.7,16.9,226.2,17.9,221.5z"/>
		</g>
	</g>
	<g>
		<g>
			<path class="st12" d="M296.8,327.1c0.5-0.8,0-1.8-1-1.7c0.3-1.3-0.7-1.9-1.5-1.3c-0.8-1.8-1.8,0.2-2.3,1.1c-1.2,2-2.1,3.4-3,5.5
				c-0.2,0.4-0.5,0.8-0.6,1.1c-0.2,1,0.2,2,0.3,3c0.2,3.1-1.9,5.6-3,7.6c-0.6,1-1.1,2.1-1.7,3.1c-0.9,1.8-0.9,4.1-2.2,5.2
				c0,0.4,0.3,0.5,0,0.8c-1.5,0.6-3.5,0.6-5,1.1c-0.3-0.1-0.1-0.7-0.5-0.7c-5.1,1.3-11.9,1.1-15.8,3.6c-0.4,0.8-1,1.4-1.3,2.3
				c-0.8-0.5-1.8-0.6-2.3-1.3c-0.3-0.4-0.7-1.2-0.8-1.8c-0.2-2.4,1.3-4.3,2.3-5.7c0.2,0.2,0.6,0.1,0.9,0.1c0.8-0.6,1.3-1.5,1.7-2.5
				c0.5-0.9,1.2-2.1,1-3.2c0-0.3-0.3-0.5-0.4-0.8c0.3-0.4,0.6-0.8,0.2-1c0.3-0.3,0.1-0.7,0.2-1.1c0-0.1-0.2,0-0.2-0.2
				c0.1-0.2,0.2-0.3,0.2-0.5c0-0.1-0.2-0.1-0.2-0.2c0.1-0.3,0.4-0.4,0.5-0.7c-0.1-0.2,0.1-0.5-0.1-0.7c0.1-0.1,0.2-0.5,0.2-0.7
				c0.1-0.1,0.4,0,0.4-0.1c-0.1-0.3-0.4-0.6-0.4-0.9c-0.1-0.3,0-0.7,0-1c-0.2-1.4-0.9-2.5-1.5-3.5c0-0.1,0.1-0.1,0-0.2
				c-0.4-0.4-0.8-0.8-1.1-1.3c-0.4-0.7-1.2-1.1-1.9-1.4c-0.7-0.3-1.5-0.5-2.3-0.4c-0.2,0-0.4,0.1-0.6,0.2c-0.4,0-0.6-0.2-0.9-0.3
				c-0.4-0.1-1.1-0.1-1.6-0.1c-0.2,0-0.4,0.1-0.5,0.1c-0.6,0.1-1.2,0.2-1.8,0.5c0.1-0.2,0.3-0.3,0.3-0.6c-0.7,0-1.1,0.7-1.5,0.9
				c0.1-0.6,0.2-1.1,0.5-1.5c0.3-0.4,0.8-0.7,0.9-1.2c-0.1,0-0.1,0-0.2,0c-1,0.7-1.6,1.8-1.9,3.2c-0.5,0.1-1,0.2-1.4,0.4
				c-0.9,0.1-1.9,0.2-2.2,0.9c-0.1,0.2,0.1,0.1,0.1,0.2c-0.2,0.3-0.6,0.4-0.7,0.9c0,0.1,0.2,0,0.2,0.1c-0.7,0.6-1.3,1.3-1.6,2.3
				c0,0.1,0.2,0,0.2,0.1c0,0.2-0.3,0.4-0.1,0.6c-0.2,0.3-0.6,0.5-0.6,1c0,0.1,0.2,0,0.3,0.1c-0.1,0.3-0.3,0.5-0.3,0.9
				c0.2,0.1,0.2,0.2,0.2,0.5c0.1,0,0.3,0,0.3,0c-0.1,0.3,0.1,0.5,0,0.7c-0.1,0.4-0.6,0.5-0.5,0.9c0,0.1,0.3,0,0.3,0.1
				c-0.1,0.3,0.1,0.3,0.2,0.5c0,0.1-0.2,0.3-0.1,0.4c0,0.1,0.3,0,0.3,0.2c-0.1,0.3-0.1,0.4,0,0.6c-1.1,0.9-0.2,2.9,0.1,4.2
				c0.3,1.5,0.4,2.4,1.5,2.6c0.3,1.1,0.6,2.4,1.1,3.5c0.2,0.5,0.7,0.8,0.8,1.3c0.4,2.3-1.2,3.7-2.5,4.8c-0.2,0-0.5,0-0.6,0.1
				c-2.3,2.4-6.5,1.6-9.1,3.5c-2.8,2-3.3,5.9-3.9,10.2c-0.3,2.4-0.8,4.8-0.5,7.1c0.2,0.3,0.8,0.1,0.9,0.5c-0.3,1.4-0.7,2.7-1,4.1
				c-0.4,1.4-1.1,2.7-1,4.2c0,0.8,0.4,1.2,0.5,1.7c0.3,1,0.3,2.2,0.5,3.3c0.5,1.9,1.3,3.8,1.9,5.7c0.3,1.1,0.9,2,1,2.8
				c0.3,2.1-0.4,3.8,0,5.6c0.3,1,1,2,1.5,2.9c0.5,1,0.9,2,1.7,2.8c0.3,0.3,0.6-0.3,0.8-0.1c0.6,1.6,0.4,3.2,0.3,4.9
				c-0.1,0.9-0.3,1.9-0.3,2.9c0,2,0.5,4.1,0.4,6.2c0,0.9-0.2,1.8-0.2,2.7c0.1,1.5,0.5,2.9,0.5,4.4c0.1,1.2,0,2.8-0.1,3.7
				c-0.2,5.6-0.1,11.1-0.7,15.9c-0.3,2.3-1.1,3.8-1.6,5.6c-0.5,1.8,0.2,3.9,0.2,5.5c0,1.6-0.7,2.8-1.2,3.9c-0.5,1.1-0.6,2.7-0.2,4.1
				c1.2,0.2,2.7,0.3,4,0.4c-0.8,0.4-0.8,1.2-1.5,1.5c-0.2,0.2,0.1,0.5-0.1,0.6c-0.8,0.6-1.5,1.8-2.7,2.7c-1.3,1-3.6,2-1.7,3.9
				c0.7,0.3,1.3,0.5,2.1,0.6c3.9,0.3,6.5-0.1,8.5-1.8c1.3-1.1,2.8-1.8,3.7-3c0.1-1.8-0.1-3.3-0.4-4.7c0.9,0,1.8-0.1,2.5-0.3
				c0.4-0.7,0-2.4,0.1-3.1c0.2-1.8,1.1-3.6,1.3-5.6c0.2-2.3-0.4-4-0.5-5.8c-0.1-1.8,0-3.9-0.1-5.5c-0.3-5.2,1-8.8,0.8-13.6
				c-0.1-3.1,0.5-6.4,0.6-9.5c0.1-3.4,0-6.5,0.5-9.2c0.2-1.2,0.4-2.4,1.1-3.4c0.7,0.1,0.8,1,1,1.5c0.2,0.6,0.4,1.2,0.6,1.8
				c0.8,2.6,0.9,5.5,1.7,8.2c0.3,1.3,0.8,2.6,1,3.9c0.2,0.9,0.1,1.9,0.2,2.8c0.2,1.6,1,3.2,1.3,4.8c0.2,0.9,0.2,1.8,0.3,2.7
				c0.1,0.9,0.5,1.8,0.5,2.6c0.1,1.7-0.7,3.6-0.5,5.3c0.2,2,1.2,4,1.1,5.9c0,1.7-0.3,3.4,1.1,4.2c-0.4,1.5,0.5,2.5,1,3.8
				c1,2.9,1.1,6.1,3,8c1.1,1.2,3.2,2.3,5,2.3c1.8-0.1,3.2-1.7,3.2-3.4c0-3.2-3.3-5.2-3.5-8.2c-0.2-0.2-0.6-0.7-0.4-1
				c0.9-0.1,2.3,0.1,3-0.3c0.8-0.5,1.7-3.2,1.7-4.3c-0.1-1.3-1.4-2.6-1.6-4c-0.2-1.6,0.6-3.7,0-5.4c-0.3-0.7-0.7-1.3-1-2.1
				c-1.3-3.9-1.4-8.6-2.1-13.4c-0.3-1.9-0.6-3.9-0.5-5.7c0.1-1.8-0.3-3-0.4-4.6c-0.1-1.7,0-3.4-0.2-5.1c1-0.6,1.6-1.7,1.1-3
				c-0.3-0.9-1.6-1.2-2-1.8c-0.4-3.6-1.5-6.6-2-10.1c0.8-1,0.2-2-0.1-3.3c-1.7-9.3-0.3-20.1,0.4-29.4c0.9-1.3,2.4-2.3,3.2-3.6
				c0.4-0.7,0.5-1.3,1.1-1.6c0.7-0.3,1.7-0.2,2.5-0.3c2.4-0.5,4.6-1.1,7-1.7c0-0.7,0.1-1.6-0.1-2.2c2.6-1.1,6.3-1,8.5-2.4
				c3.5-5.5,4.1-13.9,7.4-19.6c1.3-0.9,3.2-3.4,3.5-5.7C297.9,329.7,297.9,327.4,296.8,327.1z M237.3,397.7
				c-0.3,0.1-0.4-0.4-0.5-0.5c-1.4-2.6-0.4-8.4-2.1-10.8c0.9-1.7,1.3-3.8,1.9-5.8c0.3,0,0.5,0.2,0.8,0.3
				C237.8,386.1,237.9,392.5,237.3,397.7z M267.4,413.8c-0.2,0-0.4,0.2-0.6,0.2c0-0.3,0-0.5-0.1-0.7
				C267,413.3,267.3,413.5,267.4,413.8z"/>
		</g>
		<g>
			<path class="st13" d="M264.6,247.9c-2.6,1-2.5,2.8-1.8,3.4c0.6,0.5,1.6,0.5,2.4,0.4c1.3-0.1,3.7-0.1,4.9,0.1
				c0.8,0.1,1.4,0.9,1.5,1.7c0.1,0.8-0.4,3,0.8,3.2c1.2,0.2,1.1-2.2,1.1-2.8c0-0.6,0-2.2,0.8-2.2s0.7,1.9,0.7,2.4
				c0,1,1.1,1.2,1.2-0.1c0-0.4-0.5-1.9,0.3-1.9s0.1,1.7,0.6,1.9c0.8,0.4,0.8-0.8,1-1.2c0.8-1.3,3.3,0,4.1-1.4
				c0.5-0.8-0.1-1.8-0.8-2.4c-0.7-0.6-1.6-0.9-2.3-1.5c-0.8-0.8-1.3-2-2.2-2.6c-1.2-0.9-4-1.1-5.5-0.6
				C268.7,245.3,266.9,246.9,264.6,247.9z"/>
		</g>
		<g>
			<defs>
				<ellipse id="SVGID_00000149357264040955135300000001416616125964573352_" cx="271.9" cy="312.5" rx="193.4" ry="173.5"/>
			</defs>
			<clipPath id="SVGID_00000142893337454472643010000012781932053892766639_">
				<use xlink:href="#SVGID_00000149357264040955135300000001416616125964573352_"  style="overflow:visible;"/>
			</clipPath>
			<g style="clip-path:url(#SVGID_00000142893337454472643010000012781932053892766639_);">
				<path class="st12" d="M348.3,466.2c0.1-1.4-1-1.3-1.7-1.8c-0.5-0.3-0.4-1-1-1c1-0.6,1.9-1.3,2-2.5c0.3-3.2-1.2-6.4-1.3-9.7
					c-0.2-10.6-2.3-22.6-4-33.2c-0.9-5.7-2.3-11.4-2.1-17.3c0.2-6.7-1.9-12.5-2.8-19c-1-7.4-2.2-14.4-2.4-21.9
					c0-1.8-1.1-4.5,0.5-5.5c0.8-0.5,1.3-1.1,1.5-2c0.7-2.7-0.5-4.5-0.6-7c-0.1-5.9-3.7-10.7-4.1-16.5c-0.4-5.1-1.7-13.4-0.6-18.3
					c0.6-2.5,2.3-4.5,2.8-7.1c0.6-3.2-0.3-7.7,1.3-10.6c5.6-10,8.6-21.7,9.4-32.9c0.1-1.9,1-2.4,1.7-3.5c0.7-1.1,2.6-4.8,1.8-6.2
					c-0.2-0.5-0.6-0.4-1.2-0.8c-0.1-1.2-0.6-2.1-2.1-2c-0.2-1-0.3-1.7-1.1-1.8c-0.6-0.1-1.3,0.7-1.8,0.1c-0.3-1.7,0.4-6.4-1.4-6.2
					c-1.5,0.2-0.7,4-1.1,5.8c-0.2,1-0.8,1.8-0.9,2.5c-0.1,0.6,0.2,1-0.1,1.4c-3.5-0.6-3.1,5.7-1,6.6c-0.6,1-0.1,2.2-0.4,3.4
					c-1.7,6.4-6.5,13.6-10.1,18.9c-2.2,3.3-3.8,6.4-6.4,9c-1.3,1.3-2.1,3-3.4,4.1c-0.3-1.6-0.6-3.5-0.4-5.2c0.9-0.4,1.6,0,2.1-1.7
					c0-0.1,0-0.2,0.1-0.3c0.2,0,0.3,0,0.5-0.1c0-0.3-0.2-0.3-0.3-0.5c0-0.1,0-0.1,0-0.2c0.1,0,0.1-0.1,0.1-0.1c0,0-0.1,0-0.1,0
					c0-0.3,0.1-0.6,0.1-0.9c0.1-0.1,0.3-0.1,0.6-0.1c0.2-0.5,0-0.9,0.3-1.3c-0.3-0.1-0.4-0.4-0.2-0.7c-0.2-0.1-0.4-0.2-0.5-0.5
					c0-0.2,0.3-0.2,0.3-0.5c-0.2,0-0.3-0.1-0.3-0.3c0.2-0.1,0.4,0,0.5-0.1c-0.1-0.1-0.4-0.3-0.2-0.5c0.2,0,0.3,0.2,0.5,0.2
					c0.2-0.5-0.4-0.7-0.5-1c0.1-0.2,0.4-0.2,0.7-0.2c0-0.2-0.2-0.2-0.2-0.4c0.1-0.1,0.2-0.2,0.2-0.3c-0.1-0.1-0.4-0.1-0.5-0.3
					c0-0.2,0.2-0.2,0.3-0.4c-0.1-0.1-0.2-0.2-0.2-0.3c0.2-0.2,0.6-0.2,0.9-0.4c0-0.2,0-0.4,0.1-0.6c-0.2,0-0.1-0.2-0.3-0.2
					c-0.1,0,0,0.3-0.2,0.2c-0.3-0.2-0.7-0.8-0.5-1.3c-0.2,0-0.3,0-0.3-0.2c0.2-0.3,0.2-0.5,0.1-0.9c-0.3,0-0.4-0.1-0.5-0.3
					c0.1-0.4,0-0.5,0-1c0.1,0,0.3,0,0.3-0.1c-0.3-0.3-0.8-0.3-0.8-0.9c0.1-0.1,0.2-0.2,0.3-0.2c-0.1-0.5-0.7-0.4-1-0.6
					c-0.1-0.2,0-0.3,0-0.6c-0.3-0.1-0.2,0.1-0.5,0.1c-0.4-0.4-0.4-1.4-0.3-1.9c0.2,0,0.2,0.1,0.3,0.1c0.2-0.9-0.7-1-1.4-1.4
					c-0.1,0.1,0,0.4-0.1,0.5c-0.4-0.1-0.4,0.3-0.6,0.5c-0.6,0-0.5-0.7-0.7-1.1c-0.9,0.3-0.6-0.7-0.9-1.1c-0.4,0.2-0.7,0.4-1,0.6
					c-0.3,0-0.2-0.2-0.4-0.2c-0.1,0.1-0.3,0.2-0.4,0.3c0.1,0,0.1,0.1,0.1,0.2c-1.1,0.6-1.5-0.7-2-1.1c-0.3,1.5-1.9,0.6-2.4,0.1
					c0,0.4-0.5,1.1-0.3,1.5c-0.2,0.6-1.6,0.9-1.7-0.1c-0.4,0-0.6-0.5-0.9-0.3c0,0.2,0.2,0.4,0.2,0.6c-0.1,1.2-1.2,0.4-1.8,0.2
					c-0.3-0.1-0.6,0.1-0.8-0.1c-0.1,0.1-0.4,0.2-0.5,0.3c0,0.1,0,0.3,0,0.4c-0.2,0.2-0.5,0.3-0.9,0.3c0,0.1,0.1,0.2-0.1,0.3
					c-0.4,0.1-1,0.1-1.4,0.2c0.1,0.1,0.4,0.1,0.3,0.3c-0.1,0.1-0.4,0.2-0.4,0.4c0,0.2,0.1,0.2,0.1,0.3c-0.3,0.7-1.4,0.6-2.1,1
					c0.1,0.1,0.2,0.2,0.2,0.4c-0.2,0.2-0.1,0.4-0.2,0.6c-0.3,0.6-1.2,0.7-1.5,1.3c0.2-0.1,0.4-0.1,0.5,0.2c-0.4,0.2-0.8,0.5-1.1,0.9
					c0.1,0.1,0.3,0.1,0.3,0.2c-0.1,0.1-0.1,0.3-0.2,0.4c0.1,0,0.3,0,0.3,0.2c0,0.4-0.4,0.3-0.3,0.7c0.3,0,0.7,0.2,0.5,0.5
					c0.7,0,0.4,0.6,0.1,0.9c0.1,0,0.2,0.1,0.2,0.2c-0.1,0.3-0.3,0.5-0.6,0.7c0,0.4,0,0.6-0.2,1c0.2,0,0.3,0,0.4,0.2
					c0.1,0.2-0.2,0.1-0.2,0.3c0.4,0.3,0.3,0.9,0.6,1.4c-0.2,0.1-0.4,0.1-0.7,0.2c-0.1,0.2,0.1,0.4,0.2,0.5c0.1-0.1,0.5-0.1,0.7-0.1
					c0,0.2-0.1,0.2,0,0.3c1,0.1,0.2,1.2,0,1.6c0.4,0,0.6,0.2,0.6,0.7c0.3,0.1,0.7,0.1,0.7,0.4c0.1,0.4-0.3,0.6-0.3,1
					c0.9-0.2,1.2,0.2,1.6,0.7c0.1-0.1,0.2-0.2,0.4-0.3c0.1,0.7,0.3,1.4,0.6,2.2c0.4,1.1,1.1,1.2,1.9,1.1c1,1.9,1.5,4.2,2,6.6
					c-0.7,0.1-1.7,0.6-2.5,0.4c-1-0.2-1.1-1.2-1.7-2c-0.9-1.1-2.2-1.9-3.4-2.9c-4.5-4-8.4-8.6-10.9-14.1c-1.8-4-4.8-7.8-6.1-12.1
					c-0.3-1,0-1.8-0.2-2.7c-0.1-0.5-0.7-0.9-0.8-1.4c-0.1-0.5,0.3-1,0.3-1.5c0-0.9-0.8-1.7-1-2.7c-0.1-0.9,0.1-1.9-0.1-2.8
					c-0.2-0.8-0.7-1.8-1-2.7c-0.6-2.2-1.3-5.2-2.7-5c-1.3,0.2,0.4,3.5,0.3,5.3c-1.5-1.4-2.6,0.4-4.1,0.4c-0.7,0-1.2,0.5-1.3,1.3
					c-0.6-0.3-1.2,0.1-1.5,0.5c-1.1,1.6,0.2,2.7,0.7,4c0.9,2.5,1.4,4.6,3.4,5.5c0,1,0.5,1.7,0.5,2.5c0.5,5.2,0.5,9.9,2.1,15
					c1.7,5.3,5.3,9.6,7.9,14.5c2.8,5.4,4.5,11.3,7.4,16.7c2.8,5.2,1.5,9.8,1.4,15.4c0,5.1-1.3,10.2-2.1,15.2
					c-0.6,3.4-4.4,10.7-1.6,13.8c2.8,3.1,3.6,1.4,3.1,6.6c-0.6,6-3.5,12-3.8,17.8c-0.5,11.3-2.2,23.2-4,34.4
					c-2.1,12.8-1.4,26.1-3.6,38.9c-0.3,1.9-1.4,5.6-1,7.5c0.3,1.6,2.5,1.9,4.1,2.5c-1.4,0.7-1.2,2.3-1.7,3.8
					c-0.5,1.4-1.7,2.6-1.4,4.1c0.1,0.4,0.8,1.3,1.4,1.7c1.9,1.4,7,2.4,9.5,1.8c1.6-0.3,2.6-2.1,2.5-3.7c0-0.6-0.4-1-0.4-1.6
					c-0.1-1,0-2.1,0.1-3.6c2.1-0.1,4.7,0.6,6.5,0c1.6-0.5,2-2.3,2.3-4.4c1-8.2-0.1-16.4,1.6-24.5c2.8-13.6,3.8-27.8,5.5-41.6
					c0.9-7.4,2.3-15.4,4-22.6c2.6,6.7,2.7,14.3,2.8,21.2c0.1,3.9,0.7,7.4,1.7,11.1c1,3.5,1.2,7.3,2.6,10.7c1.5,3.5,2.1,8,2,11.8
					c-0.2,4.2,2.6,6.9,3,10.9c0.7,8-0.5,16.2,0.3,24.3c0.4,3.8,4.1,3.3,8,3c0.1,1.9,1.7,2.3,2.8,3.6c0.4,0.4,0.7,1.2,1.1,1.5
					c1.1,0.9,3.7,1.7,5.4,1.6c2.6-0.1,7.6-1.4,7.8-3.7C349.8,467.4,349.1,466.8,348.3,466.2z"/>
				<g>
					<path class="st12" d="M385.1,468.3c-0.1-0.4,0-0.9-0.1-1.2c-0.2-0.4-0.8-0.9-1.2-1.4c-0.4-0.5-0.8-1.1-1.1-1.5
						c-0.6-0.8-1.8-2.6-1.8-3.6c0-0.5,0.5-0.9,0.6-1.4c0-0.4-0.3-0.8-0.3-1.1c-0.1-0.6,0-1.2,0-1.9c-0.3-3.9-1.9-7.3-2.8-10.8
						c-0.7-2.8-0.8-5.8-2.3-8.3c-1.5-2.5-2.5-4.3-3.2-7.3c-1.6-6.8-5.3-13.2-6.3-20.1c-0.2-1.2-0.4-2.5-0.4-3.6
						c0-1.5,0.5-3.2,0.9-4.8c1-4.9,2.7-9.3,3.9-13.6c1.5-5.3,2.9-10.8,3.6-16.6c0.1-0.8,0.5-1.6,0.5-2.4c0.4-4.2-1-9.3-2.8-11.8
						c-0.2-0.3-0.6-0.5-0.8-0.9c-0.1-0.3,0.1-0.7,0-1c-0.1-0.5-0.7-1.1-1-1.7c-1-1.9-1.5-3.7-2.4-5.6c2.9-2.9,7.1-5.9,9.9-9
						c1.7-1.9,2.6-3.5,3.9-5.6c0.3-0.6,1.1-1.4,1.2-2c0.7-2.5-0.6-3.5-1.8-4.8c-2-2.3-4.7-4.3-5.9-6.9c-1.6-3.5-3-6.2-6.6-7.3
						c0.1-1.4-1-1.8-2.3-2c-0.3-0.1-0.5-0.3-0.8-0.5c-0.6-0.4-1.2-1-1.7-1.6c0-0.5-0.1-0.9-0.1-1.4c0.1,0.2,0.2,0.4,0.4,0.6
						c0.1,0.4,0.2,0.7,0.4,1c0-0.2-0.1-0.5-0.1-0.7c0.1,0.2,0.2,0.3,0.4,0.4c0.4,0.3,0.5,0.5,0.9,0.8c-0.4-0.3-0.5-0.5-0.8-0.8
						c-0.2-0.2-0.3-0.4-0.5-0.6c0-0.2-0.1-0.3-0.1-0.5c0.2,0.3,0.4,0.6,0.7,0.9c0.1,0.1,0.1,0.3,0.2,0.4c0-0.1-0.1-0.2-0.1-0.3
						c0,0,0,0,0,0.1c0.9,0.9,2.1,1.4,3.2,1.8c0.5,0.1,0.7,0.2,1.2,0.3c-0.5-0.2-0.7-0.2-1.1-0.4c-1.1-0.5-2.2-1-3-1.9
						c-0.2-0.2-0.3-0.4-0.4-0.5c-0.1-0.2-0.1-0.4-0.1-0.5c0.1,0.2,0.3,0.3,0.4,0.5c-0.2-0.2-0.3-0.4-0.4-0.5c0-0.1,0-0.2-0.1-0.3
						c0.3,0.4,0.5,0.7,0.9,1c0.3,0.3,0.5,0.4,0.8,0.6c-0.3-0.2-0.5-0.4-0.8-0.7c-0.4-0.4-0.7-0.9-1-1.4c0-0.2-0.1-0.5-0.1-0.7
						c0.4,0.9,0.9,1.7,1.7,2.2c0.3,0.3,0.5,0.3,0.9,0.6c-0.3-0.2-0.6-0.3-0.8-0.6c-0.8-0.6-1.3-1.5-1.6-2.5
						c-0.1-0.2-0.1-0.3-0.1-0.5c0-0.1,0-0.2,0-0.3c0,0.1,0.1,0.3,0.2,0.5c0.1,0.2,0.2,0.7,0.2,0.7c0,0-0.1-0.3-0.1-0.4
						c0.1,0.3,0.1,0.4,0.3,0.6c0.2,0.3,0.2,0.5,0.5,0.7c-0.2-0.3-0.3-0.5-0.5-0.8c-0.3-0.6-0.5-1.2-0.6-1.9c0-0.1,0-0.1,0-0.2
						c0-0.1,0-0.2,0-0.3c0.1,0.6,0.2,1.2,0.4,1.7c0.1,0.3,0.2,0.5,0.4,0.8c-0.2-0.3-0.2-0.4-0.3-0.8c-0.3-0.8-0.4-1.7-0.5-2.6
						c0-0.1,0-0.3,0-0.4c0.1,0.7,0.2,1.4,0.4,2c0.1,0.7,0.4,1.4,0.7,1.9c0.1,0.3,0.3,0.4,0.5,0.7c-0.2-0.3-0.3-0.4-0.4-0.7
						c-0.2-0.4-0.3-0.5-0.4-0.9c0.1,0.2,0.1,0.2,0.2,0.4c0.3,0.5,0.5,0.7,0.9,1.1c0.4,0.5,0.9,0.8,1.5,1.1c0.3,0.2,0.5,0.2,0.9,0.3
						c-0.3-0.2-0.5-0.2-0.9-0.4c-0.2-0.2-0.4-0.2-0.6-0.4c0.2,0.1,0.3,0.1,0.6,0.2c-0.3-0.2-0.4-0.2-0.7-0.4
						c-0.1-0.1-0.2-0.1-0.3-0.2c-0.4-0.3-0.5-0.5-0.8-1c-0.6-1.1-0.8-2.4-0.9-4.1c0.1,0.5,0.1,0.8,0.2,1.3c0,0.2,0,0.2,0.1,0.4
						c0.2,0.8,0.4,1.6,0.8,2.2c0.1,0.3,0.3,0.3,0.4,0.5c-0.2-0.2-0.3-0.3-0.4-0.6c-0.1-0.2-0.2-0.3-0.3-0.5c0,0.1,0.1,0.1,0.1,0.2
						c0.2,0.2,0.2,0.4,0.4,0.5c-0.2-0.2-0.2-0.3-0.4-0.6c-0.2-0.4-0.4-1-0.5-1.6c0-0.1,0-0.2-0.1-0.3c-0.2-1.8-0.4-3.8-0.5-5.7h0
						c0-0.6-0.1-1-0.1-1.6c0.2,1.8,0.3,3.7,0.6,5.4c0.1,1,0.3,2,0.5,2.7c0.1,0.3,0.3,0.7,0.3,0.7c0,0-0.1-0.4-0.3-0.7
						c-0.2-0.7-0.3-1.7-0.4-2.7c-0.2-1.7-0.3-3.5-0.4-5.3c0.3,2.6,0.6,5.6,1.2,7.7c0.2,0.7,0.6,1.2,0.9,1.6c0.2,0.1,0.2,0.2,0.4,0.3
						c-0.2-0.1-0.2-0.2-0.4-0.3c-0.3-0.3-0.6-0.8-0.8-1.6c-0.6-2.8-0.8-6.2-1.2-9.8c-0.3-1.4-0.7-2.8-1.2-4c0-0.3-0.1-0.5-0.1-0.8
						c-0.1-0.3-0.1-0.6-0.1-0.9c-0.1-0.4-0.2-0.8-0.3-1.2c-0.3-1.3-0.8-2.1-1.6-3c-0.5-0.5-1-1.1-1.6-1.6c-0.3-0.2-0.6-0.4-0.9-0.7
						c-0.3-0.2-0.6-0.5-1-0.6c-0.1,0-0.2-0.1-0.4-0.1c-1.3-0.9-3.2-1.3-4.7-0.6c0,0.1,0.1,0.2,0.1,0.2c-0.4-0.2-0.9-0.2-1.3-0.2
						c-0.4,0-1.1,0-1.5,0.1c-0.5,0.2-0.7,0.6-1.1,0.8c-0.1,0.1-0.4,0.2-0.5,0.3c-0.1,0.1-0.3,0.3-0.4,0.4c-0.4,0.3-0.9,0.7-1.3,1
						c-1.7,1.5-3,3.2-4.2,4.9c-1.3,1.9-2.5,4-3.6,5.9c-0.3,0.6-0.7,1.1-1,1.6c-0.1,0.2-0.4,0.5-0.4,0.5c0,0,0.2-0.3,0.4-0.5
						c0.4-0.5,0.7-1,1.1-1.6c0.6-1,1.3-2.3,2-3.3c-0.9,1.5-1.6,3.1-2.4,4.4c-0.3,0.6-0.7,1.1-1,1.5c-0.1,0.2-0.2,0.3-0.4,0.4
						c0.2-0.2,0.2-0.3,0.4-0.4c0.4-0.4,0.7-0.9,1.1-1.5c0.1-0.2,0.2-0.3,0.3-0.4c-0.4,0.8-0.8,1.5-1.3,2.1c-0.4,0.5-0.8,1-1.3,1.3
						c-0.2,0.1-0.3,0.2-0.4,0.3c0.2-0.1,0.3-0.1,0.5-0.3c0.5-0.3,0.9-0.7,1.3-1.2c0.8-0.9,1.4-2,2.1-3.2c-0.1,0.2-0.2,0.3-0.3,0.5
						c-0.2,0.3-0.3,0.5-0.4,0.8c-0.3,0.6-0.7,1.2-1.1,1.7c-0.1,0.2-0.4,0.5-0.4,0.5c0,0,0.3-0.3,0.4-0.5c0.3-0.4,0.4-0.6,0.7-1
						c-0.3,0.4-0.5,0.9-0.8,1.3c-0.1,0.2-0.2,0.3-0.4,0.5c0.2-0.2,0.2-0.3,0.4-0.5c0.4-0.5,0.7-1,1.1-1.6c0.3-0.6,0.7-1.2,1-1.8
						c0.2-0.3,0.2-0.4,0.4-0.7l0.1,0c-0.6,1.1-1.1,2.2-1.7,3.2c-0.3,0.6-0.7,1.1-1.1,1.6c-0.2,0.2-0.2,0.3-0.4,0.4
						c0.2-0.1,0.3-0.2,0.4-0.4c0.4-0.4,0.8-1,1.2-1.5c0.1-0.2,0.2-0.3,0.3-0.5c-0.4,0.8-0.9,1.5-1.4,2.1c-0.5,0.5-1,1-1.5,1.3
						c-0.2,0.1-0.3,0.1-0.6,0.3c0.2-0.1,0.4-0.1,0.6-0.2c0.6-0.3,1.1-0.7,1.6-1.2c0.7-0.8,1.3-1.7,1.9-2.7l-0.1,0.2
						c-0.3,0.4-0.4,0.7-0.7,1.1c-0.4,0.6-0.8,1.1-1.2,1.6c-0.2,0.2-0.3,0.3-0.5,0.4c0.2-0.2,0.3-0.2,0.5-0.4
						c0.4-0.4,0.8-0.8,1.1-1.2c-0.2,0.4-0.5,0.8-0.8,1.1c-0.2,0.2-0.2,0.3-0.4,0.5c0.2-0.2,0.3-0.3,0.5-0.5c0.2-0.2,0.2-0.3,0.4-0.5
						l-0.1,0.2c-0.1,0.2-0.2,0.3-0.4,0.5c0.2-0.2,0.2-0.3,0.4-0.5c0.3-0.4,0.5-0.8,0.8-1.2l0.1-0.2c0.2-0.3,0.3-0.4,0.4-0.7
						c0.4-0.6,0.7-1.2,1-1.8c-0.2,0.3-0.2,0.5-0.4,0.8c-0.5,1.1-1.1,2.1-1.8,3c-0.4,0.6-0.9,1.1-1.4,1.5c-0.2,0.2-0.3,0.2-0.5,0.4
						c0.2-0.1,0.3-0.2,0.6-0.3c0.5-0.4,1-0.9,1.5-1.4l0,0l0,0l0,0c0.1-0.2,0.2-0.2,0.3-0.4c-0.5,0.8-1.1,1.5-1.8,2
						c-0.6,0.5-1.3,0.8-2,1c-0.3,0-0.4,0.1-0.8,0.1c0.3,0,0.5,0,0.8-0.1c0.8-0.1,1.5-0.4,2.1-0.9c0.4-0.3,0.7-0.6,1-0.9
						c-0.1,0.1-0.2,0.3-0.2,0.4c-0.1,0.2-0.2,0.3-0.4,0.4c0.1-0.1,0.2-0.2,0.3-0.4c0,0.1-0.1,0.2-0.1,0.2c-0.1,0.1-0.2,0.2-0.4,0.4
						c-0.2,0.2-0.3,0.3-0.6,0.4c0.3-0.1,0.4-0.2,0.6-0.4c0.1-0.1,0.2-0.2,0.3-0.2c-0.1,0.1-0.1,0.2-0.2,0.3c0,0.1-0.1,0.1-0.1,0.2
						c-0.1,0.1-0.2,0.1-0.2,0.2c-0.3,0.2-0.4,0.3-0.7,0.4c0.3-0.1,0.4-0.2,0.7-0.4c0.1,0,0.1-0.1,0.2-0.1c-0.2,0.4-0.4,0.7-0.6,1.1
						c0,0.1-0.1,0.1-0.1,0.2c-0.3,0.2-0.5,0.2-0.9,0.4c0.4-0.1,0.5-0.2,0.8-0.3c-0.1,0.1-0.1,0.2-0.1,0.2c0,0,0.1-0.1,0.1-0.2
						c0,0,0,0,0.1,0c0.1-0.1,0.2-0.1,0.3-0.2c0,0,0,0,0,0.1c0,0-0.1,0-0.1,0.1c0,0,0.1,0,0.1-0.1c-0.1,0.2-0.3,0.5-0.5,0.7
						c-0.1,0.2-0.2,0.3-0.3,0.4c0.1-0.2,0.2-0.3,0.3-0.4c0.2-0.3,0.4-0.5,0.5-0.8c0,0,0.1,0,0.1-0.1c-0.2,0.3-0.4,0.6-0.6,1
						c-0.3,0.5-0.6,1-1,1.5c-0.1,0.2-0.2,0.3-0.4,0.5c0.2-0.2,0.2-0.3,0.4-0.5c0.4-0.4,0.8-0.9,1.1-1.4c0.3-0.4,0.5-0.8,0.8-1.2
						c0,0,0,0,0.1,0c-0.2,0.3-0.4,0.7-0.6,1c-0.1,0.2-0.3,0.5-0.3,0.5s0.2-0.3,0.3-0.5c0.3-0.3,0.4-0.5,0.6-0.9
						c-0.2,0.4-0.4,0.8-0.6,1.1c-0.1,0.2-0.2,0.3-0.3,0.5c0.1-0.2,0.2-0.3,0.3-0.4c0.3-0.4,0.6-0.9,0.8-1.4c0,0,0-0.1,0-0.1
						c0.1,0,0.1-0.1,0.2-0.2c0,0,0,0,0,0c-0.2,0.3-0.3,0.6-0.4,0.8c-0.3,0.5-0.6,1-0.9,1.4c-0.1,0.2-0.2,0.3-0.3,0.5
						c0.1-0.2,0.2-0.3,0.3-0.5c0.3-0.5,0.7-0.9,0.9-1.4c0.1-0.2,0.1-0.2,0.2-0.4c-0.3,0.7-0.7,1.3-1.1,1.9c-0.3,0.5-0.7,1-1.1,1.5
						c-0.1,0.2-0.2,0.3-0.4,0.5c0.2-0.2,0.3-0.3,0.4-0.5c0.4-0.5,0.8-1,1.2-1.5c0.5-0.8,1-1.5,1.4-2.4l-0.1,0.2
						c-0.2,0.4-0.3,0.6-0.5,0.9l-0.9,1.4c-0.1,0.2-0.2,0.3-0.3,0.5c0.1-0.2,0.2-0.3,0.4-0.4l0.8-1.2l-0.6,1
						c-0.1,0.2-0.2,0.3-0.3,0.5c0.1-0.2,0.2-0.3,0.3-0.5c0.1-0.2,0.2-0.3,0.3-0.4l-0.1,0.2c-0.1,0.2-0.2,0.3-0.3,0.5
						c0.1-0.2,0.2-0.3,0.3-0.5l0.6-1.1l0.1-0.2c0.1-0.2,0.2-0.3,0.3-0.5c-0.1,0.4-0.3,0.7-0.4,1.1c-0.1,0.2-0.2,0.4-0.3,0.5
						c-0.3,0.5-0.6,1-1,1.5c-0.1,0.2-0.2,0.3-0.3,0.5c0.1-0.2,0.2-0.3,0.4-0.5c0.4-0.4,0.7-0.9,1-1.4l0,0c0,0.1-0.1,0.1-0.1,0.2
						c-0.3,0.5-0.6,0.9-0.9,1.4c-0.4,0.6-0.8,1.1-1.2,1.5c-0.2,0.2-0.3,0.3-0.4,0.5c0.2-0.2,0.3-0.3,0.5-0.5c0.5-0.5,0.9-1,1.3-1.5
						c0.1-0.2,0.3-0.4,0.4-0.5c-0.1,0.3-0.3,0.6-0.4,0.9c0,0.1-0.1,0.1-0.1,0.2c0,0,0.1-0.1,0.1-0.1c-0.3,0.8-0.7,1.5-1,2.3
						c-0.4,0.8-0.6,1.4-1,2c-0.1,0.3-0.3,0.6-0.3,0.6c0,0,0.2-0.3,0.4-0.5c0.4-0.6,0.7-1.2,1.1-2c0.4-0.7,0.7-1.4,1-2.1
						c0,0,0.1-0.1,0.1-0.1c0,0,0-0.1,0.1-0.1c-0.5,1.2-1,2.4-1.5,3.6c-0.3,0.7-0.6,1.3-1,1.8c-0.1,0.2-0.2,0.3-0.4,0.5
						c0.2-0.2,0.2-0.3,0.4-0.5c0.4-0.5,0.7-1.1,1.1-1.8c0.1-0.2,0.2-0.3,0.3-0.5c-0.4,0.9-0.8,1.7-1.2,2.4c-0.4,0.6-0.8,1.1-1.3,1.5
						c-0.2,0.2-0.3,0.2-0.5,0.4c0.2-0.2,0.3-0.2,0.6-0.4c0.5-0.4,1-0.9,1.4-1.5c0.8-1.1,1.3-2.4,2-3.9c-0.1,0.3-0.1,0.4-0.2,0.6
						c-0.2,0.4-0.3,0.6-0.4,1c-0.3,0.7-0.7,1.4-1,2c-0.1,0.2-0.4,0.6-0.4,0.6c0,0,0.2-0.3,0.4-0.6c0.3-0.4,0.4-0.7,0.7-1.2
						c-0.2,0.5-0.5,1-0.8,1.5c-0.1,0.2-0.2,0.3-0.4,0.5c0.2-0.2,0.3-0.3,0.4-0.5c0.4-0.6,0.7-1.2,1-1.9c0.3-0.7,0.6-1.5,0.9-2.2
						c0.1-0.3,0.2-0.5,0.4-0.8l0.1,0c-0.5,1.2-1,2.6-1.6,3.8c-0.3,0.7-0.7,1.3-1.1,1.8c-0.2,0.2-0.2,0.3-0.4,0.5
						c0.2-0.2,0.3-0.3,0.5-0.5c0.5-0.5,0.8-1.1,1.2-1.8c0.1-0.2,0.2-0.3,0.3-0.5c-0.4,0.9-0.8,1.8-1.4,2.5c0,0-0.1,0.1-0.1,0.1
						c-0.2,0.2-0.3,0.3-0.4,0.5c-0.4,0.4-0.7,0.7-1.2,1c-0.3,0.2-0.4,0.3-0.7,0.4c0.3-0.2,0.4-0.2,0.7-0.4c0.3-0.2,0.6-0.4,0.9-0.7
						c-0.2,0.3-0.3,0.6-0.5,1c-0.1,0.2-0.2,0.4-0.3,0.7c-0.3,0.2-0.7,0.4-1,0.6c-0.3,0.2-0.5,0.2-0.8,0.4c0.3-0.1,0.5-0.2,0.8-0.4
						c0.3-0.1,0.6-0.3,0.9-0.5c-0.7,1.8-1.3,4.1-1.2,6.4c0.1,1,0.4,2,0.4,3c0.1,1.6-0.5,3.4-0.9,5.3c-0.8,3.5-1.4,6.9-2.1,10.5
						c-0.4,1.7-1,3.5-1.1,5.2c-0.4,5.5,0,11.3,0.2,16.7c0.1,2.6,0.6,5.1,0.4,7.4c-0.1,1.5-0.3,3.3-0.4,4.6c-0.1,1.2-0.5,2.3-0.4,3.5
						c0.1,1.8,0.4,4.1,0.9,5.3c0.4,0.9,0.5,1.8,1.1,2.6c0.3,0.4,0.4,0.9,0.8,0.7c1.5-0.9-0.7-3.1-0.3-4.3c1.1,1.6,2.4,3,4,4.2
						c0.8-1.5,0.2-3-0.8-3.9c-0.1-1.9-1.6-3.5-1.5-5.4c0-0.8,0.4-1.6,0.4-2.4c0.5,0.4,0.4,1.3,1,1.5c0.9-0.1,1.7-0.4,1.8-1.1
						c0.1-0.5-0.5-0.8-0.9-1.4c-0.3-0.4-0.7-1.3-0.8-1.8c-0.1-0.5,0.2-1.2,0.1-1.7c-0.2-0.9-1-1.8-1.1-2.6c-0.1-1.6,0.5-3.5,0.8-5.4
						c0.8-5.2,2-10.7,3-15.6c0.4,4.7,0.3,9.9,0.7,14.4c0.1,1.1,0,2.4,0.2,3c0.2,0.6,0.9,0.8,1,1.3c0.1,0.3-0.2,1-0.2,1.2
						c-0.3,3.6-0.5,7,0.2,10.3c0.3,1.5,1,3,1.3,4.5c2.1,9.8,6.6,17.1,10.3,25.2c0.7,1.5,1.5,3.1,1.5,4.4c0.3,4.1-2.3,8.5-3.2,12.5
						c-0.4,1.8-0.4,3.5-0.8,5.3c-0.3,1.5-1.5,2.1-1.6,3.7c-0.2,2.6-0.9,6.1-1.7,8.6c-1,3.4-1.7,7.8-1.9,11.3c-0.1,1.9,0,3.9,0.7,5.3
						c0.2,0.3,0.7,0.7,0.8,1c0.2,1.7-0.1,4.1,0.1,5.8c0.1,0.8,0.4,1.1,0.6,1.7c0.2,1.1-0.1,2.1,0.6,2.6c0.7,0.6,3.5,0.5,5,0.4
						c2.1-0.1,4.6-0.5,5.3-1.3c0.1-0.1,0-0.7,0.3-0.5c-0.1-0.5,0-1-0.1-1.5c-0.1-0.4-0.3-0.8-0.3-1.2c0-0.3,0.2-0.7,0.1-1.1
						c-0.2-0.9-0.8-1.9-1.2-2.8c-0.4-1-0.7-2-0.9-3.1c1.3,0,2.3-0.1,3.6-0.4c0.8-0.2,2.4-0.5,2.6-1.4c0.3-1.2-0.3-3-0.2-4.3
						c0.1-1.4,0.3-2.8,0.4-4.2c1.2,4.6,2.7,9.5,2.6,15c1.8,1,4.9,0.7,7.5,1c-0.1,1-0.6,2-0.7,3.1c-0.1,0.9-0.2,2.9,0,3.9
						c0.2,1,1.1,1.1,1.8,1.8c0.4,0.3,0.5,0.8,0.7,1c1.2,1,3.8,1.4,6.2,1.5c2.3,0.1,5,0.1,6.5-0.8c-0.2-0.2,0.2-0.3,0.2-0.4
						C385.8,470.3,385.2,468.9,385.1,468.3z M336.5,310.1c0.2-0.2,0.3-0.4,0.5-0.7c-0.1,0.2-0.2,0.4-0.3,0.6
						C336.6,310.1,336.5,310.1,336.5,310.1z M336.8,309.9C336.8,309.9,336.8,309.9,336.8,309.9c0.1-0.2,0.2-0.5,0.4-0.8
						c0,0,0-0.1,0.1-0.1c0,0.1,0,0.1,0.1,0.2l0,0c0-0.1,0.1-0.3,0.2-0.4c0,0,0,0.1,0,0.1c-0.1,0.3-0.3,0.5-0.4,0.8
						C337,309.8,336.9,309.9,336.8,309.9z M337.3,308.9C337.3,308.9,337.3,308.9,337.3,308.9c0.1-0.2,0.1-0.2,0.2-0.3c0,0,0,0,0,0
						C337.5,308.7,337.4,308.8,337.3,308.9z M337.4,341.7c0.1-1.2-0.1-2.6,0.1-3.6C337.6,339,337.8,341,337.4,341.7z M337.6,307.8
						c-0.2,0.5-0.4,0.8-0.6,1.3c-0.2,0.4-0.5,0.8-0.7,1.2c0,0-0.1,0-0.1,0.1c0.6-0.8,1.1-1.8,1.6-2.8L337.6,307.8z M338.1,303.8
						c-0.1,0.1-0.1,0.2-0.2,0.2c0,0,0,0,0,0c0.1-0.2,0.2-0.5,0.3-0.7c0,0,0.1-0.1,0.1-0.1C338.2,303.4,338.1,303.6,338.1,303.8z
						 M338.4,303c0,0-0.1,0.1-0.1,0.1c0-0.1,0.1-0.2,0.1-0.3l0.1-0.1C338.4,302.8,338.4,302.9,338.4,303z M338.6,302.5
						C338.6,302.5,338.6,302.5,338.6,302.5C338.6,302.5,338.6,302.5,338.6,302.5C338.6,302.5,338.6,302.5,338.6,302.5z M339.7,297.1
						c0,0,0.1-0.1,0.1-0.1c-0.1,0.2-0.2,0.3-0.3,0.5C339.6,297.4,339.7,297.3,339.7,297.1z M339.3,297.8c0.1-0.1,0.2-0.3,0.3-0.4
						C339.6,297.5,339.5,297.6,339.3,297.8c0,0.1-0.1,0.3-0.2,0.4C339.2,298,339.3,297.9,339.3,297.8z M339,298.4
						c0.1-0.1,0.2-0.2,0.3-0.3c-0.1,0.2-0.2,0.3-0.2,0.5c-0.1,0.1-0.2,0.2-0.3,0.3C338.8,298.7,338.9,298.6,339,298.4z M337.7,300.4
						C337.7,300.4,337.7,300.4,337.7,300.4c0-0.1,0.1-0.1,0.1-0.2c0.3-0.4,0.5-0.8,0.8-1.2c0.1-0.1,0.2-0.2,0.3-0.2
						c-0.2,0.3-0.4,0.7-0.5,0.9c-0.1,0.2-0.2,0.3-0.3,0.5C338,300.3,337.8,300.4,337.7,300.4z M338.2,300.2c0,0-0.1,0.1-0.1,0.1
						C338.1,300.3,338.1,300.3,338.2,300.2C338.2,300.2,338.2,300.2,338.2,300.2C338.2,300.2,338.2,300.2,338.2,300.2z M338.3,300.1
						C338.3,300.1,338.2,300.1,338.3,300.1c0-0.1,0.1-0.2,0.1-0.3c0.1-0.1,0.1-0.2,0.2-0.4C338.5,299.6,338.4,299.9,338.3,300.1z
						 M338.7,299.8C338.7,299.8,338.6,299.9,338.7,299.8c0.2-0.4,0.4-0.8,0.7-1.3c-0.1,0.2-0.1,0.3-0.2,0.5
						c-0.1,0.3-0.2,0.4-0.4,0.6C338.8,299.7,338.7,299.7,338.7,299.8z M339.4,299C339.3,299,339.3,299,339.4,299
						C339.3,299,339.3,299,339.4,299c-0.1,0.2-0.2,0.3-0.2,0.5c-0.1,0.1-0.1,0.1-0.2,0.2c0.2-0.4,0.4-0.8,0.7-1.2c0,0,0,0,0-0.1
						c0.1-0.1,0.1-0.2,0.2-0.3c0,0,0,0,0,0C339.7,298.4,339.5,298.7,339.4,299z M339.9,297.9c0,0.1-0.1,0.1-0.1,0.2
						c0,0.1-0.1,0.1-0.1,0.2C339.8,298.1,339.8,298,339.9,297.9L339.9,297.9C339.9,297.8,339.9,297.8,339.9,297.9
						C339.9,297.8,339.9,297.8,339.9,297.9L339.9,297.9C340,297.9,339.9,297.9,339.9,297.9z M364.4,306
						C364.4,306,364.4,306,364.4,306c-0.1-0.2-0.2-0.4-0.3-0.6c0-0.1,0-0.2-0.1-0.3c0.1,0.2,0.2,0.4,0.3,0.5
						C364.3,305.7,364.4,305.8,364.4,306z M364.1,304c0,0.1,0.1,0.3,0.1,0.4C364.2,304.2,364.1,304.1,364.1,304
						C364.1,304,364.1,304,364.1,304z M364,304.5c0.1,0.2,0.1,0.5,0.2,0.7c0,0.1,0,0.1,0,0.2c-0.1-0.2-0.2-0.5-0.3-0.7
						C364,304.6,364,304.5,364,304.5c-0.1-0.1-0.1-0.1-0.1-0.2C364,304.3,364,304.4,364,304.5z M363.9,305.7
						c0.1,0.1,0.1,0.2,0.2,0.4c0,0.2,0.1,0.4,0.1,0.6c-0.1-0.2-0.2-0.4-0.3-0.6C363.9,305.9,363.9,305.8,363.9,305.7z M364,308
						c0.5,0.6,1.1,1.1,1.7,1.4c0.3,0.2,0.5,0.3,0.8,0.5c-0.8-0.1-1.6-0.2-2.3-0.4C364.1,309,364.1,308.5,364,308z M366,335.9
						c0.1-0.4,0.3-0.7,0.4-1.1c0.8-3,0.8-7.9,1.4-11.1c2.5,1.9,4.1,4.7,7.2,6.1c-3,3.9-5.7,8.1-8.4,12.3
						C366.1,340.2,365.4,338.4,366,335.9z"/>
					<path class="st12" d="M339.9,297.8C339.9,297.9,339.9,297.9,339.9,297.8C339.9,297.9,339.9,297.9,339.9,297.8z"/>
				</g>
			</g>
		</g>
		<g>
			<defs>
				<ellipse id="SVGID_00000092432631175379077130000010450890006682527911_" cx="369.8" cy="365" rx="72.8" ry="85.3"/>
			</defs>
			<clipPath id="SVGID_00000031891839288198316350000000863291842495326653_">
				<use xlink:href="#SVGID_00000092432631175379077130000010450890006682527911_"  style="overflow:visible;"/>
			</clipPath>
			<path style="clip-path:url(#SVGID_00000031891839288198316350000000863291842495326653_);fill:#2F4684;" d="M432.9,390.8
				c-0.1-0.5-0.4-0.9-0.5-1.3c-0.1-0.3,0-0.7-0.1-0.9c-0.7-1.9-2.8-3.1-4-4.3c-1.5-2.8-2.3-5.9-3.2-9.3c-0.6-2.4-1.5-4.7-2.7-6.6
				c-0.4-0.6-1.1-1.2-1.3-1.8c-0.2-0.6-0.1-1.3-0.2-1.9c-0.5-4-2.5-7.2-3.4-11.1c0.9-1,2.3-2.3,2.2-4.1c-0.1-1.1-0.9-3.3-1.3-4.2
				c-0.5-0.9-2.2-2.7-3.2-3.4c-2-1.2-4.5-1.1-6.2-2.4c-0.7-0.5-1.1-1.3-1.8-1.8c-0.9-0.6-2.2-0.7-2.5-1.7c0-0.1,0.1-0.1,0.1-0.2
				c0,0.5,1.6-0.3,2.2-0.7c0,0.2,0,0.3-0.2,0.4c0.4-0.2,1.1-1.5,1.3-1.6c0.4-0.1-0.1-0.3-0.2-0.3c0.1-0.1,0.3-0.3,0.3,0.1
				c0.8-2.7-0.7-5-0.6-8.2c0.2-4.7-0.2-9.3-2.6-12.5c-2.2-3-6.6-5.7-10.6-3.4c-5-0.3-6.6,5.2-6.6,10.4c0,3.3,0.6,10.4,0.5,14.2
				l-5.6,2.7c-0.4-0.1-0.8-0.1-1.2-0.1c-0.7,0-1.4-0.2-2.1,0c-0.7,0.2-1.5,0.2-2.1,0.5c-0.6,0.3-0.8,1.2-1.3,1.7
				c-0.5,0.5-1,0.9-1.3,1.6c-0.2,0.6-0.5,1.1-0.6,1.7c-1.7,0.5-3.4,1-5.2,1.5c-0.6,0.2-1.3,0.5-1.9,0.5c-0.8,0-1.7-0.4-2.5-0.5
				c-5-0.9-9.9-0.1-15.1-1.2c-1.6-0.3-2.8-0.6-4.4-1.3c-2.2-1.6-4.3-0.8-6.4-0.8c-0.5,0.8-1.7,1.6-0.7,2.3c-0.2,0.4-0.5,0.8-0.4,1.2
				c0.3,0.3,0.5,0.3,0.8,0.4c0.1,0.4-0.2,0.8-0.1,1.2c0.8,0.4,0.4,0.8,0.6,1.3c1.1,1,2.1,1.7,3.1,1c0-0.5-0.7-0.7-1.1-0.9
				c1.9,0.3,3.8,0.7,5.6-0.3c3.4,0.4,6.7,1.3,9.9,2.2c2.4,0.7,5,1,7.4,1.3c0.9,0.1,1.7,0.4,2.5,0.5c2.9,0.2,6-1.7,8.8-2.5
				c0.7-0.2,1.4-0.4,2.1-0.6c0.1,0,0.1,0.1,0.2,0.1c0.6,0.3,1.3,0.4,2,0.5c0.7,0.2,1.3,0.2,2.1,0.2c0.4,0,0.9,0.1,1.3,0.2
				c0.5,3.3,0.9,6.1,1.1,9.8c0.1,2,0.4,3.9,0.1,5.7c-0.2,1.6-0.9,3.3-1.3,5c-0.2,0.6-0.4,1.7-0.7,2.5c-0.2,0.7-0.9,1.7-0.9,2.2
				c0,0.9,0.9,1.1,1.5,1.6c-0.2,0.5,0,0.9-0.3,1.3c-0.2,0.4-0.7,0.5-0.8,0.8c-0.3,0.5-0.3,1.5-0.5,2.4c-0.5,2-1.1,5.1-0.9,7.6
				c0.3,3.8,1.2,7.5,2,11.2c0.7,3.5,1.7,6.9,2.7,10.4c1.4,5.2,2.5,10.4,4,15.6c0.8,2.6,1.1,5.1,3.2,6c1.2,1.2-0.8,5.3,1.8,5.4
				c-0.7,5.3,0.9,9.9,0.4,15.2c-0.6,0.9-1,2.1-2.3,3c-1.2,0.9-3,1.3-3.4,2.4c-0.3,0.9-0.2,2.1,0.3,2.7c0.8,1,2.8,0.7,4.5,1
				c-0.3,1.2-0.4,3.1-0.8,4.4c-0.2,0.7-0.6,1.4-0.7,1.9c-0.1,1.1,0.6,2.3,1.5,2.5c1.3,0.3,3.1-0.3,4.6-0.6c1.6-0.3,3-0.6,4.1-1
				c0.1-0.3,0.4-0.6,0.6-0.8c-0.2-2.6-1.1-4.2-2.3-6.1c-0.4-0.7-0.9-0.9-0.8-1.8c0.1-0.5,1.2-1.8,1.6-2.3c1.3-1.6,4.3-3,2.6-5.7
				c-0.3-3.2-2.3-4.2-2.2-8c0.1-2.2,1.2-4.1,1.3-6.5c1-0.1,1.9-0.2,2.5-0.5c0.6-1.5,0.3-3.2,0.3-4.9c-0.4-9.4,0.6-17.9,1.8-26.2
				c0.8-5.6,2.4-10.8,2.6-16.3c0.1-2.4,0-4.9-0.6-7.1c-0.5-1.9-1.8-3.3-2.4-5.2c0.6-0.3,1.5-0.3,1.8-0.9c-0.6-1.2-0.8-2.8-0.7-4.8
				c0.1-2.9,0.5-5.2,1.3-7.7c0.7-2.4,1.4-4.6,2.1-6.8c1.8,3.7,2.2,8.2,3.5,12.4c0.4,1.3,1.2,2.3,1.8,3.4c0.6,1.2,1,2.5,1.7,3.6
				c1.8,3.2,4.5,6.2,6,9.8c-0.1,1.8,1,2.3,1.8,3.2c0.7,1.1-0.6,2.8,0,3.9c1.2-0.3,1.1-2,1.3-3.2c1.6,0.9-0.7,3.3-0.1,4.5
				c1-0.1,1-1,1.5-1.6c0.2,0.6-0.3,1.1,0,1.8c0.7-0.2,1,0.3,1.7,0.3c0.3-0.6-0.2-1.1-0.3-1.6c0-0.7,0.6-1.3,0.5-2.3
				c0.9,0.8,0.4,3.1,1.3,4C433.2,393.6,433.1,391.8,432.9,390.8z"/>
		</g>
	</g>
</g>
</svg>
