<?xml version="1.0" encoding="utf-8"?>
<!-- Generator: Adobe Illustrator 25.4.1, SVG Export Plug-In . SVG Version: 6.00 Build 0)  -->
<svg version="1.1" id="Capa_1" xmlns="http://www.w3.org/2000/svg" xmlns:xlink="http://www.w3.org/1999/xlink" x="0px" y="0px"
	 viewBox="0 0 512 512" style="enable-background:new 0 0 512 512;" xml:space="preserve">
<style type="text/css">
	.st0{clip-path:url(#SVGID_00000111903968853856343420000010372569634009215420_);}
	.st1{fill:#BDE4F5;}
	.st2{fill:#E1F3F8;}
	.st3{fill:#90D2EE;}
	.st4{fill:#83ADD2;}
	.st5{fill:#717478;}
	.st6{fill:#0497D8;}
	.st7{fill:#99CEE2;}
	.st8{fill:#2BA9DF;}
	.st9{fill:#5CBDE7;}
	.st10{fill:#4B4C4F;}
	.st11{fill:#F8FBFC;}
	.st12{clip-path:url(#SVGID_00000111903968853856343420000010372569634009215420_);fill:none;}
	.st13{opacity:0.21;fill-rule:evenodd;clip-rule:evenodd;fill:#0965AE;}
	.st14{opacity:0.45;fill-rule:evenodd;clip-rule:evenodd;fill:#0965AE;}
	.st15{opacity:0.23;fill-rule:evenodd;clip-rule:evenodd;fill:#0965AE;}
	.st16{opacity:0.5;fill-rule:evenodd;clip-rule:evenodd;fill:#0965AE;}
	.st17{fill-rule:evenodd;clip-rule:evenodd;fill:#0965AE;}
	.st18{fill:#28609F;}
	.st19{fill:#205EA3;}
	.st20{fill:#33659C;}
	.st21{fill:#446991;}
	.st22{fill:#2D76B6;}
</style>
<g>
	<g>
		<defs>
			<circle id="SVGID_1_" cx="249.5" cy="256.4" r="243.7"/>
		</defs>
		<clipPath id="SVGID_00000103249078466923160290000001033231864202197914_">
			<use xlink:href="#SVGID_1_"  style="overflow:visible;"/>
		</clipPath>
		<g style="clip-path:url(#SVGID_00000103249078466923160290000001033231864202197914_);">
			<path class="st1" d="M457.8,39.4c-0.7-0.7-1.3-1.3-2-2C456.5,38.1,457.2,38.7,457.8,39.4z"/>
			<path class="st2" d="M300.1,488c8.2-15.2,12.3-31.2,10-48.5c0.3-9.3-4.2-11.2-12.1-7.6c-1.2-0.1-2.3-0.2-3.5-0.2
				c-0.1-7.9-0.2-15.8-0.3-23.7c10.8-4.8,22.2-1.1,33.3-2.4c37.9,0.1,75.7,0.1,113.6,0.2c0.1,2.7-1.4,4.5-3.1,6.4
				c-20.1,21.7-44.6,37.4-70.3,51.2C346.5,474.7,322.9,480.4,300.1,488z"/>
			<path class="st2" d="M-9.5,176.3c11.6-4.7,24.4-1.3,36.1-5.9c3.9-1.5,6.5,3,7.8,6.9c1.4,4,2.3,8.8,8.1,3.9
				c1.2-1.1,3.6-1.1,4.8,0.4c1.5,1.9-1.2,3-1.4,4.4c-0.4,4.4-4.4,7-5.3,11.1c-4.1,1.2-7.3-1.3-10.6-3c-3.9-2.1-4.6-10.4-9.8-7.7
				c-3.5,1.7-4.8,8.1-6.7,12.6c-1.2,2.8-1.9,5.9-2.8,8.9c-7.7,3.4-3.9-4-5.5-6.2c-1.8-2.4,4.8-7.5-2.6-8.5c-4.7-3.5-8.5-5.3-8.2,3.5
				c0.2,5.8-0.1,11.6-0.2,17.5c-5.8,0.6-9-1.3-8.4-7.8c0.4-3.7,0-7.5-0.1-11.2c0.1-2,0.3-4.1,0.4-6.1c5.6-1.2,3.8-5.4,3.7-9
				C-9.9,178.7-9.7,177.5-9.5,176.3z"/>
			<path class="st3" d="M-14.2,195c0.1,3.8,0.5,7.5,0.1,11.2c-0.6,6.5,2.6,8.4,8.4,7.8c-0.4,6.1-0.8,6.7-1.8,6.1
				c-8.7-5.2-6.4,2.3-6.5,5.9c-0.7,24.8,3.1,49,10.4,72.7c-0.6,0.6-1.3,1.3-1.9,1.9c-4.7-3.9-7.7-8.8-8.9-14.8
				C-18.5,255.5-21.5,225.2-14.2,195z"/>
			<path class="st1" d="M-10.1,179.9c0.1,3.6,1.9,7.8-3.7,9C-12.6,185.9-11.3,182.9-10.1,179.9z"/>
			<path class="st4" d="M327.5,405.6c-0.1-0.7-0.1-1.4,0-2.1c19.2,0.1,38.3,0.2,57.5,0.1c2.5,0,7.8,1.7,6.6-3.6
				c-3.5-14.8,8.2-15,16.6-17.1c7.6-1.8,14.8-3.5,20.4-9.3c11-11.7,22.4-22.9,34.6-33.3c7.8-6.6,14.5-14.4,18.3-23.9
				c6.9-17.1,13.2-34.5,19.7-51.8c5-6.7,3.7-17.2,13-21.2c-0.4,30.8-8.5,59.8-20.4,87.9c-9.5,22.4-22.6,42.7-37.5,61.8
				c-4.1,5.3-9.1,9.6-15.2,12.5C403.3,405.7,365.4,405.7,327.5,405.6z"/>
			<path class="st5" d="M514.2,243.6c-9.3,4-8,14.5-13,21.2c-26.5,18.7-57.1,29.8-84.8,46.3c-0.1-3.8-0.8-7.7-0.3-11.5
				c1.5-10.9-1.1-21.2-4.9-31.2c-1.4-3.6-2.8-9.3-9.4-4.8c-4.2,2.9-7.6-0.3-9.5-3.5c-2.6-4.3-4-9.3-5.9-13.9
				c19.1-5.4,35.5-15.9,51-27.8c12.3-8.3,25.4-15.4,36.7-25.3c12.2-3.6,21.3-14.2,34.7-15.2C516.2,199.4,515.2,221.5,514.2,243.6z"
				/>
			<path class="st2" d="M506.6,159.3c-0.6-0.7-1.2-1.4-1.8-2.1C505.4,157.9,506,158.6,506.6,159.3z"/>
			<path class="st6" d="M386.3,246.3c1.9,4.7,3.4,9.6,5.9,13.9c1.9,3.2,5.3,6.4,9.5,3.5c6.6-4.5,8,1.1,9.4,4.8
				c3.8,10,6.4,20.2,4.9,31.2c-0.5,3.7,0.2,7.6,0.3,11.5c-0.6,8.7,0.4,17,2.3,25.7c2.8,12.5,7.8,24.3,9.8,36.9
				c-5.6,5.8-12.8,7.4-20.4,9.3c-8.4,2-20.1,2.3-16.6,17.1c1.3,5.3-4,3.6-6.6,3.6c-19.2,0.1-38.3-0.1-57.5-0.1
				c-3.2-6.6,0.5-11.7,3.8-16.8c0,0,0.1-0.1,0.1-0.1c2.2-0.4,3.7-1.8,4.7-3.7c5.8-3.1,11.9-5.7,17.5-9.3c9.5-6.1,10.2-12.5,2.1-20.3
				c-9.9-9.4-21.5-16.4-34.3-21.5c-10.7-9-24.2-12.4-36.4-18.4c-22-11.9-45.7-9.5-69.1-7.6c-21.1,1.7-40,11.3-59.6,18.1
				C185,375,115.1,404.5,86,405c-27.2,0.4-65-48-89.7-106.3c-7.2-23.7-11.1-47.9-10.4-72.7c0.1-3.5-2.2-11,6.5-5.9
				c1.1,0.6,1.4,0.1,1.8-6.1c0.1-5.8,0.4-11.7,0.2-17.5c-0.3-8.8,3.5-7,8.2-3.5c1.9,10.1-1.1,21,4.3,33.7c2.5-8.2,4.3-13.4,3.8-19
				c0.9-3,1.5-6.1,2.8-8.9c1.9-4.5,3.2-10.9,6.7-12.6c5.3-2.6,5.9,5.7,9.8,7.7c3.3,1.7,6.4,4.2,10.6,3c11-2.2,11.4-13.7,18.4-20.3
				c2.2,1.9,4.5,3.8,6.8,5.8c0.2,0.7,0.3,1.4,0.5,2.1c0,1.4,0,2.8,0.1,4.2c-0.1,9.5-0.2,18.9-0.1,28.4c0,1.3-0.7,4.2,2.4,2.5
				c0.9-0.5,0.9-2.4,1.4-3.7c5.8-8-2.1-18,4.1-26.2c1.6-2.1,2-5.6,5.1-5.6c2.8-0.1,2.6,3.5,4,5.3c3.4,4.6,2.7,15.1,13.7,8.8
				c2.2-1.3,2.7,4,3.8,6.3c3.5-5.1-4.6-15.5,7.6-16.4c1.4,0,2.7,0,4.1,0c0.7,0,1.4,0,2.1,0c17.8,13.1,17.8,13.1,30.1-5.1
				c0.6-0.9,1.2-1.7,1.7-2.5c5.9-2,5.3,3.9,7.6,6.3c2.4,5,2.1,11.4,7,15.5c3.6-2.8,5-6.5,6.2-10.1c2.3-6.6,5.5-6.9,10.8-2.9
				c5.3,4,11,7.5,17.4,9.1c2.5-2.6,0.1-6.8,3.6-8.6c0.8,0.3,1.5,0.7,2.3,1c3.3,3.5,1.5,10.1,7.4,12.2c-0.2-24.2-0.2-24.2,13.4-24.9
				c5.1,4.4,9.9,9.3,16.9,10.6c1.6,1.7,3.4,3,5.9,2.7l0.2,0.2c-1.5,5.3,1.1,10.1,3.6,13.7c3.3,4.8-1,18.9,13.2,12.3
				c0.5-0.2,1.8,1,2.5,1.7c2.6,2.4,4.1,2.2,4.6-1.6c0.3-2.4,1-3,2.9-0.8c5.6,6.3,4.9,0.7,5-2.8c0.2-4.2,0.1-8.4,0.5-12.6
				c0.1-1.6,0.7-4,1.8-4.6c2.2-1.2,3.8,1.1,5.1,2.5c5.5,6,3.6,13.8,5.1,20.9c0.8,4-0.3,8.9,3.9,11.1c6.4-3.7-3.6-19.4,12.4-14.2
				l0.1,0c0.9,0.5,1.8,0.9,2.7,1.4l-0.1-0.1c1.6,2.2,3.8,3.6,6.6,3.8c0.3,0.5,0.7,0.7,1.2,0.6c2,2.1,4.2,3.8,7.3,3.5l-0.3,0.6
				c7.5,9.6,3,21.8,7.7,34.3c0.2-6.5,5.3-8.8,4.9-13.8c0-2.7,0-5.4,0-8.1c0.4-0.6,0.5-1.3,0.2-2c1.9-3.3,2.2-6.8,1.8-10.5
				c0.8-0.2,1.6-0.3,2.4-0.5c1.3,2.4,2.6,4.8,3.9,7.1c-0.1,0.6,0,1.1,0.5,1.5c-0.1,2.2,1.3,5.2,2.7,4.7c3.4-1.4,5-5,5.6-8.7l0,0
				c1.7-0.9,2.2-2.4,2.4-4.2l-0.1,0.1c1.4-0.3,1.8-1.2,1.7-2.5l0-0.2c6.7-4.4,7.8,4.7,12.5,5.1c1.5,6.2,1.7,13.4,5,18.5
				c3.3,5,5.8-5.6,10.5-3.1C385.4,245.2,385.8,245.8,386.3,246.3z"/>
			<path class="st7" d="M508.6,165.7c-2.4-1.6-2-4.1-2-6.4c0,0,0,0,0,0c-0.6-0.7-1.2-1.4-1.8-2.1c-0.1-2.8-0.3-5.5-0.4-8.3
				c-1.3-0.8-2.6-1.5-3.9-2.3c0,0,0,0,0,0c0-2.1-0.1-4.2-0.1-6.3c-2.6-4.5-5-9-4.5-14.5c-3.8-0.7-4-3.5-3.7-6.5
				c-1.6-4.1-3.2-8.2-4.8-12.3c-6-4.4-5.9-13-12-17.4c0,0,0,0,0,0c-11.1-19.9-24.4-38.1-41.9-52.9c0,0,0,0,0,0l-0.4-0.1
				c-3.5,0.7-4.5-1-4.1-4.2c-14.7-16.2-33.3-26.9-52-37.4c0,0,0,0,0,0c-1.1-0.7-2.3-1.3-3.4-2c-0.7-0.5-1.4-1-2-1.4
				c-11.9-7.5-25.7-10.9-38.1-17.4l-1,0l-0.9-0.4c-9.9-2.7-19.8-5.3-29.7-8c0,0,0,0,0,0c-10-0.5-19.9-1.8-29.7-4.2
				c-4.1-0.2-8.2-0.3-12.3-0.5c-16,0.7-32,1.4-48,2.1c-7.3,2.3-15,2.9-22.4,4.6c-17.4,4-33,12.2-49.6,18
				c-25.1,8.7-45.3,24.2-65,40.7C57,41.4,46.7,56.5,33.7,75.9c-2.4,3.6-2,3-7.7,16.1c0.6,0,1.2-0.1,1.7-0.3c0,0,2-0.9,0,0
				c-0.6,0.2-1.2,0.3-1.7,0.3C16.6,109.8,4.9,126.5,0,146.4c-4.2,9.6-8.1,19.3-9.4,29.8c11.6-4.7,24.4-1.3,36.1-5.9
				c3.9-1.5,6.5,3,7.8,6.9c1.4,4,2.3,8.8,8.1,3.9c1.2-1.1,3.6-1.1,4.8,0.4c1.5,1.9-1.2,3-1.4,4.4c-0.4,4.4-4.4,7-5.3,11.1
				c11-2.2,11.4-13.7,18.4-20.3c2.2,1.9,4.5,3.8,6.8,5.8c0.4,0.4,0.8,0.8,1.1,1.3c0.1,0.1-0.4,0.5-0.6,0.7c0,1.4,0,2.8,0.1,4.2
				c4.6,8.6-1.5,18.7,3.6,27.2c5.8-8-2.1-18,4.1-26.2c1.6-2.1,2-5.6,5.1-5.6c2.8-0.1,2.6,3.5,4,5.3c3.4,4.6,2.7,15.1,13.7,8.8
				c2.2-1.3,2.7,4,3.8,6.3c3.5-5.1-4.6-15.5,7.6-16.4c-0.7-5.9,0.8-8.8,7.4-5.8c5,2.3,8.9,3.2,10-4.6c1.3-9.1,6.1-9.7,12.5-3.3
				c2.4,2.4,5.5,4.1,8.2,6.2c5.9-2,5.3,3.9,7.6,6.3c5.4-2.3,11.5-2.3,12.3-11.4c0.6-7.4,8.1-8.5,14.8-4.9c5,2.6,10.6,7.2,16.6,1.1
				c0.8-0.8,3.6-1.3,3.8-1c4.8,8.4,14.4,3.4,20.6,7.4c5.1,4.4,9.9,9.3,16.9,10.6v0c1.6,1.7,3.4,3,5.9,2.7c0.3-0.4,0.7-0.7,1-1.1
				c-0.3,0.4-0.6,0.9-0.8,1.3c-1.5,5.3,1.1,10.1,3.6,13.8c3.3,4.8-1,18.9,13.2,12.3c0.5-0.2,1.8,1,2.5,1.7c2.6,2.4,4.1,2.2,4.6-1.6
				c0.3-2.4,1-3,2.9-0.8c5.6,6.3,4.9,0.7,5-2.8c0.2-4.2,0.1-8.4,0.5-12.6c0.1-1.6,0.7-4,1.8-4.6c2.2-1.2,3.8,1.1,5.1,2.5
				c5.5,6,3.6,13.8,5.1,20.9c0.8,4-0.3,8.9,3.9,11.1c6.4-3.7-3.6-19.4,12.4-14.2c-1.7-5.1-7.4-10.4-0.3-15.3
				c3.7-2.5,18.6,3.7,20.3,8.3c2.4,6.6,4.7,11.3,12.2,4.7c1.8-1.6,4.7-0.6,6.6,1.4c1.9,2,4.3,2.5,6.7,1c7.2-4.6,12.3-4.9,19.5,0
				c4.4,3,8.7,2.9,13.9,2.2c17.6-2.3,35.3-1.4,53-1.1c12.3-8.3,25.4-15.4,36.7-25.3c12.2-3.6,21.3-14.2,34.7-15.2
				C508.7,173.9,508.6,169.8,508.6,165.7z M497.7,149.9c0.1,0,0.2,0.1,0.4,0.1C498,150,497.9,149.9,497.7,149.9z M498.7,149.9
				c-0.2,0.1-0.4,0.1-0.6,0.1C498.3,150,498.5,149.9,498.7,149.9z"/>
			<path class="st2" d="M198.9,189.8c-3.5,1.8-1.1,6.1-3.6,8.6c-6.4-1.6-12.1-5.1-17.4-9.1c-5.3-4-8.5-3.7-10.8,2.9
				c-1.2,3.5-2.6,7.3-6.2,10.1c-4.9-4.1-4.6-10.4-7-15.5c5.4-2.3,11.5-2.3,12.3-11.4c0.6-7.4,8.1-8.5,14.8-4.9
				c5,2.6,10.6,7.2,16.6,1.1c0.8-0.8,3.6-1.3,3.8-1c4.8,8.4,14.4,3.4,20.6,7.4c-13.6,0.7-13.6,0.7-13.4,24.9
				c-5.9-2.1-4.1-8.7-7.4-12.2c1.4-0.7,2.5-2,0.8-3C200.7,187.1,199.6,188.6,198.9,189.8z"/>
			<path class="st2" d="M112.4,188.3c-1.4,0-2.7,0-4.1,0c-0.7-5.9,0.8-8.8,7.4-5.8c5,2.3,8.9,3.2,10-4.6c1.3-9.1,6.1-9.7,12.5-3.3
				c2.4,2.4,5.5,4.1,8.2,6.2c-0.6,0.8-1.2,1.7-1.7,2.5c-12.2,18.2-12.2,18.2-30.1,5.1C113.8,187.3,113.1,187.3,112.4,188.3z"/>
			<path class="st3" d="M70,216.1c-0.4,1.3-0.5,3.2-1.4,3.7c-3.1,1.7-2.4-1.3-2.4-2.5c-0.1-9.5,0-18.9,0.1-28.4
				C71,197.5,65,207.5,70,216.1z"/>
			<path class="st3" d="M66.3,184.7c-0.2-0.7-0.3-1.4-0.5-2.1c0.4,0.4,0.8,0.8,1.1,1.3C67,184,66.6,184.4,66.3,184.7z"/>
			<path class="st1" d="M10.8,207.8c0.5,5.7-1.3,10.8-3.8,19c-5.4-12.7-2.5-23.6-4.3-33.7c7.3,1,0.8,6.1,2.6,8.5
				C6.9,203.8,3.1,211.2,10.8,207.8z"/>
			<path class="st8" d="M156.3,323.9c19.7-6.8,38.6-16.4,59.6-18.1c23.4-1.8,47.1-4.3,69.1,7.6c-3.4-0.2-6.9-0.4-10.3-0.5
				c-7.8-3.1-15.6-3.2-23.3,0.1c0,0-0.2,0-0.2,0c-13.2-0.6-25.6,3.1-37.7,7.6c-22.1,8.2-29.3,28.6-27.5,56.2c-2.3-0.4-5.2,0-6-3
				C175.1,355.7,162.2,341.4,156.3,323.9z"/>
			<path class="st9" d="M429.1,32.3c2.3,0.5,3.8,1.7,4.1,4.2C429.6,37.2,428.6,35.5,429.1,32.3z"/>
			<path class="st1" d="M355.7,353.4c-9.9-9.4-21.5-16.4-34.3-21.5c-10.7-9-24.2-12.4-36.4-18.4c-3.4-0.2-6.9-0.4-10.3-0.5
				c-7.8,0-15.6,0-23.3,0.1c0,0-0.2,0-0.2,0c-7.4,9-7.4,9,0,0c-13.2-0.6-25.6,3.1-37.7,7.6c-22.1,8.2-29.3,28.6-27.5,56.2
				c0.1,0.6,0.3,1.1,0.6,1.5c5.9,0.1,11.7,0.4,17.6,1.7c15.9,3.5,32,6.4,48,9.6c8.1,2.8,16.6,1.4,24.8,1.7
				c16.4,0.6,16.4,0.4,17.2,16.7c10.8-4.8,22.2-1.1,33.3-2.4c-0.1-0.7-0.1-1.4,0-2.1c-3.2-6.6,0.5-11.7,3.8-16.8c0,0,0,0,0,0
				c0,0,0.1-0.1,0.1-0.1c0.3-2.9,1.9-4.1,4.7-3.7c5.8-3.1,11.9-5.7,17.5-9.3C363.1,367.6,363.9,361.2,355.7,353.4z M323.1,378.2
				c1.3,3,3,5.6,6,7.4C326.2,383.8,324.4,381.2,323.1,378.2z"/>
			<path class="st9" d="M251.4,312.9c7.8-3.3,15.6-3.1,23.3-0.1C267,312.9,259.2,312.9,251.4,312.9z"/>
			<path class="st10" d="M428.5,373.7c-2-12.6-7-24.4-9.8-36.9c-1.9-8.7-2.9-17-2.3-25.7c27.7-16.6,58.3-27.7,84.8-46.3
				c-6.5,17.3-12.8,34.6-19.7,51.8c-3.8,9.5-10.6,17.3-18.3,23.9C450.9,350.9,439.5,362.1,428.5,373.7z"/>
			<path class="st11" d="M305.5,217.3c-1.7-5.1-7.4-10.4-0.3-15.3c3.7-2.5,18.6,3.7,20.3,8.3c2.4,6.6,4.7,11.3,12.2,4.7
				c1.8-1.6,4.7-0.6,6.6,1.4c1.9,2,4.3,2.5,6.7,1c7.2-4.6,12.3-4.9,19.5,0c4.4,3,8.7,2.9,13.9,2.2c17.6-2.3,35.3-1.4,53-1.1
				c-15.6,11.9-31.9,22.5-51,27.8c-0.5-0.5-0.9-1.1-1.5-1.4c-4.7-2.5-7.2,8.1-10.5,3.1c-3.4-5-3.5-12.2-5-18.5c1-6-2.5-9.3-7.3-10.8
				c-4.2-1.3-5.1,2.2-5.1,5.7c0,0,0,0.2,0,0.2c-0.6,0.8-1.2,1.6-1.7,2.5c0,0,0.1-0.1,0.1-0.1c-2.2,0.6-2.5,2.3-2.4,4.2c0,0,0,0,0,0
				c-3.7-0.6-4.7,4.3-8.3,4.1c-0.5-0.4-0.7-0.9-0.5-1.5c-0.6-2.7,3-7.8-3.9-7.1c-0.8,0.2-1.6,0.3-2.4,0.5c-3.3,3-1.7,6.9-1.8,10.5
				c0.3,0.7,0.2,1.3-0.2,2c-1.3,0-2.6,0-4,0c-0.1-1.2-0.3-2.5-0.4-3.7c-0.1-3.6,2.1-8.4-4.5-8.6c-1.3,0-2.5,0-3.8,0l0.3-0.6
				c-0.8-4.5-4.1-3.9-7.3-3.5c-0.6,0.1-1-0.1-1.2-0.6c-0.4-4.4-3.5-4.1-6.6-3.8c0,0,0.1,0.1,0.1,0.1
				C307.8,217.4,307,216.7,305.5,217.3L305.5,217.3z"/>
			<path class="st8" d="M323,227.1c1.3,0,2.5,0,3.8,0c1.5,2.9,3,5.7,4.5,8.6c0.1,1.2,0.3,2.5,0.4,3.7c-0.3,3.5-2.3,7.8,3.9,8.1
				c0.4,5-4.8,7.3-4.9,13.8C326.1,248.8,330.5,236.7,323,227.1z"/>
			<path class="st2" d="M356.8,224.4c0-3.5,0.9-7,5.1-5.7c4.8,1.5,8.4,4.9,7.3,10.8C364.6,229.1,363.4,220,356.8,224.4z"/>
			<path class="st2" d="M344.5,235.1c3.5,0.2,4.6-4.7,8.3-4.1c-0.6,3.8-2.2,7.3-5.6,8.7C345.8,240.4,344.5,237.3,344.5,235.1z"/>
			<path class="st2" d="M340.1,226.5c6.9-0.7,3.3,4.4,3.9,7.1C342.7,231.2,341.4,228.8,340.1,226.5z"/>
			<path class="st2" d="M308.1,218.6c3.1-0.4,6.2-0.6,6.6,3.8C311.9,222.2,309.8,220.8,308.1,218.6z"/>
			<path class="st2" d="M316,222.9c3.2-0.4,6.5-1,7.3,3.5C320.2,226.7,318,225.1,316,222.9z"/>
			<path class="st2" d="M335.9,237.4c0.2-3.6-1.5-7.5,1.8-10.5C338.1,230.6,337.8,234.1,335.9,237.4z"/>
			<path class="st1" d="M198.9,189.8c0.7-1.2,1.8-2.8,3.1-2c1.7,1,0.6,2.3-0.8,3C200.4,190.5,199.6,190.2,198.9,189.8z"/>
			<path class="st2" d="M352.8,231.1c-0.1-1.9,0.2-3.6,2.4-4.2C355,228.7,354.5,230.2,352.8,231.1z"/>
			<path class="st2" d="M305.6,217.3c1.4-0.5,2.2,0.1,2.7,1.4C307.3,218.2,306.5,217.7,305.6,217.3z"/>
			<path class="st1" d="M112.4,188.3c0.7-1,1.4-1,2.1,0C113.8,188.3,113.1,188.3,112.4,188.3z"/>
			<path class="st2" d="M355,227.1c0.6-0.8,1.2-1.6,1.7-2.5C356.8,225.9,356.3,226.8,355,227.1z"/>
			<path class="st1" d="M244.8,191.4c0.3-0.4,0.7-0.7,1-1.1c-0.3,0.4-0.6,0.9-0.8,1.3C245,191.6,244.8,191.4,244.8,191.4z"/>
			<path class="st2" d="M331.3,235.7c-1.5-2.9-3-5.7-4.5-8.6C333.4,227.2,331.2,232.1,331.3,235.7z"/>
		</g>
		
			<path id="XMLID_00000003095124775665270800000017886032864555383173_" style="clip-path:url(#SVGID_00000103249078466923160290000001033231864202197914_);fill:none;" d="
			M7.7,256.4c0,129.1,108.3,233.7,241.9,233.7c133.6,0,241.9-104.6,241.9-233.7c0-129.1-108.3-233.7-241.9-233.7
			C116,22.7,7.7,127.4,7.7,256.4"/>
	</g>
	<g>
		<g>
			<g>
				<path class="st13" d="M329.4,18.2c7.9,2.5,15.6,5.5,23.2,8.8c28.8,12.6,54.9,30.8,76.9,53.3c21.8,22.4,39.2,48.9,51,77.8
					c12.1,29.9,18.1,62,17.7,94.2c-0.5,32.1-7.3,63.8-20.1,93.2c-12.4,28.2-30.2,53.7-52.2,75.2c-22,21.3-47.9,38.3-76.2,49.9
					c-29.3,11.8-60.6,17.6-92.2,17.3c-31.4-0.5-62.4-7.2-91.1-19.8c-27.5-12.2-52.5-29.6-73.5-51.2c-11.7-12.1-22-25.4-30.8-39.6
					c-6.8-11.1-12.8-22.8-17.7-34.9c-11.5-28.6-17.2-59.2-17-90c0.4-30.7,6.7-61,18.8-89.2c11.7-27.1,28.5-51.8,49.3-72.8
					c5.9-6,12.2-11.7,18.7-17c16.3-13.5,34.2-25.1,53.2-34.3c16.7-8.1,34.2-14.3,52.2-18.6c2.6-2.4,5.2-4.7,7.9-6.9
					c7.6-2.6,15.4-4.8,23.2-6.6c-4.7-1.1-9.5-2-14.3-2.8c-24-2.3-50.2,4.5-72.4,12.4c-1.8,0.6-3.6,1.3-5.4,2
					C128,30.5,100,48.4,76.3,71.2c-23.8,23-42.8,50.6-55.9,81C6.9,183.7,0.1,217.7,0,252.1v0.2c0.1,34.4,7,68.4,20.4,100.1
					c13,30.5,31.8,58.2,55.2,81.7c23.5,23.3,51.3,42.1,81.8,55c31.7,13.3,65.7,20.1,100.1,20.1c34.3-0.1,68.3-7,99.9-20.4
					c30.4-13,58.1-31.8,81.3-55.3c2.4-2.4,4.7-4.9,7-7.4c19.8-21.9,35.8-47.1,47.1-74.4c13-31.5,19.4-65.3,19.2-99.4
					c-0.3-33.9-7.4-67.6-20.9-98.7c-13.1-29.9-31.8-57.1-55.1-79.9c-5.5-5.3-11.2-10.4-17.1-15.2C399.6,43,378,30.3,355,21.2
					c-31-12.1-64.4-18-97.6-16.5C281.9,5.6,306.2,10.1,329.4,18.2z"/>
			</g>
			<g>
				<path class="st14" d="M191.6,24.6c-2.2,5.6-20.3,10.4-25,12.7c-8.9,4.4-17.5,9.3-25.8,14.7C124.1,62.8,109,75.9,95.2,90.1
					c-10.1,10.5-19.5,21.8-27.8,33.8c-8.4,12.3-15.8,25.3-21.8,38.9c-12.5,28.2-19.2,58.6-19.9,89.5c-0.5,31.1,5,62,16.3,91
					c11.2,28.1,27.8,53.8,48.6,75.8c21.2,22.1,46.3,39.9,74,52.7c3.1,1.4,6.3,2.8,9.5,4.1c26.5,10.7,54.6,16.6,83.2,17.4
					c32.4,0.8,64.6-4.8,94.9-16.3c9-3.5,17.8-7.5,26.4-11.8c8.8-4.4-20.6,14.1-24.5,16c-30.1,14.7-63.3,22.4-96.7,23.3
					c-23.1,0.5-46.1-2.2-68.4-8.3c-10.3-2.9-20.4-6.3-30.3-10.4c-30.2-12.6-57.7-31-81-53.9c-23.3-23.1-42-50.4-54.9-80.5
					c-13.3-31.4-20.1-65-20-99.1c0-4.8,0.2-9.7,0.5-14.5c2-29,8.9-57.5,20.5-84.2c13.1-29.9,31.8-57,55-79.9
					c4.1-4,8.3-7.9,12.7-11.6c20.3-17.3,43.3-31.5,68-41.4c8.9-3.5,18-6.6,27.4-8.5l20.6,1.5c-0.6,0.2-15.4,6.6-14.5,6.9
					C192.6,22,192.1,23.3,191.6,24.6z"/>
			</g>
			<g>
				<path class="st14" d="M174.3,29.2c-0.8,2.6-6.7,4.7-8.7,5.8c-12.4,6.7-24.5,13.8-35.9,22c-12.9,9.4-24.8,20.2-35.9,31.8
					c-10.5,11.1-20.2,22.8-28.8,35.5c-8.1,12-15.2,24.6-21.1,37.9c-12.6,28.4-19.3,59.1-20.1,90.2c-0.5,31.4,5,62.5,16.4,91.7
					c11.3,28.3,28,54.2,49,76.4c14.1,14.7,29.9,27.6,47.1,38.5c8.8,5.5,18,10.5,27.5,14.8c29.4,13.4,61.2,20.7,93.5,21.6
					c21.1,0.5,42-1.7,62.7-5.9c0.9-0.2-46,12.3-62.7,13c-33.6,1.2-67.2-4.6-98.3-17.3c-4.2-1.7-8.4-3.6-12.4-5.6
					c-25.2-12.3-48.2-28.5-68.2-48.2c-23.2-23-41.8-50.2-54.8-80.2c-13.3-31.3-20.1-64.8-20.1-98.8c0-8.9,0.6-17.8,1.6-26.6
					c2.9-24.8,9.4-49,19.3-71.9C37.4,124,56,97,79.3,74.2c2.1-2.1,4.3-4.1,6.5-6.1c21.6-19.6,46.7-36.2,74.2-46.5
					c3.1-1.1,6.2-2.2,9.4-3.1l18.4-0.1c-0.4,0.2-13.3,7-12.3,7.2C175,26.8,174.6,28,174.3,29.2z"/>
			</g>
			<g>
				<path class="st14" d="M203.1,20.2c-3.3,6.9-30.7,13.1-37,16.1c-2,0.9-3.9,1.9-5.8,2.9c-24.5,12.7-47.3,29.6-67,49
					c-0.4,0.4-0.8,0.8-1.1,1.1c-20.8,20.9-37.9,45.1-50,72c-12.8,28.6-19.6,59.6-20.4,90.9c-0.6,31.6,5,63,16.5,92.5
					c8.5,21.3,19.9,41.3,33.9,59.5c4.8,6.2,9.9,12.2,15.3,17.9c21.5,22.6,47,40.9,75.3,53.9c16.3,7.4,33.2,12.9,50.6,17.1
					c0.9,0.2-40.4-6.7-53-11.3c-30.2-11.5-57.8-29.1-80.9-51.7c-1.8-1.8-3.5-3.5-5.3-5.3C53.7,403,37,377.9,25.1,350.4
					c-13.3-31-20.2-64.4-20.4-98.1c0-29,4.8-57.9,14.9-85.1c1.6-4.4,3.4-8.8,5.3-13.1c13-29.7,31.7-56.7,54.8-79.5
					c12.2-11.9,25.5-22.5,39.8-31.8c12.8-8.2,26.4-15.4,40.5-21.1c12.8-5.2,26.2-9.6,39.9-11.7c3.7-0.5,31.6-2.2,16.6,2
					c-0.3,0.1-12.9,4.8-12,5.1C204.1,18.1,203.6,19.1,203.1,20.2z"/>
			</g>
			<g>
				<path class="st14" d="M203.7,20.1c-3.4,6.9-31.2,13-37.6,16.1c-0.4,0.2-0.7,0.4-1.1,0.5c-22.9,11.2-44.4,25.9-63.4,42.8
					c-3,2.7-5.9,5.4-8.8,8.2c-21.6,21-39.1,45.9-51.5,73.3c-12.8,28.7-19.7,59.8-20.5,91.2c-0.6,31.8,5,63.3,16.5,92.9
					c2.4,6.1,5.1,12.1,7.9,18c10.7,21.9,24.7,42,41.4,59.8c18.6,19.6,40.2,35.5,63.7,48.7c0.8,0.5-50.8-26.2-69.1-43.3
					c-14.6-13.8-27.4-29.5-38-46.7c-6.3-10.3-11.8-21-16.6-32c-13.2-30.8-20.1-63.9-20.3-97.4c-0.1-33.5,6.4-66.9,19.6-97.7
					c1.5-3.5,3.1-7,4.8-10.4c12.6-25.5,29.4-48.7,49.7-68.7c14.4-14,30.4-26.3,47.6-36.6c10.4-6.1,21.1-11.5,32.3-16.1
					C173.4,17.6,187,13,200.8,11c3.3-0.5,28.3-2,15,1.8c-0.2,0.1-11.7,4.3-10.8,4.6C204.5,18.2,204.1,19.2,203.7,20.1z"/>
			</g>
			<g>
				<path class="st15" d="M34.9,188.9c-6.4,20.5-9.7,41.9-10.1,63.4c-0.4,31.2,5.3,62.1,17,91.1c11.5,28,28.3,53.5,49.3,75.2
					c21.3,21.7,46.5,39.2,74.3,51.4c29.1,12.6,60.3,19.3,91.9,19.9c6.5,0.1,12.9,0,19.4-0.4c25.3-1.5,50.3-7.1,73.8-16.5
					c28.7-11.6,54.9-28.7,77.2-50.2c22.3-21.7,40.4-47.6,53-76.1c9.8-22.3,16.2-46.1,18.9-70.3c0.9-8,1.4-16,1.4-24.1
					c0.3-32.6-6-65-18.3-95.2c-12.1-29.2-29.7-55.8-51.8-78.4c-22.2-22.6-48.6-40.9-77.6-53.8c-1-0.4-25.5-10-24.5-10
					c8.4,0.7,17.6,5.1,25.3,8.1c29.9,11.9,57.2,29.8,80.2,52.2c23.2,22.6,41.9,49.5,54.8,79.1c13.5,30.9,20.5,64.3,20.9,98
					c0.3,33.8-6.1,67.5-19,98.8c-1.3,3.2-2.7,6.3-4.1,9.4c-12.4,26.6-29.3,50.8-49.8,71.7c-23.1,23.3-50.5,42.1-80.6,55.1
					c-31.4,13.4-65.1,20.3-99.3,20.5c-16.4,0-32.7-1.5-48.8-4.6c-17.4-3.4-34.4-8.5-50.7-15.4c-30.3-12.9-57.9-31.5-81.3-54.7
					c-23.3-23.4-41.9-50.9-54.8-81.3c-13.2-31.5-20-65.4-20-99.5c0.1-24.9,3.7-49.6,10.8-73.4c2.7-8.8,5.8-17.5,9.5-26
					c13-30.1,32-57.5,55.7-80.2c23.4-22.1,51.7-40.6,82.7-49.7c4.2-1.2,8.6-2.4,13-2.6c10.2-0.2-7.1,10.9-9,12.1
					c-10.9,7.1-22,13.9-32.8,21.1c-14.4,9.6-27.7,20.8-39.7,33.3c-20.7,21.7-37.2,47.2-48.4,75.1C40.3,170.8,37.3,179.8,34.9,188.9z
					"/>
			</g>
			<g>
				<path class="st15" d="M36.1,179.8c-8.2,23.3-12.5,47.8-13,72.5c-0.4,31.4,5.4,62.5,17.2,91.7c11.6,28.2,28.5,53.8,49.7,75.7
					c21.4,21.8,46.8,39.4,74.8,51.8c17.8,7.8,36.4,13.3,55.5,16.8c12.3,2.2,24.7,3.4,37.1,3.6c32.1,0.5,64-5.3,93.9-17.3
					c28.9-11.7,55.3-29,77.7-50.7c18.4-17.9,34-38.7,45.9-61.4c2.6-5,5-10.1,7.3-15.2c13-29.9,19.8-62.3,20.1-95
					c0.2-32.8-6-65.3-18.4-95.7c-2.3-5.7-49.6-77.4-48.8-76.9c23.6,16.3,41.3,50.2,52.5,75.4c13.5,30.6,20.5,63.8,21,97.2
					c0.3,33.6-6,67-18.7,98.2c-12.2,29.5-29.8,56.5-52,79.4c-0.5,0.5-0.9,1-1.4,1.4c-23,23.2-50.2,41.9-80.2,54.8
					c-31.2,13.4-64.8,20.3-98.8,20.5c-33.6,0-66.9-6.4-97.9-19.2c-0.4-0.2-0.8-0.3-1.2-0.5c-30.2-12.8-57.7-31.4-81-54.5
					c-23.2-23.3-41.7-50.7-54.6-81c-13.2-31.4-20-65.1-20-99.2c0.1-28,4.7-55.8,13.8-82.3c2-5.7,4.1-11.2,6.5-16.8
					c13-30,31.8-57.4,55.5-79.9c20.8-19.6,52.6-45.1,82.8-48c0.1,0,0.2,0,0.3,0c3.2-0.1,3.5,1.4,1.5,3.7
					c-10.6,11.2-26,19.2-38.5,28.1c-12,8.6-23.2,18.3-33.4,29c-20.8,21.9-37.4,47.5-48.6,75.5C40.1,167.5,38,173.6,36.1,179.8z"/>
			</g>
			<g>
				<path class="st15" d="M64.5,119.4c-9.4,12.9-17.3,26.8-23.8,41.4c-12.7,28.9-19.4,60-19.9,91.6c-0.3,31.7,5.6,63.1,17.5,92.6
					C50,373.3,67,399.2,88.4,421.3c9.5,9.8,19.8,18.7,30.8,26.9c13.8,10.3,28.8,18.9,44.5,26c29.5,13.1,61.4,20,93.7,20.6
					c32.5,0.4,64.7-5.5,94.9-17.7c8.8-3.6,17.4-7.7,25.7-12.3c19.2-10.6,36.8-23.9,52.5-39.2c22.5-22.2,40.6-48.5,53.3-77.5
					c13.1-30.2,19.9-62.7,20.6-95.6c0-0.4,0-16.3,0.2-15.4c1.3,4.8,1,10.5,1.1,15.4c0.8,33.3-5.5,66.5-18,97.3
					c-12.2,29.9-30.2,57.2-52.7,80.3c-22.7,23.2-49.7,41.8-79.5,54.8c-12.3,5.3-25,9.7-38,12.9c-19.7,4.9-39.9,7.5-60.2,7.6
					c-33.9,0.1-67.4-6.4-98.7-19.3c-30.2-12.7-57.6-31.1-80.9-54.1c-2.7-2.7-5.4-5.5-8-8.4c-19.4-21.3-35.2-45.8-46.5-72.3
					c-13.2-31.3-20-64.9-20-98.9c0.1-34,6.8-67.6,20-98.9c7.1-16.8,16.1-32.7,26.6-47.6C58.3,94.1,67.7,83.1,78,72.9
					c23.3-22.7,51-40.8,81.5-52.2c14.4-5.3,32.7-11.8,48.4-10.1c6.5,0.8-32.8,18.8-37.6,20.9c-1.8,0.7-3.5,1.5-5.2,2.3
					c-27.7,12.5-52.9,30.3-74,52.2C81.3,96.3,72.3,107.5,64.5,119.4z"/>
			</g>
			<g>
				<path class="st16" d="M24.3,301.6c-2.5-16.3-3.3-32.8-2.3-49.3c1.9-31.1,10-61.4,23.1-89.7c2.8-6,5.8-11.9,9-17.6
					c11.2-20,25-38.5,41.1-54.9c5-5.1,10.3-10,15.8-14.6C128.3,61.3,147.2,49,167.3,39c0.2-0.1,0.5-0.2,0.7-0.4
					c11.3-5.6,23.2-9.8,35.1-13.9c1.7-0.6,21.7-6.9,21.3-7.3c-1.7-1.7,1.4-3,2.5-4c3.7-3.3,21.8-2.5,23-6.8
					c0.3-3.1-21.7-2.5-23.9-2.4c-23.1,0.2-45.9,6-67.4,14.2c-22.8,8.8-44.1,21.1-63.4,36.1c-6.6,5.2-12.9,10.7-19,16.5
					c-23.7,23-42.8,50.7-55.1,81.4C11,178.1,6.3,204.8,5.4,232.2c-0.2,6.7-0.2,13.4,0.1,20.1c1.2,25.1,4.4,59.8,19.6,81.1
					C30.2,342.4,24.9,307.2,24.3,301.6z"/>
			</g>
			<g>
				<path class="st16" d="M17.1,252.7c0-0.1,0-0.3,0-0.4c1.7-31.8,10-62.8,23.9-91.4c7.6-15.5,16.7-30.2,27-44
					c7.7-10.2,16.1-19.9,25.1-28.9c10.4-10.3,21.5-19.9,33.6-28.1c12.7-8.6,25.9-16.2,39.8-22.8c4.8-2.3,9.7-4.4,14.6-6.5
					c10.7-4.4,21.8-7.7,32.9-10.8c1.6-0.4,20.1-5.4,19.8-5.8c-1.5-1.6,1.4-2.6,2.4-3.5c3.6-2.9,19.9-1.5,21.2-5.4
					c-36.7-1-62.7-1.7-99.2,12.3c-15.3,6-30,13.5-43.8,22.3c-13.9,8.9-26.9,19.2-38.7,30.8c-23.6,23.2-42.3,51.2-53.8,82.2
					c-4.2,11.5-7.3,23.3-9.8,35.3c-4.4,21.1-6.2,42.7-5,64.2c0.6,9.5,0.9,20.8,4.7,29.7C14.6,291.1,16.6,258,17.1,252.7z"/>
			</g>
			<path class="st17" d="M17.9,221.5c3.9-21.5,10.9-42.2,20.5-61.7c10-20.2,22.7-38.8,37.2-55.9c5.1-6,10.5-11.7,16.1-17.2
				c12.1-11.9,25.3-22.8,39.6-32c11.1-7.1,22.6-13.4,34.5-19c5-2.4,10.1-4.6,15.2-6.7c9.7-4,19.7-7,29.7-10
				c1.4-0.4,18.1-5.2,17.8-5.5c-1.4-1.4,1.2-2.4,2.1-3.2c3-2.6,17.9-1.9,18.9-5.3c0.3-2.5-17.7-2.1-19.5-2.1
				c-24.5-0.1-49,6.2-71.8,15c-13,5.1-25.6,11.3-37.6,18.5C104.5,46,89.5,57.6,76,70.9c-23.5,23.4-41.5,51.3-52.6,82.5
				c-1.2,3.5-2.4,7.1-3.6,10.7C12.3,188.4,3.3,221.5,9.7,247C11,255.7,16.9,226.2,17.9,221.5z"/>
		</g>
	</g>
	<g>
		<path class="st18" d="M2,483.1c-3.5-4.9-1.7-9.6,0.5-14.3c0.7-0.8,1.5-1.6,2.2-2.4c6.7,1,13.2-1,19.9-1.2c0.8-0.4,1.6-0.7,2.4-1.1
			c5.7,1.6,11-1.3,16.5-1.4c3.6-0.1,5.2-2,4.7-5.7c0-1.2-0.1-2.4-0.1-3.6c0-1.4-0.1-2.8-0.1-4.2c0-1,0-1.9,0-2.9
			c0-0.3,0-0.6,0.2-0.9c0.7,0,1.3,0,2,0.1c0.3,0.1,0.4,0.2,0.3,0.5c0,0.9,0,1.8,0,2.7c0,1.6,0.1,3.2,0.1,4.8c0,0.8,0,1.6-0.1,2.5
			c-0.9,4.1,0.3,7.3,4.8,5.6c5-2,10.5-1.9,15.2-4.4c0.8,0,1.6,0,2.4,0c7.1-1.1,14.5-0.6,20.9-4.7c0.8,0.4,1.7,0.7,2.5,1.1
			c0.4,0,0.8,0,1.2,0.1c0.5,2.9,1.5,4.5,4.6,2.5c2.9-1.8,6.4-2.7,9.4-2.1c4.4,1,4.8-0.9,4.6-4.2c0.1-0.7,0.2-1.4,0.2-2.1
			c0.6,0,1.3,0,1.9,0c0.1,0.4,0.2,0.9,0.3,1.3c0.1,0.8,0.2,1.7,0.2,2.5c0.1,0.5,0.2,1.5,0.3,1.5c5.6,0,11.1-1.3,16.5-2.7
			c0.9-0.2,0.2-1.2-0.5-1.7c-0.1-0.9,2.5-0.7,0.9-2.2c0.1-0.3,0.3-0.7,0.4-1c0.7,0,1.5-0.1,2.2-0.1c0,0,0,0,0,0
			c0.4,0.8,0.8,1.6,1.1,2.4c-0.6,0.7-1.4,2.2-0.2,2.1c5.9-0.7,11.9-1.7,17.6-3.2c1.9-0.5,0.2-1.5-0.9-1.8c0-0.6,0-1.2,0-1.8
			c0.7-0.8,1.5-1.6,2.2-2.3c0.5,0,1,0,1.6,0c0.3,0.4,0.6,0.8,1,1.2c0,0.7-0.1,1.5-0.1,2.2c-0.5,0.7-0.6,2,0,1.9
			c7.1-1.3,14.6-0.9,21-5c0-1.4,0-2.8,0-4.2c-0.1-0.3,0-0.5,0.1-0.8c0.8,0.4,1.6,0.8,2.4,1.1c0,0,0,0,0,0c0,0.7-0.1,1.4-0.1,2.2
			c-0.4,3.7-0.3,4,2.9,2.7c2.6-1.1,5.3-1,7.9-1.4c3-0.5,7.5,0.6,8.1-4.5c0-0.9,0-1.8-0.1-2.6c0.1-0.7,0.2-1.4,0.3-2.1
			c0.7,0,1.3,0,2,0c0.1,0.3,0.2,0.7,0.2,1.1c0,0.9,0,1.7,0.1,2.6c-0.2,1.4,0.2,2.5,1.8,2.1c3-0.7,5.9-2.1,7.6,2.1
			c0.2,0.5,2.5,0.2,3.8,0c2.1-0.2,4.2-0.7,6.3-1c2.3,0.7,3.5-0.9,4.9-2.2c2.7,1.1,5.4-0.5,8.1-0.1c3.9-1,8.6,2.4,11.9-2.1
			c1.4-0.1,2.8-0.3,4.2-0.4c4.1,0.1,8.2,0.2,12.2,0.1c1.8,0,4.1,0.7,4.7-2.1c1.9-0.1,3.9-0.2,5.8-0.2c8.2,0,16.4,0.1,24.6,0
			c1.6,0,3.6,0.7,4.7-1.4c0.1-0.7,0.1-1.4,0.2-2c0.7,0.8,1.4,1.6,2.2,2.3l0.2,0.2c1.5,1.5,3.3,0.9,5,0.8l0.3-0.1l0.3,0.1
			c0.5-0.3,1-0.7,1.5-1c0.1-0.4,0.2-0.8,0.3-1.2c0.3,0.4,0.6,0.7,0.9,1.1c0.7,1.6,2.3,0.9,3.4,1.4c0.5,2.5,2.4,2.1,4.1,2.1
			c3.5,0,7-0.1,10.5-0.1c0.5,0,1,0,1.6,0c0.8-0.3,1.6-0.7,2.4-1c8.7,3.4,17.6,5.7,27,5.7c0.9,0,1.9-0.1,2.8-0.1
			c3.6-0.9,7.3-1.7,11.9-2.8c-2.1-0.3-3.1-0.4-4-0.5c3.4-2.2,7.3-0.4,10.9-1.3l0.3-0.1l0.3,0.1c1.1-0.2,2.2-0.4,3.2-0.7
			c0.6,0,1.3,0.1,1.9,0.1c2.9,0.3,4.8,2.3,6.7,4.2c1.3,9.7-1,18.6-5.6,27c-0.3,0.1-0.4,0.3-0.5,0.6c-1.3,1.4-3,2.6-3.1,5.2
			c2.6-0.4,4.8-0.7,7-1c-0.4,2.4-2.2,2.3-3.9,2.3c-3.7-0.2-7.2,0-10.3,2.4c-4,3-8.6,2.5-13.2,2.1c3.2-0.8,6.4-1.7,9.5-2.5
			c2.4-0.6,4.2-1.6,5.4-3.9c3.4-6.9,6.3-13.8,6.7-21.6c0.5-9,0.1-9.3-8.6-7.6c-27.9,5.5-55.8,11.5-84.2,13.8
			c-24.3,1.9-48.7,3.9-73,5.1c-7.9,0.4-13.8,1.9-16.4,9.9c-3.8-0.8-1.7-3.9-2.3-5.9c1-5.6,1.5-11.2,1.2-16.9c-0.1-2.5-0.9-3-3.5-3.2
			c-6.4-0.5-12,2.7-18,3.7c-21.3,3.7-42.6,7.7-64,11.2c-24.6,4-49.4,7.4-74.2,10c-13.6,1.4-27.1,3-40.7,4.4
			c-5.9,0.6-5.5,3.4-2.8,7.2c1,1.2,2.4,1.1,3.8,1.1c12.5,0,25,0,37.5-0.1c7.4,0.1,14.8,0.2,22.1,0.3c-0.7,3.1-3.2,1.9-5,2.1
			c-1.8,0.2-4-0.5-4.4,2.3c-4.3,0-8.6-0.1-12.9-0.1c-0.5-2.5-2.4-2.1-4.1-2.1C29.2,483,15.6,483.1,2,483.1z M319.4,443
			c3.6,0.4,6.7,4,11.5,1.2c-7.9-3.7-15.2-7-22.9-9.2c-1.8-0.5-2.9,0.6-3.8,2c-0.6,1.1-1.6,1.4-2.7,1.5c-4.1-1.5-8.1-3.3-12.6-2
			c0.2,0.2,0.3,0.4,0.5,0.6c0.1,0.1,0.3,0.2,0.5,0.3c-1.4,1.6-3.3,0.8-5,1.1c-2.3-0.3-4.3-1.9-6.9-0.4c-2.6,1.5,0,1.8,0.2,2.7
			c-0.1,1.8-1.2,2.4-2.8,2.5c-0.7-0.3-1.4-0.6-2.1-0.9c-2.4-2.4-7.2-1.4-8.5-5.9c-0.2-0.7-4.4-1.6-5.5,1.7c-1.4,0.1-2.7,0.3-4.1,0.4
			c-2,0.1-4.5-1.2-5.3,2c-0.2,0.2-0.5,0.3-0.9,0.3c-2.2,0.4-5.5-1.8-6,2.6c-7.1,3.1-14.3,6.3-22,9.6c7,1.8,12.3-1.7,17.9-3.1
			c1.5,0.1,3.2,0.5,3.7-1.7c0.7-0.2,1.4-0.4,2.1-0.7c1.7,0.1,2.7,0.9,2.9,2.7l0,0c-1.5-0.1-3.1-0.5-3.9,1.1c-0.4,0.8,0.7,1,1.4,1.1
			c4.6,0,9.1-0.1,13.7-0.1c3.6-0.4,7.5,1.5,10.9-1.1c-0.3-0.5-0.7-0.9-1-1.4c0.2-2.3,2-2,3.5-2.1c0.4,0.1,0.8,0.2,1.1,0.4
			c2.4,3.7,4.9,7,9.4,2.3c1.4-1,3.7,0.9,4.7-1.5c1.3-1.8,3.2-1,4.9-1.3c3.7,2,7.6,1,11.4,1c2.8,0.6,2.1-2.7,3.8-3.4
			c3.4,2.5,6.9,4.4,10.4,0.2C318.2,444.5,318.4,443.5,319.4,443z M346.9,441.1c-6.6-1.6-12.2-3.3-19.6-2.4
			C334.1,441.3,339.3,445.3,346.9,441.1z M228.2,444.7c-4.3-1.2-7,0.4-9.8,0.7c-1.5,0.2-2.7,0.9-2.3,2.6c0.6,2.4,2.2,0.8,3.2,0.5
			C221.9,447.6,224.4,446.3,228.2,444.7z"/>
		<path class="st19" d="M370.6,475.7c4.6,0.4,9.2,0.9,13.2-2.1c3.1-2.3,6.6-2.6,10.3-2.4c1.7,0.1,3.6,0.2,3.9-2.3c0,0,0.1,0,0.1,0
			c3.1,0.5,6.5-1.3,9.4,1.2c-4.7,2.7-9.6,4.7-14.9,6c-1.5-0.1-3.3-0.6-3.9,1.6c-0.4,0.2-0.8,0.4-1.2,0.6c-1.4,0-2.8-0.3-3.7,1.2
			c-1.1,0.4-2.3,0.8-3.4,1.1c-5.6-0.9-10.6,1.6-15.3,3.8c-2.3,1.1-6.5-1.1-7.1,3.4c0,0-0.4,0-0.4,0c-1.8-0.1-3.6-0.5-5.3-0.1
			c-8.1,2-16.2,3.9-24.5,5.4c-4.3,0.8-9,0.3-12.9,2c-8.5,3.6-17.8,3.4-26.4,3.8c-24.9,1.4-50,0.5-74.9,0.5c-1.6,0-3.2,0.2-4.7-0.3
			c-10-2.9-20.1-4.8-30.5-4.4c-12.7-2.7-25.5-5.5-38.2-8.2c-27.6-6-54.7-4.6-81.2,5.2c-1.3,0.5-2.5,1.2-3.9,0.7l0.1,0.1
			c0.6-3.1,5.2-3.2,5.2-6.8c0-0.1-0.3-0.2-0.5-0.3c0.4-2.8,2.6-2.1,4.4-2.3c1.9-0.2,4.4,0.9,5-2.1c6-2.7,11.9-5.7,18.4-7.3
			c25.7-6.3,50.6-1.7,75.5,4.6c0.5,3.2,3.1,2.3,5,2.4c7.9,0.1,15.9,0.2,23.8,0c3-0.1,3.8,1,3.1,3.6c11.8,4.1,24.2,4.8,36.4,5.7
			c31.1,2.3,61.8-1.1,92.5-5.8c2.9,0.6,5.5-1,8.2-1c8.6-1.3,17.2-2.3,25.9-2.9c3.4-0.3,8.9,0.2,11.6-4.1l0.4-0.3L370.6,475.7z"/>
		<path class="st20" d="M204.2,339.7c3.1,2.9,7.4,4,10.5,7.2c1.5,1.6,0.8,5.5,4.6,4.7c0.7,3.4,2.3,6.1,5,8.3
			c4.5,2.4,9.5,0.5,14.2,1.2c0,0.4,0,0.7,0,1.1c-5.4,1.5-11.1,0.7-16.5,1.6c-1.8-2.6-3.7-5.1-5.5-7.7c-2.6-4.8-4.3-10.3-10.9-11.1
			c-7.4-2.5-14.9-2.3-22.6-0.9c-5.8,1.1-11.2,3-16.8,4.7c-1.1,0.4-3.7,2.4-4-0.8c-0.5-5-4.6-9.8-0.8-15.1c1.2-1.6,0.4-3.1-1.4-3.6
			c-2.7-0.7-5.5-0.6-8,0.6c-1.4,0.6-2.4,2.5-1.2,3.2c7,3.8,3.4,10.9,5.3,16.2c1,2.9-1.3,3.6-3.4,4.2c-3,0.8-2.6-1.8-2.9-3.2
			c-1.4-7.3-2.6-14.6-3.8-21.9c-1.4-8.7-1.4-8.7,7.1-10.2c0.2,0,0.3-0.6,0.7-1.4c-10.8-1.2-21.2-0.4-32.8,1.3
			c6,1.4,10.9,1.5,15.7,1.4c3.4-0.1,4.8,0.8,4.9,4.5c0.1,8.8,0.7,17.6,1.1,26.3c-0.9,2.5,1.2,5.6-1.3,7.7
			c-6.3,5.3-9.9,12.6-14.6,19.1c-3.2,5.8-8.8,7.6-14.6,9.4c-23.2,7.5-46.2,15.7-67.8,27.3c-2,1.1-4.4,2-5.1,4.5
			c-2.2,7.8-4.4,15.7-6.6,23.5c-2.2,3.2-6.1,6.5,0.3,9.5c-2.4,1.4-7.1,0.5-5.8,5.6c0,1.2,0,2.5,0,3.7c0,1.2-0.1,2.3-0.1,3.5
			c-0.8,0.4-1.6,0.7-2.4,1.1c0-1.5,0-3,0.1-4.5c0-0.9,0-1.7,0-2.6c0-1.5,0-3.1,0.1-4.6c0-0.9-0.1-1.7-0.1-2.6c0-1.5,0.1-3,0.1-4.5
			c-0.2-1.7,1.4-2.2,2.3-3.1c3.8-7.5,5.2-15.8,7.9-23.6c1.5-4.5,4.1-7.3,7.9-9.6c18.4-10.9,38.4-18.5,58.7-24.4
			c13.2-3.8,23.2-10,29.6-22.1c1.6-3,3.5-6.1,6.4-8.3c1,0.6,2.1,0.5,2.1-0.8c-0.1-4.6,1.2-9.2-0.8-13.6c-0.8-5.4,1.1-11.1-1.2-16.4
			c-0.1-0.4-0.2-0.7-0.3-1.1c0.8-0.2,1.9-0.2,1.9-1.5c0-0.1-0.2-0.4-0.4-0.4c-1.3,0-1.2,1.1-1.5,1.9c-0.4-0.1-0.8-0.3-1.2-0.4
			c-2.5-1.7-5.3-0.6-8-0.9c-6,0.2-11.9-0.4-18-2.6c2.4-4.1,6.3-4.5,9.7-5.1c13.7-2.6,27.5-2.4,41.3-0.2c1.9,0.3,5,0.2,5,2.8
			c0,1.9-2.8,2.4-4.7,2.9c-3.2,0.8-6.4,1.7-9.7,2.1c-2.2,0.3-3.3,1.1-2.7,3.3c0.6,2.5,2.1,0.7,3.2,0.5c2.5-0.5,5-0.8,7.6-0.3
			c5.8,1,7.5,4.3,4,8.9c-2.5,3.4-0.7,6.1,0.4,8.6c1.3,3,3.8,0.3,5.5-0.2C181,339.5,192.4,337.2,204.2,339.7z"/>
		<path class="st18" d="M178.5,494.7c10.4-0.4,20.6,1.6,30.5,4.4c1.5,0.4,3.1,0.3,4.7,0.3c25,0,50,0.9,74.9-0.5
			c8.6-0.5,17.9-0.2,26.4-3.8c3.9-1.7,8.6-1.2,12.9-2c8.3-1.5,16.4-3.3,24.5-5.4c1.6-0.4,3.5,0.1,5.3,0.1c-14.9,5.5-30.5,8-46,10.2
			c-33.6,4.8-67.3,5.5-101,2.4C199.8,499.5,189,498,178.5,494.7z"/>
		<path class="st21" d="M24.6,458.2c0,0.9,0,1.7,0,2.6c-5.4,1-10.9,2-16.3,3c-1.6,0.3-3.6,0.3-3.6,2.7c-0.7,0.8-1.5,1.6-2.2,2.4
			c0-5.6,0.1-11.3-0.2-16.9c-0.2-3.2,1.1-4.4,4.1-4.9c6.9-1.1,13.7-2.4,20.6-3.6c-0.9,1-2.4,1.4-2.3,3.1c-5.8,0.9-11.5,1.9-17.3,2.8
			c-1.7,0.3-2.8,1.2-2.5,3.2c0.4,2.9,2.3,1.3,3.5,1.1c5.4-0.8,10.8-1.8,16.2-2.7c0,0.9,0.1,1.7,0.1,2.6c-5.7,0.9-11.5,1.9-17.2,2.8
			c-2.1,0.4-3,1.6-2.6,3.7c0.5,2.6,2.3,1.3,3.7,1C13.9,460.2,19.2,459.2,24.6,458.2z"/>
		<path class="st21" d="M2,483.1c13.6,0,27.3-0.1,40.9-0.1c1.7,0,3.7-0.4,4.1,2.1C31.9,484.9,16.9,484.8,2,483.1z"/>
		<path class="st18" d="M380.5,480.6c-1.6,0.8-3.2,1.5-4.8,2.3c-5.9,1.5-11.5,4.1-17.6,4.9c0.6-4.5,4.8-2.3,7.1-3.4
			C369.9,482.2,374.9,479.7,380.5,480.6z"/>
		<path class="st22" d="M137.5,324.6c2.3,5.3,0.3,11,1.2,16.4c-0.1,2.7-0.1,5.4-0.2,8.1C137.8,341,137.3,332.8,137.5,324.6z"/>
		<path class="st21" d="M138.5,349.1c0.1-2.7,0.1-5.4,0.2-8.1c2,4.4,0.7,9.1,0.8,13.6c0,1.3-1.1,1.4-2.1,0.8
			C139.3,353.6,138,351.2,138.5,349.1z"/>
		<path class="st22" d="M128.1,322.2c2.7,0.3,5.5-0.8,8,0.9C133.5,322.8,130.8,322.5,128.1,322.2z"/>
		<path class="st19" d="M55.1,492.3c-0.1,0.3-0.2,0.5-0.3,0.8C54,492.4,55,492.6,55.1,492.3C55.2,492.3,55.1,492.3,55.1,492.3z"/>
		<path class="st11" d="M370.6,475.7l-0.4-0.1c0,0-0.4,0.3-0.4,0.3c-8.6,1.4-17.2,2.6-26,2.7c-2.5,0-5.1,0-7.6,0
			c-28.7,0.6-57.4,1.3-86.2,1.7c-15.5,0.2-31.1,0-48.2,0c3.3-5.2,6.8-7.6,8.2-11.5c2.6-8,8.4-9.6,16.4-9.9c24.4-1.1,48.7-3.1,73-5.1
			c28.4-2.3,56.3-8.2,84.2-13.8c8.7-1.7,9.1-1.5,8.6,7.6c-0.5,7.8-3.3,14.7-6.7,21.6c-1.2,2.4-3,3.4-5.4,3.9
			C377,474,373.8,474.9,370.6,475.7z"/>
		<path class="st11" d="M163.2,478.2c-24.9-6.4-49.9-10.9-75.5-4.6c-6.5,1.6-12.4,4.5-18.4,7.3c-7.4-0.1-14.8-0.2-22.1-0.3
			c-13.7-1.4-27.5-1.6-41.2-1c-2.7-3.8-3.1-6.6,2.8-7.2c13.6-1.4,27.1-3,40.7-4.4c24.8-2.6,49.6-6,74.2-10
			c21.4-3.5,42.6-7.5,64-11.2c6-1.1,11.5-4.2,18-3.7c2.6,0.2,3.4,0.7,3.5,3.2c0.3,5.7-0.2,11.3-1.2,16.9c-1.7,3.5-3.4,6.9-5.1,10.4
			c-2.3,4.7-5.8,6.5-11.1,6.3C182.1,479.2,172.6,479.9,163.2,478.2z"/>
		<path class="st21" d="M32.9,451.4c-6.4-2.9-2.5-6.2-0.3-9.5c16.1-2.8,32.2-5.5,48.3-8.3c41.6-7.1,83.2-14,124.3-23.2
			c38.8-8.6,77.8-13.2,117.5-8.8c0,0.9,0.1,1.8,0.1,2.7c-3.8-0.4-7.7-0.9-11.5-1.2c-1.1-0.1-2.4-0.2-2.6,1.5
			c-0.1,1.2-0.2,2.9,1.1,2.9c4.2-0.3,8.5,2.6,12.6-0.5c0.7,1.2,0.4,4.3,3.1,1.7c3.8,0.6,7.7,1.1,11.5,1.7c0,0.8-0.1,1.6-0.1,2.4
			c-2.9-0.4-5.8-0.6-8.7-1.2c-2.5-0.5-4,0.5-5,2.6c-0.3-1.1-0.4-2.3-1.6-2.8c-3.5-0.4-6.9-0.8-10.4-1.2c-1.6-0.2-2.6,0.4-2.6,2.2
			c0,1.3,0.2,2.6,1.7,2.5c3.4-0.3,6.8,2.3,10.1-0.3c0.4,1.4,0.4,3.4,2.6,1.4c4.6,0.7,9.2,1.5,13.8,2.2c0.1,0.8,0.2,1.7,0.2,2.5
			c-4.2-0.7-8.4-1.3-12.6-2c-2.6-0.4-3.4,1.4-3.8,3.3c-0.4,2.5,1.7,2.1,3.1,2.2c4.4,0.5,8.8,0.9,13.2,1.4c-0.1,0.8-0.1,1.6-0.2,2.5
			c-4.4-0.5-8.8-0.8-13.1-1.5c-3.3-0.6-5.5,0.3-6.6,3.6c-0.3-0.4-0.6-0.7-0.9-1.1c1.3-4.4-2-3.2-4.2-3.5c-4.2-0.6-3.4,2.3-3.4,4.7
			c-0.7-0.8-1.4-1.6-2.2-2.3c-0.3-0.7-0.4-1.9-0.9-2c-7.1-1.8-14.3-1.2-21.5-1c-1.8,0-1.9,1.6-1.9,3.1c-0.1,2.2,1.3,2.5,3.1,2.4
			c7-0.2,14-0.3,21.1-0.4c-1.1,2.1-3,1.4-4.7,1.4c-8.2,0-16.4,0-24.6,0c2.3-0.6,3.1-2.2,2.6-4.4c-0.5-2.3-2.3-1.7-3.8-1.6
			c-6.2,0.3-12.5,0-18.6,1.6c0-1,0.1-1.9,0.1-2.9c6.2-0.4,12.3-0.8,18.5-1.1c2-0.1,3.9-0.1,3.9-3c0-3.1-2-2.8-4-2.6
			c-6.2,0.4-12.3,0.9-18.5,1.4c0-0.9,0-1.9,0-2.8c6.4-0.3,12.7-0.7,19.1-1c1.9-0.1,3.5-0.4,3.3-2.9c-0.2-2.3-1.8-2.2-3.4-2.1
			c-6.4,0.3-12.8,0.2-19.1,1.6c0-0.9,0.1-1.9,0.1-2.8c6.4-0.4,12.8-0.8,19.2-1.2c1.7-0.1,3.1-0.4,3.1-2.6c0-2.3-1.7-2.2-3.3-2.1
			c-6.4,0.4-12.9,0.1-19.1,1.7c-0.8-1.3-1.7-1.4-2.5,0c-7,0.9-13.9,1.8-20.9,2.8c-1.9,0.3-4.1,0.5-3.6,3.4c0.6,3.1,2.7,1.3,4.1,1.1
			c6.8-0.9,13.5-1.9,20.3-2.8c0,0.9,0,1.7,0,2.6c-7.3,1-14.6,2.1-21.9,3.1c-1.8,0.2-2.8,1-2.6,3c0.2,2.5,1.9,2.1,3.3,1.8
			c7.1-1,14.2-2.2,21.2-3.3c-0.1,0.9-0.1,1.7-0.2,2.6c-7.1,1-14.2,2.2-21.3,3.1c-2.6,0.3-3.3,1.4-3.1,3.8c0.2,3.1,2.2,1.8,3.8,1.6
			c6.9-1,13.8-2,20.7-3c0,0.9,0,1.7,0,2.6c-6.3,0.8-12.5,1.8-18.8,2.3c-4.5,0.4-6.4,2.4-5.8,6.9c-1.3,1.4-2.6,2.9-4.9,2.2
			c2.9-1,3.1-3.4,2.4-5.7c-0.9-2.9-3.3-1.2-4.9-0.9c-5.7,0.9-11.4,2.2-17.1,3.3c0-0.9,0-1.7-0.1-2.6c6.7-1.2,13.4-2.4,20.1-3.7
			c2.4-0.4,2.3-2.3,2.1-4.1c-0.3-2.1-2-1.5-3.2-1.3c-5.5,1.1-11,2.4-16.6,3.5c-2.8,0.5-2.3,2.7-2.6,4.5c-0.7,0-1.3,0-2,0
			c-0.1-2.1-0.3-3.7-3.4-2.8c-3.7,1.1-7.6,1.9-11.4,2.3c-4.3,0.4-5.1,2.6-4.2,6.3c-0.8-0.4-1.6-0.8-2.4-1.1c-0.1-2.4-0.7-4-3.8-3.2
			c-4.3,1.1-8.6,2.1-12.9,2.6c-3.4,0.4-5.1,1.9-5.3,5.3c-0.5,0-1,0-1.6,0c-0.1-2.5-1-4-3.9-3.3c-3.6,0.8-7.2,1.9-10.9,2.1
			c-4.2,0.2-5.5,2.1-5,5.9c-0.7,0-1.5,0.1-2.2,0.1c0.1-3.1-0.3-5.2-4.5-3.8c-3.1,1-6.4,1.2-9.7,1.6c-2.7,0.3-4.2,1.7-4,4.5
			c-0.6,0-1.3,0-1.9,0c-0.1-2.3-0.7-3.5-3.5-2.8c-3.9,1-8,1.5-12,2c-4.1,0.5-5.9,2.3-4.5,6.5c-0.8-0.4-1.7-0.7-2.5-1.1
			c0.1-3.1-1.6-3.9-4.4-3.3c-3.8,0.8-7.6,1.9-11.4,2c-4.4,0.1-5.9,1.9-5.1,6c-0.8,0-1.6,0-2.4,0c0.3-3.6-0.6-5.1-4.8-3.9
			c-4.9,1.4-10.1,1.9-15.2,2.8c0-0.8,0-1.6,0.1-2.5c5.5-1,11.1-2,16.6-3c1.8-0.3,3.4-0.6,3.2-3.2c-0.3-3.1-2.5-1.9-3.9-1.7
			c-5.4,0.9-10.7,2-16,3c0-0.9,0-1.8,0-2.7c5.7-1,11.4-2,17.2-2.8c1.8-0.3,2.9-0.8,2.8-2.8c-0.1-2.6-2-2-3.4-1.7
			c-4.6,0.7-9.1,1.7-13.7,2.3c-3,0.4-3,2.4-3.1,4.6c-0.7,0-1.3,0-2-0.1c-0.2-2-0.3-3.9-3.4-3c-3,0.8-6,1.3-9.1,1.8
			c-1.8,0.3-3,0.6-2.6,2.8c0.4,2.3,2.1,2,3.5,1.7c3.8-0.7,7.6-1.6,11.4-2.4c0,1,0,1.9,0,2.9C42.9,449.9,37.9,450.7,32.9,451.4z
			 M294.4,414.6c0,0.1,0,0.1,0,0.2c3.1,0,6.2,0,9.3,0c1.2,0,2.3-0.2,2.4-1.8c0.1-1.5-0.2-2.8-1.9-3c-6.6-0.8-13.2-0.7-19.7-0.5
			c-1.6,0.1-2.3,1.1-2.4,2.7c-0.1,2.2,1.2,2.5,3,2.5C288.2,414.6,291.3,414.6,294.4,414.6z M295.8,422.3c1.5,0.1,4.6,0.2,7.7,0.5
			c2.1,0.1,2.7-1,2.7-2.8c0-1.6-0.4-2.7-2.2-2.7c-6.4-0.1-12.8-0.1-19.2-0.2c-1.6,0-2.6,0.6-2.6,2.4c-0.1,1.9,0.7,2.9,2.7,2.9
			C287.9,422.3,291.1,422.3,295.8,422.3z M295.5,407c1.8,0.1,4.7,0.3,7.6,0.5c1.4,0.1,2.9,0.2,3-1.8c0.1-1.5-0.4-2.9-2.1-2.9
			c-6.6-0.2-13.3-0.3-19.9-0.3c-1.4,0-1.9,1.1-2,2.4c0,1.5,0.9,2.1,2.2,2.1C287.7,407,291,407,295.5,407z M163.2,433.6
			c5.4-1.1,11-2.3,16.7-3.4c1.8-0.4,1.9-1.7,1.7-3.1c-0.2-1.6-1.4-1.7-2.6-1.5c-5.5,1-11,2.2-16.5,3.2c-2,0.4-2.4,1.7-2.2,3.4
			C160.5,433.7,161.7,433.7,163.2,433.6z M223.9,416.1c-5,1.1-10.7,2.4-16.4,3.5c-2.2,0.4-2.2,1.9-2,3.5c0.3,2.2,2.1,1.3,3.2,1.1
			c5.5-1.1,11-2.4,16.5-3.4c2.1-0.4,2.5-1.5,2.3-3.2C227.5,415.5,226,416,223.9,416.1z M181.6,419.9c0-0.6-0.4-1.6-1.6-1.4
			c-6.3,1.1-12.6,2.3-18.8,3.6c-1.3,0.3-1.2,1.9-0.9,3c0.4,1.7,1.6,1.2,2.8,1c5.1-1,10.3-2.1,15.4-3
			C180.2,422.8,181.6,422.5,181.6,419.9z M73.9,449.3c6.8-1.2,12.2-2,17.5-3c1.7-0.3,2.1-1.6,2-3.1c-0.2-2-1.6-1.8-3-1.6
			c-5.2,0.8-10.3,1.8-15.5,2.6c-2.3,0.3-2.1,1.9-2,3.5C73,449.5,74.2,449.3,73.9,449.3z M225.1,408.8c-5.9,1.3-11.8,2.6-17.7,3.8
			c-1.8,0.4-2,1.6-1.9,3.1c0.1,1.7,1.3,1.7,2.5,1.5c5.9-1.2,11.8-2.4,17.7-3.6c1.7-0.4,2.1-1.5,1.9-3
			C227.5,408.7,226.4,408.8,225.1,408.8z M98,445.2c5.7-1,10.7-1.8,15.6-2.7c1.8-0.3,2.7-1.2,2.5-3.2c-0.1-1.5-0.8-2.1-2.2-1.9
			c-5.3,0.9-10.7,1.9-16,2.9c-2,0.4-2.2,1.9-1.9,3.6C96.3,445.6,97.6,445.2,98,445.2z M142.5,437.4c3.7-0.7,8.1-1.7,12.4-2.4
			c2.1-0.3,3.3-1.1,3-3.3c-0.4-2.5-2.3-1.6-3.7-1.4c-4.4,0.7-8.8,1.7-13.2,2.3c-2.5,0.4-2.7,1.9-2.4,3.7
			C139,438.7,140.7,437.3,142.5,437.4z M75.3,441.8c5.4-0.9,10.5-1.8,15.7-2.7c1.4-0.3,2.5-1,2.5-2.7c-0.1-1.9-1.4-2-2.9-1.8
			c-5.3,0.9-10.7,1.8-16,2.7c-1.9,0.3-1.7,1.8-1.6,3.1C73.1,442.2,74.5,441.7,75.3,441.8z M116.1,432.7c0.1-1.4-0.2-2.6-1.8-2.4
			c-5.5,0.9-11.1,1.9-16.6,3c-1.7,0.3-1.9,1.7-1.7,3.2c0.3,1.7,1.4,1.4,2.6,1.2c4.9-0.9,9.9-1.8,14.9-2.7
			C114.9,434.8,116.2,434.5,116.1,432.7z M141.7,430.1c4.5-0.8,9.5-1.6,14.5-2.6c1.6-0.3,2.1-1.7,1.7-3.2c-0.4-1.6-1.7-1.3-2.9-1.1
			c-4.8,0.8-9.6,1.7-14.4,2.5c-1.8,0.3-2.1,1.5-2,3C138.9,430.3,140,430.2,141.7,430.1z M203.1,423.3c0.1-1.8-0.5-2.7-2.4-2.3
			c-4.9,1.1-9.8,2.2-14.8,3.2c-1.8,0.4-1.9,1.6-1.8,3.1c0.2,2.1,1.7,1.8,3,1.6c4.4-0.8,8.8-1.7,13.1-2.7
			C201.8,425.8,203.4,425.4,203.1,423.3z M203.1,416.3c0.1-1.6-0.4-2.7-2.3-2.3c-5,1.1-9.9,2.1-14.9,3.2c-1.8,0.4-1.9,1.7-1.8,3.1
			c0.2,1.7,1.4,1.6,2.6,1.3c4.8-1,9.5-2.1,14.3-3C202.3,418.2,203.2,417.7,203.1,416.3z M120.1,441.4c5.1-1,9.7-1.8,14.2-2.6
			c1.8-0.3,1.9-1.6,1.9-3c0-1.5-0.8-2.1-2.2-1.8c-4.6,0.8-9.1,1.6-13.7,2.5c-1.7,0.3-1.8,1.7-1.8,3.1
			C118.6,440.9,119,441.7,120.1,441.4z M122.5,433.6c3.1-0.6,7.3-1.5,11.5-2.1c1.8-0.3,2.2-1.3,2.1-2.8c-0.1-2.1-1.4-2-2.8-1.7
			c-4.2,0.7-8.4,1.5-12.6,2.2c-1.7,0.3-2.3,1.3-2.2,2.9C118.6,434,120.1,433.8,122.5,433.6z M313.3,423.1c2.2,0,5,0.7,4.8-2.6
			c-0.3-4.1-4-2.3-6.3-3c-2-0.6-3.3,0.1-3.4,2.6C308.5,424.1,311.4,422.7,313.3,423.1z"/>
		<path class="st21" d="M163.2,478.2c9.4,1.7,18.9,1.1,28.4,1.5c5.4,0.2,8.9-1.6,11.1-6.3c1.7-3.5,3.4-6.9,5.1-10.4
			c0.6,2-1.5,5.1,2.3,5.9c-1.3,3.9-4.9,6.3-8.2,11.5c17.1,0,32.7,0.2,48.2,0c28.7-0.4,57.4-1.2,86.2-1.7c2.5-0.1,5.1,0,7.6,0
			c-3.4,2.9-8.1,0.9-11.6,3.1c-10.3,0.3-20.6-0.6-30.8,1c-32.2-0.3-64.3-0.5-96.5-0.9c-3.6,0-6.9,0.4-9.9,2.4
			c0.6-2.7-0.1-3.7-3.1-3.6c-7.9,0.2-15.9,0.1-23.8,0C166.3,480.5,163.7,481.4,163.2,478.2z"/>
		<path class="st20" d="M391.3,419.6c0.1,4.4,0.1,8.8,0.2,13.2c-1.1,0.2-2.2,0.4-3.2,0.7c1.8-4.2,0.7-6-4.1-5.9
			c-5,0.1-10.1-0.4-15.1-0.7c-1-0.1-1.9-0.1-2.9-0.2c-0.4-0.3-0.8-0.6-1.2-0.9c0.1-0.6,0.2-1.2,0.2-1.7c1.7-1.9,1.3-3.7-0.1-5.6
			c0-0.7,0-1.4,0.1-2c2-2.8,1.5-4.4-2.1-5.2c-6.6-1.4-13.2-2.8-19.7-4.4c-3.6-0.8-4.4,0.9-3.8,4c0,1,0,2.1-0.1,3.1
			c0,1.4,0,2.8,0,4.2c0,1,0,2,0,2.9c0.4,2-1.3,4.8,2.1,5.7c0,0.7,0,1.4,0,2c-2.6,0-2.3,2-2.5,3.7c-0.8,0.3-1.6,0.7-2.4,1
			c0.6-1.8,0.6-3.6,0.1-5.5c0.1-0.8,0.1-1.6,0.2-2.5c0-1.7,0-3.3,0-5c-0.1-0.8-0.2-1.7-0.2-2.5c0.6-1.8,0.5-3.5,0.1-5.3
			c0-0.8,0.1-1.6,0.1-2.4c-0.1-1.9,1.3-4.6-2.1-4.7c-3.3-0.1-7.6-3-9.5,2.5c-1.2-5.4,2.5-5.1,6-5.1c3.3,0.1,6.5,0.2,9.8,0.9
			c8.9,1.9,17.8,3.6,26.7,5.4c4.5,1.6,9.2,0.8,13.8,0.9C390.9,410.6,390.9,410.5,391.3,419.6z M378.3,420.1c0-0.1,0-0.2,0-0.4
			c-2.1,0-4.3,0-6.4,0c-1.5,0-3.2-0.2-3.2,2.2c-0.1,2.4,1.2,3,3.2,3c4.7,0.1,9.4,0.2,14.1,0.4c1.8,0.1,3-0.4,3-2.5
			c0-2.1-1.1-2.7-2.9-2.7C383.4,420.1,380.9,420.1,378.3,420.1z M378.7,417.4c0,0,0,0.1,0,0.1c2.3,0.1,4.7,0.2,7,0.4
			c1.8,0.1,3.1-0.2,3-2.4c0-1.7-0.8-2.5-2.5-2.5c-5.1-0.1-10.1-0.2-15.2-0.4c-1.6,0-2.5,0.5-2.5,2.4c0,1.8,0.9,2.4,2.5,2.4
			C373.7,417.4,376.2,417.4,378.7,417.4z"/>
		<path class="st2" d="M230.1,436c-0.6-4.5,1.3-6.5,5.8-6.9c6.3-0.5,12.6-1.5,18.8-2.3c0.2,2.3,0.5,4.5-0.4,6.7
			c-1.4,0.1-2.8,0.3-4.2,0.4c-4,0.5-8.1,0.5-11.9,2.1C235.5,435.5,232.8,437.1,230.1,436z"/>
		<path class="st2" d="M255.4,438.5c1.4-0.1,2.7-0.3,4.1-0.4c1.7,0.2,3.4,0.3,6.1,0.6c-7.5,3.3-14,6.1-20.5,8.9
			c-0.7,0.2-1.4,0.4-2.1,0.7c-1.2,0.6-2.5,1.1-3.7,1.7c-5.7,1.4-11,4.9-17.9,3.1c7.7-3.4,14.8-6.5,22-9.6c2.2-0.5,4.3-1.1,6-2.6
			c0.3,0.1,0.6,0,0.9-0.3C251.8,439.9,253.6,439.2,255.4,438.5z"/>
		<path class="st20" d="M245,447.6c6.5-2.8,13-5.6,20.5-8.9c-2.7-0.3-4.4-0.4-6.1-0.6c1.1-3.3,5.3-2.4,5.5-1.7
			c1.3,4.5,6,3.5,8.5,5.9c-2.7-0.8-5.3-1-7.3,1.7c2.2,1.3,4.3,2.5,6.4,3.7c-1.6,0.1-3.3-0.2-3.5,2.1c-6.2-4.1-12.5-4-18.8-0.1
			c-0.6,0.4-1.5,0.4-2.2,0.5C247.7,448.5,246.6,447.7,245,447.6z"/>
		<path class="st2" d="M339.1,432.5c0.2-1.7-0.1-3.7,2.5-3.7c7,1.5,14,3.3,21.1,4.6c3.1,0.6,3.8,2.1,3.4,4.8
			C356.7,438.2,347.8,435.9,339.1,432.5z"/>
		<path class="st2" d="M306.3,429.9c-7,0.1-14,0.3-21.1,0.4c-1.7,0-3.1-0.2-3.1-2.4c0-1.4,0.1-3,1.9-3.1c7.2-0.2,14.4-0.8,21.5,1
			c0.4,0.1,0.6,1.3,0.9,2C306.4,428.5,306.3,429.2,306.3,429.9z"/>
		<path class="st2" d="M257.2,426.8c6.1-1.6,12.4-1.3,18.6-1.6c1.5-0.1,3.3-0.7,3.8,1.6c0.5,2.3-0.3,3.8-2.6,4.4
			c-1.9,0.1-3.9,0.2-5.8,0.2c-2.7,0.2-5.4,0.2-8,0.7C258.6,433.2,256.3,431.9,257.2,426.8z"/>
		<path class="st2" d="M205.3,431.3c0.3-1.8-0.2-4,2.6-4.5c5.5-1.1,11-2.4,16.6-3.5c1.2-0.2,2.9-0.9,3.2,1.3
			c0.2,1.8,0.4,3.6-2.1,4.1c-6.7,1.2-13.4,2.4-20.1,3.7C205.5,432,205.5,431.7,205.3,431.3z"/>
		<path class="st21" d="M366.1,438.2c0.5-2.7-0.2-4.3-3.4-4.8c-7.1-1.3-14.1-3-21.1-4.6c0-0.7,0-1.4,0-2c6.6,1.3,13.3,2.3,19.8,4
			c4.4,1.2,5.2-0.4,4.7-4.1c1,0.1,1.9,0.1,2.9,0.2c-1.6,4.7,0.4,6,5,5.9c4.5-0.1,9.2-0.4,13.7,0.8c-3.6,0.9-7.4-0.9-10.9,1.3
			c-1.9,0-3.8,0.2-5.7,0.1c-2.6-0.1-2.8,1.3-2.2,3.2C368,438.2,367.1,438.2,366.1,438.2z"/>
		<path class="st2" d="M50.5,456c5.1-0.9,10.3-1.4,15.2-2.8c4.2-1.2,5.1,0.3,4.8,3.9c-4.7,2.6-10.2,2.5-15.2,4.4
			C50.8,463.3,49.6,460,50.5,456z"/>
		<path class="st2" d="M72.9,457.1c-0.8-4.1,0.7-5.9,5.1-6c3.8-0.1,7.6-1.2,11.4-2c2.8-0.6,4.5,0.2,4.4,3.3
			C87.4,456.5,80,456,72.9,457.1z"/>
		<path class="st2" d="M159.9,440.7c0.1-3.4,1.8-4.9,5.3-5.3c4.4-0.5,8.7-1.5,12.9-2.6c3.1-0.8,3.7,0.8,3.8,3.2
			c-0.2,0.2-0.2,0.5-0.1,0.8c-6.6,3.4-14,3-20.9,5.1C160.6,441.5,160.3,441.1,159.9,440.7z"/>
		<path class="st2" d="M278.3,440.7c-0.1-0.8-2.8-1.2-0.2-2.7c2.6-1.5,4.6,0.2,6.9,0.4c5.3,2.4,10.6,4.6,15.8,7.1
			c1.2,0.6,3.9,0.3,3.2,3.1c-3.8-0.1-7.7,0.9-11.4-1C288,444.9,283.3,442.5,278.3,440.7z"/>
		<path class="st2" d="M96.3,453.5c-1.5-4.2,0.3-6,4.5-6.5c4-0.5,8.1-1,12-2c2.9-0.7,3.4,0.5,3.5,2.8c-0.1,0.7-0.2,1.4-0.2,2.1
			c-6.2,1.2-12.4,2.5-18.6,3.7C97.1,453.5,96.7,453.5,96.3,453.5z"/>
		<path class="st2" d="M138.6,445.4c-0.5-3.8,0.8-5.7,5-5.9c3.7-0.2,7.3-1.2,10.9-2.1c3-0.7,3.8,0.8,3.9,3.3
			c-0.7,0.8-1.5,1.6-2.2,2.3C150.2,443,144.6,445.8,138.6,445.4L138.6,445.4z"/>
		<path class="st2" d="M27,464.2c0-1.2,0.1-2.3,0.1-3.5c7-1.4,13.9-3.6,21.1-3.7c0.6,3.6-1.1,5.6-4.7,5.7
			C37.9,462.8,32.6,465.7,27,464.2z"/>
		<path class="st2" d="M205.6,435c5.7-1.1,11.4-2.4,17.1-3.3c1.6-0.3,4-2,4.9,0.9c0.7,2.3,0.5,4.7-2.4,5.7c-2.1,0.3-4.2,0.8-6.3,1
			c-1.3,0.1-3.7,0.4-3.8,0c-1.7-4.2-4.7-2.8-7.6-2.1C205.8,437.5,205.4,436.4,205.6,435z"/>
		<path class="st2" d="M184.4,437.2c-1-3.7-0.2-5.9,4.2-6.3c3.8-0.4,7.7-1.2,11.4-2.3c3.1-0.9,3.3,0.7,3.4,2.8
			c-0.1,0.7-0.2,1.4-0.3,2.1C196.8,434.7,190.6,435.9,184.4,437.2C184.4,437.2,184.4,437.2,184.4,437.2z"/>
		<path class="st2" d="M387.7,433.5c-4.5-1.2-9.1-0.9-13.7-0.8c-4.5,0.1-6.6-1.1-5-5.9c5,0.2,10.1,0.8,15.1,0.7
			c4.8-0.1,5.9,1.8,4.1,5.9c0,0-0.3-0.1-0.3-0.1L387.7,433.5z"/>
		<path class="st2" d="M32.9,451.4c5-0.7,10-1.5,15-2.2c0,1.4,0.1,2.8,0.1,4.2c-4.9,0.8-10,5.4-15.7-3.1c2.7,8.6-1.9,6.8-5.3,6.7
			C25.8,451.9,30.5,452.8,32.9,451.4z"/>
		<path class="st2" d="M50.4,448.7c5.3-1,10.7-2.1,16-3c1.5-0.2,3.6-1.4,3.9,1.7c0.3,2.5-1.4,2.8-3.2,3.2c-5.5,1-11.1,2-16.6,3
			C50.5,451.9,50.5,450.3,50.4,448.7z"/>
		<path class="st2" d="M318.1,445.5c-3.5,4.3-7,2.4-10.4-0.2c-5.9-2.7-11.8-5.3-17.7-8c-0.2-0.1-0.4-0.1-0.5-0.3
			c-0.2-0.2-0.4-0.4-0.5-0.6c4.5-1.3,8.5,0.5,12.6,2C306.8,441.3,312.4,443.7,318.1,445.5z"/>
		<path class="st20" d="M257.2,426.8c-1,5.1,1.3,6.4,6,5.4c2.6-0.5,5.3-0.5,8-0.7c-0.6,2.8-2.9,2.1-4.7,2.1c-4.1,0-8.2-0.1-12.2-0.1
			c0.9-2.2,0.6-4.4,0.4-6.7c0-0.9,0-1.7,0-2.6c-0.1-1.8-0.1-3.6-0.2-5.5c0.1-0.9,0.1-1.7,0.2-2.6c0-1.5-0.1-3.1-0.1-4.6
			c0-0.9,0-1.7,0-2.6c0-1.5,0-3,0-4.5c0.9-1.3,1.7-1.3,2.5,0c0,1.4,0.1,2.8,0.1,4.2c0,0.9-0.1,1.9-0.1,2.8c0,1.4,0,2.9,0,4.3
			c0,0.9,0,1.9,0,2.8c0,1.8,0,3.5,0,5.3C257.3,424.9,257.3,425.9,257.2,426.8z"/>
		<path class="st2" d="M336.8,428.1c0.5,1.8,0.5,3.7-0.1,5.5c-0.5,0-1,0-1.6,0c-4.8-1.5-9.7-1.9-14.6-2c-1.1-0.5-2.7,0.2-3.4-1.4
			c1.1-3.3,3.2-4.2,6.6-3.6C328,427.3,332.4,427.6,336.8,428.1z"/>
		<path class="st2" d="M118.3,447.8c-0.2-2.8,1.3-4.2,4-4.5c3.2-0.4,6.6-0.6,9.7-1.6c4.2-1.4,4.5,0.7,4.5,3.8
			c-0.2,0.3-0.3,0.7-0.4,1c-5.8,0.9-11.6,1.7-17.5,2.6C118.4,448.6,118.3,448.2,118.3,447.8z"/>
		<path class="st2" d="M247.9,450.3c0.7-0.2,1.6-0.1,2.2-0.5c6.3-3.9,12.5-4,18.8,0.1c0.3,0.5,0.7,0.9,1,1.4
			c-3.6,0.3-7.4-0.3-10.9,1.1c-4.6,0-9.1,0.1-13.7,0.1C246.2,451.7,247,451,247.9,450.3L247.9,450.3z"/>
		<path class="st2" d="M272.4,447.8c-2.1-1.2-4.2-2.4-6.4-3.7c2.1-2.7,4.6-2.5,7.3-1.7c0.7,0.3,1.4,0.6,2.1,0.9
			c3.8,2.5,7.9,4.2,12.1,5.7c-1,2.3-3.3,0.5-4.7,1.5c-3.4,0.2-6.4-1-9.4-2.3C273.2,448,272.8,447.9,272.4,447.8z"/>
		<path class="st1" d="M304.3,436.9c0.9-1.4,2-2.5,3.8-2c7.7,2.2,15,5.5,22.9,9.2c-4.8,2.8-7.9-0.8-11.5-1.2
			C314.6,440.5,309.7,438,304.3,436.9z"/>
		<path class="st2" d="M4.7,466.5c0.1-2.4,2-2.4,3.6-2.7c5.4-1,10.9-2,16.3-3c0,1.5,0,3-0.1,4.5C17.9,465.5,11.4,467.4,4.7,466.5z"
			/>
		<path class="st21" d="M290,437.4c5.9,2.7,11.8,5.3,17.7,8c-1.7,0.7-1,4-3.8,3.4c0.8-2.8-1.9-2.5-3.2-3.1
			c-5.2-2.5-10.5-4.8-15.8-7.1C286.7,438.2,288.6,439,290,437.4z"/>
		<path class="st2" d="M48,446.3c-3.8,0.8-7.6,1.6-11.4,2.4c-1.5,0.3-3.1,0.6-3.5-1.7c-0.4-2.2,0.8-2.5,2.6-2.8
			c3.1-0.5,6.1-0.9,9.1-1.8c3-0.9,3.2,1,3.4,3C48,445.7,48,446,48,446.3z"/>
		<path class="st21" d="M27.1,457c3.4,0.1,8,1.9,5.3-6.7c5.7,8.4,10.8,3.9,15.7,3.1c0,1.2,0.1,2.4,0.1,3.6
			c-7.2,0.1-14.1,2.2-21.1,3.7C27.1,459.5,27.1,458.3,27.1,457z"/>
		<path class="st21" d="M97.5,453.6c6.2-1.2,12.4-2.5,18.6-3.7c0.2,3.2-0.2,5.1-4.6,4.2c-3-0.7-6.5,0.2-9.4,2.1
			C99,458,98,456.4,97.5,453.6z"/>
		<path class="st1" d="M203.1,436.1c-0.6,5.2-5.1,4-8.1,4.5c-2.6,0.5-5.3,0.4-7.9,1.4c-3.2,1.3-3.3,1-2.9-2.7
			C190.5,438.3,196.8,437.2,203.1,436.1z"/>
		<path class="st20" d="M304.3,436.9c5.5,1,10.3,3.6,15.2,6.1c-1,0.5-1.2,1.5-1.3,2.5c-5.7-1.8-11.3-4.2-16.6-7.1
			C302.7,438.3,303.7,438.1,304.3,436.9z"/>
		<path class="st20" d="M287.6,449c-4.2-1.6-8.3-3.3-12.1-5.7c1.5-0.1,2.7-0.7,2.8-2.5c5,1.8,9.7,4.2,14.3,7
			C290.9,448,288.9,447.2,287.6,449z"/>
		<path class="st2" d="M346.9,441.1c-7.5,4.3-12.7,0.2-19.6-2.4C334.6,437.8,340.3,439.5,346.9,441.1z"/>
		<path class="st21" d="M5.9,479.5c13.8-0.6,27.5-0.4,41.2,1c-12.5,0-25,0-37.5,0.1C8.3,480.6,6.9,480.7,5.9,479.5z"/>
		<path class="st1" d="M181.8,441c-6.4,4.1-13.9,3.7-21,5c-0.6,0.1-0.6-1.2,0-1.9C167.9,443.3,174.6,440.4,181.8,441z"/>
		<path class="st21" d="M181.8,441c-7.2-0.6-14,2.3-21,3.1c0-0.7,0.1-1.5,0.1-2.2c6.9-2.1,14.4-1.7,20.9-5.1
			C181.8,438.2,181.8,439.6,181.8,441z"/>
		<path class="st21" d="M203.1,436.1c-6.3,1.1-12.5,2.2-18.8,3.2c0-0.7,0.1-1.4,0.1-2.2c6.2-1.2,12.4-2.5,18.7-3.7
			C203,434.3,203.1,435.2,203.1,436.1z"/>
		<path class="st1" d="M156.2,444.8c1.2,0.2,2.9,1.2,0.9,1.8c-5.8,1.6-11.7,2.5-17.6,3.2c-1.2,0.1-0.4-1.4,0.2-2.1
			C145.2,446.7,150.7,445.8,156.2,444.8z"/>
		<path class="st21" d="M118.5,449.1c5.8-0.9,11.6-1.7,17.5-2.6c1.6,1.5-1.1,1.3-0.9,2.2c-5.4,0.9-10.8,1.9-16.3,2.8
			C118.7,450.7,118.6,449.9,118.5,449.1z"/>
		<path class="st21" d="M156.2,444.8c-5.5,1-11,1.9-16.5,2.9c-0.4-0.8-0.8-1.6-1.1-2.4c6,0.4,11.6-2.3,17.6-2.3
			C156.2,443.6,156.2,444.2,156.2,444.8z"/>
		<path class="st2" d="M308.6,430.2c0-2.4-0.8-5.3,3.4-4.7c2.2,0.3,5.5-0.9,4.2,3.5c-0.1,0.4-0.2,0.8-0.3,1.2c-0.5,0.3-1,0.7-1.5,1
			c0,0-0.3-0.1-0.3-0.1s-0.3,0.1-0.3,0.1c-1.7-0.3-3.4-0.6-5-0.8L308.6,430.2z"/>
		<path class="st1" d="M118.8,451.6c5.4-0.9,10.8-1.9,16.3-2.8c0.7,0.4,1.4,1.4,0.5,1.7c-5.4,1.4-10.9,2.7-16.5,2.7
			C119,453.1,118.9,452.1,118.8,451.6z"/>
		<path class="st1" d="M228.2,444.7c-3.7,1.6-6.3,2.9-9,3.8c-1,0.4-2.6,1.9-3.2-0.5c-0.4-1.7,0.8-2.4,2.3-2.6
			C221.2,445.1,223.9,443.5,228.2,444.7z"/>
		<path class="st1" d="M369,438.1c-0.5-2-0.4-3.4,2.2-3.2c1.9,0.1,3.8-0.1,5.7-0.1c1,0.1,1.9,0.3,4,0.5
			C376.2,436.4,372.6,437.3,369,438.1z"/>
		<path class="st20" d="M320.5,431.5c4.9,0.2,9.9,0.5,14.6,2c-3.5,0-7,0.1-10.5,0.1C322.9,433.7,321,434,320.5,431.5z"/>
		<path class="st20" d="M273.6,448.1c3,1.3,6,2.5,9.4,2.3C278.5,455.1,276,451.8,273.6,448.1z"/>
		<path class="st20" d="M238.2,436c3.8-1.6,7.9-1.6,11.9-2.1C246.8,438.3,242.1,435,238.2,436z"/>
		<path class="st20" d="M393.4,432.9c4.4-2,6.9-1,6.7,4.2C398.3,435.2,396.4,433.2,393.4,432.9z"/>
		<path class="st20" d="M259,452.3c3.5-1.5,7.2-0.8,10.9-1.1C266.5,453.8,262.6,451.9,259,452.3z"/>
		<path class="st20" d="M249.2,440.8c-1.8,1.5-3.9,2.1-6,2.6C243.7,439,247,441.3,249.2,440.8z"/>
		<path class="st20" d="M247.9,450.2c-0.8,0.7-1.7,1.5-2.5,2.2c-0.7-0.1-1.8-0.2-1.4-1.1C244.8,449.8,246.4,450.1,247.9,450.2z"/>
		<path class="st20" d="M255.4,438.5c-1.8,0.7-3.5,1.4-5.3,2C250.9,437.3,253.4,438.7,255.4,438.5z"/>
		<path class="st21" d="M308.8,430.3c1.7,0.3,3.4,0.6,5,0.8C312.1,431.3,310.2,431.9,308.8,430.3z"/>
		<path class="st20" d="M239.1,450c1.2-0.6,2.5-1.1,3.7-1.7C242.4,450.4,240.7,450,239.1,450z"/>
		<path class="st21" d="M314.3,431.2c0.5-0.3,1-0.7,1.5-1C315.3,430.5,314.8,430.9,314.3,431.2z"/>
		<path class="st11" d="M195.2,484.2c3-2,6.2-2.5,9.9-2.4c32.2,0.4,64.3,0.6,96.5,0.9c2.9,0.1,5.7,0,8.6,0.3c4.7,0.4,9.5-1.4,14,1
			c-30.7,4.7-61.4,8.1-92.5,5.8C219.4,489,207,488.3,195.2,484.2z"/>
		<path class="st18" d="M332.3,481.7c3.5-2.3,8.2-0.2,11.6-3.1c8.7-0.1,17.4-1.3,26-2.7c-2.7,4.4-8.2,3.9-11.6,4.1
			c-8.7,0.7-17.3,1.6-25.9,2.9C332.3,482.6,332.3,482.1,332.3,481.7z"/>
		<path class="st18" d="M398.1,468.9c1.7-0.7,3.4-1.3,5.2-2c1.4-0.4,2.8-0.8,4.2-1.1c1.7-0.3,3.1-0.9,4.8-1.5c1-0.1,1.7-0.4,2.7-0.6
			c0.5-0.2,1.4-0.3,1.9-0.5c0,0,0.1-0.1,0.1-0.1c0.6,0,1.2-0.1,1.7,0.1c1.7,0.6,0.3,0.9-0.2,1.2c-3.7,1.9-7.4,3.8-11.1,5.7
			C404.6,467.7,401.2,469.4,398.1,468.9z"/>
		<path class="st3" d="M332.3,481.7c0,0.4,0,0.8,0,1.2c-2.8,0.1-5.4,1.7-8.2,1c-4.5-2.4-9.3-0.6-14-1c-2.8-0.3-5.7-0.2-8.6-0.3
			C311.8,481.1,322.1,482.1,332.3,481.7z"/>
		<path class="st18" d="M387.6,478.3c-1,1.2-2.3,1.2-3.7,1.2C384.8,478,386.2,478.3,387.6,478.3z"/>
		<path class="st18" d="M392.6,476.1c-1,1.3-2.5,1.2-3.9,1.6C389.4,475.5,391.1,476,392.6,476.1z"/>
		<path class="st2" d="M322.7,401.8c-39.7-4.5-78.7,0.2-117.5,8.8c-41.2,9.1-82.8,16-124.3,23.2c-16.1,2.8-32.2,5.5-48.3,8.3
			c2.2-7.8,4.3-15.7,6.6-23.5c0.7-2.5,3.1-3.4,5.1-4.5c21.6-11.6,44.5-19.8,67.8-27.3c5.8-1.9,11.4-3.6,14.6-9.4
			c0.5,0.5,1,1.1,1.6,1.6c-0.2,2.7-0.2,2.6,2.7,1.8c26.1-7.5,52.4-13.7,79.5-16c7.8-0.7,8-0.8,4.6-7.4c0.5-0.4,0.9-0.8,1.4-1.1
			c1.8,2.6,3.7,5.1,5.5,7.7c-0.3,2.9-3.6,1.1-4.7,2.9c-2.1,0.5-4.3-0.1-6.2,1.3c-0.3-0.2-0.5-0.2-0.8,0.1c-4.4-0.3-8.6,1-12.8,1.6
			c-1.2,0.3-2.4,0.6-3.6,0.9c-4.1,0-8,0.8-11.8,2.1c-0.8,0.1-1.5,0.2-2.3,0.4c-28.6,5.1-56.3,13.2-83.4,23.5c-0.5,0.2-1,0.5-1.5,0.7
			l0.1-0.1c-3.6,1-7.2,1.9-10.4,3.9c-0.4,0.1-0.8,0.2-1.1,0.3c-1.4,0.6-2.8,1.3-4.2,1.9c-0.2-0.1-0.4-0.1-0.5,0.2
			c-2.2,0.3-4.2,1-5.9,2.4c-0.4,0.1-0.8,0.2-1.1,0.3c-1.3,0.6-2.6,1.3-4,1.9c-0.3-0.1-0.6,0-0.7,0.3c-2,0.7-3.5,1.9-4.2,4.8
			c3.1-1,5.6-1.7,8.1-2.5c1.1-0.2,2.1-0.3,3.2-0.5c2.2-0.6,4.5-0.4,6.5-1.9c2.8,0.7,4.1-2.5,6.5-2.7c1.5,2.3,3.2,1.2,4.9,0.3
			c2.9-0.5,5.7-1.3,8.6-1.4c3-0.1,4.5-3,7.8-2.8c6.7,0.4,13.2-0.3,17.6-6.5c0.7-1,1.5-2.1,3.6-2c-1,2-1.7,3.5-2.8,5.8
			c4.4-1.1,8.2-1.8,11.8-3c1.5-0.5,2.4-2.6,3.9-3.5c4-2.3,0.2,3.2,2.6,2.7c0.4-0.1,0.8,0,1.2-0.1c4.6-1.4,9.8-0.9,13.6-4.6
			c0.8,0,1.6,0,2.4,0c0.3,2.5,2.3,0.7,3.4,1.3c0,0.6-0.1,1.2-0.1,1.8c-3.7,0.3-6.7,1.5-7.4,5.8c-0.1,0.9-0.9,2-2,1.6
			c-1.7-0.6-0.7-1.8-0.3-2.8c0.3-0.7,0.4-1.5-0.7-2.4c-3.4,0.9-7.1,1.8-10.8,2.7c-0.7,0.2-1.5,0.4-2.2,0.6c-1.8,1-2,2.7-2.3,4.5
			c-0.3,0.1-0.3,0.3-0.2,0.6c-0.7,1.4-1.4,2.7-2.1,4.1l0,0c-0.4,0.1-0.8,0.2-1.2,0.3c-1.3-2.8,1.4-5.3,0.8-8.1
			c-10.3-0.4-14,1.5-16.1,8.7c-1.2,0.3-0.7,3-2.6,2.1c-0.4-0.2,0.1-2,0.1-3c-0.1-1.6,2.2-3.2,0.2-4.6c-2.4-1.7-12.9,3.2-14.2,6.5
			c-2.6,1.5-3.1,1.3-2.7,0.2c1.4-4-0.7-3.1-3-2.5c-3.3,0.8-6.8,1-9.9,2.5c-1,0.1-2,0.3-3,0.4c-1.4,0-2.1,0.7-2.3,2.1
			c-2,2-2.1,5.4-5.5,7.4c0.9-3.1,1.7-5.5,2.6-8.5c-5.6,1.3-10.7,2.2-15.8,3.6c-1.8,0.5-4.6,0-5,3c-0.4,0.4-1.1,1.1-1.3,1
			c-6.4-3.1-11.7,0.1-17.1,2.9c-1.2,3.3-2.5,6.5-2.7,10.1c-1.1,1.4-2,3.5-1,4.6c1.3,1.5,3.5,0.6,5.1-0.4l0.4,0.1l0.4-0.2
			c3.3-0.2,6.5-0.7,9.5-2.2l0,0.1c11.4-0.2,22.2-3.5,32.8-7.1l0,0.1c3.8-0.1,7.4-1,11-2.4l0.4,0.1c0,0,0.3-0.2,0.3-0.2
			c7.2-0.9,14.3-2.4,21.2-4.6c0.8-0.1,1.5-0.2,2.3-0.3c2.9-0.4,5.9-0.6,8.6-2l0.4,0.1c0,0,0.3-0.2,0.3-0.2c7-0.9,13.9-2.3,20.6-4.5
			l0.3,0.2l0.3-0.2c5-0.8,10-1.5,14.9-2.4c17.8-3.1,35.5-6.2,53.3-9.2l0,0c4.9-0.3,9.7-0.9,14.3-2.4c0.7-0.1,1.3-0.2,2-0.2
			c3.8-0.4,7.7-0.5,11.2-2.1l0.2,0.2c0,0,0.3-0.2,0.3-0.2c4-0.5,8.1-0.9,12.1-1.5c11.1-1.7,12.9-4.7,9.9-15.9
			c-0.3-1.1-0.4-2.8-1.8-2.6c-5.2,0.7-10.7,0.7-15.3,2.8c-3.2,1.4-2.6,6.4-2.4,10c-0.1,0.9-0.3,1.7-0.4,2.6
			c-1.9-3.6,0.7-8.7-1.9-11.2c-2.8-2.7-7.3,0.7-11.1,0.7c-0.3,0-0.6,0.4-0.9,0.7l-0.1-0.1c-3.7-0.5-5.7,1.2-6.3,4.8
			c-0.4,2.4-1,4.8-1.5,7.3c-0.4,0.3-0.8,0.6-1.2,1c0-2.7-0.1-5.4-0.1-8c0-0.6,0.1-1.5-0.1-1.6c-3.1-1.8-17.9-0.3-20,2.2
			c-0.8,0.9-0.8,2.5-1.2,3.8c-1.7,1.8-1,4.9-3.3,6.4c-1.4-1.7-3.1-3.3-1.8-5.8c0.9-1.9-0.3-2.2-1.7-2.4c-1.6-0.1-3.1-0.1-4.7-0.2
			c-3.6,0.1-7.3,0.3-10.4,2.4c-0.3,0.2-0.4,0.5-0.3,0.8c-1.1,0.6-1.1,1.6-1.1,2.6c-0.6,1.2-1.2,2.3-1.7,3.5
			c-0.2,0.4-0.4,0.8-0.6,1.2c-1.7,0.2-2.6-0.1-1.9-2.2c0.6-1.6,0.9-3.3,1.3-4.9c1.7-2.2-1.4-2.1-1.7-3.3c2.6-0.2,3.9-2.4,5.8-3.6
			c0.7,0.4,1.5,0.8,2.2,1.2c1.5-0.1,3.1,0.1,4.6-0.2c4.7-0.9,10.9-0.5,13.8-3.3c4.2-4.1,7.4,0.5,11.1-1c5.9-2.2,13-1.3,17.6-7.1
			c-0.1,3.4,2,3.9,4.6,3.3c5.6-1.3,12.7,0.2,15.1-8.1c-0.6,4.7,0.5,6.6,4.9,4.8c1-0.4,2.3-0.3,3.4-0.5c8.4-1.6,8.4-1.6,3.9-9.2
			c-0.1-0.3-0.1-0.7-0.2-1c1.2-2.1,2.4-0.4,3.7-0.1c0.3,2.4,1.5,4.4,3.4,5.8c0.7,0.8,1.4,1.6,2.2,2.4c9.9,2.8,20.2,1.1,30.1,4.1
			c0.1-0.5,0.1-1,0.2-1.5c-3.9-2.4-7.9-4.8-11.8-7.2c1-0.1,1.9-0.1,2.9-0.2C312.5,372.3,318.5,386.3,322.7,401.8z M296.9,383.5
			c-1.8-6.2-6.2-6-10.6-6.3c-13.4-1-13.4-1.1-11.8,12.1c0.3,2.3,0.7,3.4,3.3,3.7c13.3,1.3,26.6,2.8,40.6,4.3c-2-3.9-4.1-7-5.3-10.4
			c-2.1-5.8-6.2-7.7-11.9-8C297.9,378.5,295.6,378.3,296.9,383.5z"/>
		<path class="st2" d="M142.4,350.4c-0.4-8.8-1-17.5-1.1-26.3c0-3.7-1.5-4.6-4.9-4.5c-4.8,0.1-9.7,0-15.7-1.4
			c11.6-1.8,22-2.5,32.8-1.3c-0.4,0.8-0.5,1.4-0.7,1.4c-8.5,1.5-8.6,1.5-7.1,10.2c1.2,7.3,2.4,14.6,3.8,21.9c0.3,1.4-0.1,4,2.9,3.2
			c2.1-0.6,4.5-1.3,3.4-4.2c-1.9-5.3,1.7-12.4-5.3-16.2c-1.3-0.7-0.2-2.6,1.2-3.2c2.6-1.2,5.3-1.3,8-0.6c1.9,0.5,2.6,1.9,1.4,3.6
			c-3.8,5.3,0.3,10.1,0.8,15.1c0.3,3.2,2.9,1.2,4,0.8c5.6-1.8,11-3.7,16.8-4.7c7.6-1.4,15.1-1.6,22.6,0.9c0,0.7,0,1.4,0,2.1
			c-3.2-0.3-1.7,2.9-3.1,4.2c-1.6-7.1-7.2-4.3-11.3-4.5c-6.1-0.3-3.9,7.7-7.9,9.2c-3.5-2,2.7-5.5-1.6-6.6c-2.5-0.6-5.5-0.8-8,0.5
			c-1.3,0.7-1.3,2.8-3.9,2.1c-5.1-1.3-9.3,2-13.5,4c-2.7,1.3-7.1,3.2-9.2,2.8c-2.2,0-3.8-0.5-3.7-3.2
			C143.3,353.8,143.7,351.9,142.4,350.4z"/>
		<path class="st19" d="M322.7,401.8c-4.2-15.5-10.2-29.5-27.9-33.8c-3-1.7-5.7-3.9-9.5-3.5l0.1,0.1c-2-2.7-5.4-0.4-7.7-2.1
			c0.7-0.2,1.7-0.1,1.6-1.1c0-0.1-1.1-0.2-1.6-0.2c-13.1,0-26.1,0-39.2,0.1c-4.7-0.8-9.6,1.2-14.2-1.2c0.4-0.4,0.7-0.7,1.1-1.1
			c15.2,0,30.3,0.1,45.5-0.1c16.2-0.3,29.8,7.1,43.6,14.2c3.3,9.8,10.5,17.7,13.2,27.7c0.5,1.7,2.1,1.5,3.4,1.7
			c0.1,0.3,0.2,0.6,0.3,0.9c-3.4,0-7.1-0.4-6,5.1c0.1,0.2,0.1,0.4,0.1,0.6c-2.8,2.7-2.5-0.4-3.1-1.7c0.1-0.9,0.3-1.7,0.4-2.6
			C322.8,403.5,322.7,402.7,322.7,401.8z"/>
		<path class="st2" d="M277.6,362.3c2.3,1.8,5.7-0.6,7.7,2.1c-5.8,0-11.7,0-17.5,0c-1.2-0.3-2.5-2-3.7,0.1
			c-9.5-0.1-19.1-0.9-28.5,0.9c-6.1,0.4-12.3,0.7-18.4,1.1c1-1.8,4.3,0.1,4.7-2.9c5.5-0.9,11.1-0.1,16.5-1.6
			C251.5,362.2,264.6,362.3,277.6,362.3z"/>
		<path class="st2" d="M24.6,458.2c-5.3,1-10.7,2-16,3c-1.3,0.2-3.1,1.6-3.7-1c-0.4-2.1,0.5-3.4,2.6-3.7c5.7-1,11.5-1.9,17.2-2.8
			C24.6,455.1,24.6,456.7,24.6,458.2z"/>
		<path class="st2" d="M24.5,451c-5.4,0.9-10.8,1.9-16.2,2.7c-1.2,0.2-3.1,1.7-3.5-1.1c-0.3-2,0.8-2.9,2.5-3.2
			c5.8-1,11.5-1.9,17.3-2.8C24.6,448,24.5,449.5,24.5,451z"/>
		<path class="st1" d="M142.4,350.4c1.3,1.5,0.9,3.3,0.8,5c-0.1,2.7,1.5,3.2,3.7,3.2c-4.5,1.2-7.4,4.3-9.9,8.1
			c-2.7,4.1-5.9,8-8.9,12c-0.5-0.5-1-1.1-1.6-1.6c4.7-6.5,8.3-13.8,14.6-19.1C143.6,356,141.6,352.9,142.4,350.4z"/>
		<path class="st21" d="M277.6,362.3c-13.1-0.1-26.2-0.1-39.2-0.2c0-0.4,0-0.7,0-1.1c13.1,0,26.1,0,39.2-0.1c0.6,0,1.6,0.1,1.6,0.2
			C279.3,362.3,278.3,362.1,277.6,362.3z"/>
		<path class="st2" d="M205.5,346.9c0-0.7,0-1.4,0-2.1c6.6,0.8,8.4,6.4,10.9,11.1c-0.5,0.4-0.9,0.8-1.4,1.1
			C211.8,353.7,211.1,348.1,205.5,346.9z"/>
		<path class="st22" d="M137.3,323.5c0.2-0.8,0.2-1.9,1.5-1.9c0.1,0,0.4,0.2,0.4,0.4C139.1,323.3,138,323.2,137.3,323.5
			C137.2,323.5,137.3,323.5,137.3,323.5z"/>
		<path class="st2" d="M294.4,414.6c-3.1,0-6.2,0-9.3,0c-1.8,0-3.1-0.3-3-2.5c0-1.6,0.7-2.6,2.4-2.7c6.6-0.2,13.2-0.3,19.7,0.5
			c1.8,0.2,2,1.5,1.9,3c-0.1,1.6-1.2,1.8-2.4,1.8c-3.1,0-6.2,0-9.3,0C294.4,414.7,294.4,414.7,294.4,414.6z"/>
		<path class="st2" d="M254.6,418.7c0.1,1.8,0.1,3.6,0.2,5.5c-6.9,1-13.8,2-20.7,3c-1.6,0.2-3.6,1.5-3.8-1.6
			c-0.2-2.3,0.5-3.5,3.1-3.8C240.4,421,247.5,419.8,254.6,418.7z"/>
		<path class="st2" d="M257.3,423.9c0-1.8,0-3.5,0-5.3c6.2-0.5,12.3-1,18.5-1.4c1.9-0.1,4-0.4,4,2.6c0,2.9-1.9,2.9-3.9,3
			C269.7,423.2,263.5,423.6,257.3,423.9z"/>
		<path class="st2" d="M254.7,411.5c0,1.5,0.1,3.1,0.1,4.6c-7.1,1.1-14.2,2.2-21.2,3.3c-1.5,0.2-3.2,0.7-3.3-1.8
			c-0.1-2,0.8-2.7,2.6-3C240.1,413.6,247.4,412.6,254.7,411.5z"/>
		<path class="st2" d="M295.8,422.3c-4.7,0-7.8,0-10.9,0c-2,0-2.8-1-2.7-2.9c0.1-1.8,1.1-2.4,2.6-2.4c6.4,0.1,12.8,0.1,19.2,0.2
			c1.8,0,2.2,1.1,2.2,2.7c0,1.9-0.6,3-2.7,2.8C300.4,422.5,297.3,422.4,295.8,422.3z"/>
		<path class="st2" d="M295.5,407c-4.5,0-7.8,0-11.1,0c-1.3,0-2.2-0.6-2.2-2.1c0-1.3,0.6-2.4,2-2.4c6.6,0,13.3,0.2,19.9,0.3
			c1.7,0,2.2,1.4,2.1,2.9c-0.1,2-1.7,1.9-3,1.8C300.2,407.3,297.3,407.1,295.5,407z"/>
		<path class="st2" d="M254.7,404.5c0,1.5,0,3,0,4.5c-6.8,1-13.5,2-20.3,2.8c-1.4,0.2-3.5,2-4.1-1.1c-0.6-2.9,1.7-3.2,3.6-3.4
			C240.8,406.3,247.7,405.4,254.7,404.5z"/>
		<path class="st2" d="M163.2,433.6c-1.5,0.1-2.7,0.2-2.9-1.5c-0.2-1.7,0.2-3,2.2-3.4c5.5-1,11-2.2,16.5-3.2
			c1.2-0.2,2.4-0.1,2.6,1.5c0.2,1.4,0.1,2.8-1.7,3.1C174.2,431.3,168.6,432.5,163.2,433.6z"/>
		<path class="st2" d="M223.9,416.1c2-0.1,3.6-0.6,3.8,1.5c0.2,1.8-0.3,2.8-2.3,3.2c-5.5,1-11,2.3-16.5,3.4
			c-1.1,0.2-2.9,1.1-3.2-1.1c-0.2-1.6-0.2-3.1,2-3.5C213.3,418.5,219,417.2,223.9,416.1z"/>
		<path class="st2" d="M257.3,415.9c0-1.4,0-2.9,0-4.3c6.3-1.4,12.7-1.3,19.1-1.6c1.6-0.1,3.2-0.2,3.4,2.1c0.2,2.5-1.3,2.8-3.3,2.9
			C270,415.1,263.6,415.5,257.3,415.9z"/>
		<path class="st2" d="M181.6,419.9c-0.1,2.5-1.5,2.9-3.1,3.2c-5.1,0.9-10.3,2-15.4,3c-1.1,0.2-2.4,0.7-2.8-1
			c-0.2-1.1-0.4-2.7,0.9-3c6.2-1.4,12.5-2.5,18.8-3.6C181.2,418.3,181.7,419.3,181.6,419.9z"/>
		<path class="st2" d="M73.9,449.3c0.2-0.1-1,0.2-1.1-1.6c-0.1-1.5-0.3-3.1,2-3.5c5.2-0.8,10.3-1.7,15.5-2.6c1.4-0.2,2.8-0.4,3,1.6
			c0.1,1.5-0.3,2.8-2,3.1C86.1,447.3,80.7,448.2,73.9,449.3z"/>
		<path class="st2" d="M225.1,408.8c1.3,0,2.4-0.1,2.6,1.6c0.1,1.5-0.2,2.7-1.9,3c-5.9,1.2-11.8,2.5-17.7,3.6
			c-1.2,0.2-2.4,0.2-2.5-1.5c-0.1-1.5,0-2.7,1.9-3.1C213.3,411.4,219.2,410.1,225.1,408.8z"/>
		<path class="st2" d="M257.4,408.7c0-1.4-0.1-2.8-0.1-4.2c6.3-1.6,12.7-1.3,19.1-1.7c1.6-0.1,3.2-0.2,3.3,2.1
			c0,2.1-1.4,2.5-3.1,2.6C270.2,407.9,263.8,408.3,257.4,408.7z"/>
		<path class="st2" d="M98,445.2c-0.3,0-1.6,0.4-1.9-1.3c-0.3-1.7-0.1-3.2,1.9-3.6c5.3-1,10.6-2,16-2.9c1.4-0.2,2.1,0.4,2.2,1.9
			c0.1,2-0.8,2.9-2.5,3.2C108.6,443.4,103.7,444.2,98,445.2z"/>
		<path class="st2" d="M142.5,437.4c-1.9,0-3.5,1.3-3.8-1.1c-0.2-1.9-0.1-3.4,2.4-3.7c4.4-0.6,8.8-1.6,13.2-2.3
			c1.4-0.2,3.3-1,3.7,1.4c0.3,2.2-0.9,3-3,3.3C150.6,435.7,146.2,436.6,142.5,437.4z"/>
		<path class="st2" d="M75.3,441.8c-0.8,0-2.2,0.4-2.4-1.4c-0.1-1.3-0.3-2.8,1.6-3.1c5.3-0.9,10.7-1.8,16-2.7
			c1.5-0.2,2.8-0.2,2.9,1.8c0.1,1.7-1,2.4-2.5,2.7C85.8,440,80.7,440.9,75.3,441.8z"/>
		<path class="st2" d="M116.1,432.7c0.2,1.8-1.2,2.1-2.6,2.3c-5,0.9-9.9,1.7-14.9,2.7c-1.2,0.2-2.4,0.5-2.6-1.2
			c-0.2-1.4,0-2.8,1.7-3.2c5.5-1.1,11-2.1,16.6-3C115.9,430.1,116.2,431.3,116.1,432.7z"/>
		<path class="st2" d="M50.1,445.5c0.1-2.2,0.1-4.2,3.1-4.6c4.6-0.6,9.1-1.6,13.7-2.3c1.4-0.2,3.2-0.9,3.4,1.7
			c0.1,2-0.9,2.6-2.8,2.8c-5.7,0.8-11.5,1.9-17.2,2.8C50.5,445.7,50.4,445.5,50.1,445.5z"/>
		<path class="st2" d="M141.7,430.1c-1.7,0.1-2.9,0.2-3-1.5c-0.1-1.5,0.2-2.7,2-3c4.8-0.8,9.6-1.7,14.4-2.5c1.1-0.2,2.5-0.5,2.9,1.1
			c0.4,1.5-0.1,2.9-1.7,3.2C151.2,428.4,146.2,429.3,141.7,430.1z"/>
		<path class="st2" d="M203.1,423.3c0.3,2.1-1.3,2.5-2.8,2.9c-4.4,0.9-8.7,1.8-13.1,2.7c-1.3,0.2-2.8,0.5-3-1.6
			c-0.1-1.4,0-2.7,1.8-3.1c4.9-1,9.9-2.1,14.8-3.2C202.6,420.6,203.2,421.5,203.1,423.3z"/>
		<path class="st2" d="M203.1,416.2c0.1,1.5-0.7,2-2.1,2.3c-4.8,1-9.5,2-14.3,3c-1.2,0.3-2.4,0.4-2.6-1.3c-0.1-1.4-0.1-2.7,1.8-3.1
			c5-1,9.9-2.1,14.9-3.2C202.7,413.5,203.2,414.6,203.1,416.2z"/>
		<path class="st2" d="M337,420.6c0,1.7,0,3.3,0,5c-4.4-0.5-8.8-0.9-13.2-1.4c-1.4-0.2-3.5,0.3-3.1-2.2c0.3-2,1.1-3.8,3.8-3.3
			C328.6,419.3,332.8,420,337,420.6z"/>
		<path class="st2" d="M120.1,441.4c-1,0.3-1.5-0.5-1.6-1.9c0-1.4,0.1-2.8,1.8-3.1c4.6-0.9,9.1-1.7,13.7-2.5
			c1.4-0.2,2.2,0.3,2.2,1.8c0,1.5-0.1,2.7-1.9,3C129.8,439.6,125.2,440.4,120.1,441.4z"/>
		<path class="st2" d="M122.5,433.6c-2.5,0.3-3.9,0.4-4-1.6c-0.1-1.6,0.5-2.6,2.2-2.9c4.2-0.7,8.4-1.5,12.6-2.2
			c1.4-0.2,2.8-0.4,2.8,1.7c0,1.5-0.3,2.5-2.1,2.8C129.9,432.1,125.7,433,122.5,433.6z"/>
		<path class="st2" d="M336.8,412.8c0.4,1.8,0.5,3.6-0.1,5.3c-4.6-0.7-9.2-1.5-13.8-2.2c0-0.6,0.1-1.2,0.1-1.7c1-2.2,2.5-3.1,5-2.6
			C331,412.2,334,412.4,336.8,412.8z"/>
		<path class="st2" d="M322.8,404.4c-0.1,0.9-0.3,1.7-0.4,2.6c-4.1,3.1-8.4,0.2-12.6,0.5c-1.3,0.1-1.2-1.7-1.1-2.9
			c0.2-1.6,1.5-1.6,2.6-1.5C315.1,403.6,319,404,322.8,404.4z"/>
		<path class="st2" d="M320.4,414.6c-3.3,2.6-6.7,0-10.1,0.3c-1.5,0.1-1.7-1.2-1.7-2.5c0-1.8,1-2.4,2.6-2.2
			c3.5,0.4,6.9,0.8,10.4,1.2C321.1,412.5,320.8,413.5,320.4,414.6z"/>
		<path class="st2" d="M313.3,423.1c-1.9-0.4-4.9,1-4.8-3c0-2.5,1.4-3.1,3.4-2.6c2.3,0.7,6-1.1,6.3,3
			C318.4,423.8,315.5,423.1,313.3,423.1z"/>
		<path class="st2" d="M325.5,408.7c0.1-0.2,0-0.4-0.1-0.6c1.9-5.5,6.1-2.6,9.5-2.5c3.4,0.1,2.1,2.9,2.1,4.7
			C333.2,409.8,329.3,409.3,325.5,408.7z"/>
		<path class="st19" d="M320.4,414.6c0.4-1.1,0.8-2.1,1.1-3.2c1.3,0.5,1.3,1.7,1.6,2.8c0,0.6-0.1,1.2-0.1,1.7
			C320.8,418,320.8,416,320.4,414.6z"/>
		<path class="st4" d="M417,463.3c-0.5,0.2-1,0.4-1.5,0.6C416,463.7,416.5,463.5,417,463.3z"/>
		<path class="st2" d="M366.2,426.7c0.4,3.7-0.4,5.3-4.7,4.1c-6.5-1.7-13.2-2.7-19.8-4c-3.4-0.9-1.7-3.7-2.1-5.7
			c8.7,0.6,16.9,3.5,25.5,4.7C365.4,426.1,365.8,426.4,366.2,426.7z"/>
		<path class="st2" d="M339.5,418.2c0-1.4,0-2.8,0-4.2c8.8,0,17,3.4,25.6,4.5c1.4,1.8,1.8,3.7,0.1,5.6
			C356.9,421,348,420.3,339.5,418.2z"/>
		<path class="st2" d="M339.5,410.9c-0.6-3.1,0.2-4.8,3.8-4c6.6,1.5,13.1,3,19.7,4.4c3.5,0.7,4.1,2.4,2.1,5.2
			C356.6,414.6,348.1,412.7,339.5,410.9z"/>
		<path class="st2" d="M378.3,420.1c2.5,0,5.1,0,7.6,0c1.8,0,2.9,0.6,2.9,2.7c0,2.1-1.1,2.6-3,2.5c-4.7-0.2-9.4-0.3-14.1-0.4
			c-2,0-3.3-0.6-3.2-3c0.1-2.4,1.7-2.2,3.2-2.2c2.1,0,4.3,0,6.4,0C378.3,419.8,378.3,419.9,378.3,420.1z"/>
		<path class="st2" d="M378.7,417.4c-2.5,0-5.1,0-7.6,0c-1.6,0-2.5-0.5-2.5-2.4c0-1.8,0.9-2.4,2.5-2.4c5.1,0.1,10.1,0.3,15.2,0.4
			c1.6,0,2.5,0.8,2.5,2.5c0,2.2-1.3,2.5-3,2.4c-2.3-0.2-4.7-0.3-7-0.4C378.7,417.5,378.7,417.4,378.7,417.4z"/>
		<path class="st21" d="M339.5,418.2c8.5,2.2,17.4,2.9,25.7,5.9c-0.1,0.6-0.2,1.2-0.2,1.7c-8.6-1.2-16.8-4.1-25.5-4.7
			C339.5,420.1,339.5,419.1,339.5,418.2z"/>
		<path class="st21" d="M339.5,410.9c8.5,1.8,17.1,3.7,25.6,5.5c0,0.7,0,1.4-0.1,2c-8.6-1.1-16.8-4.5-25.6-4.5
			C339.5,412.9,339.5,411.9,339.5,410.9z"/>
		<path class="st18" d="M205.5,346.9c5.6,1.1,6.3,6.8,9.5,10.2c3.4,6.7,3.3,6.7-4.6,7.4c-27.1,2.4-53.4,8.5-79.5,16
			c-2.9,0.8-2.9,0.9-2.7-1.8c3-4,6.1-7.9,8.9-12c2.5-3.8,5.3-6.9,9.9-8.1c2.1,0.4,6.4-1.5,9.2-2.8c4.3-2,8.5-5.4,13.5-4
			c2.6,0.7,2.6-1.4,3.9-2.1c2.5-1.4,5.5-1.2,8-0.5c4.4,1.1-1.9,4.7,1.6,6.6c4-1.5,1.8-9.5,7.9-9.2c4.2,0.2,9.8-2.7,11.3,4.5
			C203.7,349.8,202.2,346.7,205.5,346.9z"/>
		<path class="st18" d="M66.9,408c0.2-0.3,0.4-0.4,0.7-0.3c1.7,0.1,3.5,0.6,4-1.9c0.4-0.1,0.8-0.2,1.1-0.3c2.1-0.5,5.1,1.4,5.9-2.4
			c0.1-0.2,0.3-0.3,0.5-0.2c1.7,0.1,3.7,0.7,4.2-1.9c0.4-0.1,0.8-0.2,1.1-0.3c4.4,1.1,8.3,0.9,10.4-3.9c0,0-0.1,0.1-0.1,0.1
			c0.5-0.2,1-0.5,1.5-0.7c27.1-10.3,54.8-18.4,83.4-23.5c-2.9,3.3-6.1,6.5-8.7,10c-1.3,1.8-1.3,4.6-4.6,3.8c0.3-0.6,0.5-1.2,0.8-1.8
			c0.2-0.4,0.4-0.8,0.5-1.2c-0.4,0.2-0.8,0.4-1.2,0.5c-2.6,1.6-4.9,3.6-6.7,6.1c-3.8,3.7-9,3.2-13.6,4.6c-0.4,0.1-0.8,0-1.2,0.1
			c-2.4,0.5,1.3-5-2.6-2.7c-1.5,0.9-2.4,3-3.9,3.5c-3.6,1.3-7.4,2-11.8,3c1.1-2.3,1.8-3.8,2.8-5.8c-2.1-0.1-2.9,1.1-3.6,2
			c-4.4,6.2-10.9,6.9-17.6,6.5c-3.2-0.2-4.8,2.7-7.8,2.8c-2.9,0.1-5.8,0.9-8.6,1.4c-1.7,0.4-3.2-1.2-4.9-0.3
			c-2.4,0.2-3.7,3.4-6.5,2.7c-2.2,0.3-5.1-1.7-6.4,1.9c-1.1,0.2-2.1,0.3-3.2,0.5C69.2,410.1,67.2,410.5,66.9,408z"/>
		<path class="st19" d="M166.4,386.6c3.3,0.8,3.3-2,4.6-3.8c2.6-3.6,5.8-6.7,8.7-10c0.8-0.1,1.5-0.2,2.3-0.4
			c0.3,1.4-0.5,3.1,1.9,4.9c-0.3-5.6,3.5-4.6,6.6-4.6c1.7,0,3.1-0.3,3.3-2.3c1.2-0.3,2.4-0.6,3.6-0.9c4.4,0.5,9,3.1,12.8-1.6
			c0.2-0.3,0.5-0.3,0.8-0.1c7.6,0,15.2,0.1,22.8,0.1c1.8,0,4.1,0.6,4.6-2.2c3.9,1.7,7.8-0.6,11.7-0.1c0.3,6.1-3.4,8.2-8.7,9.3
			c-3.9,0.8-5.5-1.2-6.6-4.4c-0.1,2.3-4.2,1.9-2.4,4.7c-4.6,5.7-11.7,4.8-17.6,7.1c-3.7,1.4-6.9-3.2-11.1,1
			c-2.9,2.8-9.1,2.4-13.8,3.3c-1.5,0.3-3.1,0.2-4.6,0.2c1.2-3,4.7-4.6,4.9-8.2c0,0-0.1,0.1-0.1,0.1c0.3-0.1,0.8-0.1,0.9-0.2
			c0.2-0.7-0.2-0.9-0.8-0.9c-4.4-0.4-5.6,2.3-5.8,5.9c-0.3,0.4-0.7,0.7-1,1.1c-3.6,0-7.8-1.1-8.4,4.5c-1.2,0.3-2.4,0.6-3.7,1
			c-1.6-1.8-4.6,0.2-5.9-2.3C165.7,387.3,166,386.9,166.4,386.6z"/>
		<path class="st19" d="M59.7,418c0.5-3,3.2-2.5,5-3c5-1.3,10.1-2.3,15.8-3.6c-0.9,3-1.6,5.4-2.6,8.5c3.4-2,3.5-5.4,5.5-7.4
			c1.4-0.1,2.2-0.7,2.3-2.1c1-0.1,2-0.3,3-0.4c2.7,0.1,5.5,0.1,8.2,0.2c2.4,0,3.3,1.4,2.5,3.4c-0.7,1.9-4,4.1-0.2,5.5
			c3.5,1.3,2.5-3.1,4.1-4.5c1.6-1.2,1-3.2,1-4.9c1.4-3.3,11.8-8.2,14.2-6.5c2,1.4-0.3,3-0.2,4.6c-3.8,1.4-1.6,4.7-2.1,7.1
			c-0.4,1.6,0.5,4.5-1.8,4.3c-5.4-0.5-9.8,4.3-15.2,2.4c-4.2-1.5-1.3,1.8-1.9,2.7l-0.3,0.2c0,0-0.4-0.1-0.4-0.1
			c-3.6,1-8.3-2.9-10.9,2.4c0,0,0-0.1,0-0.1c-3.1-1.1-7,1.8-9.6-2c-0.4-0.6-1.5-0.1-1.9,0.6c-3.7,6.1-10.5,4.3-15.9,5.9
			c-2,0.6-3.2-0.1-1.7-2.9C58.4,425.2,61,422.1,59.7,418z"/>
		<path class="st18" d="M296.9,383.5c-1.3-5.2,1-5,4.3-4.8c5.7,0.3,9.8,2.2,11.9,8c1.2,3.4,3.3,6.5,5.3,10.4
			c-14-1.5-27.3-3-40.6-4.3c-2.6-0.2-3-1.4-3.3-3.7c-1.5-13.2-1.6-13.1,11.8-12.1C290.7,377.5,295.1,377.3,296.9,383.5z"/>
		<path class="st18" d="M144.3,398.2c3.7-0.9,7.4-1.8,10.8-2.7c1.1,0.9,0.9,1.7,0.7,2.4c-0.4,1-1.4,2.2,0.3,2.8
			c1.1,0.4,1.9-0.7,2-1.6c0.7-4.3,3.7-5.4,7.4-5.8c4.5,0.4,8.8-3.2,13.5-0.8c-0.4,1.6-0.7,3.3-1.3,4.9c-0.7,2,0.2,2.4,1.9,2.2
			c-0.2,2.9,0.7,4.2,3.8,5.3c4.8,1.7,8.2-3.1,12.8-1.8c4.1,1.1,6.2-1.2,5.7-5.6c2.3-1.5,1.6-4.6,3.3-6.4c0.1,2.3,0.9,4.8-0.5,6.8
			c-2.2,3.3,0.3,2.9,2.2,3c4.2,0.1,8.5,0.1,12.7,0.2c-17.8,3.1-35.5,6.2-53.3,9.2c-5,0.9-10,1.6-14.9,2.4c0.2-1.6-0.5-3.3,1.4-4.7
			c3.3-2.4,1-5.8,0.4-8.1c-0.7-2.4-4-1.9-5.9-0.5C145.3,400.7,144.6,400.2,144.3,398.2z"/>
		<path class="st19" d="M219.7,401c-4.2-0.1-8.5-0.1-12.7-0.2c-1.9-0.1-4.4,0.4-2.2-3c1.3-2,0.6-4.5,0.5-6.8
			c0.4-1.3,0.4-2.8,1.2-3.8c2.1-2.5,16.9-4,20-2.2c0.3,0.2,0.1,1.1,0.1,1.6c-4.8-0.3-2.6,2.9-2.3,4.8c0.2,1.3-1.6,4.6,2.4,3.2
			c0.4-0.3,0.8-0.7,1.2-1c1.1-0.1,3.1-0.1,2.9-1.2c-0.7-4.8,2.3-7.7,4.9-10.9c0,0,0.1,0.1,0.1,0.1c1.7,0.1,4.5-0.5,5,0.4
			c1.7,2.7,7.8-0.6,6.5,4c-1,3.7,0.6,6.8,0.3,10.1l-0.3,0.2c0,0-0.2-0.2-0.2-0.2c-3.7,0.8-8.2-2.4-11.2,2.1c-0.7,0.1-1.3,0.2-2,0.2
			c-2.5-0.2-5-0.9-7.4-0.4C224.2,398.6,220.6,396.7,219.7,401L219.7,401z"/>
		<path class="st19" d="M120.8,408.8c2.1-7.1,5.8-9.1,16.1-8.7c0.6,2.8-2.1,5.2-0.8,8.1c0.3,2.2-2.9,1.5-3,3.6
			c1.4,0.2,2.8,0.5,4.2,0.7c0,0,0,0,0,0c-0.2,2-1.6,2.3-3.2,2.3c-1.7,0-3.6-0.1-3.8,2.3l-0.3,0.2c0,0-0.4-0.1-0.4-0.1
			c-2.9,0.5-6.5-2-8.6,2c-0.8,0.1-1.5,0.2-2.3,0.3C117.3,415.7,121.3,412.7,120.8,408.8z"/>
		<path class="st19" d="M202,397.4c0.5,4.3-1.6,6.7-5.7,5.6c-4.7-1.3-8,3.5-12.8,1.8c-3.1-1.1-4.1-2.4-3.8-5.3
			c0.2-0.4,0.4-0.8,0.6-1.2c2-0.5,1.7-2.1,1.7-3.5c0-1,0-2,1.1-2.6c1.1,2.2,2.4,0.8,3.7,0.3c2.4,0,4.8,0.3,7-1.2
			c1.8-0.2,4.2,0.9,4.7-2.2c1.4,0.2,2.7,0.5,1.7,2.4C198.9,394.2,200.6,395.8,202,397.4z"/>
		<path class="st18" d="M232.4,375.1c-1.8-2.7,2.4-2.4,2.4-4.7c1.1,3.3,2.7,5.3,6.6,4.4c5.2-1.1,9-3.2,8.7-9.3c4.7,0,9.5,0,14.2-0.1
			c4.5,7.6,4.5,7.6-3.9,9.2c-1.1,0.2-2.4,0.1-3.4,0.5c-4.4,1.7-5.5-0.1-4.9-4.8c-2.4,8.3-9.5,6.8-15.1,8.1
			C234.5,379.1,232.3,378.5,232.4,375.1z"/>
		<path class="st19" d="M249.7,391.6c0.1-0.9,0.3-1.7,0.4-2.6c2.1-0.2,2.5-1.8,2.3-3.4c-0.8-5.1,1.7-6.6,6.3-6c1.5,0.2,3.1,0,4.7,0
			c2.4,0.1,5.7-0.9,5.3,3.3c-0.3,3.6-1.2,7.4-5.4,8.3c-2.6,0.6-5.2,0.4-7.7,2C253.9,394.4,251,394.5,249.7,391.6z"/>
		<path class="st18" d="M249.7,391.6c1.3,2.9,4.2,2.8,6,1.7c2.5-1.6,5.1-1.5,7.7-2c4.2-0.9,5.1-4.7,5.4-8.3c0.4-4.1-3-3.1-5.3-3.3
			c-1.6-0.1-3.1,0.2-4.7,0c-4.7-0.6-7.1,0.9-6.3,6c0.2,1.6-0.2,3.2-2.3,3.4c-0.1-3.6-0.7-8.6,2.4-10c4.6-2.1,10.1-2.1,15.3-2.8
			c1.4-0.2,1.5,1.5,1.8,2.6c3.1,11.2,1.2,14.2-9.9,15.9c-4,0.6-8.1,1-12.1,1.5c0.2-3.3-1.4-6.3-0.3-10.1c1.2-4.6-4.8-1.3-6.5-4
			c-0.6-0.9-3.3-0.3-5-0.4c0.3-0.2,0.6-0.7,0.9-0.7c3.8,0,8.3-3.4,11.1-0.7C250.4,382.9,247.8,388,249.7,391.6z"/>
		<path class="st19" d="M144.3,398.2c0.4,2.1,1,2.5,3,1.2c1.9-1.3,5.2-1.9,5.9,0.5c0.7,2.4,3,5.8-0.4,8.1c-1.9,1.3-1.2,3-1.4,4.7
			c0,0-0.3,0.2-0.3,0.2s-0.3-0.2-0.3-0.2c-4.5,0-9-0.1-13.5-0.1c0,0,0,0,0,0c0-1.5,0-3.1,0-4.6c0,0,0,0,0,0c2.7-0.4,2.3-2.3,2.1-4.1
			c-0.1-0.3-0.1-0.5,0.2-0.6c3-0.3,2.1-2.7,2.3-4.5C142.8,398.5,143.5,398.3,144.3,398.2z"/>
		<path class="st19" d="M43.4,436l-0.4,0.2c0,0-0.4-0.1-0.4-0.1c-2.9,0.2-4.2-1.3-4.1-4.1c0.3-3.5,1.6-6.8,2.7-10.1
			c3.3-0.4,7,1.1,10-1.7c0.9-0.8,2.2,0.2,3.1,1c0.8,0.8,0.7,1.8,0,2.6c-2.8,3-1.2,6.6-1.4,10c0,0,0-0.1,0-0.1
			C49.8,434.6,45.7,431.3,43.4,436z"/>
		<path class="st18" d="M53,433.9c0.2-3.4-1.4-7,1.4-10c0.7-0.8,0.8-1.8,0-2.6c-0.8-0.8-2.2-1.8-3.1-1c-3.1,2.8-6.7,1.3-10,1.7
			c5.4-2.8,10.7-6,17.1-2.9c0.2,0.1,0.8-0.7,1.3-1c1.3,4.1-1.4,7.1-3,10.3c-1.4,2.8-0.3,3.5,1.7,2.9c5.4-1.6,12.1,0.2,15.9-5.9
			c0.5-0.7,1.5-1.2,1.9-0.6c2.6,3.8,6.5,1,9.6,2C75.2,430.4,64.4,433.7,53,433.9z"/>
		<path class="st20" d="M267.8,364.5c5.8,0,11.7,0,17.5,0c0,0-0.1-0.1-0.1-0.1c1.7,2,4.1,2.9,6.6,3.7c3.9,2.4,7.9,4.8,11.8,7.2
			c-0.1,0.5-0.1,1-0.2,1.5c-9.9-3.1-20.2-1.3-30.1-4.1c2.9,0,5.8,0,8.7-0.1c1.6,0,3.6-0.3,2.9-2.4c-1.1-3.5-3.6-5-7.5-4.7
			c-3.2,0.3-7-0.6-6.2,4.7C269.3,368.8,268.1,366.9,267.8,364.5z"/>
		<path class="st18" d="M271.2,370.3c-0.8-5.4,3-4.4,6.2-4.7c3.9-0.4,6.4,1.2,7.5,4.7c0.7,2.1-1.3,2.4-2.9,2.4c-2.9,0-5.8,0-8.7,0.1
			C272.7,371.9,272,371.1,271.2,370.3z"/>
		<path class="st18" d="M120.8,408.8c0.4,3.9-3.6,6.9-2.2,11c-6.9,2.2-14,3.7-21.2,4.6c0.6-0.9-2.4-4.2,1.9-2.7
			c5.4,1.9,9.8-2.9,15.2-2.4c2.3,0.2,1.4-2.7,1.8-4.3c0.6-2.4-1.7-5.7,2.1-7.1c-0.1,1-0.5,2.8-0.1,3
			C120.2,411.8,119.6,409.1,120.8,408.8z"/>
		<path class="st18" d="M104.4,409.8c0.1,1.7,0.6,3.7-1,4.9c-1.7,1.3-0.6,5.8-4.1,4.5c-3.8-1.4-0.5-3.6,0.2-5.5
			c0.8-2.1-0.2-3.4-2.5-3.4c-2.7-0.1-5.5-0.1-8.2-0.2c3.1-1.6,6.6-1.7,9.9-2.5c2.3-0.6,4.5-1.5,3,2.5
			C101.3,411.1,101.8,411.3,104.4,409.8z"/>
		<path class="st18" d="M238.4,365.7c-0.6,2.8-2.8,2.2-4.6,2.2c-7.6,0-15.2-0.1-22.8-0.1c1.9-1.3,4.2-0.7,6.2-1.3
			c6.1-0.4,12.3-0.7,18.4-1.1C236.5,365.6,237.5,365.6,238.4,365.7z"/>
		<path class="st18" d="M137.4,412.6c4.5,0,9,0.1,13.5,0.1c-6.7,2.3-13.6,3.6-20.6,4.5c0.3-2.4,2.1-2.3,3.8-2.3
			C135.8,414.9,137.2,414.6,137.4,412.6z"/>
		<path class="st21" d="M238.4,365.7c-0.9-0.1-1.8-0.2-2.8-0.3c9.5-1.8,19-1,28.5-0.9c0.1,0.3,0.1,0.7,0.2,1c-4.7,0-9.5,0-14.2,0.1
			C246.2,365.1,242.3,367.5,238.4,365.7z"/>
		<path class="st1" d="M179,392.5c-4.7-2.4-8.9,1.2-13.5,0.8c0-0.6,0.1-1.2,0.1-1.8c1.9-0.5,3.8-1,5.7-1.6c1.2-0.3,2.4-0.6,3.7-1
			c0.8,0.1,1.6,0.1,2.4,0.2C177.5,390.4,180.6,390.3,179,392.5z"/>
		<path class="st18" d="M235.8,381.7c-2.6,3.2-5.6,6.1-4.9,10.9c0.2,1.1-1.8,1.1-2.9,1.2c0.5-2.4,1.1-4.8,1.5-7.3
			C230,382.9,232,381.2,235.8,381.7z"/>
		<path class="st18" d="M193.7,370.3c-0.2,2-1.6,2.3-3.3,2.3c-3.1,0-6.9-1-6.6,4.6c-2.4-1.8-1.6-3.5-1.9-4.9
			C185.8,371.1,189.7,370.3,193.7,370.3z"/>
		<path class="st18" d="M177.3,389.2c-0.8-0.1-1.6-0.1-2.4-0.2c0.6-5.6,4.8-4.5,8.4-4.5c-0.1,0.3-0.2,0.7-0.2,1.1
			C181.2,386.7,179.9,388.9,177.3,389.2z"/>
		<path class="st18" d="M219.7,401c0.9-4.3,4.6-2.4,7-2.8c2.3-0.4,4.9,0.2,7.4,0.4C229.3,400.1,224.5,400.7,219.7,401z"/>
		<path class="st20" d="M193.7,391.4c-2.2,1.4-4.6,1.2-7,1.2c-0.8-1.3-2.1-1.1-3.4-1.1c3.2-2.1,6.8-2.3,10.4-2.4
			C193.7,389.8,193.7,390.6,193.7,391.4z"/>
		<path class="st18" d="M226.7,394.8c-4,1.4-2.2-1.9-2.4-3.2c-0.3-2-2.5-5.2,2.3-4.8C226.6,389.4,226.7,392.1,226.7,394.8z"/>
		<path class="st18" d="M210.2,367.9c-3.8,4.6-8.4,2-12.8,1.6C201.6,368.9,205.8,367.6,210.2,367.9z"/>
		<path class="st20" d="M94.9,396.9c-2.1,4.9-6,5.1-10.4,3.9C87.7,398.8,91.3,397.8,94.9,396.9z"/>
		<path class="st1" d="M183.1,385.5c0-0.4,0.1-0.7,0.2-1.1c0.3-0.4,0.7-0.7,1-1.1c1.9-1.6,3.9-3.3,5.8-4.9c-0.2,3.6-3.7,5.3-4.9,8.2
			C184.6,386.3,183.9,385.9,183.1,385.5z"/>
		<path class="st3" d="M166.4,386.6c-0.3,0.3-0.6,0.7-1,1c-1.1,0.9-2.2,1.7-3.2,2.6c-0.8,0-1.6,0-2.4,0c1.8-2.5,4.1-4.5,6.7-6.1
			c0.2,0.2,0.4,0.4,0.7,0.7C166.9,385.4,166.6,386,166.4,386.6z"/>
		<path class="st18" d="M85.8,426.8c2.7-5.2,7.3-1.4,10.9-2.4C93.3,425.9,89.6,426.7,85.8,426.8z"/>
		<path class="st20" d="M66.9,408c0.2,2.5,2.3,2.1,3.9,2.3c-2.5,0.8-5,1.5-8.1,2.5C63.5,409.9,64.9,408.7,66.9,408z"/>
		<path class="st18" d="M236,398.3c3-4.5,7.5-1.3,11.2-2.1C243.7,397.9,239.8,398,236,398.3z"/>
		<path class="st1" d="M291.9,368.1c-2.4-0.8-4.8-1.7-6.6-3.7c3.7-0.4,6.5,1.8,9.5,3.5C293.8,368,292.8,368.1,291.9,368.1z"/>
		<path class="st18" d="M43.4,436c2.3-4.7,6.4-1.4,9.5-2.2C50,435.3,46.7,435.8,43.4,436z"/>
		<path class="st18" d="M162.2,390.2c1.1-0.9,2.2-1.7,3.2-2.6c1.3,2.5,4.3,0.5,5.9,2.3c-1.9,0.5-3.8,1-5.7,1.6
			C164.5,390.9,162.5,392.7,162.2,390.2z"/>
		<path class="st18" d="M137.4,407.9c0,1.5,0,3.1,0,4.6c-1.4-0.2-2.8-0.5-4.2-0.7c0.1-2.1,3.3-1.4,3-3.6
			C136.6,408.1,137,408,137.4,407.9z"/>
		<path class="st18" d="M120.9,419.4c2.1-4,5.7-1.5,8.6-2C126.9,418.8,123.9,419,120.9,419.4z"/>
		<path class="st18" d="M193.7,391.4c0-0.8,0-1.6,0-2.4c1.6,0.1,3.1,0.1,4.7,0.2C197.9,392.3,195.5,391.2,193.7,391.4z"/>
		<path class="st20" d="M78.7,403.1c-0.8,3.8-3.8,1.9-5.9,2.4C74.5,404.1,76.5,403.4,78.7,403.1z"/>
		<path class="st18" d="M38.6,432c-0.1,2.9,1.1,4.3,4.1,4.1c-1.7,1-3.8,2-5.1,0.4C36.6,435.5,37.4,433.4,38.6,432z"/>
		<path class="st20" d="M74,409.9c1.3-3.5,4.2-1.5,6.4-1.9C78.5,409.4,76.1,409.3,74,409.9z"/>
		<path class="st18" d="M142.1,398.7c-0.2,1.8,0.6,4.1-2.3,4.5C140.1,401.4,140.3,399.7,142.1,398.7z"/>
		<path class="st20" d="M86.9,405.4c1.7-0.9,3.3,0.6,4.9,0.3C90.1,406.6,88.4,407.6,86.9,405.4z"/>
		<path class="st18" d="M183.3,391.4c1.2,0,2.6-0.2,3.4,1.1c-1.3,0.5-2.6,1.8-3.7-0.3C183,391.9,183.1,391.7,183.3,391.4z"/>
		<path class="st20" d="M71.6,405.8c-0.4,2.5-2.3,2-4,1.9C69,407.1,70.3,406.4,71.6,405.8z"/>
		<path class="st18" d="M139.6,403.8c0.1,1.8,0.5,3.7-2.1,4.1C138.1,406.5,138.8,405.1,139.6,403.8z"/>
		<path class="st20" d="M83.4,401.1c-0.5,2.6-2.5,2-4.2,1.9C80.6,402.3,82,401.7,83.4,401.1z"/>
		<path class="st18" d="M181.9,394.8c0,1.5,0.3,3.1-1.7,3.5C180.8,397.2,181.4,396,181.9,394.8z"/>
		<path class="st18" d="M85.7,410.5c-0.1,1.4-0.9,2.1-2.3,2.1C83.6,411.2,84.3,410.4,85.7,410.5z"/>
		<path class="st20" d="M96.3,396.3c-0.5,0.2-1,0.5-1.5,0.7C95.3,396.7,95.8,396.5,96.3,396.3z"/>
		<path class="st3" d="M166.5,384.1c0.4-0.2,0.8-0.4,1.2-0.5c-0.2,0.4-0.4,0.8-0.5,1.2C166.9,384.6,166.7,384.3,166.5,384.1z"/>
		<path class="st18" d="M190.2,378.4c-1.9,1.6-3.9,3.3-5.8,4.9c0.3-3.6,1.5-6.3,5.8-5.9c-0.1,0.4-0.1,0.8-0.1,1.1L190.2,378.4z"/>
		<path class="st1" d="M190.2,378.6c0-0.4,0-0.8,0.1-1.1c0.6,0,1,0.3,0.8,0.9C191,378.5,190.5,378.5,190.2,378.6z"/>
	</g>
</g>
</svg>
